<?xml version="1.0" standalone="no"?>
<!DOCTYPE svg PUBLIC "-//W3C//DTD SVG 1.1//EN" "http://www.w3.org/Graphics/SVG/1.1/DTD/svg11.dtd" >
<svg xmlns="http://www.w3.org/2000/svg" xmlns:xlink="http://www.w3.org/1999/xlink" version="1.1">
<metadata></metadata>
<defs>
<font id="pt_serifregular" horiz-adv-x="1134" >
<font-face units-per-em="2048" ascent="1593" descent="-455" />
<missing-glyph horiz-adv-x="516" />
<glyph unicode="&#xfb01;" horiz-adv-x="1277" d="M66 959v55q74 47 162 70v75q0 132 42.5 218t110.5 136t156.5 69.5t178.5 19.5q42 0 94 -5.5t102.5 -15.5t92 -22.5t62.5 -26.5q-6 -71 -19 -111.5t-28 -87.5h-63l-177 183q-61 0 -124.5 -12.5t-116.5 -48.5t-86.5 -104.5t-33.5 -179.5v-106h224q44 0 92.5 1t96.5 4 t91.5 8.5t80.5 12.5h53v-987q42 -10 76 -21.5t64 -29.5v-53h-473v53q65 36 140 51v855h-445v-855q55 -4 105.5 -17.5t95.5 -33.5v-53h-533v53q66 39 141 51v855h-162z" />
<glyph unicode="&#xfb02;" horiz-adv-x="1303" d="M66 959v55q74 47 162 70v75q0 132 32 218t88.5 136t132 69.5t165.5 19.5q19 0 45.5 -3.5t54 -9.5t53.5 -14t44 -14q39 10 81.5 23t85.5 18h53v-1498q36 -8 80 -20.5t80 -30.5v-53h-490v53q35 17 68.5 31t70.5 20v1349q-47 26 -98.5 43.5t-100.5 17.5q-57 0 -104 -12.5 t-80 -50t-51.5 -104.5t-18.5 -178v-104h246v-106h-246v-855q110 -12 201 -51v-53h-533v53q66 39 141 51v855h-162z" />
<glyph horiz-adv-x="0" />
<glyph unicode="&#xd;" horiz-adv-x="516" />
<glyph unicode=" "  horiz-adv-x="516" />
<glyph unicode="&#x09;" horiz-adv-x="516" />
<glyph unicode="&#xa0;" horiz-adv-x="516" />
<glyph unicode="!" horiz-adv-x="695" d="M254 122q0 63 40.5 101.5t103.5 38.5q66 0 106.5 -38.5t40.5 -101.5q0 -62 -40.5 -100.5t-106.5 -38.5q-63 0 -103.5 38.5t-40.5 100.5zM303 839v631q46 23 95 23t96 -23v-631l-68 -375h-56z" />
<glyph unicode="&#x22;" horiz-adv-x="809" d="M185 1427q11 28 33 46t59 18q65 0 89 -64l-68 -354h-42zM441 1427q11 28 33 46t59 18q65 0 89 -64l-68 -354h-42z" />
<glyph unicode="#" d="M71 496l29 98h162l77 320h-162l30 98h155l85 356h111l-83 -356h303l84 356h111l-85 -356h171l-37 -98h-158l-76 -320h164l-36 -98h-150l-89 -372h-110l89 372h-302l-90 -372h-113l89 372h-169zM374 594h303l77 320h-303z" />
<glyph unicode="$" d="M110 1136q0 77 30.5 142.5t82.5 117t125.5 82t160.5 36.5v104h111v-104q102 -6 178 -27.5t131 -47.5q-2 -68 -18.5 -112.5t-32.5 -78.5h-55l-107 145q-24 4 -45 6.5t-51 4.5v-569l61 -28q66 -32 129.5 -67t112 -83t78.5 -116t30 -169q0 -156 -109 -262t-302 -129v-130 h-111v123q-64 0 -123.5 10t-109.5 26t-89.5 34.5t-60.5 38.5q2 21 4 56.5t6 72t9.5 70t14.5 53.5h53l128 -207q28 -17 72.5 -29t95.5 -14v608q-9 0 -13 4l-68 31q-61 28 -118.5 62.5t-101.5 82t-71 111.5t-27 152zM303 1173q0 -57 16 -100.5t43.5 -77.5t64.5 -61t82 -50v520 q-96 -10 -151 -75.5t-55 -155.5zM620 96q96 26 157.5 93t61.5 169q0 110 -64 175t-155 108v-545z" />
<glyph unicode="%" horiz-adv-x="1718" d="M111 1154q0 84 27.5 150t78 113.5t117.5 73t147 25.5q81 0 149 -22t117.5 -67t77 -113t27.5 -160q0 -83 -27.5 -150t-77 -114t-117.5 -72.5t-149 -25.5t-147.5 22.5t-117 67.5t-78 113t-27.5 159zM195 53l1243 1459l74 -65l-1246 -1462zM289 1154q0 -128 49 -205t143 -77 q191 0 192 282q0 281 -192 281t-192 -281zM863 339q0 84 27.5 150t78 113.5t117.5 73t147 25.5q81 0 149 -22t117.5 -67t77 -113t27.5 -160q0 -83 -27.5 -150t-77 -114t-117.5 -72.5t-149 -25.5t-147.5 22.5t-117 67.5t-78 113t-27.5 159zM1041 339q0 -128 49 -205t143 -77 q191 0 192 282q0 281 -192 281t-192 -281z" />
<glyph unicode="&#x26;" horiz-adv-x="1850" d="M252 388q0 104 38 188t91.5 147t110.5 107t96 71q-62 68 -104.5 159.5t-42.5 170.5q0 53 21.5 105t63 91.5t102 64t136.5 24.5q141 0 227 -60.5t86 -175.5q0 -70 -24 -130.5t-62.5 -112t-86.5 -94t-95 -79.5q87 -108 202 -223t243 -230q17 24 43 79t48.5 130t36 163.5 t6.5 175.5q-63 12 -125 51v55h432v-55q-57 -37 -140 -51q-19 -126 -49 -228.5t-62 -180t-60.5 -132t-46.5 -79.5q82 -65 159.5 -122t173.5 -113l117 -51v-53h-303q-45 30 -113 74t-148 122q-30 -41 -75 -80t-105.5 -71.5t-135 -51.5t-161.5 -19q-114 0 -205.5 34.5 t-155.5 92t-98.5 132t-34.5 155.5zM469 464q0 -81 26.5 -150t73.5 -120.5t113 -80t143 -28.5q95 0 178.5 44t146.5 133q-63 57 -139 135t-146 158.5t-130 155.5t-94 124q-92 -89 -132 -173.5t-40 -197.5zM601 1242q0 -39 14.5 -82.5t39 -86t53.5 -83t56 -72.5q77 64 125 148 t38 200q-5 68 -43 114.5t-122 46.5q-46 0 -77 -16t-50 -42.5t-26.5 -59.5t-7.5 -67z" />
<glyph unicode="'" horiz-adv-x="472" d="M185 1427q11 28 33 46t59 18q65 0 89 -64l-68 -354h-42z" />
<glyph unicode="(" horiz-adv-x="730" d="M126 518q0 175 40.5 315t110.5 257t165 216.5t204 189.5l45 -39q-86 -91 -156.5 -187.5t-120.5 -209.5t-77.5 -246t-27.5 -296q0 -160 29.5 -295.5t82 -249t122 -207.5t148.5 -171l-52 -42q-109 79 -202.5 172.5t-162.5 210.5t-108.5 260t-39.5 322z" />
<glyph unicode=")" horiz-adv-x="730" d="M41 -405q79 77 148 174t120 215t80.5 257t29.5 298q0 164 -27.5 294t-76.5 238.5t-119 202.5t-155 183l44 39q108 -84 203.5 -177.5t165.5 -209t110.5 -256t40.5 -314.5q0 -177 -38.5 -322.5t-106.5 -266.5t-162.5 -219.5t-205.5 -177.5z" />
<glyph unicode="*" horiz-adv-x="990" d="M130 1047.5q-6 23.5 0 41.5l266 91q32 -16 32 -52l-215 -183q-16 2 -33.5 18.5t-30.5 38.5t-19 45.5zM130 1349.5q4 22.5 17 44.5t31 39.5t37 21.5l213 -185q0 -17 -6.5 -32t-23.5 -24l-266 98q-6 15 -2 37.5zM413 1569q8 13 31 20.5t48 7.5q26 0 49.5 -7t33.5 -21 l-47 -276q-32 -21 -66 0zM415 827l49 276q34 17 68 0l45 -274q-10 -13 -32.5 -19.5t-48.5 -6.5t-48 6t-33 18zM565 1266l215 189q17 -2 34 -18t28.5 -38.5t16.5 -46t-1 -42.5l-264 -100q-30 20 -29 56zM567 1124q0 19 7 31t20 23l262 -89q8 -15 3 -39t-17.5 -46t-29.5 -39.5 t-37 -19.5z" />
<glyph unicode="+" d="M89 675v113h423v448h112v-448h422v-113h-422v-458h-112v458h-423z" />
<glyph unicode="," horiz-adv-x="602" d="M108 -317q41 14 77.5 45.5t63 69.5t40.5 83.5t9 90.5q-26 24 -68.5 47.5t-73.5 33.5q-10 41 -1 79.5t28.5 68t44 47.5t47.5 20q74 -10 130.5 -65.5t56.5 -166.5q0 -59 -21.5 -124t-61.5 -122.5t-97.5 -103.5t-130.5 -68z" />
<glyph unicode="-" horiz-adv-x="904" d="M151 532v135h601v-135h-601z" />
<glyph unicode="." horiz-adv-x="593" d="M151 122q0 63 40.5 101.5t104.5 38.5q66 0 106.5 -38.5t40.5 -101.5q0 -62 -40.5 -100.5t-106.5 -38.5q-63 0 -104 38.5t-41 100.5z" />
<glyph unicode="/" horiz-adv-x="732" d="M-79 -236l776 1752l89 -38l-778 -1755z" />
<glyph unicode="0" d="M75 746q0 383 127.5 576.5t366.5 193.5q258 0 377 -190t119 -580q0 -384 -129 -578t-380 -194q-130 0 -222 52.5t-149 151.5t-83.5 242t-26.5 326zM279 746q0 -153 15 -279t47.5 -216.5t85 -140t126.5 -49.5q169 0 238 166.5t69 518.5q0 153 -12.5 278.5t-47 215 t-90.5 138.5t-141 49q-160 0 -225 -165t-65 -516z" />
<glyph unicode="1" d="M242 1317q98 32 202.5 80t194.5 119h54v-1382q53 -12 106 -30.5t106 -42.5v-61h-622v61q53 24 107.5 42.5t109.5 30.5v1046l9 125q-60 -24 -124 -33t-131 -6z" />
<glyph unicode="2" d="M102 0v69q47 49 114 119t139.5 155t144 181t126.5 194.5t90.5 197t35.5 187.5q0 62 -16 117.5t-48 97t-77.5 65t-106.5 23.5q-44 0 -78 -6.5t-74 -19.5l-69 -305h-53q-24 62 -48 145t-42 158q75 63 179.5 100.5t225.5 37.5q106 0 183 -29.5t127 -80.5t73.5 -118 t23.5 -140q0 -119 -55.5 -244.5t-137.5 -244t-177.5 -223t-176.5 -182.5l-90 -83v-9l120 13h366l104 238h54q4 -47 8 -102t7.5 -112t5.5 -109t2 -90h-880z" />
<glyph unicode="3" d="M128 83l59 192h43q12 -15 34.5 -38.5t47.5 -49t48.5 -51.5t39.5 -44q21 -5 55.5 -11t89.5 -6q59 0 110.5 26.5t90 72t61 105.5t22.5 126q0 79 -24.5 138.5t-67 98.5t-99.5 59.5t-122 20.5h-140v58l359 478l72 75v9l-114 -13h-361l-82 -217h-54q-9 44 -16 95t-13.5 101.5 t-11 97.5t-4.5 85h833v-66l-356 -475l-91 -94v-4l72 15q100 -4 179 -38t133.5 -91t83 -132.5t28.5 -164.5q0 -106 -43 -192.5t-114 -147t-163.5 -94t-194.5 -33.5q-49 0 -104.5 8t-108.5 22.5t-99 33.5t-78 45z" />
<glyph unicode="4" d="M8 411v49l789 1056h57v-994h270v-111h-270v-298q83 -16 162 -52v-61h-554v61q104 37 196 52v298h-650zM149 506l152 16h357v547l23 154h-6l-83 -154l-358 -492z" />
<glyph unicode="5" d="M120 83l61 192h43q12 -15 31.5 -38.5t39.5 -49t40.5 -51.5t36.5 -44q21 -5 40 -11t57 -6q71 0 129 27.5t101 75.5t66 112t23 138q0 86 -32 148.5t-87 102t-128.5 58.5t-154.5 17l-152 -2l85 739h508l91 117h53q-2 -32 -5 -71t-9.5 -78.5t-13 -76t-14.5 -59.5h-524 l-51 -411h138q106 0 194.5 -29t151.5 -85t98 -137.5t35 -185.5q0 -123 -42.5 -217t-112.5 -157t-159.5 -95t-185.5 -32q-43 0 -92 8t-97 22.5t-90.5 34.5t-71.5 44z" />
<glyph unicode="6" d="M104 532q0 201 66 368t176 296t251.5 214.5t294.5 118.5l24 -64q-113 -40 -214 -109.5t-181 -163t-133 -209.5t-67 -250q35 57 122 105t203 48q91 0 169.5 -29.5t134.5 -85t87.5 -137t31.5 -185.5q0 -97 -33.5 -183.5t-95.5 -151.5t-149.5 -102.5t-194.5 -37.5 q-120 0 -211 41.5t-154 116.5t-95 177t-32 223zM309 479q0 -68 18 -139.5t55 -131t93.5 -97.5t131.5 -38q69 0 117.5 30.5t79.5 81.5t45.5 116.5t14.5 131.5q0 150 -73 246t-205 96q-100 0 -171.5 -50t-101.5 -111q-4 -31 -4 -71.5v-63.5z" />
<glyph unicode="7" d="M138 1491h882v-62q-106 -189 -176.5 -349t-120.5 -323t-86 -345t-72 -412h-213q79 311 196 618t269 618l65 101l-111 -10h-452l-83 -217h-53q-8 44 -16.5 95t-15 102.5t-10 98.5t-3.5 85z" />
<glyph unicode="8" d="M104 335q0 73 26 137.5t72 116.5t108 92.5t137 66.5q-59 32 -111.5 70t-90.5 87.5t-60.5 107.5t-22.5 131q0 83 30 151t84 117t132 76.5t173 27.5q188 0 292.5 -94.5t104.5 -243.5q0 -123 -81.5 -216t-211.5 -153q75 -38 139 -85t110 -102t72.5 -120t26.5 -140 q0 -79 -31 -149.5t-91.5 -123.5t-149 -84t-203.5 -31q-117 0 -202.5 30t-141.5 80t-83 115t-27 136zM287 360q0 -51 16 -103t50.5 -92.5t88.5 -66t133 -25.5q66 0 117.5 22.5t85 58t51 81.5t17.5 91q0 72 -29 131t-76.5 104.5t-110.5 83.5t-130 71q-61 -37 -101.5 -81.5 t-65 -92.5t-35.5 -95t-11 -87zM345 1171q0 -65 24.5 -114t65 -88.5t92.5 -72t107 -59.5q90 73 126.5 145.5t36.5 159.5q0 132 -59 203t-161 71q-57 0 -99.5 -21t-73 -55.5t-45 -78t-14.5 -90.5z" />
<glyph unicode="9" d="M100 1037q0 104 31 192t91.5 152t149 99.5t203.5 35.5q124 0 214.5 -41.5t150 -116t87.5 -182t28 -237.5q0 -197 -58 -365.5t-156.5 -295.5t-234 -205.5t-291.5 -98.5l-38 62q125 35 222 101t166.5 156.5t112 200t59.5 230.5q-49 -51 -116 -86t-182 -35q-96 0 -177 28.5 t-138.5 84t-90.5 136.5t-33 185zM305 1039q0 -61 19 -120t55 -104.5t87.5 -73.5t114.5 -28q102 0 169 35.5t100 88.5q4 28 4 69v65q0 77 -15.5 156.5t-50 143.5t-90 104.5t-131.5 40.5q-128 0 -195 -101t-67 -276z" />
<glyph unicode=":" horiz-adv-x="695" d="M253 122q0 63 40.5 101.5t104.5 38.5q66 0 106.5 -38.5t40.5 -101.5q0 -62 -40.5 -100.5t-106.5 -38.5q-63 0 -104 38.5t-41 100.5zM253 942q0 63 40.5 101.5t104.5 38.5q66 0 106.5 -38.5t40.5 -101.5q0 -62 -40.5 -100.5t-106.5 -38.5q-63 0 -104 38.5t-41 100.5z" />
<glyph unicode=";" horiz-adv-x="706" d="M221 -317q41 14 77.5 45.5t63 69.5t40.5 83.5t9 90.5q-26 24 -68.5 47.5t-73.5 33.5q-10 41 -1 79.5t28.5 68t44 47.5t47.5 20q74 -10 130.5 -65.5t56.5 -166.5q0 -59 -21.5 -124t-61.5 -122.5t-97.5 -103.5t-130.5 -68zM264 942q0 63 40.5 101.5t104.5 38.5 q66 0 106.5 -38.5t40.5 -101.5q0 -62 -40.5 -100.5t-106.5 -38.5q-63 0 -104 38.5t-41 100.5z" />
<glyph unicode="&#x3c;" d="M94 691v65l820 500l53 -93l-532 -322l-183 -85l181 -65l563 -333l-84 -139z" />
<glyph unicode="=" d="M89 504v113h959v-113h-959zM89 846v113h959v-113h-959z" />
<glyph unicode="&#x3e;" d="M142 1118l84 138l818 -470v-66l-820 -501l-51 94l532 321l183 86l-181 66z" />
<glyph unicode="?" horiz-adv-x="1006" d="M149 1427q81 49 173.5 69t226.5 20q96 0 167.5 -26.5t119.5 -72t72.5 -109.5t24.5 -139q0 -96 -35.5 -167t-87.5 -129t-114 -107.5t-115 -105t-88 -121.5t-35 -155h-43q-15 61 -15 120q0 77 24.5 136t61 108t79 92.5t78.5 89.5t60.5 98t24.5 120q0 47 -13.5 92.5 t-42.5 83t-74 60t-108 22.5q-69 0 -111 -11t-60 -27l-49 -262h-53q-16 57 -37.5 147.5t-30.5 173.5zM305 122q0 63 40.5 101.5t103.5 38.5q66 0 106.5 -38.5t40.5 -101.5q0 -62 -40 -100.5t-107 -38.5q-63 0 -103.5 38.5t-40.5 100.5z" />
<glyph unicode="@" horiz-adv-x="2266" d="M201 502q0 232 76.5 420t209.5 320t312 203t383 71q192 0 357 -56t286.5 -161.5t189.5 -258t68 -345.5q0 -139 -48 -262.5t-130 -217t-188.5 -149.5t-223.5 -56q-63 0 -108 20.5t-68.5 66t-24.5 118t23 175.5h-10q-24 -69 -65 -136t-94 -121t-114 -88.5t-123 -34.5 q-128 0 -197 88.5t-69 236.5q0 136 46 265.5t123.5 232t180 164.5t214.5 62q77 0 122 -12.5t96 -36.5q79 36 160 34l-109 -609q-13 -71 -18 -128t0 -99t23.5 -64t54.5 -22q71 0 145.5 39.5t136.5 113.5t102.5 181t40.5 239q0 162 -61.5 293.5t-169 224t-251.5 143t-308 50.5 q-195 0 -352 -69t-267.5 -190t-170.5 -283.5t-60 -347.5q0 -189 62 -335.5t174 -247.5t266.5 -153t339.5 -52q61 0 140 15t144 44l33 -94q-75 -42 -164 -59.5t-198 -17.5q-183 0 -349 56t-293 166.5t-201 276.5t-74 387zM835 360q0 -102 32 -160t121 -58q41 0 87.5 40 t92.5 103.5t89.5 143.5t77.5 161l53 317q-34 21 -69 32t-90 11q-81 0 -153 -56.5t-126 -144t-84.5 -190.5t-30.5 -199z" />
<glyph unicode="A" horiz-adv-x="1453" d="M0 0v61q77 35 153 52l540 1403h61l539 -1403q42 -8 84 -19t78 -33v-61h-546v61q43 17 87.5 30t87.5 22l-145 389h-508l-141 -389q90 -12 183 -52v-61h-473zM473 614h430l-168 451l-40 183h-4l-55 -187z" />
<glyph unicode="B" horiz-adv-x="1309" d="M61 0v61q86 41 175 52v1263q-43 8 -87.5 22t-87.5 31v62h226q41 0 78 2.5t78 4.5t87.5 4t105.5 2q86 0 174.5 -14t159.5 -52t115.5 -108t44.5 -180q0 -55 -16.5 -110.5t-52 -103.5t-88.5 -84.5t-125 -52.5v-9q63 -10 126 -36t112.5 -69.5t80 -107t30.5 -153.5 q0 -115 -51 -198.5t-133 -136.5t-186.5 -77t-210.5 -24q-75 0 -168.5 6t-181.5 6h-205zM428 115q31 -8 72 -12.5t130 -4.5q77 0 144 23.5t115 65t75.5 100t27.5 126.5q0 85 -32.5 142t-89.5 89.5t-130 45.5t-152 13h-160v-588zM428 813h107q36 0 86 3.5t82 8.5 q98 34 161 109.5t63 177.5q0 140 -84.5 210.5t-224.5 70.5q-66 0 -113 -2.5t-77 -6.5v-571z" />
<glyph unicode="C" horiz-adv-x="1370" d="M113 746q0 209 57.5 354.5t155.5 238t227.5 135t273.5 42.5q140 0 236 -18t168 -53q0 -35 -2 -80.5t-6.5 -97t-11 -100.5t-12.5 -90h-55l-111 307q-24 13 -78 17.5t-107 4.5q-106 0 -201.5 -39.5t-166.5 -121.5t-114 -206.5t-43 -292.5q0 -151 38.5 -274t111 -209 t177 -132t236.5 -46q71 0 117.5 10.5t61.5 28.5l100 264h56q11 -59 19 -150q6 -62 5 -121q0 -28 -1 -56q-32 -26 -77 -41.5t-95 -26t-102 -15t-98 -4.5q-179 0 -320 46t-238 140t-149 239.5t-52 346.5z" />
<glyph unicode="D" horiz-adv-x="1506" d="M61 0v61q75 35 175 52v1263q-49 10 -93.5 24t-81.5 29v62h218q36 0 85 2.5t101.5 5.5t100.5 6t80 3q362 0 556.5 -194t194.5 -550q0 -168 -48 -311.5t-145.5 -248t-248 -164t-354.5 -59.5q-32 0 -72.5 3.5t-85.5 6.5t-90.5 6t-86.5 3h-205zM428 98q11 -2 38.5 -3t59.5 -2 t61 -1h41q147 0 249.5 55.5t167.5 148t94.5 213.5t29.5 255q0 104 -28.5 216.5t-93.5 205t-171.5 152t-259.5 59.5q-55 0 -106.5 -1t-81.5 -8v-1290z" />
<glyph unicode="E" horiz-adv-x="1238" d="M61 0v61q75 35 175 52v1263q-43 8 -87.5 22t-87.5 31v62h1010q-2 -85 -7 -171.5t-16 -173.5h-56l-87 234h-464v-565h347l84 158h53q6 -106 6 -213.5t-6 -216.5h-53l-84 162h-347v-595h490l104 256h54q15 -88 21 -180q4 -57 4 -115q0 -35 -2 -71h-1051z" />
<glyph unicode="F" horiz-adv-x="1158" d="M61 0v61q37 17 75.5 30t78.5 22v1263q-47 10 -85 24t-69 29v62h1000q-2 -83 -7.5 -170.5t-16.5 -174.5h-55l-88 234h-475v-607h369l88 158h49q4 -49 6 -103.5t2 -109.5q0 -58 -2 -113.5t-6 -104.5h-49l-88 165h-369v-552q94 -12 184 -52v-61h-542z" />
<glyph unicode="G" horiz-adv-x="1465" d="M113 746q0 209 60.5 355.5t162 239t230.5 134t263 41.5q140 0 237 -18t170 -53q0 -33 -2.5 -79.5t-6.5 -98t-10.5 -101.5t-13.5 -89h-55l-111 307q-24 13 -79 17.5t-108 4.5q-106 0 -202.5 -39.5t-167.5 -121.5t-114 -206.5t-43 -292.5q0 -151 42 -272.5t115 -208 t172.5 -133.5t214.5 -47q43 0 83 8.5t74.5 20.5t56.5 24.5t31 21.5v430q-55 4 -105 19t-100 32v62h522v-62q-21 -15 -51 -27.5t-81 -23.5v-488q-41 -24 -95 -46t-115 -40t-121.5 -30t-113.5 -12q-171 0 -307 46t-232 141t-148 239.5t-52 345.5z" />
<glyph unicode="H" horiz-adv-x="1549" d="M61 0v61q86 35 175 52v1263q-100 14 -175 53v62h540v-62q-36 -19 -76.5 -32t-83.5 -21v-556h669v556q-45 10 -84.5 23t-75.5 30v62h539v-62q-38 -21 -84 -33t-90 -20v-1263q48 -8 93 -21t81 -31v-61h-539v61q76 35 160 52v596h-669v-596q43 -8 83.5 -21t76.5 -31v-61 h-540z" />
<glyph unicode="I" horiz-adv-x="748" d="M102 0v61q83 39 170 52v1263q-42 8 -84.5 22t-85.5 31v62h546v-62q-39 -17 -83.5 -31t-87.5 -22v-1263q45 -8 90 -21t81 -31v-61h-546z" />
<glyph unicode="J" horiz-adv-x="725" d="M83 1429v62h541v-62q-38 -17 -79 -31t-83 -22v-1193q0 -149 -34 -245t-84 -154.5t-106.5 -86t-103.5 -38.5l-24 32q32 28 59 63t47 88.5t31 130t11 187.5v1216q-47 10 -91.5 23t-83.5 30z" />
<glyph unicode="K" horiz-adv-x="1375" d="M61 0v61q86 35 175 52v1263q-96 12 -175 53v62h540v-62q-34 -15 -74.5 -29t-85.5 -24v-590l128 29l398 561q-42 10 -80.5 23t-73.5 30v62h471v-62q-42 -19 -82.5 -32t-79.5 -21l-427 -567q53 -71 122 -157.5t144.5 -179t155.5 -188t157 -180.5l102 -51v-53h-266l-73 51 q-126 147 -250.5 317.5t-241.5 344.5h-104v-600q98 -16 160 -52v-61h-540z" />
<glyph unicode="L" horiz-adv-x="1168" d="M61 0v61q51 24 94 34.5t81 17.5v1263q-49 8 -93.5 22t-81.5 31v62h585v-62q-51 -19 -102.5 -33t-102.5 -20v-1266h490l126 343h55q6 -44 11 -102.5t9 -121.5t4 -122.5t-2 -106.5h-1073z" />
<glyph unicode="M" horiz-adv-x="1846" d="M61 1429v62h437l371 -973l72 -220h2l73 224l384 969h385v-62q-39 -17 -79 -31t-83 -22v-1266q45 -8 84 -19.5t76 -29.5v-61h-529v61q43 17 85.5 29t87.5 23v958l8 250h-16l-71 -228l-436 -1093h-56l-415 1093l-77 249h-19l2 -271v-958q41 -8 81.5 -21t80.5 -31v-61h-446 v61q41 17 84.5 31t88.5 23v1261q-45 8 -88.5 22t-86.5 31z" />
<glyph unicode="N" horiz-adv-x="1558" d="M61 0v61q39 24 82.5 42.5t92.5 32.5v1221q-43 17 -84.5 36t-76.5 38v60h360l671 -1012l97 -183h9l-11 183v865q-45 18 -86.5 40t-77.5 45v62h461v-62q-90 -59 -175 -85v-1370h-122l-773 1174l-83 167h-6l19 -167v-1012q87 -24 164 -75v-61h-461z" />
<glyph unicode="O" horiz-adv-x="1575" d="M113 746q0 166 46 307.5t131.5 245t211.5 160.5t286 57t285.5 -57t212 -160.5t132 -245t45.5 -307.5q0 -167 -45.5 -308.5t-132 -245t-212.5 -161t-285 -57.5q-160 0 -286 57.5t-211.5 161t-131.5 245t-46 308.5zM341 746q0 -137 28.5 -257.5t86.5 -210t145 -141.5 t206 -52q108 0 189 52t133.5 141.5t79.5 210t27 257.5q0 136 -28 256t-85.5 209.5t-145 142t-206.5 52.5q-118 0 -199.5 -52.5t-132.5 -142t-74.5 -209.5t-23.5 -256z" />
<glyph unicode="P" horiz-adv-x="1268" d="M61 0v61q43 21 87.5 32t87.5 20v1263q-49 8 -91.5 22t-83.5 31v62h193q85 0 185 8.5t191 8.5q104 0 204.5 -22.5t178.5 -75.5t126 -141.5t48 -220.5q0 -126 -49 -215t-131 -147t-186.5 -84.5t-215.5 -26.5h-33t-48.5 1t-49 3t-33.5 4v-470q57 -6 108.5 -20t96.5 -32v-61 h-585zM441 697q10 -4 30.5 -5t43 -4t43.5 -3h34q75 0 141 20.5t116 65t80 113t30 164.5q0 175 -99.5 262t-273.5 87q-51 0 -83 -2t-62 -9v-689z" />
<glyph unicode="Q" horiz-adv-x="1575" d="M113 746q0 166 46 307.5t131.5 245t211.5 160.5t286 57t285.5 -57t212 -160.5t132 -245t45.5 -307.5q0 -167 -45.5 -308.5t-132 -245t-212.5 -161t-285 -57.5q-160 0 -286 57.5t-211.5 161t-131.5 245t-46 308.5zM341 746q0 -137 28.5 -257.5t86.5 -210t145 -141.5 t206 -52q108 0 189 52t133.5 141.5t79.5 210t27 257.5q0 136 -28 256t-85.5 209.5t-145 142t-206.5 52.5q-118 0 -199.5 -52.5t-132.5 -142t-74.5 -209.5t-23.5 -256zM368 -140l65 42q46 6 91 6q106 0 209.5 -25t208 -55.5t210.5 -56t218 -25.5q57 0 116.5 9t121.5 30 l10 -30q-85 -77 -174 -131q-84 -52 -181 -52h-11q-87 0 -183 32t-204.5 76.5t-230.5 93.5t-266 86z" />
<glyph unicode="R" horiz-adv-x="1356" d="M61 0v61q47 21 89.5 32t85.5 20v1263q-55 10 -97.5 24t-77.5 29v62h189q85 0 186 8.5t196 8.5q104 0 195 -23.5t157 -74.5t103 -130t37 -189q0 -156 -81.5 -258.5t-222.5 -147.5q91 -144 191.5 -286.5t209.5 -283.5l114 -62v-53h-258l-81 59q-59 75 -108 146.5t-91.5 145 t-80 149t-75.5 160.5h-200v-547q49 -10 93.5 -22t87.5 -30v-61h-561zM441 750h153q146 0 233 93.5t87 247.5q0 158 -92 232t-236 74q-51 0 -84 -2t-61 -9v-636z" />
<glyph unicode="S" horiz-adv-x="1140" d="M124 75q2 36 7 87t12.5 105t16 105.5t17.5 87.5h55l87 -313q26 -26 66.5 -44t120.5 -18q69 0 129 18.5t103.5 53t69 85t25.5 114.5q0 85 -52.5 142.5t-130 102.5t-169 87t-169.5 101t-130 141t-52 206q0 89 31.5 159.5t90.5 119t140 75t181 26.5q130 0 237.5 -20 t169.5 -49q0 -37 -5.5 -84.5t-12.5 -99t-16 -99.5t-17 -84h-55l-86 292q-38 16 -97 25t-124 9q-108 0 -174.5 -61t-66.5 -170q0 -87 52.5 -146.5t131 -106t169 -90.5t169.5 -101.5t131 -136t52 -196.5q0 -95 -35 -174t-101 -134.5t-162.5 -85.5t-216.5 -30q-134 0 -241 32 t-151 69z" />
<glyph unicode="T" horiz-adv-x="1317" d="M41 1491h1237q0 -42 -2 -95.5t-5 -110t-7 -111t-10 -99.5h-55l-110 305h-327v-1267q55 -10 103.5 -21t93.5 -31v-61h-599v61q47 17 94.5 30t103.5 22v1267h-326l-112 -305h-54q-7 43 -11 97.5t-7 111t-5 111t-2 96.5z" />
<glyph unicode="U" horiz-adv-x="1431" d="M21 1429v62h542v-62q-41 -17 -81.5 -30t-81.5 -23v-872q0 -113 24.5 -188.5t71.5 -121t116 -66t157 -20.5q168 0 261.5 93t93.5 305v851q-49 17 -91.5 35t-75.5 37v62h453v-62q-40 -24 -82 -42.5t-84 -29.5v-855q0 -136 -36.5 -233.5t-101.5 -161.5t-157.5 -95 t-204.5 -31q-267 0 -407.5 120.5t-140.5 369.5v905q-88 12 -175 53z" />
<glyph unicode="V" horiz-adv-x="1456" d="M0 1429v62h565v-62q-37 -15 -81.5 -29t-93.5 -24l364 -974l45 -170h4l43 175l315 969q-51 10 -96 24t-87 29v62h479v-62q-61 -34 -154 -53l-480 -1376l-118 -26l-543 1402q-42 10 -83 24t-79 29z" />
<glyph unicode="W" horiz-adv-x="1988" d="M0 1429v62h553v-62q-40 -15 -82.5 -29t-90.5 -24l210 -858l46 -278h5l75 282l288 969h71l309 -969l63 -277h4l49 281l195 850q-45 6 -89.5 20t-93.5 33v62h478v-62q-73 -32 -154 -53l-356 -1376l-132 -26l-342 1160l-337 -1134l-130 -26l-377 1402q-42 10 -83 23t-79 30z " />
<glyph unicode="X" horiz-adv-x="1426" d="M21 0v61q40 21 79.5 32t78.5 20l417 637l-400 626q-43 12 -84 25t-84 28v62h564v-62q-32 -13 -71 -26t-90 -27l297 -482l290 482q-87 19 -177 53v62h490v-62q-36 -15 -76.5 -29t-83.5 -24l-374 -577l436 -686q102 -16 175 -52v-61h-567v61q77 39 163 52l-337 535 l-324 -538q45 -6 87.5 -15.5t83.5 -33.5v-61h-493z" />
<glyph unicode="Y" horiz-adv-x="1370" d="M0 1429v62h565v-62q-33 -13 -73.5 -27t-91.5 -26l350 -626l327 626q-48 10 -92 24t-82 29v62h469v-62q-81 -41 -162 -53l-403 -742v-521q83 -10 162 -52v-61h-541v61q77 39 175 52v519l-430 744q-49 8 -90.5 22t-82.5 31z" />
<glyph unicode="Z" horiz-adv-x="1298" d="M83 0v108l886 1272h-656l-130 -298h-53q-6 44 -11.5 97.5t-9 109t-4.5 108t-1 94.5h1089v-111l-882 -1270h695l130 299h55q6 -43 11 -96t8.5 -108.5t4.5 -108.5v-34q0 -33 -1 -62h-1131z" />
<glyph unicode="[" horiz-adv-x="653" d="M177 -490v1981h402v-89h-221v-1804h221v-88h-402z" />
<glyph unicode="\" horiz-adv-x="813" d="M-100 1470l90 46l882 -1744l-88 -49z" />
<glyph unicode="]" horiz-adv-x="653" d="M75 -402h221v1804h-221v89h402v-1981h-402v88z" />
<glyph unicode="^" horiz-adv-x="1064" d="M100 925l396 589h69l362 -589h-188l-188 321l-51 142l-67 -144l-214 -319h-119z" />
<glyph unicode="_" horiz-adv-x="872" d="M0 -305h874v-112h-874v112z" />
<glyph unicode="`" horiz-adv-x="697" d="M128 1544v43q12 10 41 19.5t63 16.5t65 10t48 1l226 -371l-47 -36z" />
<glyph unicode="a" horiz-adv-x="1075" d="M83 260q0 98 39.5 161t116 99t189.5 52t263 24q6 66 6 123q0 21 -1 42q-3 74 -23.5 126t-60 80.5t-103.5 28.5q-31 0 -67.5 -3t-73.5 -17l-100 -256h-55q-21 63 -37 131.5t-20 134.5q81 49 180 77t220 28q109 0 174 -31t98.5 -80t44.5 -109t11 -119q0 -128 -5 -246.5 t-5 -226.5q0 -47 2 -81t4 -72l146 -22v-45q-53 -28 -118 -48.5t-124 -31.5h-54q-21 49 -25 107.5t-6 128.5h-11q-8 -42 -33 -86t-64.5 -78t-92.5 -55.5t-122 -21.5q-130 0 -211.5 79t-81.5 207zM287 298q0 -91 47 -141.5t128 -50.5q53 0 93.5 21.5t68.5 51.5t44.5 60.5 t24.5 52.5v224q-124 0 -203 -13t-124 -40.5t-62 -69t-17 -95.5z" />
<glyph unicode="b" horiz-adv-x="1160" d="M2 1470v55q66 28 148 45t153 32h53v-748h4q36 108 122.5 172.5t190.5 64.5q193 0 296.5 -132t103.5 -408q0 -281 -141.5 -425.5t-407.5 -144.5q-53 0 -106.5 7.5t-102.5 18t-88.5 25.5t-62.5 29v1392zM356 120q38 -21 93 -33t118 -12q140 0 221 122t81 354q0 83 -14 158 t-44.5 130t-78.5 87.5t-116 32.5q-102 0 -166 -69.5t-94 -176.5v-593z" />
<glyph unicode="c" horiz-adv-x="992" d="M87 532q0 271 132.5 415t359.5 144q104 0 186.5 -18t139.5 -49q-6 -70 -23.5 -157t-42.5 -145h-57l-89 254q-15 10 -34.5 15t-64.5 5q-145 0 -223.5 -105t-78.5 -356q0 -82 22.5 -158t68 -137t115 -97.5t160.5 -36.5q75 0 130 21.5t94 51.5l27 -30q-39 -75 -124.5 -125 t-201.5 -50q-125 0 -218 39.5t-154.5 113.5t-92.5 177t-31 228z" />
<glyph unicode="d" horiz-adv-x="1181" d="M87 526q0 273 133.5 415.5t358.5 142.5q79 0 124 -7.5t98 -26.5v403l-162 17v55q61 26 143 45t157 32h53v-1480l142 -18v-45q-62 -30 -128.5 -50.5t-129.5 -29.5h-53l-20 232h-8q-11 -47 -36.5 -89.5t-63 -76t-85 -52.5t-104.5 -19q-211 0 -315 134t-104 418zM292 526 q0 -87 14.5 -163t47 -133t79.5 -90.5t116 -33.5q104 0 166.5 66t85.5 180v600q-37 20 -85.5 29t-125.5 9q-145 0 -221.5 -126.5t-76.5 -337.5z" />
<glyph unicode="e" horiz-adv-x="1071" d="M87 532q0 273 126 416t356 143q75 0 147 -20.5t128.5 -67t91.5 -124.5t35 -194q0 -36 -3 -73t-11 -80h-665q0 -89 22.5 -167t67 -135t113 -90.5t159.5 -33.5q75 0 151.5 21.5t114.5 55.5l30 -34q-17 -37 -53.5 -68.5t-83.5 -55t-102 -37.5t-113 -14q-126 0 -221.5 39.5 t-159.5 113.5t-97 176t-33 229zM298 626h468q3 19 4 37t1 36q0 136 -51 216.5t-159 80.5q-122 0 -186 -81.5t-77 -288.5z" />
<glyph unicode="f" horiz-adv-x="728" d="M66 959v55q74 47 162 70v75q0 132 32 218t89.5 136t135.5 69.5t167 19.5q19 0 44.5 -2.5t53.5 -5.5t53.5 -8t44.5 -12q-7 -71 -19 -131.5t-28 -109.5h-53l-94 183q-61 0 -105.5 -12.5t-73 -48.5t-42.5 -104.5t-14 -179.5v-106h246v-106h-246v-855q110 -12 205 -51v-53 h-537v53q66 39 141 51v855h-162z" />
<glyph unicode="g" horiz-adv-x="1120" d="M63 -175q0 57 18.5 100t52.5 75t85 56.5t118 45.5q-47 21 -78 58.5t-31 91.5q0 49 41.5 96.5t84.5 75.5q-122 33 -187 121.5t-65 202.5q0 73 28 135t81 109t132 73t183 26q116 0 194.5 -22.5t131.5 -69.5q126 86 262 123q16 -24 24 -57.5t8 -62.5l-28 -52h-224 q53 -77 53 -202q0 -153 -107 -249.5t-314 -96.5q-40 0 -65.5 2.5t-58.5 6.5q-10 -19 -24 -42.5t-14 -49.5q0 -42 49 -66.5t122.5 -44t160 -39.5t161 -55t124.5 -91.5t52 -146.5v-8q0 -72 -35 -130q-37 -61 -103 -103t-159 -64t-204 -22q-231 0 -350 78.5t-119 197.5z M256 -132q0 -113 80.5 -169.5t234.5 -56.5q79 0 131 15t82.5 39.5t43.5 58.5t13 72q0 69 -45.5 109t-113.5 66t-147 42.5t-147 38.5q-81 -49 -106.5 -103.5t-25.5 -111.5zM294 748q0 -51 11.5 -97t38 -80t71.5 -54.5t111 -20.5q124 0 177 72.5t53 179.5q0 115 -52 181.5 t-178 66.5q-130 0 -181 -64.5t-51 -183.5z" />
<glyph unicode="h" horiz-adv-x="1250" d="M30 1470v55q62 26 144 45t156 32h54v-752h2q45 100 128.5 170.5t203.5 70.5q85 0 152 -20.5t111.5 -72t68 -137.5t23.5 -218v-539q37 -8 73 -18t68 -33v-53h-460v53q51 28 128 51v499q0 167 -47 261.5t-170 94.5q-56 0 -100.5 -20.5t-81 -52.5t-62 -73.5t-37.5 -86.5 v-622q34 -8 64.5 -18t60.5 -33v-53h-458v53q65 34 140 51v1349z" />
<glyph unicode="i" horiz-adv-x="640" d="M87 0v53q33 17 66.5 29t74.5 22v837l-141 18v55q62 26 134.5 44.5t144.5 32.5h53v-987q43 -10 77 -21.5t65 -29.5v-53h-474zM187 1427q0 57 37.5 91.5t98.5 34.5q62 0 98 -34.5t36 -91.5t-36 -90.5t-98 -33.5q-61 0 -98.5 33.5t-37.5 90.5z" />
<glyph unicode="j" horiz-adv-x="612" d="M75 -411q26 13 52 44.5t48.5 88t36.5 138t14 191.5v890l-141 18v55q62 30 135.5 48t143.5 29h53v-999q0 -151 -38 -251.5t-89.5 -162.5t-104.5 -91.5t-85 -37.5zM185 1427q0 57 37.5 91.5t98.5 34.5q62 0 98 -34.5t36 -91.5t-36 -90.5t-98 -33.5q-61 0 -98.5 33.5 t-37.5 90.5z" />
<glyph unicode="k" horiz-adv-x="1098" d="M30 1470v55q59 28 142.5 45t157.5 32h54v-1019h55q34 39 74 86t80.5 96.5t79 99t71.5 94.5q-53 14 -105 51v55h411v-55q-40 -17 -79.5 -30t-82.5 -21q-32 -43 -73.5 -92.5t-84 -98t-82 -91.5t-67.5 -70q33 -42 78.5 -103t98.5 -129t110 -138.5t112 -132.5l119 -51v-53 h-264l-57 51q-113 140 -187.5 250t-137.5 205l-69 22v-424q70 -12 138 -51v-53h-471v53q71 34 140 51v1349z" />
<glyph unicode="l" horiz-adv-x="640" d="M66 1470v55q55 26 138 45t162 32h53v-1498q71 -17 142 -51v-53h-474v53q71 34 141 51v1349z" />
<glyph unicode="m" horiz-adv-x="1837" d="M66 0v53q30 15 66 28t75 23v837l-141 18v55q68 30 139.5 48t139.5 29h53v-241h2q35 100 116.5 170.5t203.5 70.5q51 0 97.5 -11t87 -39.5t69 -80t40.5 -131.5q38 117 123.5 189.5t212.5 72.5q79 0 137.5 -20.5t97 -72t56.5 -138.5t18 -221v-535q73 -12 141 -51v-53h-458 v53q63 34 125 51v530q0 77 -7 137t-28.5 101.5t-60 64t-101.5 22.5q-102 0 -158.5 -71t-82.5 -179v-605q74 -21 138 -51v-53h-456v53q21 13 52.5 27t73.5 24v492q0 85 -7 153t-27.5 114t-59 71t-100.5 25q-47 0 -86 -19.5t-70 -51.5t-53.5 -72.5t-35.5 -85.5v-626 q35 -10 65.5 -21.5t60.5 -29.5v-53h-458z" />
<glyph unicode="n" horiz-adv-x="1264" d="M66 0v53q53 28 141 51v837l-141 18v55q55 24 127.5 42.5t151.5 34.5h53v-239h2q45 98 129.5 168.5t203.5 70.5q85 0 152 -20.5t111.5 -72t68.5 -137.5t24 -218v-539q85 -15 140 -51v-53h-458v53q57 30 125 51v505q0 163 -46.5 256.5t-170.5 93.5q-53 0 -98.5 -19.5 t-81 -52.5t-61 -74.5t-40.5 -86.5v-622q66 -12 128 -51v-53h-460z" />
<glyph unicode="o" horiz-adv-x="1177" d="M87 532q0 135 35.5 238.5t101.5 174.5t158.5 108.5t205.5 37.5q132 0 228 -40.5t156.5 -114.5t89.5 -176t29 -228q0 -268 -137 -413t-366 -145q-128 0 -222 39.5t-155.5 113.5t-92.5 177t-31 228zM292 532q0 -95 18 -180.5t57.5 -148.5t103.5 -98.5t153 -35.5 q115 0 188.5 112.5t73.5 350.5q0 98 -18 182.5t-56.5 147.5t-98 98.5t-142.5 35.5q-126 0 -202.5 -112.5t-76.5 -351.5z" />
<glyph unicode="p" horiz-adv-x="1205" d="M66 -372q72 34 141 51v1262l-141 18v55q68 30 139.5 48t139.5 29h53v-239h2q43 108 119.5 173.5t200.5 65.5q189 0 293.5 -126t104.5 -409q0 -134 -35 -242.5t-100 -183.5t-157.5 -115.5t-205.5 -40.5q-79 0 -124 10t-98 33v-338q35 -5 68.5 -16.5t72.5 -34.5v-54h-473 v54zM398 115q39 -23 86.5 -34.5t124.5 -11.5q71 0 127 35.5t96 101.5t61 154.5t21 195.5q0 88 -14 161t-44.5 127.5t-80.5 84.5t-123 30q-104 0 -166 -66t-88 -182v-596z" />
<glyph unicode="q" horiz-adv-x="1166" d="M87 526q0 277 137.5 417.5t395.5 140.5q115 0 219 -21.5t153 -44.5v-1339q37 -7 71 -19t71 -32v-54h-474v54q66 34 141 51v510h-9q-30 -85 -104 -150t-190 -65q-205 0 -308 135.5t-103 416.5zM292 530q0 -89 12.5 -166t44 -134t79.5 -90.5t121 -33.5q104 0 165 66t87 177 v612q-39 12 -91 20.5t-120 8.5q-143 0 -220.5 -110.5t-77.5 -349.5z" />
<glyph unicode="r" horiz-adv-x="817" d="M66 0v53q38 21 72.5 32t68.5 19v837l-141 18v55q68 30 140.5 48t138.5 29h53v-227h9q18 43 53.5 85.5t81.5 77t100 52.5q41 13 84 13q14 0 28 -1q15 -28 26.5 -61.5t22.5 -68.5v-56h-283q-24 -13 -59 -52.5t-63 -115.5v-633q43 -4 85.5 -15.5t85.5 -35.5v-53h-503z" />
<glyph unicode="s" horiz-adv-x="921" d="M98 36q4 77 19 148.5t39 136.5h53l94 -232q24 -16 56.5 -18t59.5 -2q94 0 151.5 50.5t57.5 122.5q0 60 -37.5 102t-94.5 78t-122 70t-123 80t-94.5 105.5t-36.5 147.5q0 57 26.5 106t71 84t104.5 55.5t127 20.5q116 0 189 -13t142 -37q-8 -69 -20 -137.5t-34 -141.5h-53 l-81 218q-26 10 -58 13t-65 3q-38 0 -67.5 -13.5t-49.5 -34.5t-30.5 -48.5t-10.5 -56.5q0 -57 37.5 -98.5t94.5 -77t122 -69t123 -76.5t95 -99.5t37 -135.5q0 -73 -31 -130t-85 -97.5t-126 -63t-152 -22.5q-91 0 -168 16t-160 46z" />
<glyph unicode="t" horiz-adv-x="789" d="M32 959v55q81 51 171 72v182q28 24 65 41.5t73 34.5h53v-279h319v-106h-319v-618q0 -128 40.5 -181.5t121.5 -53.5q39 0 96 6t98 20l14 -32q-16 -19 -47.5 -40.5t-70.5 -40.5t-85.5 -32t-96.5 -13q-128 0 -194.5 73t-66.5 234v678h-171z" />
<glyph unicode="u" horiz-adv-x="1222" d="M36 959v55q69 26 140.5 44.5t138.5 32.5h53q0 -160 -6 -317.5t-6 -313.5q0 -84 9 -149.5t34 -110t67.5 -69.5t108.5 -25q96 0 161 69.5t101 180.5v585l-138 18v55q65 26 136.5 44.5t140.5 32.5h53v-969l140 -18v-45q-61 -28 -124 -48.5t-131 -31.5h-54l-14 253h-9 q-10 -45 -37 -90.5t-69.5 -83t-97 -61t-117.5 -23.5q-85 0 -150 20.5t-110 72t-68.5 137.5t-23.5 218q0 134 6.5 262.5t6.5 256.5z" />
<glyph unicode="v" horiz-adv-x="1079" d="M-21 1010v55h445v-53q-28 -15 -56.5 -29t-64.5 -24l246 -642l43 -132h4l32 134l228 640q-34 8 -63 20.5t-54 30.5v55h362v-55q-20 -15 -51.5 -28t-69.5 -23l-377 -959l-97 -26l-414 985q-62 21 -113 51z" />
<glyph unicode="w" horiz-adv-x="1549" d="M-21 1010v55h443v-53q-30 -17 -60 -31t-61 -22l185 -622l28 -154h4l31 158l231 703l63 21l246 -726l37 -156h4l33 156l164 620q-24 4 -54.5 16.5t-62.5 34.5v55h361v-55q-44 -30 -120 -51l-303 -959l-113 -26l-210 603l-41 177h-6l-50 -177l-191 -577l-111 -26l-334 985 q-31 10 -59.5 21.5t-53.5 29.5z" />
<glyph unicode="x" horiz-adv-x="1104" d="M21 0v53q59 36 119 51l318 424l-320 431q-30 10 -54.5 21.5t-49.5 29.5v55h428v-53q-26 -17 -50 -31t-54 -22l221 -320l218 320q-73 24 -106 51v55h355v-55q-40 -28 -119 -51l-293 -388l337 -467q31 -10 59.5 -21.5t53.5 -29.5v-53h-436v51q30 17 55 31t51 22l-236 349 l-239 -349q30 -10 55.5 -22.5t51.5 -28.5v-53h-365z" />
<glyph unicode="y" horiz-adv-x="1075" d="M-24 1010v55h446v-53q-44 -30 -121 -53l272 -631l41 -132h4l32 134l202 629q-64 12 -117 51v55h364v-55q-44 -30 -121 -51l-332 -959q-51 -136 -97.5 -220.5t-92 -133t-93.5 -71t-103 -33.5q-24 41 -41.5 90t-31.5 93l28 51h222q12 17 22 33t20.5 39.5t23.5 60t29 91.5 l-443 959q-32 8 -58.5 20.5t-54.5 30.5z" />
<glyph unicode="z" horiz-adv-x="1038" d="M92 0v53l607 918h-403l-93 -251h-54q-17 91 -20 179.5t-3 165.5h801v-55l-610 -916h416l115 270h53q14 -90 22 -180q5 -60 5 -122q0 -31 -1 -62h-835z" />
<glyph unicode="{" horiz-adv-x="740" d="M118 469v63q81 0 125 65t44 159v510q0 102 51.5 163.5t153.5 61.5h191v-89h-102q-57 0 -83.5 -30t-26.5 -98v-496q0 -71 -22.5 -120t-57.5 -80t-75.5 -46.5t-79.5 -19.5v-14q36 -4 78 -21t77 -51t57.5 -84t22.5 -118v-499q0 -65 25.5 -96t86.5 -31h100v-88h-191 q-96 0 -150.5 57t-54.5 167v502q0 108 -44.5 170.5t-124.5 62.5z" />
<glyph unicode="|" horiz-adv-x="504" d="M198 -277v1768h111v-1768h-111z" />
<glyph unicode="}" horiz-adv-x="740" d="M110 -402h105q57 0 84 29.5t27 97.5v501q0 70 19 119t50 80t68 47t76 20v12q-37 5 -75 22t-69 51.5t-50 84t-19 118.5v494q0 66 -25.5 97t-87.5 31h-103v89h195q95 0 148 -56.5t53 -166.5v-502q0 -108 45 -169.5t126 -61.5v-64q-81 0 -126 -65t-45 -158v-512 q0 -102 -50.5 -164t-152.5 -62h-193v88z" />
<glyph unicode="~" horiz-adv-x="1128" d="M124 685q77 116 147 159.5t134 43.5q53 0 104.5 -22.5t100 -50t98.5 -49.5t103 -22q39 0 80.5 15.5t84.5 55.5l28 -44q-62 -90 -123 -127t-119 -37q-55 0 -107 22.5t-103.5 50t-102.5 50t-102 22.5q-46 0 -94 -25.5t-97 -92.5z" />
<glyph unicode="&#xa1;" horiz-adv-x="695" d="M151 950q0 63 40.5 102t106.5 39q64 0 104.5 -39t40.5 -102q0 -62 -40.5 -100.5t-104.5 -38.5q-65 0 -106 38.5t-41 100.5zM203 234l67 375h56l68 -375v-630q-45 -24 -95.5 -23.5t-95.5 23.5v630z" />
<glyph unicode="&#xa2;" d="M132 532q0 118 33 212.5t92.5 165t142 113t181.5 59.5v324h114v-315q102 0 184 -18t139 -49q-6 -70 -24 -157t-44 -145h-54l-87 254q-14 10 -33.5 15t-62.5 5h-20v-883q38 -6 76 -7q74 0 130 21.5t93 51.5l30 -30q-42 -77 -127.5 -125t-199.5 -50v-336h-114v345 q-223 33 -336 178.5t-113 370.5zM337 535q0 -122 62.5 -230.5t183.5 -162.5v838q-113 -35 -179.5 -141.5t-66.5 -303.5z" />
<glyph unicode="&#xa3;" d="M63 703v108h182q-32 69 -55.5 143.5t-23.5 183.5q0 87 32 157.5t89.5 119t138 75t181.5 26.5q130 0 239 -21t170 -50q-2 -35 -7 -82.5t-13 -98t-16.5 -99.5t-16.5 -85h-54l-84 292q-41 16 -98.5 25t-123.5 9q-83 0 -142 -36.5t-81 -101.5q-17 -47 -18 -99 q2 -108 27.5 -193.5t55.5 -164.5h333v-108h-294q14 -53 23 -105.5t5 -113.5q-2 -73 -29 -139t-87 -115l-70 -59v-9l119 13h424l104 238h53q5 -47 9 -102t7.5 -112t5.5 -109t2 -90h-979v66q136 59 203 142.5t69 213.5q0 24 -1 44t-3 40q-12 116 -45 197h-231z" />
<glyph unicode="&#xa5;" d="M-96 1429v62h565v-62q-32 -13 -72.5 -27t-91.5 -26l327 -628l307 628q-49 10 -92.5 24t-82.5 29v62h469v-62q-85 -41 -162 -53l-341 -663h307v-110h-346v-134h346v-111h-346v-245q83 -10 161 -52v-61h-541v61q77 39 175 52v245h-348v111h348v134h-348v110h303l-364 663 q-49 8 -90.5 22t-82.5 31z" />
<glyph unicode="&#xa7;" horiz-adv-x="1122" d="M126 648q0 106 80.5 182.5t198.5 126.5q-45 21 -83.5 46.5t-67 60.5t-46 81t-17.5 105q0 57 25.5 106.5t72 84.5t110 55t142.5 20q115 0 198.5 -11.5t150.5 -37.5q-4 -34 -8 -58.5t-11 -48t-15 -49t-19 -59.5h-53l-119 154q-26 10 -48.5 13.5t-55.5 3.5q-92 0 -134.5 -49 t-42.5 -104q0 -64 45.5 -106t114 -73.5t147 -60t146.5 -69.5t113.5 -98.5t45.5 -144.5q0 -62 -25.5 -112t-66 -90.5t-89.5 -71.5t-93 -52q42 -19 80.5 -41.5t67.5 -52.5t45 -67.5t16 -85.5q0 -149 -113 -234.5t-302 -85.5q-177 0 -345 62q2 38 7 65t11.5 51.5t15 49 t19.5 57.5h53l136 -167q24 -19 46.5 -21.5t52.5 -2.5q102 0 164.5 51t62.5 124q0 63 -45.5 101.5t-113.5 67.5t-147 55.5t-147.5 66t-114 101t-45.5 162.5zM317 695q0 -55 26.5 -96t69.5 -71t99.5 -53.5t113.5 -43.5q36 20 68 50.5t56.5 61t39.5 62t15 62.5q0 51 -25.5 88 t-68 64t-96.5 49t-113 46q-72 -34 -128.5 -93t-56.5 -126z" />
<glyph unicode="&#xa8;" horiz-adv-x="957" d="M128 1412q0 51 31.5 82t82.5 31t83.5 -31t32.5 -82q0 -49 -32 -79t-84 -30q-51 0 -82.5 30t-31.5 79zM601 1412q0 51 32 82t83 31q50 0 82.5 -31t32.5 -82q0 -49 -32.5 -79t-82.5 -30q-51 0 -83 30t-32 79z" />
<glyph unicode="&#xa9;" horiz-adv-x="1718" d="M108 618q0 177 63 316t167.5 235.5t239.5 147.5t282 51t282.5 -51t238.5 -147.5t166 -235.5t63 -316t-63 -316.5t-166 -235.5t-238 -147t-283 -51q-153 0 -290 51t-239.5 147t-162.5 235.5t-60 316.5zM219 618q0 -147 50 -267.5t137.5 -205t204.5 -131t249 -46.5 t249.5 46.5t204 131t136.5 205t50 267.5q0 146 -53.5 267t-142 204.5t-204.5 131t-240 47.5q-140 0 -258 -47.5t-202.5 -132t-132.5 -204.5t-48 -266zM441 620q0 110 39.5 193t102.5 139t142.5 84.5t160.5 28.5q83 0 149 -12t109 -33q2 -18 2 -49.5t-2 -65t-6 -66t-12 -53.5 h-53l-63 177q-15 10 -47 11.5t-62 1.5q-122 0 -188.5 -95t-66.5 -261q0 -71 14.5 -136t48 -115t86.5 -78.5t127 -28.5q43 0 69.5 8.5t34.5 16.5l60 152h54q8 -32 12 -97t-2 -116q-18 -15 -47.5 -25t-61 -16t-66 -8t-61.5 -2q-104 0 -191 28.5t-149 85t-97.5 140t-35.5 191.5 z" />
<glyph unicode="&#xaa;" horiz-adv-x="915" d="M104 1004q0 65 33.5 106.5t90.5 65t133 33t161 9.5q15 0 29 -1t28 -1q2 12 2 35v33q0 28 -6 53.5t-23 46t-46 32t-75 11.5q-26 0 -56 -4t-60 -15l-47 -119h-57q-21 23 -36 64.5t-17 85.5q53 28 130.5 48.5t209.5 20.5q136 0 186.5 -55.5t50.5 -159.5q0 -41 -1 -89 t-2.5 -94.5t-2.5 -90t-1 -78.5l107 -21v-56q-40 -24 -86 -39.5t-95 -19.5h-36q-15 36 -20.5 71.5t-7.5 70.5h-9q-10 -18 -29.5 -43.5t-50 -48t-73 -38.5t-100.5 -16q-98 0 -161 54t-63 149zM275 1014q0 -43 29 -79t84 -36q45 0 76.5 15t54 35t37.5 43.5t23 42.5v111 q-24 2 -44.5 2h-42.5q-43 0 -82.5 -7t-69 -23.5t-47.5 -42t-18 -61.5z" />
<glyph unicode="&#xab;" horiz-adv-x="1002" d="M51 551l453 441l57 -42l-299 -385l311 -403l-55 -44zM464 551l361 437l53 -41l-226 -380l238 -403l-51 -42z" />
<glyph unicode="&#xac;" horiz-adv-x="1085" d="M92 691v134h904v-403h-132v269h-772z" />
<glyph unicode="&#xad;" horiz-adv-x="904" d="M151 532v135h601v-135h-601z" />
<glyph unicode="&#xae;" horiz-adv-x="1490" d="M177 961q0 136 45.5 241t123.5 178t181 110t219 37q119 0 222 -37t180 -110t122 -178t45 -241q0 -138 -46 -243.5t-124 -178t-181.5 -110t-217.5 -37.5q-120 0 -223.5 37.5t-180 110t-121 178t-44.5 243.5zM277 961q0 -110 37.5 -199t101 -152t149 -95.5t181.5 -32.5 q100 0 186 32.5t149 94.5t98 150.5t35 201.5q0 110 -37 198.5t-101 150.5t-149.5 95.5t-180.5 31.5q-102 2 -187.5 -31.5t-148.5 -95.5t-98 -150.5t-35 -198.5zM488 658v51q36 13 75 19v497q-24 2 -41.5 7.5t-33.5 15.5v47h81q38 0 91 4t88 4q47 0 90.5 -9.5t77.5 -31.5 t53 -56.5t19 -81.5q0 -65 -46 -103.5t-105 -57.5q39 -61 73.5 -120t97.5 -115l49 -25v-45h-107l-60 23q-53 64 -85 132.5t-55 129.5h-77v-215q28 -2 46 -7t33 -12v-51h-264zM673 1006h69q127 0 122 118q-2 55 -37 83.5t-90 28.5q-24 0 -38 -1.5t-26 -5.5v-223z" />
<glyph unicode="&#xaf;" horiz-adv-x="793" d="M128 1357v110h539v-110h-539z" />
<glyph unicode="&#xb0;" horiz-adv-x="902" d="M177 1216q0 65 23.5 121t65 95.5t96.5 61.5t117 22t117.5 -19t96 -56t64 -93.5t23.5 -131.5q0 -71 -23.5 -126t-64 -94t-96 -59.5t-117.5 -20.5q-61 0 -116.5 20.5t-97 59.5t-65 94t-23.5 126zM296 1216q0 -88 54.5 -142t128.5 -54q82 0 132.5 51t50.5 145 q0 89 -50.5 142.5t-132.5 53.5q-81 0 -132 -53.5t-51 -142.5z" />
<glyph unicode="&#xb1;" d="M89 376v114h957v-114h-957zM89 931v113h423v447h112v-447h422v-113h-422v-328h-112v328h-423z" />
<glyph unicode="&#xb4;" horiz-adv-x="699" d="M128 1263l248 371q17 2 45 -1t58 -10t56 -16.5t38 -19.5v-41l-398 -321z" />
<glyph unicode="&#xb5;" horiz-adv-x="1222" d="M36 959v55q69 26 140.5 44.5t138.5 32.5h53q0 -160 -6 -317.5t-6 -313.5q0 -84 9 -149.5t34 -110t67.5 -69.5t108.5 -25q96 0 162 69.5t102 180.5v585l-140 18v55q65 26 137.5 44.5t141.5 32.5h53v-969l140 -18v-45q-61 -28 -125 -48.5t-132 -31.5h-54l-14 253h-9 q-10 -45 -37 -90.5t-68 -83t-96 -61t-118 -23.5q-69 0 -123 13t-97 45h-13l75 -404v-54q-102 -31 -196 0v1367z" />
<glyph unicode="&#xb6;" horiz-adv-x="1087" d="M128 1065q0 89 26.5 167t78.5 135.5t133 90.5t190 33h405v-64q-36 -17 -73.5 -30t-86.5 -21v-1175q-2 -143 -21.5 -234t-55.5 -145t-86 -79.5t-112 -38.5q-42 -69 -99 -104t-112 -51l-25 42q47 19 87 52.5t69 86.5t44.5 132t15.5 189v609q-68 0 -134.5 21.5t-121 69.5 t-88.5 126t-34 188zM551 -248q90 37 120 147.5t30 301.5v1185h-94v-1335q0 -85 -13 -164t-43 -135z" />
<glyph unicode="&#xb7;" horiz-adv-x="510" d="M113 654q0 63 40.5 101.5t104.5 38.5q66 0 106.5 -38.5t40.5 -101.5q0 -62 -40.5 -100.5t-106.5 -38.5q-63 0 -104 38.5t-41 100.5z" />
<glyph unicode="&#xb8;" horiz-adv-x="604" d="M128 -471q81 10 130 42.5t47 98.5q0 53 -43 76.5t-132 29.5l79 226h96l-55 -147q117 -4 170 -43.5t55 -107.5q2 -62 -31 -107.5t-84 -75.5t-113 -44t-119 -12v64z" />
<glyph unicode="&#xba;" horiz-adv-x="925" d="M92 1154q0 84 27.5 150t78 113.5t117.5 73t147 25.5q81 0 149 -22t117.5 -67t77 -113t27.5 -160q0 -83 -27.5 -150t-77 -114t-117.5 -72.5t-149 -25.5t-147.5 22.5t-117 67.5t-78 113t-27.5 159zM270 1154q0 -128 49 -205t143 -77q191 0 192 282q0 281 -192 281 t-192 -281z" />
<glyph unicode="&#xbb;" horiz-adv-x="1002" d="M113 164l239 392l-228 391l53 41l362 -437l-375 -429zM431 162l308 391l-298 397l55 42l454 -441l-464 -433z" />
<glyph unicode="&#xbf;" horiz-adv-x="1006" d="M75 -96q0 96 35 167t87.5 129t113.5 108t114.5 104.5t88.5 120t35 155.5h43q26 -101 13 -177t-48 -136t-83 -109t-91.5 -100t-73.5 -108.5t-30 -132.5q0 -47 13 -92.5t41.5 -82.5t74 -59.5t110.5 -22.5q69 0 111 10.5t59 27.5l49 262h53q17 -57 38.5 -147.5t29.5 -174.5 q-81 -48 -173.5 -68.5t-226.5 -20.5q-96 0 -167.5 26.5t-119 72.5t-72 109.5t-24.5 138.5zM413 950q0 63 40.5 102t107.5 39q63 0 102.5 -39t39.5 -102q0 -62 -39.5 -100.5t-102.5 -38.5q-66 0 -107 38.5t-41 100.5z" />
<glyph unicode="&#xc0;" horiz-adv-x="1453" d="M0 0v61q77 35 153 52l540 1403h61l539 -1403q42 -8 84 -19t78 -33v-61h-546v61q43 17 87.5 30t87.5 22l-145 389h-508l-141 -389q90 -12 183 -52v-61h-473zM270 1791v43q12 14 40 28t60 24t61.5 14t47.5 2l309 -264l-39 -41zM473 614h430l-168 451l-40 183h-4l-55 -187z " />
<glyph unicode="&#xc1;" horiz-adv-x="1453" d="M0 0v61q77 35 153 52l540 1403h61l539 -1403q42 -8 84 -19t78 -33v-61h-546v61q43 17 87.5 30t87.5 22l-145 389h-508l-141 -389q90 -12 183 -52v-61h-473zM473 614h430l-168 451l-40 183h-4l-55 -187zM650 1638l311 264q19 2 49 -2t60.5 -14t57 -23.5t40.5 -28.5v-43 l-482 -194z" />
<glyph unicode="&#xc2;" horiz-adv-x="1453" d="M0 0v61q77 35 153 52l540 1403h61l539 -1403q42 -8 84 -19t78 -33v-61h-546v61q43 17 87.5 30t87.5 22l-145 389h-508l-141 -389q90 -12 183 -52v-61h-473zM431 1642l270 238q11 7 27 8.5t28 -8.5l267 -232l-32 -44l-271 119l-259 -121zM473 614h430l-168 451l-40 183h-4 l-55 -187z" />
<glyph unicode="&#xc3;" horiz-adv-x="1453" d="M0 0v61q77 35 153 52l540 1403h61l539 -1403q42 -8 84 -19t78 -33v-61h-546v61q43 17 87.5 30t87.5 22l-145 389h-508l-141 -389q90 -12 183 -52v-61h-473zM390 1711q81 73 144 99t116 26q38 0 73 -10.5t67.5 -23.5t64 -23.5t65.5 -10.5q28 0 57 9.5t63 33.5l27 -63 q-69 -68 -125 -93t-109 -25q-41 0 -76 11.5t-69 24.5t-66 24t-66 11q-30 0 -60.5 -11t-65.5 -42zM473 614h430l-168 451l-40 183h-4l-55 -187z" />
<glyph unicode="&#xc4;" horiz-adv-x="1453" d="M0 0v61q77 35 153 52l540 1403h61l539 -1403q42 -8 84 -19t78 -33v-61h-546v61q43 17 87.5 30t87.5 22l-145 389h-508l-141 -389q90 -12 183 -52v-61h-473zM370 1681q0 51 34 76.5t88 25.5q51 0 84.5 -25.5t33.5 -76.5q0 -49 -33.5 -74.5t-84.5 -25.5q-53 0 -87.5 25.5 t-34.5 74.5zM473 614h430l-168 451l-40 183h-4l-55 -187zM845 1681q0 51 34 76.5t85 25.5q53 0 87 -25.5t34 -76.5q0 -49 -34 -74.5t-87 -25.5q-51 0 -85 25.5t-34 74.5z" />
<glyph unicode="&#xc5;" horiz-adv-x="1453" d="M0 0v61q77 35 153 52l538 1399q-90 8 -145.5 51t-55.5 116q0 42 19 76t53 57.5t77.5 36.5t95.5 13q41 0 82 -11t75.5 -32t54.5 -54t20 -80q0 -79 -63 -124t-148 -51l537 -1397q42 -8 84 -19t78 -33v-61h-546v61q43 17 87.5 30t87.5 22l-145 389h-508l-141 -389 q90 -12 183 -52v-61h-473zM473 614h430l-168 451l-40 183h-4l-55 -187zM609 1679q0 -43 37 -62.5t78 -19.5q55 0 89.5 19.5t34.5 59.5q0 56 -38.5 77t-79.5 21q-53 0 -87 -20t-34 -75z" />
<glyph unicode="&#xc6;" horiz-adv-x="1961" d="M0 0v61q77 35 153 52l754 1275q-30 9 -62 18.5t-61 22.5v62h1009q-2 -85 -6 -171.5t-17 -173.5h-53l-89 234h-463v-565h345l85 158h51q17 -211 0 -430h-51l-85 162h-345v-595h490l103 256h55q12 -89 19.5 -180.5t3.5 -185.5h-1050v61q75 35 175 52v432h-418l-247 -432 q88 -12 181 -52v-61h-477zM607 656h354v645h-4l-88 -198z" />
<glyph unicode="&#xc7;" horiz-adv-x="1370" d="M113 746q0 209 57.5 354.5t155.5 238t227.5 135t273.5 42.5q140 0 236 -18t168 -53q0 -35 -2 -80.5t-6.5 -97t-11 -100.5t-12.5 -90h-55l-111 307q-24 13 -78 17.5t-107 4.5q-106 0 -201.5 -39.5t-166.5 -121.5t-114 -206.5t-43 -292.5q0 -151 38.5 -274t111 -209 t177 -132t236.5 -46q71 0 117.5 10.5t61.5 28.5l100 264h56q10 -59 18.5 -150t4.5 -177q-37 -28 -86.5 -44.5t-105.5 -26t-112 -13t-105 -3.5l-51 -134q128 -2 188.5 -48t60.5 -120q0 -63 -37 -110.5t-93.5 -79t-125 -46.5t-129.5 -15v70q85 13 142.5 47t55.5 96 q-3 59 -49.5 85.5t-142.5 32.5l76 231q-294 33 -455.5 217t-161.5 546z" />
<glyph unicode="&#xc8;" horiz-adv-x="1238" d="M61 0v61q75 35 175 52v1263q-43 8 -87.5 22t-87.5 31v62h1010q-2 -85 -7 -171.5t-16 -173.5h-56l-87 234h-464v-565h347l84 158h53q12 -211 0 -430h-53l-84 162h-347v-595h490l104 256h54q14 -89 20.5 -180.5t2.5 -185.5h-1051zM241 1791v43q12 14 40 28t60 24t61.5 14 t47.5 2l309 -264l-39 -41z" />
<glyph unicode="&#xc9;" horiz-adv-x="1238" d="M61 0v61q75 35 175 52v1263q-43 8 -87.5 22t-87.5 31v62h1010q-2 -85 -7 -171.5t-16 -173.5h-56l-87 234h-464v-565h347l84 158h53q12 -211 0 -430h-53l-84 162h-347v-595h490l104 256h54q14 -89 20.5 -180.5t2.5 -185.5h-1051zM458 1638l311 264q19 2 49 -2t60.5 -14 t57 -23.5t40.5 -28.5v-43l-482 -194z" />
<glyph unicode="&#xca;" horiz-adv-x="1238" d="M61 0v61q75 35 175 52v1263q-43 8 -87.5 22t-87.5 31v62h1010q-2 -85 -7 -171.5t-16 -173.5h-56l-87 234h-464v-565h347l84 158h53q12 -211 0 -430h-53l-84 162h-347v-595h490l104 256h54q14 -89 20.5 -180.5t2.5 -185.5h-1051zM343 1642l270 238q11 7 27 8.5t28 -8.5 l267 -232l-32 -44l-271 119l-259 -121z" />
<glyph unicode="&#xcb;" horiz-adv-x="1238" d="M61 0v61q75 35 175 52v1263q-43 8 -87.5 22t-87.5 31v62h1010q-2 -85 -7 -171.5t-16 -173.5h-56l-87 234h-464v-565h347l84 158h53q12 -211 0 -430h-53l-84 162h-347v-595h490l104 256h54q14 -89 20.5 -180.5t2.5 -185.5h-1051zM254 1681q0 51 34 76.5t88 25.5 q51 0 84.5 -25.5t33.5 -76.5q0 -49 -33.5 -74.5t-84.5 -25.5q-53 0 -87.5 25.5t-34.5 74.5zM729 1681q0 51 34 76.5t85 25.5q53 0 87 -25.5t34 -76.5q0 -49 -34 -74.5t-87 -25.5q-51 0 -85 25.5t-34 74.5z" />
<glyph unicode="&#xcc;" horiz-adv-x="748" d="M77 1791v43q12 14 40 28t60 24t61.5 14t47.5 2l309 -264l-39 -41zM102 0v61q83 39 170 52v1263q-42 8 -84.5 22t-85.5 31v62h546v-62q-39 -17 -83.5 -31t-87.5 -22v-1263q45 -8 90 -21t81 -31v-61h-546z" />
<glyph unicode="&#xcd;" horiz-adv-x="748" d="M102 0v61q83 39 170 52v1263q-42 8 -84.5 22t-85.5 31v62h546v-62q-39 -17 -83.5 -31t-87.5 -22v-1263q45 -8 90 -21t81 -31v-61h-546zM201 1638l311 264q19 2 49 -2t60.5 -14t57 -23.5t40.5 -28.5v-43l-482 -194z" />
<glyph unicode="&#xce;" horiz-adv-x="748" d="M81 1642l270 238q11 7 27 8.5t28 -8.5l267 -232l-32 -44l-271 119l-259 -121zM102 0v61q83 39 170 52v1263q-42 8 -84.5 22t-85.5 31v62h546v-62q-39 -17 -83.5 -31t-87.5 -22v-1263q45 -8 90 -21t81 -31v-61h-546z" />
<glyph unicode="&#xcf;" horiz-adv-x="748" d="M20 1681q0 51 34 76.5t88 25.5q51 0 84.5 -25.5t33.5 -76.5q0 -49 -33.5 -74.5t-84.5 -25.5q-53 0 -87.5 25.5t-34.5 74.5zM102 0v61q83 39 170 52v1263q-42 8 -84.5 22t-85.5 31v62h546v-62q-39 -17 -83.5 -31t-87.5 -22v-1263q45 -8 90 -21t81 -31v-61h-546zM495 1681 q0 51 34 76.5t85 25.5q53 0 87 -25.5t34 -76.5q0 -49 -34 -74.5t-87 -25.5q-51 0 -85 25.5t-34 74.5z" />
<glyph unicode="&#xd0;" horiz-adv-x="1510" d="M47 707v110h189v559q-49 10 -93.5 24t-81.5 29v62h218q36 0 85 2.5t101.5 5.5t100.5 6t80 3q181 0 320.5 -50t235 -145t145.5 -233.5t50 -315.5q0 -168 -48 -311.5t-145.5 -248t-248 -164t-354.5 -59.5q-30 0 -71.5 3.5t-86.5 6.5t-90.5 6t-86.5 3h-205v61q75 35 175 52 v594h-189zM428 98q11 -2 39.5 -3t61 -2t61 -1h40.5q147 0 249.5 55.5t166.5 148t93.5 213.5t29.5 255q0 104 -28.5 216.5t-93.5 205t-170 152t-261 59.5q-55 0 -106.5 -1t-81.5 -8v-571h356v-110h-356v-609z" />
<glyph unicode="&#xd1;" horiz-adv-x="1558" d="M61 0v61q39 24 82.5 42.5t92.5 32.5v1221q-43 17 -84.5 36t-76.5 38v60h360l671 -1012l97 -183h9l-11 183v865q-45 18 -86.5 40t-77.5 45v62h461v-62q-90 -59 -175 -85v-1370h-122l-773 1174l-83 167h-6l19 -167v-1012q87 -24 164 -75v-61h-461zM441 1711q81 73 144 99 t116 26q38 0 73 -10.5t67.5 -23.5t64 -23.5t65.5 -10.5q28 0 57 9.5t63 33.5l27 -63q-69 -68 -125 -93t-109 -25q-41 0 -76 11.5t-69 24.5t-66 24t-66 11q-30 0 -60.5 -11t-65.5 -42z" />
<glyph unicode="&#xd2;" horiz-adv-x="1575" d="M113 746q0 166 46 307.5t131.5 245t211.5 160.5t286 57t285.5 -57t212 -160.5t132 -245t45.5 -307.5q0 -167 -45.5 -308.5t-132 -245t-212.5 -161t-285 -57.5q-160 0 -286 57.5t-211.5 161t-131.5 245t-46 308.5zM341 746q0 -137 28.5 -257.5t86.5 -210t145 -141.5 t206 -52q108 0 189 52t133.5 141.5t79.5 210t27 257.5q0 136 -28 256t-85.5 209.5t-145 142t-206.5 52.5q-118 0 -199.5 -52.5t-132.5 -142t-74.5 -209.5t-23.5 -256zM415 1791v43q12 14 40 28t60 24t61.5 14t47.5 2l309 -264l-39 -41z" />
<glyph unicode="&#xd3;" horiz-adv-x="1575" d="M113 746q0 166 46 307.5t131.5 245t211.5 160.5t286 57t285.5 -57t212 -160.5t132 -245t45.5 -307.5q0 -167 -45.5 -308.5t-132 -245t-212.5 -161t-285 -57.5q-160 0 -286 57.5t-211.5 161t-131.5 245t-46 308.5zM341 746q0 -137 28.5 -257.5t86.5 -210t145 -141.5 t206 -52q108 0 189 52t133.5 141.5t79.5 210t27 257.5q0 136 -28 256t-85.5 209.5t-145 142t-206.5 52.5q-118 0 -199.5 -52.5t-132.5 -142t-74.5 -209.5t-23.5 -256zM588 1638l311 264q19 2 49 -2t60.5 -14t57 -23.5t40.5 -28.5v-43l-482 -194z" />
<glyph unicode="&#xd4;" horiz-adv-x="1575" d="M113 746q0 166 46 307.5t131.5 245t211.5 160.5t286 57t285.5 -57t212 -160.5t132 -245t45.5 -307.5q0 -167 -45.5 -308.5t-132 -245t-212.5 -161t-285 -57.5q-160 0 -286 57.5t-211.5 161t-131.5 245t-46 308.5zM341 746q0 -137 28.5 -257.5t86.5 -210t145 -141.5 t206 -52q108 0 189 52t133.5 141.5t79.5 210t27 257.5q0 136 -28 256t-85.5 209.5t-145 142t-206.5 52.5q-118 0 -199.5 -52.5t-132.5 -142t-74.5 -209.5t-23.5 -256zM492 1642l270 238q11 7 27 8.5t28 -8.5l267 -232l-32 -44l-271 119l-259 -121z" />
<glyph unicode="&#xd5;" horiz-adv-x="1575" d="M113 746q0 166 46 307.5t131.5 245t211.5 160.5t286 57t285.5 -57t212 -160.5t132 -245t45.5 -307.5q0 -167 -45.5 -308.5t-132 -245t-212.5 -161t-285 -57.5q-160 0 -286 57.5t-211.5 161t-131.5 245t-46 308.5zM341 746q0 -137 28.5 -257.5t86.5 -210t145 -141.5 t206 -52q108 0 189 52t133.5 141.5t79.5 210t27 257.5q0 136 -28 256t-85.5 209.5t-145 142t-206.5 52.5q-118 0 -199.5 -52.5t-132.5 -142t-74.5 -209.5t-23.5 -256zM449 1711q81 73 144 99t116 26q38 0 73 -10.5t67.5 -23.5t64 -23.5t65.5 -10.5q28 0 57 9.5t63 33.5 l27 -63q-69 -68 -125 -93t-109 -25q-41 0 -76 11.5t-69 24.5t-66 24t-66 11q-30 0 -60.5 -11t-65.5 -42z" />
<glyph unicode="&#xd6;" horiz-adv-x="1575" d="M113 746q0 166 46 307.5t131.5 245t211.5 160.5t286 57t285.5 -57t212 -160.5t132 -245t45.5 -307.5q0 -167 -45.5 -308.5t-132 -245t-212.5 -161t-285 -57.5q-160 0 -286 57.5t-211.5 161t-131.5 245t-46 308.5zM341 746q0 -137 28.5 -257.5t86.5 -210t145 -141.5 t206 -52q108 0 189 52t133.5 141.5t79.5 210t27 257.5q0 136 -28 256t-85.5 209.5t-145 142t-206.5 52.5q-118 0 -199.5 -52.5t-132.5 -142t-74.5 -209.5t-23.5 -256zM431 1681q0 51 34 76.5t88 25.5q51 0 84.5 -25.5t33.5 -76.5q0 -49 -33.5 -74.5t-84.5 -25.5 q-53 0 -87.5 25.5t-34.5 74.5zM906 1681q0 51 34 76.5t85 25.5q53 0 87 -25.5t34 -76.5q0 -49 -34 -74.5t-87 -25.5q-51 0 -85 25.5t-34 74.5z" />
<glyph unicode="&#xd8;" horiz-adv-x="1575" d="M113 746q0 166 46 307.5t131.5 245t211.5 160.5t286 57q104 0 192.5 -25.5t163.5 -69.5l59 97l109 -61l-72 -113q108 -104 165.5 -257.5t57.5 -340.5q0 -167 -45.5 -308.5t-132 -245t-212.5 -161t-285 -57.5q-102 0 -190.5 25t-162.5 67l-61 -94l-99 62l64 104 q-110 104 -168 260t-58 348zM341 746q0 -128 25.5 -241t76.5 -200l618 986q-55 55 -128 85t-162 30q-118 0 -199.5 -52.5t-132.5 -142t-74.5 -209.5t-23.5 -256zM520 198q55 -56 125.5 -84.5t161.5 -28.5q108 0 189 52t133.5 141.5t79.5 210t27 257.5q0 128 -24.5 237.5 t-75.5 196.5z" />
<glyph unicode="&#xd9;" horiz-adv-x="1431" d="M21 1429v62h542v-62q-41 -17 -81.5 -30t-81.5 -23v-872q0 -113 24.5 -188.5t71.5 -121t116 -66t157 -20.5q168 0 261.5 93t93.5 305v851q-49 17 -91.5 35t-75.5 37v62h453v-62q-40 -24 -82 -42.5t-84 -29.5v-855q0 -136 -36.5 -233.5t-101.5 -161.5t-157.5 -95 t-204.5 -31q-267 0 -407.5 120.5t-140.5 369.5v905q-88 12 -175 53zM337 1791v43q12 14 40 28t60 24t61.5 14t47.5 2l309 -264l-39 -41z" />
<glyph unicode="&#xda;" horiz-adv-x="1431" d="M21 1429v62h542v-62q-41 -17 -81.5 -30t-81.5 -23v-872q0 -113 24.5 -188.5t71.5 -121t116 -66t157 -20.5q168 0 261.5 93t93.5 305v851q-49 17 -91.5 35t-75.5 37v62h453v-62q-40 -24 -82 -42.5t-84 -29.5v-855q0 -136 -36.5 -233.5t-101.5 -161.5t-157.5 -95 t-204.5 -31q-267 0 -407.5 120.5t-140.5 369.5v905q-88 12 -175 53zM679 1638l311 264q19 2 49 -2t60.5 -14t57 -23.5t40.5 -28.5v-43l-482 -194z" />
<glyph unicode="&#xdb;" horiz-adv-x="1431" d="M21 1429v62h542v-62q-41 -17 -81.5 -30t-81.5 -23v-872q0 -113 24.5 -188.5t71.5 -121t116 -66t157 -20.5q168 0 261.5 93t93.5 305v851q-49 17 -91.5 35t-75.5 37v62h453v-62q-40 -24 -82 -42.5t-84 -29.5v-855q0 -136 -36.5 -233.5t-101.5 -161.5t-157.5 -95 t-204.5 -31q-267 0 -407.5 120.5t-140.5 369.5v905q-88 12 -175 53zM465 1642l270 238q11 7 27 8.5t28 -8.5l267 -232l-32 -44l-271 119l-259 -121z" />
<glyph unicode="&#xdc;" horiz-adv-x="1431" d="M21 1429v62h542v-62q-41 -17 -81.5 -30t-81.5 -23v-872q0 -113 24.5 -188.5t71.5 -121t116 -66t157 -20.5q168 0 261.5 93t93.5 305v851q-49 17 -91.5 35t-75.5 37v62h453v-62q-40 -24 -82 -42.5t-84 -29.5v-855q0 -136 -36.5 -233.5t-101.5 -161.5t-157.5 -95 t-204.5 -31q-267 0 -407.5 120.5t-140.5 369.5v905q-88 12 -175 53zM403 1681q0 51 34 76.5t88 25.5q51 0 84.5 -25.5t33.5 -76.5q0 -49 -33.5 -74.5t-84.5 -25.5q-53 0 -87.5 25.5t-34.5 74.5zM878 1681q0 51 34 76.5t85 25.5q53 0 87 -25.5t34 -76.5q0 -49 -34 -74.5 t-87 -25.5q-51 0 -85 25.5t-34 74.5z" />
<glyph unicode="&#xdd;" horiz-adv-x="1370" d="M0 1429v62h565v-62q-33 -13 -73.5 -27t-91.5 -26l350 -626l327 626q-48 10 -92 24t-82 29v62h469v-62q-81 -41 -162 -53l-403 -742v-521q83 -10 162 -52v-61h-541v61q77 39 175 52v519l-430 744q-49 8 -90.5 22t-82.5 31zM679 1638l311 264q19 2 49 -2t60.5 -14t57 -23.5 t40.5 -28.5v-43l-482 -194z" />
<glyph unicode="&#xde;" horiz-adv-x="1266" d="M61 0v59q43 24 87.5 34.5t87.5 19.5v1265q-87 17 -170 53v60h546v-60q-39 -19 -83.5 -32t-87.5 -21v-104q49 4 97 6t94 2q104 0 204.5 -22t178.5 -74t125 -138.5t47 -214.5q0 -122 -49 -208t-131 -142.5t-186.5 -83.5t-215.5 -27h-33t-48.5 1t-49 4t-33.5 5v-269 q120 -16 205 -54v-59h-585zM441 492q10 -4 30.5 -5t43 -2t43.5 -1h34q75 0 141 20t116 62.5t80 109t30 157.5q0 166 -99.5 252t-273.5 86q-51 0 -83 -2t-62 -10v-667z" />
<glyph unicode="&#xdf;" horiz-adv-x="1358" d="M66 959v55q74 47 162 70v75q0 132 46.5 218t116 136t150.5 69.5t152 19.5q115 0 194.5 -32t129.5 -85.5t72.5 -121.5t24.5 -140q-81 -10 -145 -31t-109 -55t-68 -83.5t-23 -120.5q0 -66 37 -114t94 -89.5t123 -81t122 -89.5t93.5 -113.5t37.5 -151.5q0 -148 -102.5 -234 t-291.5 -86q-177 0 -345 62q4 53 18 99t33 82h53l139 -132q24 -10 46 -13t52 -3q102 0 154 51t52 122t-37 120t-94 90.5t-123 81t-122 90.5t-93.5 119t-37.5 166q0 117 78 204.5t267 142.5q0 47 -18 92t-47.5 80t-68 57.5t-83.5 22.5q-57 0 -108.5 -12t-90.5 -52t-63 -117 t-24 -207v-1120h-332v53q66 39 141 51v855h-162z" />
<glyph unicode="&#xe0;" horiz-adv-x="1075" d="M83 260q0 98 39.5 161t116 99t189.5 52t263 24q8 91 5 165t-23.5 126t-60 80.5t-103.5 28.5q-31 0 -67.5 -3t-73.5 -17l-100 -256h-55q-21 63 -37 131.5t-20 134.5q81 49 180 77t220 28q109 0 174 -31t98.5 -80t44.5 -109t11 -119q0 -128 -5 -246.5t-5 -226.5 q0 -47 2 -81t4 -72l146 -22v-45q-53 -28 -118 -48.5t-124 -31.5h-54q-21 49 -25 107.5t-6 128.5h-11q-8 -42 -33 -86t-64.5 -78t-92.5 -55.5t-122 -21.5q-130 0 -211.5 79t-81.5 207zM230 1544v43q12 10 41 19.5t63 16.5t65 10t48 1l226 -371l-47 -36zM287 298 q0 -91 47 -141.5t128 -50.5q53 0 93.5 21.5t68.5 51.5t44.5 60.5t24.5 52.5v224q-124 0 -203 -13t-124 -40.5t-62 -69t-17 -95.5z" />
<glyph unicode="&#xe1;" horiz-adv-x="1075" d="M83 260q0 98 39.5 161t116 99t189.5 52t263 24q8 91 5 165t-23.5 126t-60 80.5t-103.5 28.5q-31 0 -67.5 -3t-73.5 -17l-100 -256h-55q-21 63 -37 131.5t-20 134.5q81 49 180 77t220 28q109 0 174 -31t98.5 -80t44.5 -109t11 -119q0 -128 -5 -246.5t-5 -226.5 q0 -47 2 -81t4 -72l146 -22v-45q-53 -28 -118 -48.5t-124 -31.5h-54q-21 49 -25 107.5t-6 128.5h-11q-8 -42 -33 -86t-64.5 -78t-92.5 -55.5t-122 -21.5q-130 0 -211.5 79t-81.5 207zM287 298q0 -91 47 -141.5t128 -50.5q53 0 93.5 21.5t68.5 51.5t44.5 60.5t24.5 52.5v224 q-124 0 -203 -13t-124 -40.5t-62 -69t-17 -95.5zM400 1263l248 371q17 2 45 -1t58 -10t56 -16.5t38 -19.5v-41l-398 -321z" />
<glyph unicode="&#xe2;" horiz-adv-x="1075" d="M83 260q0 98 39.5 161t116 99t189.5 52t263 24q8 91 5 165t-23.5 126t-60 80.5t-103.5 28.5q-31 0 -67.5 -3t-73.5 -17l-100 -256h-55q-21 63 -37 131.5t-20 134.5q81 49 180 77t220 28q109 0 174 -31t98.5 -80t44.5 -109t11 -119q0 -128 -5 -246.5t-5 -226.5 q0 -47 2 -81t4 -72l146 -22v-45q-53 -28 -118 -48.5t-124 -31.5h-54q-21 49 -25 107.5t-6 128.5h-11q-8 -42 -33 -86t-64.5 -78t-92.5 -55.5t-122 -21.5q-130 0 -211.5 79t-81.5 207zM273 1291l234 396q10 6 26.5 7t26.5 -7l243 -394l-57 -37l-219 228l-193 -228zM287 298 q0 -91 47 -141.5t128 -50.5q53 0 93.5 21.5t68.5 51.5t44.5 60.5t24.5 52.5v224q-124 0 -203 -13t-124 -40.5t-62 -69t-17 -95.5z" />
<glyph unicode="&#xe3;" horiz-adv-x="1075" d="M83 260q0 98 39.5 161t116 99t189.5 52t263 24q8 91 5 165t-23.5 126t-60 80.5t-103.5 28.5q-31 0 -67.5 -3t-73.5 -17l-100 -256h-55q-21 63 -37 131.5t-20 134.5q81 49 180 77t220 28q109 0 174 -31t98.5 -80t44.5 -109t11 -119q0 -128 -5 -246.5t-5 -226.5 q0 -47 2 -81t4 -72l146 -22v-45q-53 -28 -118 -48.5t-124 -31.5h-54q-21 49 -25 107.5t-6 128.5h-11q-8 -42 -33 -86t-64.5 -78t-92.5 -55.5t-122 -21.5q-130 0 -211.5 79t-81.5 207zM189 1390q79 75 140.5 100.5t111.5 25.5q38 0 71 -10t62.5 -23t60.5 -23.5t62 -10.5 q29 0 56.5 9t61.5 33l28 -60q-69 -69 -125 -95t-106 -26q-38 0 -72 11.5t-65.5 24.5t-63 24.5t-63.5 11.5q-28 0 -56 -10.5t-63 -40.5zM287 298q0 -91 47 -141.5t128 -50.5q53 0 93.5 21.5t68.5 51.5t44.5 60.5t24.5 52.5v224q-124 0 -203 -13t-124 -40.5t-62 -69t-17 -95.5 z" />
<glyph unicode="&#xe4;" horiz-adv-x="1075" d="M83 260q0 98 39.5 161t116 99t189.5 52t263 24q8 91 5 165t-23.5 126t-60 80.5t-103.5 28.5q-31 0 -67.5 -3t-73.5 -17l-100 -256h-55q-21 63 -37 131.5t-20 134.5q81 49 180 77t220 28q109 0 174 -31t98.5 -80t44.5 -109t11 -119q0 -128 -5 -246.5t-5 -226.5 q0 -47 2 -81t4 -72l146 -22v-45q-53 -28 -118 -48.5t-124 -31.5h-54q-21 49 -25 107.5t-6 128.5h-11q-8 -42 -33 -86t-64.5 -78t-92.5 -55.5t-122 -21.5q-130 0 -211.5 79t-81.5 207zM164 1412q0 51 31.5 82t82.5 31t83.5 -31t32.5 -82q0 -49 -32 -79t-84 -30 q-51 0 -82.5 30t-31.5 79zM287 298q0 -91 47 -141.5t128 -50.5q53 0 93.5 21.5t68.5 51.5t44.5 60.5t24.5 52.5v224q-124 0 -203 -13t-124 -40.5t-62 -69t-17 -95.5zM637 1412q0 51 32 82t83 31q50 0 82.5 -31t32.5 -82q0 -49 -32.5 -79t-82.5 -30q-51 0 -83 30t-32 79z" />
<glyph unicode="&#xe5;" horiz-adv-x="1075" d="M83 260q0 98 39.5 161t116 99t189.5 52t263 24q8 91 5 165t-23.5 126t-60 80.5t-103.5 28.5q-31 0 -67.5 -3t-73.5 -17l-100 -256h-55q-21 63 -37 131.5t-20 134.5q81 49 180 77t220 28q109 0 174 -31t98.5 -80t44.5 -109t11 -119q0 -128 -5 -246.5t-5 -226.5 q0 -47 2 -81t4 -72l146 -22v-45q-53 -28 -118 -48.5t-124 -31.5h-54q-21 49 -25 107.5t-6 128.5h-11q-8 -42 -33 -86t-64.5 -78t-92.5 -55.5t-122 -21.5q-130 0 -211.5 79t-81.5 207zM287 298q0 -91 47 -141.5t128 -50.5q53 0 93.5 21.5t68.5 51.5t44.5 60.5t24.5 52.5v224 q-124 0 -203 -13t-124 -40.5t-62 -69t-17 -95.5zM305 1455q0 87 61 146.5t152 59.5q83 0 141.5 -53t58.5 -147q0 -45 -17.5 -81t-45 -61.5t-65 -40.5t-74.5 -15q-96 0 -153.5 51.5t-57.5 140.5zM415 1459q0 -55 29 -82t65 -27q42 0 69 25t27 78q0 57 -26 89t-67 32 q-51 0 -74 -32t-23 -83z" />
<glyph unicode="&#xe6;" horiz-adv-x="1656" d="M83 260q0 98 39.5 161t116 99t189.5 52t263 24q6 65 6 124q0 130 -40.5 203t-147.5 73q-31 0 -67.5 -3t-73.5 -17l-100 -256h-55q-21 63 -37 131.5t-20 134.5q81 49 180 77t220 28q122 0 185.5 -35.5t89.5 -90.5q24 26 51 49t64.5 40t87.5 27t120 10q75 0 147.5 -20.5 t129 -67t91.5 -124.5t35 -194q0 -36 -3 -73t-12 -80h-660q0 -89 22.5 -167t66 -135t110.5 -90.5t159 -33.5q36 0 75.5 6t75.5 16t66 24t49 31l32 -34q-16 -37 -52.5 -68.5t-85 -55t-103.5 -37.5t-112 -14q-58 0 -120.5 11t-123.5 37.5t-112 72t-83 114.5 q-17 -49 -51.5 -91.5t-82 -75t-107.5 -50.5t-129 -18q-130 0 -211.5 79t-81.5 207zM287 298q0 -91 47 -141.5t128 -50.5q53 0 92.5 20.5t67.5 49.5t44.5 58.5t24.5 50.5v231q-124 0 -203 -13t-124 -40.5t-61 -69t-16 -95.5zM886 626h466q2 19 3.5 37t1.5 36 q0 136 -51.5 216.5t-159.5 80.5q-120 0 -183.5 -81.5t-76.5 -288.5z" />
<glyph unicode="&#xe7;" horiz-adv-x="992" d="M87 532q0 271 132.5 415t359.5 144q104 0 186.5 -18t139.5 -49q-6 -70 -23.5 -157t-42.5 -145h-57l-89 254q-15 10 -34.5 15t-64.5 5q-145 0 -223.5 -105t-78.5 -356q0 -82 22.5 -158t68 -137t115 -97.5t160.5 -36.5q75 0 130 21.5t94 51.5l27 -30q-41 -77 -127.5 -126 t-208.5 -49l-45 -119q118 -4 170 -43.5t56 -107.5q2 -62 -30.5 -107.5t-84 -75.5t-113.5 -44t-119 -12v64q81 10 130 42.5t46 98.5q-2 53 -43.5 76.5t-130.5 29.5l73 207q-198 31 -296.5 177.5t-98.5 371.5z" />
<glyph unicode="&#xe8;" horiz-adv-x="1071" d="M87 532q0 273 126 416t356 143q75 0 147 -20.5t128.5 -67t91.5 -124.5t35 -194q0 -36 -3 -73t-11 -80h-665q0 -89 22.5 -167t67 -135t113 -90.5t159.5 -33.5q75 0 151.5 21.5t114.5 55.5l30 -34q-17 -37 -53.5 -68.5t-83.5 -55t-102 -37.5t-113 -14q-126 0 -221.5 39.5 t-159.5 113.5t-97 176t-33 229zM250 1544v43q12 10 41 19.5t63 16.5t65 10t48 1l226 -371l-47 -36zM298 626h468q3 19 4 37t1 36q0 136 -51 216.5t-159 80.5q-122 0 -186 -81.5t-77 -288.5z" />
<glyph unicode="&#xe9;" horiz-adv-x="1071" d="M87 532q0 273 126 416t356 143q75 0 147 -20.5t128.5 -67t91.5 -124.5t35 -194q0 -36 -3 -73t-11 -80h-665q0 -89 22.5 -167t67 -135t113 -90.5t159.5 -33.5q75 0 151.5 21.5t114.5 55.5l30 -34q-17 -37 -53.5 -68.5t-83.5 -55t-102 -37.5t-113 -14q-126 0 -221.5 39.5 t-159.5 113.5t-97 176t-33 229zM298 626h468q3 19 4 37t1 36q0 136 -51 216.5t-159 80.5q-122 0 -186 -81.5t-77 -288.5zM437 1263l248 371q17 2 45 -1t58 -10t56 -16.5t38 -19.5v-41l-398 -321z" />
<glyph unicode="&#xea;" horiz-adv-x="1071" d="M87 532q0 273 126 416t356 143q75 0 147 -20.5t128.5 -67t91.5 -124.5t35 -194q0 -36 -3 -73t-11 -80h-665q0 -89 22.5 -167t67 -135t113 -90.5t159.5 -33.5q75 0 151.5 21.5t114.5 55.5l30 -34q-17 -37 -53.5 -68.5t-83.5 -55t-102 -37.5t-113 -14q-126 0 -221.5 39.5 t-159.5 113.5t-97 176t-33 229zM292 1291l234 396q10 6 26.5 7t26.5 -7l243 -394l-57 -37l-219 228l-193 -228zM298 626h468q3 19 4 37t1 36q0 136 -51 216.5t-159 80.5q-122 0 -186 -81.5t-77 -288.5z" />
<glyph unicode="&#xeb;" horiz-adv-x="1071" d="M87 532q0 273 126 416t356 143q75 0 147 -20.5t128.5 -67t91.5 -124.5t35 -194q0 -36 -3 -73t-11 -80h-665q0 -89 22.5 -167t67 -135t113 -90.5t159.5 -33.5q75 0 151.5 21.5t114.5 55.5l30 -34q-17 -37 -53.5 -68.5t-83.5 -55t-102 -37.5t-113 -14q-126 0 -221.5 39.5 t-159.5 113.5t-97 176t-33 229zM199 1412q0 51 31.5 82t82.5 31t83.5 -31t32.5 -82q0 -49 -32 -79t-84 -30q-51 0 -82.5 30t-31.5 79zM298 626h468q3 19 4 37t1 36q0 136 -51 216.5t-159 80.5q-122 0 -186 -81.5t-77 -288.5zM672 1412q0 51 32 82t83 31q50 0 82.5 -31 t32.5 -82q0 -49 -32.5 -79t-82.5 -30q-51 0 -83 30t-32 79z" />
<glyph unicode="&#xec;" horiz-adv-x="640" d="M-12 1544v43q12 10 41 19.5t63 16.5t65 10t48 1l226 -371l-47 -36zM87 0v53q33 17 66.5 29t74.5 22v837l-141 18v55q62 26 134.5 44.5t144.5 32.5h53v-987q43 -10 77 -21.5t65 -29.5v-53h-474z" />
<glyph unicode="&#xed;" horiz-adv-x="640" d="M87 0v53q33 17 66.5 29t74.5 22v837l-141 18v55q62 26 134.5 44.5t144.5 32.5h53v-987q43 -10 77 -21.5t65 -29.5v-53h-474zM175 1263l248 371q17 2 45 -1t58 -10t56 -16.5t38 -19.5v-41l-398 -321z" />
<glyph unicode="&#xee;" horiz-adv-x="640" d="M55 1291l234 396q10 6 26.5 7t26.5 -7l243 -394l-57 -37l-219 228l-193 -228zM87 0v53q33 17 66.5 29t74.5 22v837l-141 18v55q62 26 134.5 44.5t144.5 32.5h53v-987q43 -10 77 -21.5t65 -29.5v-53h-474z" />
<glyph unicode="&#xef;" horiz-adv-x="640" d="M-30 1412q0 51 31.5 82t82.5 31t83.5 -31t32.5 -82q0 -49 -32 -79t-84 -30q-51 0 -82.5 30t-31.5 79zM87 0v53q33 17 66.5 29t74.5 22v837l-141 18v55q62 26 134.5 44.5t144.5 32.5h53v-987q43 -10 77 -21.5t65 -29.5v-53h-474zM443 1412q0 51 32 82t83 31q50 0 82.5 -31 t32.5 -82q0 -49 -32.5 -79t-82.5 -30q-51 0 -83 30t-32 79z" />
<glyph unicode="&#xf0;" horiz-adv-x="1138" d="M59 516q0 142 40.5 251t105.5 180t148.5 107.5t168.5 36.5q113 0 182 -35.5t119 -86.5q-26 81 -70 168.5t-105 167.5l-268 -110l-43 91l242 98q-55 57 -120 103.5t-138 73.5v36h130q66 -18 133.5 -57.5t128.5 -100.5l234 99l41 -91l-198 -81q116 -135 192.5 -324.5 t76.5 -425.5q0 -139 -31.5 -257.5t-93.5 -203t-156.5 -133t-219.5 -48.5q-115 0 -207.5 39.5t-157.5 112t-99.5 171.5t-34.5 219zM264 516q0 -88 20.5 -168t61 -141.5t96.5 -97.5t131 -36q69 0 122 36t87.5 103t53 161t18.5 210q0 114 -7.5 180t-13.5 93q-32 53 -101.5 88.5 t-168.5 35.5q-130 0 -214.5 -116t-84.5 -348z" />
<glyph unicode="&#xf1;" horiz-adv-x="1264" d="M66 0v53q53 28 141 51v837l-141 18v55q55 24 127.5 42.5t151.5 34.5h53v-239h2q45 98 129.5 168.5t203.5 70.5q85 0 152 -20.5t111.5 -72t68.5 -137.5t24 -218v-539q85 -15 140 -51v-53h-458v53q57 30 125 51v505q0 163 -46.5 256.5t-170.5 93.5q-53 0 -98.5 -19.5 t-81 -52.5t-61 -74.5t-40.5 -86.5v-622q66 -12 128 -51v-53h-460zM307 1390q79 75 140.5 100.5t111.5 25.5q38 0 71 -10t62.5 -23t60.5 -23.5t62 -10.5q29 0 56.5 9t61.5 33l28 -60q-69 -69 -125 -95t-106 -26q-38 0 -72 11.5t-65.5 24.5t-63 24.5t-63.5 11.5 q-28 0 -56 -10.5t-63 -40.5z" />
<glyph unicode="&#xf2;" horiz-adv-x="1177" d="M87 532q0 135 35.5 238.5t101.5 174.5t158.5 108.5t205.5 37.5q132 0 228 -40.5t156.5 -114.5t89.5 -176t29 -228q0 -268 -137 -413t-366 -145q-128 0 -222 39.5t-155.5 113.5t-92.5 177t-31 228zM281 1544v43q12 10 41 19.5t63 16.5t65 10t48 1l226 -371l-47 -36z M292 532q0 -95 18 -180.5t57.5 -148.5t103.5 -98.5t153 -35.5q115 0 188.5 112.5t73.5 350.5q0 98 -18 182.5t-56.5 147.5t-98 98.5t-142.5 35.5q-126 0 -202.5 -112.5t-76.5 -351.5z" />
<glyph unicode="&#xf3;" horiz-adv-x="1177" d="M87 532q0 135 35.5 238.5t101.5 174.5t158.5 108.5t205.5 37.5q132 0 228 -40.5t156.5 -114.5t89.5 -176t29 -228q0 -268 -137 -413t-366 -145q-128 0 -222 39.5t-155.5 113.5t-92.5 177t-31 228zM292 532q0 -95 18 -180.5t57.5 -148.5t103.5 -98.5t153 -35.5 q115 0 188.5 112.5t73.5 350.5q0 98 -18 182.5t-56.5 147.5t-98 98.5t-142.5 35.5q-126 0 -202.5 -112.5t-76.5 -351.5zM451 1263l248 371q17 2 45 -1t58 -10t56 -16.5t38 -19.5v-41l-398 -321z" />
<glyph unicode="&#xf4;" horiz-adv-x="1177" d="M87 532q0 135 35.5 238.5t101.5 174.5t158.5 108.5t205.5 37.5q132 0 228 -40.5t156.5 -114.5t89.5 -176t29 -228q0 -268 -137 -413t-366 -145q-128 0 -222 39.5t-155.5 113.5t-92.5 177t-31 228zM292 532q0 -95 18 -180.5t57.5 -148.5t103.5 -98.5t153 -35.5 q115 0 188.5 112.5t73.5 350.5q0 98 -18 182.5t-56.5 147.5t-98 98.5t-142.5 35.5q-126 0 -202.5 -112.5t-76.5 -351.5zM321 1291l234 396q10 6 26.5 7t26.5 -7l243 -394l-57 -37l-219 228l-193 -228z" />
<glyph unicode="&#xf5;" horiz-adv-x="1177" d="M87 532q0 135 35.5 238.5t101.5 174.5t158.5 108.5t205.5 37.5q132 0 228 -40.5t156.5 -114.5t89.5 -176t29 -228q0 -268 -137 -413t-366 -145q-128 0 -222 39.5t-155.5 113.5t-92.5 177t-31 228zM260 1390q79 75 140.5 100.5t111.5 25.5q38 0 71 -10t62.5 -23 t60.5 -23.5t62 -10.5q29 0 56.5 9t61.5 33l28 -60q-69 -69 -125 -95t-106 -26q-38 0 -72 11.5t-65.5 24.5t-63 24.5t-63.5 11.5q-28 0 -56 -10.5t-63 -40.5zM292 532q0 -95 18 -180.5t57.5 -148.5t103.5 -98.5t153 -35.5q115 0 188.5 112.5t73.5 350.5q0 98 -18 182.5 t-56.5 147.5t-98 98.5t-142.5 35.5q-126 0 -202.5 -112.5t-76.5 -351.5z" />
<glyph unicode="&#xf6;" horiz-adv-x="1177" d="M87 532q0 135 35.5 238.5t101.5 174.5t158.5 108.5t205.5 37.5q132 0 228 -40.5t156.5 -114.5t89.5 -176t29 -228q0 -268 -137 -413t-366 -145q-128 0 -222 39.5t-155.5 113.5t-92.5 177t-31 228zM236 1412q0 51 31.5 82t82.5 31t83.5 -31t32.5 -82q0 -49 -32 -79 t-84 -30q-51 0 -82.5 30t-31.5 79zM292 532q0 -95 18 -180.5t57.5 -148.5t103.5 -98.5t153 -35.5q115 0 188.5 112.5t73.5 350.5q0 98 -18 182.5t-56.5 147.5t-98 98.5t-142.5 35.5q-126 0 -202.5 -112.5t-76.5 -351.5zM709 1412q0 51 32 82t83 31q50 0 82.5 -31t32.5 -82 q0 -49 -32.5 -79t-82.5 -30q-51 0 -83 30t-32 79z" />
<glyph unicode="&#xf7;" d="M89 679v113h959v-113h-959zM421 329q0 63 40.5 101.5t104.5 38.5q66 0 106.5 -38.5t40.5 -101.5q0 -62 -40.5 -100.5t-106.5 -38.5q-63 0 -104 38.5t-41 100.5zM421 1140q0 63 40.5 101.5t104.5 38.5q66 0 106.5 -38.5t40.5 -101.5q0 -62 -40.5 -100.5t-106.5 -38.5 q-63 0 -104 38.5t-41 100.5z" />
<glyph unicode="&#xf8;" horiz-adv-x="1177" d="M87 532q0 135 35.5 238.5t101.5 174.5t158.5 108.5t205.5 37.5q164 0 272 -65l99 152l80 -56l-100 -151q77 -75 114.5 -186.5t37.5 -252.5q0 -268 -137 -413t-366 -145q-77 0 -141.5 15t-118.5 43l-106 -164l-82 57l108 162q-82 75 -121.5 188t-39.5 257zM292 532 q0 -83 13.5 -156t43.5 -134l431 663q-38 45 -89.5 68t-119.5 23q-128 0 -203.5 -112.5t-75.5 -351.5zM407 151q77 -83 217 -82q115 0 188.5 112.5t73.5 350.5q0 80 -13 150t-40 129z" />
<glyph unicode="&#xf9;" horiz-adv-x="1222" d="M36 959v55q69 26 140.5 44.5t138.5 32.5h53q0 -160 -6 -317.5t-6 -313.5q0 -84 9 -149.5t34 -110t67.5 -69.5t108.5 -25q96 0 161 69.5t101 180.5v585l-138 18v55q65 26 136.5 44.5t140.5 32.5h53v-969l140 -18v-45q-61 -28 -124 -48.5t-131 -31.5h-54l-14 253h-9 q-10 -45 -37 -90.5t-69.5 -83t-97 -61t-117.5 -23.5q-85 0 -150 20.5t-110 72t-68.5 137.5t-23.5 218q0 134 6.5 262.5t6.5 256.5zM305 1544v43q12 10 41 19.5t63 16.5t65 10t48 1l226 -371l-47 -36z" />
<glyph unicode="&#xfa;" horiz-adv-x="1222" d="M36 959v55q69 26 140.5 44.5t138.5 32.5h53q0 -160 -6 -317.5t-6 -313.5q0 -84 9 -149.5t34 -110t67.5 -69.5t108.5 -25q96 0 161 69.5t101 180.5v585l-138 18v55q65 26 136.5 44.5t140.5 32.5h53v-969l140 -18v-45q-61 -28 -124 -48.5t-131 -31.5h-54l-14 253h-9 q-10 -45 -37 -90.5t-69.5 -83t-97 -61t-117.5 -23.5q-85 0 -150 20.5t-110 72t-68.5 137.5t-23.5 218q0 134 6.5 262.5t6.5 256.5zM471 1263l248 371q17 2 45 -1t58 -10t56 -16.5t38 -19.5v-41l-398 -321z" />
<glyph unicode="&#xfb;" horiz-adv-x="1222" d="M36 959v55q69 26 140.5 44.5t138.5 32.5h53q0 -160 -6 -317.5t-6 -313.5q0 -84 9 -149.5t34 -110t67.5 -69.5t108.5 -25q96 0 161 69.5t101 180.5v585l-138 18v55q65 26 136.5 44.5t140.5 32.5h53v-969l140 -18v-45q-61 -28 -124 -48.5t-131 -31.5h-54l-14 253h-9 q-10 -45 -37 -90.5t-69.5 -83t-97 -61t-117.5 -23.5q-85 0 -150 20.5t-110 72t-68.5 137.5t-23.5 218q0 134 6.5 262.5t6.5 256.5zM343 1291l234 396q10 6 26.5 7t26.5 -7l243 -394l-57 -37l-219 228l-193 -228z" />
<glyph unicode="&#xfc;" horiz-adv-x="1222" d="M36 959v55q69 26 140.5 44.5t138.5 32.5h53q0 -160 -6 -317.5t-6 -313.5q0 -84 9 -149.5t34 -110t67.5 -69.5t108.5 -25q96 0 161 69.5t101 180.5v585l-138 18v55q65 26 136.5 44.5t140.5 32.5h53v-969l140 -18v-45q-61 -28 -124 -48.5t-131 -31.5h-54l-14 253h-9 q-10 -45 -37 -90.5t-69.5 -83t-97 -61t-117.5 -23.5q-85 0 -150 20.5t-110 72t-68.5 137.5t-23.5 218q0 134 6.5 262.5t6.5 256.5zM258 1412q0 51 31.5 82t82.5 31t83.5 -31t32.5 -82q0 -49 -32 -79t-84 -30q-51 0 -82.5 30t-31.5 79zM731 1412q0 51 32 82t83 31 q50 0 82.5 -31t32.5 -82q0 -49 -32.5 -79t-82.5 -30q-51 0 -83 30t-32 79z" />
<glyph unicode="&#xfd;" horiz-adv-x="1075" d="M-24 1010v55h446v-53q-44 -30 -121 -53l272 -631l41 -132h4l32 134l202 629q-64 12 -117 51v55h364v-55q-44 -30 -121 -51l-332 -959q-51 -136 -97.5 -220.5t-92 -133t-93.5 -71t-103 -33.5q-24 41 -41.5 90t-31.5 93l28 51h222q12 17 22 33t20.5 39.5t23.5 60t29 91.5 l-443 959q-32 8 -58.5 20.5t-54.5 30.5zM422 1263l248 371q17 2 45 -1t58 -10t56 -16.5t38 -19.5v-41l-398 -321z" />
<glyph unicode="&#xfe;" horiz-adv-x="1205" d="M41 1470v55q55 26 138 45t162 32h53v-750h2q43 108 119.5 173.5t200.5 65.5q189 0 293.5 -126t104.5 -409q0 -134 -35 -242.5t-100 -183.5t-158 -115.5t-205 -40.5q-79 0 -124 10t-98 33v-338q34 -5 68 -16.5t73 -34.5v-54h-474v54q73 34 142 51v1774zM394 115 q39 -23 86.5 -34.5t124.5 -11.5q71 0 127 35.5t95.5 101.5t60.5 154.5t21 195.5q0 88 -13.5 161t-44.5 127.5t-80.5 84.5t-122.5 30q-104 0 -166.5 -66t-87.5 -182v-596z" />
<glyph unicode="&#xff;" horiz-adv-x="1075" d="M-24 1010v55h446v-53q-44 -30 -121 -53l272 -631l41 -132h4l32 134l202 629q-64 12 -117 51v55h364v-55q-44 -30 -121 -51l-332 -959q-51 -136 -97.5 -220.5t-92 -133t-93.5 -71t-103 -33.5q-24 41 -41.5 90t-31.5 93l28 51h222q12 17 22 33t20.5 39.5t23.5 60t29 91.5 l-443 959q-32 8 -58.5 20.5t-54.5 30.5zM209 1412q0 51 31.5 82t82.5 31t83.5 -31t32.5 -82q0 -49 -32 -79t-84 -30q-51 0 -82.5 30t-31.5 79zM682 1412q0 51 32 82t83 31q50 0 82.5 -31t32.5 -82q0 -49 -32.5 -79t-82.5 -30q-51 0 -83 30t-32 79z" />
<glyph unicode="&#x131;" horiz-adv-x="640" d="M87 0v53q33 17 66.5 29t74.5 22v837l-141 18v55q62 26 134.5 44.5t144.5 32.5h53v-987q43 -10 77 -21.5t65 -29.5v-53h-474z" />
<glyph unicode="&#x152;" horiz-adv-x="2031" d="M113 746q0 166 46 307.5t131.5 245t211.5 160.5t286 57q49 0 115 -6t128 -19h835q-4 -85 -8.5 -171.5t-14.5 -173.5h-56l-90 234h-461v-565h345l85 158h51q17 -211 0 -430h-51l-85 162h-345v-595h489l102 256h55q13 -89 20.5 -180.5t3.5 -185.5h-871q-55 -10 -122 -18 t-125 -8q-160 0 -286 57.5t-211.5 161t-131.5 245t-46 308.5zM341 746q0 -137 28.5 -257.5t86.5 -210t144.5 -141.5t206.5 -52q55 0 112 8.5t112 32.5v1229q-55 24 -122.5 37.5t-137.5 13.5q-118 0 -199.5 -52.5t-132.5 -142t-74.5 -209.5t-23.5 -256z" />
<glyph unicode="&#x153;" horiz-adv-x="1865" d="M87 532q0 135 35.5 238.5t101.5 174.5t158.5 108.5t205.5 37.5q115 0 223.5 -42.5t170.5 -141.5q28 45 70.5 80t93.5 57.5t107.5 34.5t109.5 12q86 0 168.5 -27t140.5 -92t82 -172t-4 -268h-661q0 -89 22.5 -167t67 -135t111.5 -90.5t159 -33.5q36 0 75 6t75.5 16t66 24 t49.5 31l31 -34q-16 -37 -52.5 -68.5t-84.5 -55t-103 -37.5t-113 -14t-119.5 14t-118 38.5t-101 59t-68.5 74.5q-36 -51 -83 -86.5t-99 -57.5t-107.5 -32t-108.5 -10q-128 0 -222 39.5t-155.5 113.5t-92.5 177t-31 228zM292 532q0 -95 18 -180.5t57.5 -149.5t103.5 -100 t153 -36q115 0 187.5 114t72.5 352q0 98 -17 182.5t-55.5 147.5t-98 98.5t-142.5 35.5q-128 0 -203.5 -112.5t-75.5 -351.5zM1095 626h466q15 166 -34.5 268t-171.5 102q-119 0 -183 -81.5t-77 -288.5z" />
<glyph unicode="&#x178;" horiz-adv-x="1370" d="M0 1429v62h565v-62q-33 -13 -73.5 -27t-91.5 -26l350 -626l327 626q-48 10 -92 24t-82 29v62h469v-62q-81 -41 -162 -53l-403 -742v-521q83 -10 162 -52v-61h-541v61q77 39 175 52v519l-430 744q-49 8 -90.5 22t-82.5 31zM378 1681q0 51 34 76.5t88 25.5q51 0 84.5 -25.5 t33.5 -76.5q0 -49 -33.5 -74.5t-84.5 -25.5q-53 0 -87.5 25.5t-34.5 74.5zM853 1681q0 51 34 76.5t85 25.5q53 0 87 -25.5t34 -76.5q0 -49 -34 -74.5t-87 -25.5q-51 0 -85 25.5t-34 74.5z" />
<glyph unicode="&#x192;" d="M36 -411q26 13 61 47t70.5 90.5t66 137.5t47.5 187l136 908h-155v55q43 24 90.5 41.5t90.5 28.5l15 75q28 132 75.5 218t111.5 136t140.5 69.5t164.5 19.5q34 0 84 -8.5t84 -26.5q-2 -47 -20 -96.5t-61 -86.5l-161 132q-39 -10 -72 -23t-62 -48t-53 -99t-48 -175 l-21 -106h236q10 -53 -23 -106h-237l-134 -867q-24 -151 -79 -251.5t-116.5 -162.5t-121.5 -91.5t-94 -37.5z" />
<glyph unicode="&#x2c6;" horiz-adv-x="785" d="M128 1291l234 396q10 6 26.5 7t26.5 -7l243 -394l-57 -37l-219 228l-193 -228z" />
<glyph unicode="&#x2c7;" horiz-adv-x="829" d="M128 1659q8 16 29.5 27t43.5 9l227 -225l213 225q18 2 37 -8.5t25 -25.5l-264 -393q-11 -4 -26 -6t-27 6z" />
<glyph unicode="&#x2d8;" horiz-adv-x="834" d="M128 1536l59 27q15 -28 42 -52t58.5 -43t68 -31t68.5 -12q145 -4 232 130l51 -23q-19 -47 -46 -94.5t-62.5 -83t-79.5 -59t-97 -23.5q-57 0 -102 20t-81 55t-64 83t-47 106z" />
<glyph unicode="&#x2d9;" horiz-adv-x="525" d="M128 1427q0 57 37.5 91.5t98.5 34.5q62 0 98 -34.5t36 -91.5t-36 -90.5t-98 -33.5q-61 0 -98.5 33.5t-37.5 90.5z" />
<glyph unicode="&#x2da;" horiz-adv-x="668" d="M128 1455q0 87 61 146.5t152 59.5q83 0 141.5 -53t58.5 -147q0 -45 -17.5 -81t-45 -61.5t-65 -40.5t-74.5 -15q-96 0 -153.5 51.5t-57.5 140.5zM238 1459q0 -55 29 -82t65 -27q42 0 69 25t27 78q0 57 -26 89t-67 32q-51 0 -74 -32t-23 -83z" />
<glyph unicode="&#x2db;" horiz-adv-x="677" d="M128 -285q0 57 26.5 106t73.5 89.5t109.5 73.5t133.5 59h78q-51 -24 -94.5 -54t-76.5 -67t-52 -80t-19 -94q0 -20 6 -42.5t21 -42t38.5 -31.5t58.5 -12q30 0 56.5 6t55.5 14v-71q-30 -16 -75.5 -29t-83.5 -13q-128 0 -192 53.5t-64 134.5z" />
<glyph unicode="&#x2dc;" horiz-adv-x="908" d="M128 1390q79 75 140.5 100.5t111.5 25.5q38 0 71 -10t62.5 -23t60.5 -23.5t62 -10.5q29 0 56.5 9t61.5 33l28 -60q-69 -69 -125 -95t-106 -26q-38 0 -72 11.5t-65.5 24.5t-63 24.5t-63.5 11.5q-28 0 -56 -10.5t-63 -40.5z" />
<glyph unicode="&#x2dd;" horiz-adv-x="968" d="M128 1307l164 329q13 2 40.5 -1t56 -10t52 -16t30.5 -18v-32l-294 -285zM376 1312l284 324q15 2 41.5 -1t53.5 -12t51.5 -20.5t34.5 -25.5v-28l-424 -275z" />
<glyph unicode="&#x3a9;" horiz-adv-x="1697" d="M122 0q0 38 2 90t5 109t7 112t9 102h53l94 -251h338q-93 35 -178.5 93t-150.5 139t-103 184t-38 225q0 162 49 293t140.5 224.5t222.5 144.5t292 51q167 0 292.5 -48.5t212 -140t130 -219.5t43.5 -283q0 -132 -41.5 -241t-107.5 -193t-147 -142t-160 -87h318l96 251h53 q4 -47 8 -102t7 -112t6 -109t3 -90h-601v177q50 21 110 72.5t111 130t85.5 184t34.5 237.5q0 124 -28.5 234.5t-84.5 192.5t-140 130t-200 48q-128 0 -219.5 -47t-148.5 -127t-83.5 -185.5t-26.5 -221.5q0 -132 36 -242t90.5 -194t117.5 -138.5t114 -73.5v-177h-622z" />
<glyph unicode="&#x3c0;" horiz-adv-x="1309" d="M47 823q10 53 27.5 99.5t50.5 81.5t87 55.5t140 17.5q23 0 85.5 -2t147 -4t180 -4t182.5 -2q69 0 115 1t76.5 7.5t52 17t42.5 29.5l30 -19q-9 -68 -55.5 -119t-138.5 -51h-25v-807l141 -18v-45q-62 -28 -143 -48.5t-150 -31.5h-53v950h-406v-405q0 -68 -5.5 -140.5 t-17.5 -141.5t-28 -132t-35 -112q-18 -10 -54.5 -11t-71 0t-60 5t-25.5 6l-10 17q47 72 85.5 185t65 241t40 257t13.5 231h-36q-59 0 -114.5 -31t-104.5 -95z" />
<glyph unicode="&#x401;" horiz-adv-x="1238" d="M61 0v61q75 35 175 52v1263q-43 8 -87.5 22t-87.5 31v62h1010q-2 -85 -7 -171.5t-16 -173.5h-56l-87 234h-464v-565h347l84 158h53q12 -211 0 -430h-53l-84 162h-347v-595h490l104 256h54q14 -89 20.5 -180.5t2.5 -185.5h-1051zM268 1681q0 51 34 76.5t88 25.5 q51 0 84.5 -25.5t33.5 -76.5q0 -49 -33.5 -74.5t-84.5 -25.5q-53 0 -87.5 25.5t-34.5 74.5zM743 1681q0 51 34 76.5t85 25.5q53 0 87 -25.5t34 -76.5q0 -49 -34 -74.5t-87 -25.5q-51 0 -85 25.5t-34 74.5z" />
<glyph unicode="&#x402;" horiz-adv-x="1599" d="M21 1491h1235q0 -42 -2 -94.5t-5 -108t-6 -109t-10 -97.5h-55l-111 298h-325v-551q57 32 152.5 64t217.5 32q89 0 162.5 -18.5t128 -64t84 -127t29.5 -209.5q0 -160 -32.5 -259.5t-90.5 -156t-138 -76.5t-175 -20l-13 57q55 12 100 35.5t77 72t50 127t18 202.5 q0 148 -59.5 236.5t-200.5 88.5q-89 0 -170 -26.5t-140 -62.5v-611q40 -10 77 -23t73 -29v-61h-551v61q45 17 93 30t103 22v1267h-326l-111 -305h-55q-7 43 -10 97.5t-6 111t-5.5 111t-2.5 96.5z" />
<glyph unicode="&#x403;" horiz-adv-x="1079" d="M61 0v61q86 35 175 52v1263q-43 8 -87.5 22t-87.5 31v62h998q0 -42 -2 -98t-4.5 -115.5t-7 -115.5t-10.5 -101h-55l-111 319h-428v-1267q104 -16 205 -52v-61h-585zM475 1638l311 264q19 2 49 -2t60.5 -14t57 -23.5t40.5 -28.5v-43l-482 -194z" />
<glyph unicode="&#x404;" horiz-adv-x="1368" d="M113 746q0 209 57.5 354.5t155.5 238t227.5 135t273.5 42.5q140 0 236 -18t168 -53q0 -35 -2 -80.5t-6.5 -97t-11 -100.5t-12.5 -90h-55l-111 307q-24 13 -78 17.5t-107 4.5q-102 0 -193.5 -37.5t-163.5 -112t-116.5 -188t-51.5 -269.5l699 30q28 -85 9 -167 q-75 7 -165.5 12t-185 11t-186.5 9t-171 3q7 -141 48.5 -254t113 -192.5t172.5 -122.5t229 -43q71 0 117.5 10.5t61.5 28.5l100 264h56q10 -59 18.5 -150t4.5 -177q-32 -26 -77 -41.5t-95 -26t-102 -15t-98 -4.5q-179 0 -320 46t-238 140t-149 239.5t-52 346.5z" />
<glyph unicode="&#x405;" horiz-adv-x="1140" d="M124 75q2 36 7 87t12.5 105t16 105.5t17.5 87.5h55l87 -313q26 -26 66.5 -44t120.5 -18q69 0 129 18.5t103.5 53t69 85t25.5 114.5q0 85 -52.5 142.5t-130 102.5t-169 87t-169.5 101t-130 141t-52 206q0 89 31.5 159.5t90.5 119t140 75t181 26.5q130 0 237.5 -20 t169.5 -49q0 -37 -5.5 -84.5t-12.5 -99t-16 -99.5t-17 -84h-55l-86 292q-38 16 -97 25t-124 9q-108 0 -174.5 -61t-66.5 -170q0 -87 52.5 -146.5t131 -106t169 -90.5t169.5 -101.5t131 -136t52 -196.5q0 -95 -35 -174t-101 -134.5t-162.5 -85.5t-216.5 -30q-134 0 -241 32 t-151 69z" />
<glyph unicode="&#x406;" horiz-adv-x="748" d="M102 0v61q83 39 170 52v1263q-42 8 -84.5 22t-85.5 31v62h546v-62q-39 -17 -83.5 -31t-87.5 -22v-1263q45 -8 90 -21t81 -31v-61h-546z" />
<glyph unicode="&#x407;" horiz-adv-x="748" d="M69 1681q0 51 32.5 76.5t85.5 25.5q51 0 85.5 -25.5t34.5 -76.5q0 -49 -34.5 -74.5t-85.5 -25.5q-53 0 -85.5 25.5t-32.5 74.5zM102 0v61q83 39 170 52v1263q-42 8 -84.5 22t-85.5 31v62h546v-62q-39 -17 -83.5 -31t-87.5 -22v-1263q45 -8 90 -21t81 -31v-61h-546z M443 1681q0 51 34.5 76.5t85.5 25.5q53 0 85.5 -25.5t32.5 -76.5q0 -49 -32.5 -74.5t-85.5 -25.5q-51 0 -85.5 25.5t-34.5 74.5z" />
<glyph unicode="&#x408;" horiz-adv-x="725" d="M83 1429v62h541v-62q-38 -17 -79 -31t-83 -22v-1193q0 -149 -34 -245t-84 -154.5t-106.5 -86t-103.5 -38.5l-24 32q32 28 59 63t47 88.5t31 130t11 187.5v1216q-47 10 -91.5 23t-83.5 30z" />
<glyph unicode="&#x409;" horiz-adv-x="1961" d="M-21 222l31 53l246 -45q32 53 62.5 140.5t55 222.5t41 325t16.5 448q-133 20 -218 63v62h1133v-62q-41 -17 -87.5 -31t-99.5 -22v-488q38 4 93 9.5t98 5.5q104 0 200 -19.5t168.5 -68.5t116 -134t43.5 -217q0 -126 -49 -214t-127.5 -145.5t-178.5 -84t-202 -26.5 q-11 0 -42 1t-69.5 2t-81 2t-73.5 1h-263v61q82 39 163 52v1267h-399q-8 -335 -31 -555t-56.5 -364t-77.5 -229t-95 -151q-42 -55 -104 -81t-119 -26q-15 17 -31 48t-30 66.5t-22.5 70t-10.5 63.5zM1159 113q10 -4 30.5 -5.5t42.5 -2.5t43.5 -1h34.5q149 0 244.5 89.5 t95.5 273.5q0 160 -86 242.5t-261 82.5q-51 0 -82.5 -1t-61.5 -9v-669z" />
<glyph unicode="&#x40a;" horiz-adv-x="2116" d="M61 0v61q86 35 175 52v1263q-100 14 -175 53v62h540v-62q-36 -19 -76.5 -32t-83.5 -21v-528h669v528q-43 10 -80.5 23t-79.5 30v62h552v-62q-41 -17 -87.5 -31t-99.5 -22v-530q38 6 93 10t98 4q104 0 200 -18.5t168.5 -67t116 -130t43.5 -207.5q0 -124 -47.5 -208 t-127 -136t-179 -75.5t-204.5 -23.5q-11 0 -41.5 1t-69 2t-81 2t-74.5 1h-260v61q42 19 78.5 32t81.5 20v624h-669v-624q43 -8 83.5 -21t76.5 -31v-61h-540zM1315 113q10 -4 30.5 -5.5t43.5 -2.5t44.5 -1h31.5q75 0 138 19t108 60t70 103.5t25 150.5q0 146 -86 228.5 t-259 82.5q-51 0 -84 -1t-62 -10v-624z" />
<glyph unicode="&#x40b;" horiz-adv-x="1650" d="M21 1491h1235q0 -42 -2 -94.5t-5 -108t-6 -109t-10 -95.5h-55l-111 296h-325v-551q57 32 142 64t207 32q89 0 160.5 -18.5t121.5 -63t76.5 -121t26.5 -196.5v-413q77 -12 154 -52v-61h-358v488q0 75 -12 134t-38.5 101.5t-73.5 66t-117 23.5q-90 0 -160 -26.5t-129 -62.5 v-611q40 -10 77 -23t73 -29v-61h-551v61q45 17 93 30t103 22v1267h-326l-111 -305h-55q-7 43 -10 97.5t-6 111t-5.5 111t-2.5 96.5z" />
<glyph unicode="&#x40c;" horiz-adv-x="1375" d="M61 0v61q86 35 175 52v1263q-96 12 -175 53v62h540v-62q-34 -15 -74.5 -29t-85.5 -24v-590l128 29l398 561q-42 10 -80.5 23t-73.5 30v62h471v-62q-42 -19 -82.5 -32t-79.5 -21l-427 -567q53 -71 122 -157.5t144.5 -179t155.5 -188t157 -180.5l102 -51v-53h-266l-73 51 q-126 147 -250.5 317.5t-241.5 344.5h-104v-600q98 -16 160 -52v-61h-540zM581 1638l311 264q19 2 49 -2t60.5 -14t57 -23.5t40.5 -28.5v-43l-482 -194z" />
<glyph unicode="&#x40e;" horiz-adv-x="1405" d="M0 1429v62h561v-62q-37 -15 -80.5 -29t-92.5 -24l354 -705l44 -136h4l43 140l279 701q-106 19 -181 53v62h475v-62q-28 -13 -66.5 -27t-87.5 -26l-417 -948q-45 -115 -89.5 -203.5t-91.5 -143.5t-100.5 -80t-114.5 -11q-13 18 -25 48.5t-20 62t-15 62t-9 56.5l32 53 l220 -57q8 9 18 26t19.5 38.5t17.5 42.5t14 38l-531 1016q-40 10 -81 23t-79 30zM373 1829q24 24 69 34.5t90 12.5l54 -27v-181q30 -14 73.5 -22t91.5 -8q37 0 87 6t80 17v188l53 27q32 2 78 -11.5t74 -35.5q0 -57 -21.5 -106t-66 -85t-115.5 -57.5t-171 -21.5 q-195 0 -285.5 78t-90.5 192z" />
<glyph unicode="&#x40f;" horiz-adv-x="1528" d="M61 0v61q86 35 175 52v1263q-57 8 -99.5 22t-75.5 31v62h540v-62q-73 -32 -160 -53v-1266h648v1266q-116 26 -160 53v62h538v-62q-44 -21 -88 -35t-86 -18v-1263q44 -8 89 -19t85 -33v-61h-603q-12 -100 -30.5 -201.5t-41.5 -205.5h-55q-20 104 -38 205.5t-34 201.5h-604 z" />
<glyph unicode="&#x410;" horiz-adv-x="1453" d="M0 0v61q77 35 153 52l540 1403h61l539 -1403q42 -8 84 -19t78 -33v-61h-546v61q43 17 87.5 30t87.5 22l-145 389h-508l-141 -389q90 -12 183 -52v-61h-473zM473 614h430l-168 451l-40 183h-4l-55 -187z" />
<glyph unicode="&#x411;" horiz-adv-x="1277" d="M61 0v61q84 39 175 52v1263q-49 8 -91.5 22t-83.5 31v62h1021q2 -85 -4.5 -190.5t-18.5 -194.5h-55l-112 274h-451v-513q38 5 94.5 10t98.5 5q104 0 200.5 -22.5t169.5 -73.5t117 -135t44 -208q0 -117 -46 -201t-122.5 -139.5t-178.5 -82t-215 -26.5q-10 0 -41.5 1t-72 2 t-83 2t-74.5 1h-271zM441 113q10 -4 30.5 -5.5t44 -2.5t44.5 -1h34q75 0 138 20.5t108.5 63t71 106.5t25.5 151q0 158 -87.5 242t-261.5 84q-51 0 -84 -2.5t-63 -8.5v-647z" />
<glyph unicode="&#x412;" horiz-adv-x="1309" d="M61 0v61q86 41 175 52v1263q-43 8 -87.5 22t-87.5 31v62h226q41 0 78 2.5t78 4.5t87.5 4t105.5 2q86 0 174.5 -14t159.5 -52t115.5 -108t44.5 -180q0 -55 -16.5 -110.5t-52 -103.5t-88.5 -84.5t-125 -52.5v-9q63 -10 126 -36t112.5 -69.5t80 -107t30.5 -153.5 q0 -115 -51 -198.5t-133 -136.5t-186.5 -77t-210.5 -24q-75 0 -168.5 6t-181.5 6h-205zM428 115q31 -8 72 -12.5t130 -4.5q77 0 144 23.5t115 65t75.5 100t27.5 126.5q0 85 -32.5 142t-89.5 89.5t-130 45.5t-152 13h-160v-588zM428 813h107q36 0 86 3.5t82 8.5 q98 34 161 109.5t63 177.5q0 140 -84.5 210.5t-224.5 70.5q-66 0 -113 -2.5t-77 -6.5v-571z" />
<glyph unicode="&#x413;" horiz-adv-x="1079" d="M61 0v61q86 35 175 52v1263q-43 8 -87.5 22t-87.5 31v62h998q0 -42 -2 -98t-4.5 -115.5t-7 -115.5t-10.5 -101h-55l-111 319h-428v-1267q104 -16 205 -52v-61h-585z" />
<glyph unicode="&#x414;" horiz-adv-x="1458" d="M0 110h177q55 90 104 229.5t84 306.5t56.5 353t21.5 367q-55 10 -109.5 25t-107.5 38v62h1131v-62q-36 -15 -78.5 -29t-96.5 -24v-1266h243q0 -42 -4.5 -98.5t-10.5 -116t-14 -117t-14 -99.5h-55l-89 321h-1051l-89 -321h-53q-11 40 -18.5 97.5t-13 118t-9.5 117.5t-4 98 zM311 110h667v1270h-411q-13 -262 -42 -467.5t-66 -362t-76.5 -265t-71.5 -175.5z" />
<glyph unicode="&#x415;" horiz-adv-x="1238" d="M61 0v61q75 35 175 52v1263q-43 8 -87.5 22t-87.5 31v62h1010q-2 -85 -7 -171.5t-16 -173.5h-56l-87 234h-464v-565h347l84 158h53q12 -211 0 -430h-53l-84 162h-347v-595h490l104 256h54q14 -89 20.5 -180.5t2.5 -185.5h-1051z" />
<glyph unicode="&#x416;" horiz-adv-x="2016" d="M0 0v53l100 51q79 85 153.5 176.5t142.5 181t127.5 174t108.5 154.5l-400 586q-87 26 -151 53v62h470v-62q-30 -15 -66 -29t-78 -24l359 -573h137v573q-45 12 -83 25t-68 28v62h494v-62q-26 -13 -61 -26t-77 -27v-590l144 29l358 561q-43 12 -80 26t-73 27v62h468v-62 q-38 -17 -78.5 -30t-80.5 -23l-388 -567q55 -71 117 -157.5t129 -181t140.5 -188t152.5 -178.5l100 -51v-53h-267l-71 53q-126 147 -229.5 316.5t-218.5 343.5h-123v-600q36 -10 71 -22t67 -30v-61h-496v61q63 35 153 52v620l-128 -32q-116 -175 -213.5 -337.5 t-222.5 -310.5l-73 -53h-266z" />
<glyph unicode="&#x417;" horiz-adv-x="1179" d="M106 57q0 35 4.5 78.5t12 91.5t17 95.5t20.5 90.5h55l90 -298q12 -6 35.5 -11.5t52.5 -10t60 -6.5t59 -2q79 0 143.5 25.5t111 69.5t72 103.5t25.5 129.5q0 85 -26.5 143t-71 92.5t-103 49.5t-122.5 15l-165 -22q-14 65 -2 122h69q36 0 87 3.5t86 8.5q97 34 149 109.5 t52 177.5q0 140 -79.5 217t-219.5 77q-71 0 -112.5 -12t-56.5 -28l-111 -260h-55q-10 57 -17.5 146.5t-5.5 176.5q32 26 77.5 42t95 26.5t101.5 14.5t96 4q86 0 173 -14.5t158.5 -56t116 -113.5t44.5 -182q0 -108 -63 -203t-199 -148v-9q64 -10 120.5 -37t98 -70.5t66 -107 t24.5 -151.5q0 -115 -45.5 -200.5t-122 -140.5t-178 -82t-209.5 -27q-120 0 -227.5 23.5t-180.5 59.5z" />
<glyph unicode="&#x418;" horiz-adv-x="1573" d="M61 0v61q86 39 175 52v1263q-43 10 -87.5 23t-87.5 30v62h540v-62q-34 -17 -72.5 -30t-87.5 -23v-925l-24 -159l103 168l624 865v51q-49 10 -92.5 24t-80.5 29v62h541v-62q-38 -17 -83 -30t-92 -23v-1263q100 -16 175 -52v-61h-541v61q35 15 75 29t88 23v922l20 160 l-93 -160l-633 -875v-47q49 -8 93 -21t80 -31v-61h-540z" />
<glyph unicode="&#x419;" horiz-adv-x="1573" d="M61 0v61q86 39 175 52v1263q-43 10 -87.5 23t-87.5 30v62h540v-62q-34 -17 -72.5 -30t-87.5 -23v-925l-24 -159l103 168l624 865v51q-49 10 -92.5 24t-80.5 29v62h541v-62q-38 -17 -83 -30t-92 -23v-1263q100 -16 175 -52v-61h-541v61q35 15 75 29t88 23v922l20 160 l-93 -160l-633 -875v-47q49 -8 93 -21t80 -31v-61h-540zM422 1829q24 24 69 34.5t90 12.5l54 -27v-181q30 -14 73.5 -22t91.5 -8q37 0 87 6t80 17v188l53 27q32 2 78 -11.5t74 -35.5q0 -57 -21.5 -106t-66 -85t-115.5 -57.5t-171 -21.5q-195 0 -285.5 78t-90.5 192z" />
<glyph unicode="&#x41a;" horiz-adv-x="1375" d="M61 0v61q86 35 175 52v1263q-96 12 -175 53v62h540v-62q-34 -15 -74.5 -29t-85.5 -24v-590l128 29l398 561q-42 10 -80.5 23t-73.5 30v62h471v-62q-42 -19 -82.5 -32t-79.5 -21l-427 -567q53 -71 122 -157.5t144.5 -179t155.5 -188t157 -180.5l102 -51v-53h-266l-73 51 q-126 147 -250.5 317.5t-241.5 344.5h-104v-600q98 -16 160 -52v-61h-540z" />
<glyph unicode="&#x41b;" horiz-adv-x="1394" d="M-21 222l31 53l246 -45q32 53 62.5 140.5t55 222.5t41 325t16.5 448q-133 20 -218 63v62h1120v-62q-75 -39 -174 -53v-1263q99 -16 174 -52v-61h-541v61q39 17 79.5 29t83.5 23v1267h-399q-8 -335 -31 -555t-56.5 -364t-77.5 -229t-95 -151q-42 -55 -104 -81t-119 -26 q-15 17 -31 48t-30 66.5t-22.5 70t-10.5 63.5z" />
<glyph unicode="&#x41c;" horiz-adv-x="1846" d="M61 1429v62h437l371 -973l72 -220h2l73 224l384 969h385v-62q-39 -17 -79 -31t-83 -22v-1266q45 -8 84 -19.5t76 -29.5v-61h-529v61q43 17 85.5 29t87.5 23v958l8 250h-16l-71 -228l-436 -1093h-56l-415 1093l-77 249h-19l2 -271v-958q41 -8 81.5 -21t80.5 -31v-61h-446 v61q41 17 84.5 31t88.5 23v1261q-45 8 -88.5 22t-86.5 31z" />
<glyph unicode="&#x41d;" horiz-adv-x="1549" d="M61 0v61q86 35 175 52v1263q-100 14 -175 53v62h540v-62q-36 -19 -76.5 -32t-83.5 -21v-556h669v556q-45 10 -84.5 23t-75.5 30v62h539v-62q-38 -21 -84 -33t-90 -20v-1263q48 -8 93 -21t81 -31v-61h-539v61q76 35 160 52v596h-669v-596q43 -8 83.5 -21t76.5 -31v-61 h-540z" />
<glyph unicode="&#x41e;" horiz-adv-x="1575" d="M113 746q0 166 46 307.5t131.5 245t211.5 160.5t286 57t285.5 -57t212 -160.5t132 -245t45.5 -307.5q0 -167 -45.5 -308.5t-132 -245t-212.5 -161t-285 -57.5q-160 0 -286 57.5t-211.5 161t-131.5 245t-46 308.5zM341 746q0 -137 28.5 -257.5t86.5 -210t145 -141.5 t206 -52q108 0 189 52t133.5 141.5t79.5 210t27 257.5q0 136 -28 256t-85.5 209.5t-145 142t-206.5 52.5q-118 0 -199.5 -52.5t-132.5 -142t-74.5 -209.5t-23.5 -256z" />
<glyph unicode="&#x41f;" horiz-adv-x="1528" d="M61 0v61q33 17 75.5 30t99.5 22v1263q-43 8 -87.5 22t-87.5 31v62h1406v-62q-40 -21 -85 -33t-89 -20v-1263q85 -10 174 -52v-61h-538v61q47 31 160 52v1267h-648v-1267q83 -16 160 -52v-61h-540z" />
<glyph unicode="&#x420;" horiz-adv-x="1268" d="M61 0v61q43 21 87.5 32t87.5 20v1263q-49 8 -91.5 22t-83.5 31v62h193q85 0 185 8.5t191 8.5q104 0 204.5 -22.5t178.5 -75.5t126 -141.5t48 -220.5q0 -126 -49 -215t-131 -147t-186.5 -84.5t-215.5 -26.5h-33t-48.5 1t-49 3t-33.5 4v-470q57 -6 108.5 -20t96.5 -32v-61 h-585zM441 697q10 -4 30.5 -5t43 -4t43.5 -3h34q75 0 141 20.5t116 65t80 113t30 164.5q0 175 -99.5 262t-273.5 87q-51 0 -83 -2t-62 -9v-689z" />
<glyph unicode="&#x421;" horiz-adv-x="1370" d="M113 746q0 209 57.5 354.5t155.5 238t227.5 135t273.5 42.5q140 0 236 -18t168 -53q0 -35 -2 -80.5t-6.5 -97t-11 -100.5t-12.5 -90h-55l-111 307q-24 13 -78 17.5t-107 4.5q-106 0 -201.5 -39.5t-166.5 -121.5t-114 -206.5t-43 -292.5q0 -151 38.5 -274t111 -209 t177 -132t236.5 -46q71 0 117.5 10.5t61.5 28.5l100 264h56q10 -59 18.5 -150t4.5 -177q-32 -26 -77 -41.5t-95 -26t-102 -15t-98 -4.5q-179 0 -320 46t-238 140t-149 239.5t-52 346.5z" />
<glyph unicode="&#x422;" horiz-adv-x="1317" d="M41 1491h1237q0 -42 -2 -95.5t-5 -110t-7 -111t-10 -99.5h-55l-110 305h-327v-1267q55 -10 103.5 -21t93.5 -31v-61h-599v61q47 17 94.5 30t103.5 22v1267h-326l-112 -305h-54q-7 43 -11 97.5t-7 111t-5 111t-2 96.5z" />
<glyph unicode="&#x423;" horiz-adv-x="1405" d="M0 1429v62h561v-62q-37 -15 -80.5 -29t-92.5 -24l354 -705l44 -136h4l43 140l279 701q-106 19 -181 53v62h475v-62q-28 -13 -66.5 -27t-87.5 -26l-417 -948q-45 -115 -89.5 -203.5t-91.5 -143.5t-100.5 -80t-114.5 -11q-13 18 -25 48.5t-20 62t-15 62t-9 56.5l32 53 l220 -57q8 9 18 26t19.5 38.5t17.5 42.5t14 38l-531 1016q-40 10 -81 23t-79 30z" />
<glyph unicode="&#x424;" horiz-adv-x="1673" d="M83 746q0 128 42.5 228.5t115 169t167 104.5t199.5 36q28 0 69.5 -2t67.5 -6v102q-96 21 -152 51v62h479v-62q-24 -13 -57.5 -26t-82.5 -25v-108q40 10 92 12t87 2q102 0 190 -35t153 -102t101.5 -163t36.5 -218q0 -136 -44.5 -235.5t-118 -167t-166.5 -100.5t-189 -33 q-10 0 -29.5 1t-40.5 2t-40.5 4t-31.5 8v-132q42 -10 76 -22t64 -30v-61h-479v61q32 17 70.5 29t81.5 20v130q-41 -6 -89 -8t-90 -2q-88 0 -173 28.5t-154.5 90.5t-112 160t-42.5 237zM283 746q0 -100 28 -178t76 -130t113.5 -80t142.5 -28q24 0 48.5 1t54.5 10v837 q-51 7 -103 7q-69 0 -132.5 -25.5t-114.5 -80.5t-82 -137t-31 -196zM929 337q21 -4 53 -5.5t49 -1.5q70 0 135 26t115 78t79.5 135t29.5 197q0 196 -89.5 307.5t-254.5 111.5q-30 0 -58.5 -2.5t-58.5 -11.5v-834z" />
<glyph unicode="&#x425;" horiz-adv-x="1426" d="M21 0v61q40 21 79.5 32t78.5 20l417 637l-400 626q-43 12 -84 25t-84 28v62h564v-62q-32 -13 -71 -26t-90 -27l297 -482l290 482q-87 19 -177 53v62h490v-62q-36 -15 -76.5 -29t-83.5 -24l-374 -577l436 -686q102 -16 175 -52v-61h-567v61q77 39 163 52l-337 535 l-324 -538q45 -6 87.5 -15.5t83.5 -33.5v-61h-493z" />
<glyph unicode="&#x426;" horiz-adv-x="1558" d="M61 0v61q60 28 175 52v1263q-83 12 -175 53v62h540v-62q-61 -28 -160 -53v-1266h636v1266q-38 8 -78 21t-81 32v62h539v-62q-85 -36 -175 -53v-1266h245q0 -42 -4.5 -98.5t-10.5 -117t-13.5 -117t-16.5 -98.5h-53l-92 321h-1276z" />
<glyph unicode="&#x427;" horiz-adv-x="1354" d="M19 1429v62h499v-62q-30 -15 -64.5 -29t-77.5 -24v-374q0 -149 61 -238t202 -89q89 0 170 25.5t138 61.5v614q-38 10 -76 24t-74 29v62h496v-62q-30 -15 -65 -29t-76 -24v-1263q43 -8 78.5 -21t62.5 -31v-61h-541v61q51 24 99 35.5t96 16.5v547q-57 -32 -151.5 -63.5 t-216.5 -31.5q-89 0 -163.5 16.5t-129 61.5t-84 121.5t-29.5 196.5v415q-39 6 -77.5 20t-76.5 33z" />
<glyph unicode="&#x428;" horiz-adv-x="1980" d="M61 0v61q79 39 154 52v1263q-40 10 -78.5 23t-75.5 30v62h497v-62q-55 -28 -139 -53v-1266h471v1266q-42 12 -76 26t-62 27v62h481v-62q-34 -17 -68.5 -30t-69.5 -23v-1266h470v1266q-75 21 -140 53v62h494v-62q-32 -15 -69 -29t-80 -24v-1263q87 -16 149 -52v-61h-1858z " />
<glyph unicode="&#x429;" horiz-adv-x="2046" d="M61 0v61q35 17 71 30t83 22v1263q-75 12 -154 53v62h497v-62q-30 -15 -63 -29t-76 -24v-1266h471v1266q-38 12 -73 24t-65 29v62h481v-62q-26 -17 -60.5 -30t-77.5 -23v-1266h470v1266q-77 19 -140 53v62h494v-62q-62 -39 -149 -53v-1268h244q0 -42 -4 -97.5t-10 -115 t-13.5 -117t-16.5 -99.5h-53l-92 321h-1764z" />
<glyph unicode="&#x42a;" horiz-adv-x="1537" d="M41 1491h855v-62q-38 -15 -86 -29t-101 -24v-488q39 4 94 9.5t98 5.5q104 0 204 -19.5t178 -68.5t125 -134t47 -217q0 -126 -49 -215t-131 -145.5t-187.5 -83t-218.5 -26.5q-10 0 -41 1t-69.5 2t-81.5 2t-74 1h-273v61q75 35 174 52v1267h-274l-110 -305h-54 q-7 45 -11 100.5t-7 111t-4 109t-3 95.5zM709 113q11 -4 31 -5.5t43.5 -2.5t45 -1h31.5q75 0 141 21.5t116 65t80 111.5t30 165q0 173 -99 249t-272 76q-53 0 -85 -1t-62 -9v-669z" />
<glyph unicode="&#x42b;" horiz-adv-x="1797" d="M61 0v61q84 39 175 52v1263q-43 10 -87.5 23t-87.5 30v62h567v-62q-40 -17 -87 -31t-100 -22v-488q38 4 93.5 9.5t97.5 5.5q104 0 200.5 -19.5t168.5 -68.5t116 -134t44 -217q0 -126 -49 -214t-128 -145.5t-179 -84t-202 -26.5q-10 0 -41.5 1t-70 2t-81 2t-73.5 1h-276z M441 113q10 -4 30.5 -5.5t43 -2.5t43.5 -1h34q148 0 244.5 89.5t96.5 273.5q0 160 -87.5 242.5t-259.5 82.5q-51 0 -84 -1t-61 -9v-669zM1195 0v61q43 21 83.5 32t82.5 20v1263q-40 10 -81.5 21t-84.5 32v62h541v-62q-71 -34 -171 -53v-1263q53 -8 93.5 -21t77.5 -31v-61 h-541z" />
<glyph unicode="&#x42c;" horiz-adv-x="1268" d="M61 0v61q84 39 175 52v1263q-43 8 -87.5 22t-87.5 31v62h567v-62q-38 -17 -86 -31t-101 -22v-488q38 4 93.5 9.5t97.5 5.5q106 0 206.5 -19.5t177.5 -68.5t124 -134t47 -217q0 -126 -49 -214t-130 -145.5t-186.5 -84t-218.5 -26.5q-10 0 -41.5 1t-71 2t-82 2t-73.5 1 h-274zM441 113q10 -4 30.5 -5.5t44 -2.5t44.5 -1h32q75 0 141 21.5t116 65t80 111.5t30 165q0 173 -99.5 249t-271.5 76q-53 0 -85 -1t-62 -9v-669z" />
<glyph unicode="&#x42d;" horiz-adv-x="1347" d="M124 47q2 34 5 82t7 98t9.5 98.5t10.5 89.5h55l110 -311q24 -12 79.5 -15.5t108.5 -3.5q95 0 187 40.5t164.5 121.5t117 202.5t44.5 283.5l-620 -64q-10 42 -10 84t10 82l620 -2q-16 287 -154 430t-374 143q-71 0 -112 -12t-59 -28l-110 -260h-55q-4 28 -8.5 66t-8 80.5 t-4.5 88t-1 88.5q32 26 78 42t95 26.5t101 14.5t96 4q173 0 308.5 -43.5t229.5 -136t143 -238.5t49 -350q0 -205 -60 -350.5t-159 -240t-225.5 -139t-263.5 -44.5q-140 0 -235 18t-169 55z" />
<glyph unicode="&#x42e;" horiz-adv-x="2061" d="M61 0v61q41 17 83.5 30t91.5 22v1263q-83 12 -175 53v62h542v-62q-30 -13 -64.5 -27t-97.5 -26v-556h254q8 146 50.5 274.5t120 222t189.5 146.5t260 53q160 0 279 -57t197.5 -160.5t118 -245t39.5 -307.5q0 -165 -40.5 -306.5t-120.5 -244.5t-198 -162t-275 -59 q-156 0 -272 55.5t-193 152.5t-116 232t-41 295h-252v-596q53 -10 92.5 -23t69.5 -29v-61h-542zM912 746q0 -139 22.5 -259.5t72.5 -210t129.5 -140.5t196.5 -51q108 0 183 52t120 141.5t65 210t20 257.5q0 136 -21 256t-71 209.5t-131.5 142t-200.5 52.5q-116 0 -190 -52.5 t-118 -142t-60.5 -209.5t-16.5 -256z" />
<glyph unicode="&#x42f;" horiz-adv-x="1354" d="M19 0v53l103 51q68 73 121 143t98 136t86.5 130t84.5 126q-62 18 -119.5 52.5t-100 86t-68.5 120.5t-26 159q0 117 51.5 201t134.5 137.5t188 78t214 24.5q43 0 106 -3.5t128 -3.5h273v-62q-33 -15 -75.5 -29t-99.5 -24v-1263q106 -14 175 -52v-61h-565v61q79 39 186 52 v513h-215q-47 -77 -84.5 -151.5t-76 -146.5t-81 -140t-97.5 -135l-73 -53h-268zM426 1057q0 -161 84 -249t256 -88q39 0 79.5 3t68.5 12v641q-21 6 -61 8t-69 2q-164 0 -261 -77.5t-97 -251.5z" />
<glyph unicode="&#x430;" horiz-adv-x="1075" d="M83 260q0 98 39.5 161t116 99t189.5 52t263 24q8 91 5 165t-23.5 126t-60 80.5t-103.5 28.5q-31 0 -67.5 -3t-73.5 -17l-100 -256h-55q-21 63 -37 131.5t-20 134.5q81 49 180 77t220 28q109 0 174 -31t98.5 -80t44.5 -109t11 -119q0 -128 -5 -246.5t-5 -226.5 q0 -47 2 -81t4 -72l146 -22v-45q-53 -28 -118 -48.5t-124 -31.5h-54q-21 49 -25 107.5t-6 128.5h-11q-8 -42 -33 -86t-64.5 -78t-92.5 -55.5t-122 -21.5q-130 0 -211.5 79t-81.5 207zM287 298q0 -91 47 -141.5t128 -50.5q53 0 93.5 21.5t68.5 51.5t44.5 60.5t24.5 52.5v224 q-124 0 -203 -13t-124 -40.5t-62 -69t-17 -95.5z" />
<glyph unicode="&#x431;" horiz-adv-x="1151" d="M87 558q0 273 45 457t135.5 296t228.5 158.5t324 46.5l139 107h55q-2 -38 -8.5 -81.5t-16 -83t-19 -69.5t-15.5 -43q-196 0 -332.5 -19.5t-226 -78.5t-135.5 -172t-60 -298h10q26 55 69 106t100 89.5t121 62t129 23.5q435 0 435 -522q0 -124 -34.5 -227t-100.5 -178 t-159.5 -116.5t-209.5 -41.5q-107 0 -194.5 39.5t-149 115.5t-96 183.5t-34.5 245.5zM287 558q0 -134 25 -227t67.5 -151t99 -84.5t117.5 -26.5q128 0 193 114.5t65 328.5q0 217 -83 317t-230 100q-55 0 -120 -34.5t-110 -91.5q-10 -53 -17 -111.5t-7 -133.5z" />
<glyph unicode="&#x432;" horiz-adv-x="1124" d="M83 0v53q66 34 141 51v855q-82 14 -141 51v55h192q51 0 87 1t68 3t64 3t71 1q187 0 291.5 -56t104.5 -197q0 -51 -21.5 -91.5t-55.5 -70.5t-77 -50t-83 -29q59 -4 113.5 -23t96.5 -52t66 -81.5t24 -111.5q0 -85 -38.5 -146t-103.5 -99t-149.5 -56t-179.5 -18 q-68 0 -108 1t-68 3t-47 3t-43 1h-204zM415 92q30 -7 76 -7h76q126 0 187 54t61 155q0 104 -74 156t-192 52h-134v-410zM415 567l237 21q39 18 78 70.5t39 138.5q0 104 -63 143.5t-184 39.5q-24 0 -53.5 -1t-53.5 -8v-404z" />
<glyph unicode="&#x433;" horiz-adv-x="917" d="M83 0v53q37 21 70.5 32t70.5 19v857q-79 12 -141 49v55h795q-2 -83 -8 -172.5t-18 -176.5h-55l-94 255h-288v-867q122 -24 192 -51v-53h-524z" />
<glyph unicode="&#x434;" horiz-adv-x="1219" d="M19 104h145q26 30 58 94t60.5 165t49 243t20.5 331q-45 13 -81.5 32t-65.5 41v55h905v-55q-58 -39 -141 -51v-855h190q2 -102 -4.5 -208.5t-18.5 -210.5h-54l-96 315h-795l-95 -315h-55q-11 104 -16.5 210.5t-5.5 208.5zM294 104h484v855h-309q0 -191 -19 -334 t-46.5 -244.5t-57 -168.5t-52.5 -108z" />
<glyph unicode="&#x435;" horiz-adv-x="1071" d="M87 532q0 273 126 416t356 143q75 0 147 -20.5t128.5 -67t91.5 -124.5t35 -194q0 -36 -3 -73t-11 -80h-665q0 -89 22.5 -167t67 -135t113 -90.5t159.5 -33.5q75 0 151.5 21.5t114.5 55.5l30 -34q-17 -37 -53.5 -68.5t-83.5 -55t-102 -37.5t-113 -14q-126 0 -221.5 39.5 t-159.5 113.5t-97 176t-33 229zM298 626h468q3 19 4 37t1 36q0 136 -51 216.5t-159 80.5q-122 0 -186 -81.5t-77 -288.5z" />
<glyph unicode="&#x436;" horiz-adv-x="1537" d="M0 0v53l98 51q53 61 103.5 130t95 133t81.5 120t67 94q-81 92 -155.5 186.5t-142.5 191.5q-55 12 -106 51v55h368v-55q-41 -30 -106 -51q57 -102 124 -193t142 -193h110v386q-71 14 -118 51v55h412v-55q-20 -17 -47 -30t-66 -21v-398l118 20q74 102 134.5 188.5 t120.5 189.5q-30 10 -55.5 20.5t-51.5 30.5v55h370v-55q-37 -26 -122 -51q-69 -94 -141 -184t-142 -179q28 -39 68 -96t88 -124t100.5 -137.5t103.5 -134.5l87 -51v-53h-226l-60 49q-36 49 -77 114t-82 131t-75 122.5t-55 87.5h-103v-400q66 -17 128 -51v-53h-427v53 q30 15 58.5 28t59.5 23v414l-116 -22q-19 -30 -51.5 -87t-69.5 -123.5t-78 -130t-79 -106.5l-63 -49h-222z" />
<glyph unicode="&#x437;" horiz-adv-x="1008" d="M98 102l38 143h43q28 -30 62 -71.5t68 -81.5q45 -17 128 -17q65 0 113 21.5t78 55t45 77t15 88.5q0 102 -43.5 138.5t-118.5 48.5l-200 -31q-9 28 -10 58t10 57h217q19 8 39.5 26t38.5 44.5t29.5 63t11.5 81.5q0 102 -56.5 147.5t-147.5 45.5q-43 0 -78 -5t-45 -9 l-97 -240h-53q-24 70 -34.5 140t-12.5 138q43 24 130.5 47.5t223.5 23.5q173 0 267.5 -63t94.5 -187q0 -51 -21.5 -93.5t-54 -77t-74.5 -57.5t-82 -36q117 -10 195.5 -75t78.5 -185q0 -170 -117 -256.5t-310 -86.5q-124 0 -216.5 36.5t-154.5 91.5z" />
<glyph unicode="&#x438;" horiz-adv-x="1303" d="M83 0v53q37 17 70.5 29t70.5 22v855q-84 12 -141 51v55h452v-55q-24 -13 -55 -26t-73 -25v-585l-23 -197h10l83 160l456 728h288v-55q-69 -39 -141 -51v-855q40 -10 76.5 -21.5t64.5 -29.5v-53h-452v53q59 34 127 51v609l22 169h-11l-80 -160l-453 -722h-291z" />
<glyph unicode="&#x439;" horiz-adv-x="1303" d="M83 0v53q37 17 70.5 29t70.5 22v855q-84 12 -141 51v55h452v-55q-24 -13 -55 -26t-73 -25v-585l-23 -197h10l83 160l456 728h288v-55q-69 -39 -141 -51v-855q40 -10 76.5 -21.5t64.5 -29.5v-53h-452v53q59 34 127 51v609l22 169h-11l-80 -160l-453 -722h-291zM317 1455 q34 28 74 40.5t85 16.5l54 -28v-189q30 -13 70 -18t75 -5q20 0 67.5 4t76.5 13v195l53 28q45 -4 84.5 -19t65.5 -38q0 -49 -17 -97t-56.5 -84t-106.5 -58.5t-169 -22.5q-106 0 -175 22.5t-109 58.5t-56 84t-16 97z" />
<glyph unicode="&#x43a;" horiz-adv-x="1151" d="M83 0v53q57 34 141 51v855q-75 14 -141 51v55h437v-55q-21 -15 -46 -28t-59 -23v-398l99 20q85 98 161.5 183.5t141.5 185.5q-36 14 -66.5 28t-57.5 32v55h410v-55q-20 -17 -55.5 -30t-86.5 -30q-73 -88 -154 -177.5t-171 -178.5q47 -51 99.5 -113t105.5 -128t107 -129.5 t104 -119.5l100 -51v-53h-249l-68 49q-96 115 -175 230t-160 225h-85v-400q43 -10 78 -21.5t60 -29.5v-53h-470z" />
<glyph unicode="&#x43b;" horiz-adv-x="1156" d="M8 173l30 53l181 -43q31 51 54 136.5t39 187.5t24.5 214t8.5 216q-42 13 -77.5 32t-64.5 41v55h870v-55q-68 -39 -140 -51v-855q45 -10 79 -22.5t61 -28.5v-53h-457v53q51 36 126 51v867h-282q-2 -113 -12.5 -239.5t-32 -249t-55.5 -230t-83 -179.5q-41 -62 -88 -86.5 t-87 -16.5q-32 36 -61 95t-33 108z" />
<glyph unicode="&#x43c;" horiz-adv-x="1563" d="M66 0v53q70 34 141 51l31 833q-45 17 -78.5 36t-61.5 37v55h416l219 -622l40 -147h7l45 149l227 620h403v-55q-28 -17 -62 -30t-78 -21l42 -855q71 -12 141 -51v-53h-452v53q21 10 50.5 23t76.5 28l-43 863h-16l-350 -967h-57l-345 967h-17l-32 -863q77 -24 128 -51v-53 h-375z" />
<glyph unicode="&#x43d;" horiz-adv-x="1303" d="M83 0v53q30 17 66 29t75 22v855q-39 10 -75 21.5t-66 29.5v55h458v-55q-49 -30 -126 -51v-373h473v373q-75 12 -128 51v55h461v-55q-57 -37 -141 -51v-855q38 -8 74.5 -18.5t66.5 -32.5v-53h-461v53q53 39 128 51v388h-473v-388q43 -8 73 -20.5t53 -30.5v-53h-458z" />
<glyph unicode="&#x43e;" horiz-adv-x="1177" d="M87 532q0 135 35.5 238.5t101.5 174.5t158.5 108.5t205.5 37.5q132 0 228 -40.5t156.5 -114.5t89.5 -176t29 -228q0 -268 -137 -413t-366 -145q-128 0 -222 39.5t-155.5 113.5t-92.5 177t-31 228zM292 532q0 -95 18 -180.5t57.5 -148.5t103.5 -98.5t153 -35.5 q115 0 188.5 112.5t73.5 350.5q0 98 -18 182.5t-56.5 147.5t-98 98.5t-142.5 35.5q-126 0 -202.5 -112.5t-76.5 -351.5z" />
<glyph unicode="&#x43f;" horiz-adv-x="1301" d="M83 0v53q41 24 74.5 35.5t66.5 15.5v855q-45 10 -81.5 22.5t-59.5 28.5v55h1135v-55q-28 -17 -62 -32t-79 -19v-855q73 -12 141 -51v-53h-458v53q21 15 50 28t76 23v867h-471v-867q43 -12 73 -25t53 -26v-53h-458z" />
<glyph unicode="&#x440;" horiz-adv-x="1205" d="M66 -372q72 34 141 51v1262l-141 18v55q68 30 139.5 48t139.5 29h53v-239h2q43 108 119.5 173.5t200.5 65.5q189 0 293.5 -126t104.5 -409q0 -134 -35 -242.5t-100 -183.5t-157.5 -115.5t-205.5 -40.5q-79 0 -124 10t-98 33v-338q35 -5 68.5 -16.5t72.5 -34.5v-54h-473 v54zM398 115q39 -23 86.5 -34.5t124.5 -11.5q71 0 127 35.5t96 101.5t61 154.5t21 195.5q0 88 -14 161t-44.5 127.5t-80.5 84.5t-123 30q-104 0 -166 -66t-88 -182v-596z" />
<glyph unicode="&#x441;" horiz-adv-x="992" d="M87 532q0 271 132.5 415t359.5 144q104 0 186.5 -18t139.5 -49q-6 -70 -23.5 -157t-42.5 -145h-57l-89 254q-15 10 -34.5 15t-64.5 5q-145 0 -223.5 -105t-78.5 -356q0 -82 22.5 -158t68 -137t115 -97.5t160.5 -36.5q75 0 130 21.5t94 51.5l27 -30q-39 -75 -124.5 -125 t-201.5 -50q-125 0 -218 39.5t-154.5 113.5t-92.5 177t-31 228z" />
<glyph unicode="&#x442;" horiz-adv-x="1055" d="M59 1065h937q-2 -77 -7 -167.5t-18 -181.5h-55l-93 255h-199v-867q100 -26 140 -51v-53h-472v53q66 34 141 51v867h-199l-94 -255h-55q-10 91 -17 179.5t-9 169.5z" />
<glyph unicode="&#x443;" horiz-adv-x="1075" d="M-24 1010v55h446v-53q-44 -30 -121 -53l272 -631l41 -132h4l32 134l202 629q-64 12 -117 51v55h364v-55q-44 -30 -121 -51l-332 -959q-51 -136 -97.5 -220.5t-92 -133t-93.5 -71t-103 -33.5q-24 41 -41.5 90t-31.5 93l28 51h222q12 17 22 33t20.5 39.5t23.5 60t29 91.5 l-443 959q-32 8 -58.5 20.5t-54.5 30.5z" />
<glyph unicode="&#x444;" horiz-adv-x="1539" d="M87 494q0 305 117 451t314 146q53 0 96.5 -18t64.5 -51v431l-161 17v55q61 28 141 47t150 30h53v-592q32 38 86 59.5t113 21.5q181 0 287.5 -121.5t106.5 -373.5q0 -162 -32.5 -278.5t-87.5 -193.5t-133 -113.5t-169 -36.5q-51 0 -98 17t-73 47v-359q41 -7 76 -19t66 -32 v-54h-465v54q59 34 140 51v374q-36 -36 -79.5 -57.5t-105.5 -21.5q-89 0 -164.5 31t-129 95t-83.5 162t-30 232zM287 577q0 -144 19.5 -240.5t53.5 -153.5t80 -80.5t99 -23.5q36 0 73.5 9.5t66.5 39.5v819q-26 17 -56.5 27t-85.5 10q-53 0 -99 -23.5t-79 -72.5t-52.5 -126 t-19.5 -185zM860 118q26 -21 59 -30t85 -9q48 0 94 24.5t81 76.5t55 136t20 206q0 130 -15.5 219.5t-45.5 142.5t-77 76.5t-106 23.5q-43 0 -81.5 -9.5t-68.5 -35.5v-821z" />
<glyph unicode="&#x445;" horiz-adv-x="1104" d="M21 0v53q59 36 119 51l318 424l-320 431q-30 10 -54.5 21.5t-49.5 29.5v55h428v-53q-26 -17 -50 -31t-54 -22l221 -320l218 320q-73 24 -106 51v55h355v-55q-40 -28 -119 -51l-293 -388l337 -467q31 -10 59.5 -21.5t53.5 -29.5v-53h-436v51q30 17 55 31t51 22l-236 349 l-239 -349q30 -10 55.5 -22.5t51.5 -28.5v-53h-365z" />
<glyph unicode="&#x446;" horiz-adv-x="1307" d="M83 0v53q57 34 141 51v855q-82 12 -141 51v55h458v-55q-49 -30 -126 -51v-865h449v865q-57 12 -125 51v55h458v-55q-28 -15 -62 -28t-78 -23v-865h189q-4 -102 -9.5 -204.5t-13.5 -204.5h-54l-96 315h-990z" />
<glyph unicode="&#x447;" horiz-adv-x="1187" d="M32 1010v55h458v-55q-21 -15 -53 -29t-73 -22v-256q0 -100 42.5 -160.5t142.5 -60.5q59 0 116 18t108 47v412q-64 12 -125 51v55h458v-55q-58 -37 -141 -51v-855q43 -10 76.5 -21.5t64.5 -29.5v-53h-503v53q88 36 170 51v382q-51 -55 -121.5 -90.5t-176.5 -35.5 q-144 0 -223 81t-79 219v299q-81 14 -141 51z" />
<glyph unicode="&#x448;" horiz-adv-x="1771" d="M83 0v53q59 34 141 51v855q-37 4 -70.5 15.5t-70.5 35.5v55h447v-55q-55 -32 -115 -51v-865h375v865q-34 10 -65.5 21.5t-62.5 29.5v55h435v-55q-16 -13 -43.5 -26t-71.5 -25v-865h375v865q-68 19 -115 51v55h447v-55q-30 -17 -64 -30t-76 -21v-855q79 -17 140 -51v-53 h-1606z" />
<glyph unicode="&#x449;" horiz-adv-x="1797" d="M83 0v53q59 34 141 51v855q-43 8 -77 20.5t-64 30.5v55h447v-55q-20 -15 -49.5 -28t-65.5 -23v-865h375v865q-32 8 -64.5 20.5t-63.5 30.5v55h435v-55q-24 -17 -53.5 -30t-61.5 -21v-865h375v865q-68 19 -115 51v55h447v-55q-30 -17 -64 -29t-76 -22v-865h189 q-2 -102 -9.5 -205.5t-13.5 -203.5h-56l-96 315h-1480z" />
<glyph unicode="&#x44a;" horiz-adv-x="1228" d="M32 1065h659v-55q-26 -17 -58 -29t-70 -22v-329q36 4 82 11t130 7q175 0 274 -75t99 -234q0 -85 -32 -150t-90.5 -109t-138.5 -66t-176 -22q-57 0 -128 4t-152 4h-201v53q59 34 140 51v867h-165l-95 -255h-55q-10 81 -15.5 174.5t-7.5 174.5zM563 92q30 -3 56.5 -5 t55.5 -2q126 0 195 62t69 194q0 59 -19 101t-52 67.5t-76.5 37t-90.5 11.5q-73 0 -138 -13v-453z" />
<glyph unicode="&#x44b;" horiz-adv-x="1588" d="M83 0v53q37 21 70.5 32t70.5 19v855q-41 6 -75 19.5t-66 31.5v55h460v-55q-49 -30 -128 -51v-329q36 4 81 11t130 7q160 0 257 -75t97 -234q0 -85 -31 -150t-86.5 -109t-132 -66t-167.5 -22q-58 0 -129.5 4t-152.5 4h-198zM415 92q28 -3 55.5 -5t57.5 -2q241 0 241 256 q0 59 -18 101t-49 66t-71.5 34.5t-85.5 10.5q-30 0 -64 -1t-66 -7v-453zM1046 1010v55h460v-55q-26 -17 -62 -29t-78 -22v-855q36 -10 70 -21.5t70 -29.5v-53h-458v53q30 15 60 28t65 23v855q-81 14 -127 51z" />
<glyph unicode="&#x44c;" horiz-adv-x="1081" d="M83 0v53q32 17 68 29t73 22v855q-41 8 -75 20.5t-66 30.5v55h460v-55q-51 -30 -128 -51v-329q36 4 81 11t130 7q175 0 275.5 -75t100.5 -234q0 -85 -33.5 -150t-91 -109t-138.5 -66t-176 -22q-58 0 -129.5 4t-152.5 4h-198zM415 92q28 -3 55.5 -5t57.5 -2q124 0 193 62 t69 194q0 59 -19 101t-51 66t-75.5 34.5t-93.5 10.5q-34 0 -69 -1t-67 -7v-453z" />
<glyph unicode="&#x44d;" horiz-adv-x="1045" d="M98 102l38 143h43q28 -30 62 -71.5t66 -81.5q45 -17 132 -17q140 0 226.5 115t88.5 310l-422 -31q-24 57 0 114h422q-4 116 -28.5 194.5t-66 128t-96 70t-120.5 20.5q-87 0 -108 -14l-95 -260h-53q-19 59 -34 134t-23 150q57 32 136 58.5t213 26.5q102 0 189.5 -28 t152.5 -92t101.5 -166t36.5 -252q0 -151 -41.5 -260.5t-111 -179.5t-157.5 -104.5t-182 -34.5q-122 0 -214.5 36.5t-154.5 91.5z" />
<glyph unicode="&#x44e;" horiz-adv-x="1673" d="M83 0v53q30 17 66 29t75 22v855q-37 10 -70.5 21.5t-70.5 29.5v55h458v-55q-24 -15 -53.5 -28t-72.5 -23v-373h211q13 238 140.5 371.5t336.5 133.5q239 0 361.5 -143t122.5 -422q0 -256 -126 -404t-358 -148q-99 0 -184.5 31t-149.5 95t-101.5 162t-41.5 230h-211v-388 q43 -8 73 -20.5t53 -30.5v-53h-458zM827 532q0 -115 23.5 -201t64 -144.5t93.5 -88t110 -29.5q138 0 201 122t63 341q0 232 -70 348t-217 116q-126 0 -197 -123t-71 -341z" />
<glyph unicode="&#x44f;" horiz-adv-x="1128" d="M0 0v53l120 51q95 100 161 198t119 167q-48 8 -95 28.5t-84.5 55.5t-61 84t-23.5 115q0 73 23.5 132t73.5 102t128 67t188 24q26 0 72 -2t97 -4t98.5 -4t75.5 -2h154v-55q-16 -15 -47.5 -28t-93.5 -23v-855q79 -24 141 -51v-53h-458v53q28 17 58.5 29t66.5 22v360 l-155 -21q-44 -75 -100 -180t-151 -214l-67 -49h-240zM337 758q0 -104 77.5 -171t241.5 -67h57v451q-28 5 -71.5 9t-72.5 4q-132 2 -182 -61t-50 -165z" />
<glyph unicode="&#x451;" horiz-adv-x="1071" d="M87 532q0 273 126 416t356 143q75 0 147 -20.5t128.5 -67t91.5 -124.5t35 -194q0 -36 -3 -73t-11 -80h-665q0 -89 22.5 -167t67 -135t113 -90.5t159.5 -33.5q75 0 151.5 21.5t114.5 55.5l30 -34q-17 -37 -53.5 -68.5t-83.5 -55t-102 -37.5t-113 -14q-126 0 -221.5 39.5 t-159.5 113.5t-97 176t-33 229zM205 1412q0 51 31.5 82t82.5 31t83.5 -31t32.5 -82q0 -49 -32 -79t-84 -30q-51 0 -82.5 30t-31.5 79zM298 626h468q3 19 4 37t1 36q0 136 -51 216.5t-159 80.5q-122 0 -186 -81.5t-77 -288.5zM678 1412q0 51 32 82t83 31q50 0 82.5 -31 t32.5 -82q0 -49 -32.5 -79t-82.5 -30q-51 0 -83 30t-32 79z" />
<glyph unicode="&#x452;" horiz-adv-x="1222" d="M30 1470v55q62 26 144 45t156 32h54v-328h443v-111h-443v-392h2q45 99 128.5 170t203.5 71q85 0 152 -20.5t111.5 -71.5t68 -137t23.5 -218v-563q0 -132 -25.5 -218.5t-74 -136t-120 -72t-162.5 -26.5l-12 59q57 17 95.5 40.5t63 66.5t34.5 111t10 176v522 q0 167 -47 261.5t-170 94.5q-56 0 -100.5 -19.5t-81 -52.5t-62 -74t-37.5 -86v-544q34 -8 64.5 -18.5t60.5 -32.5v-53h-458v53q65 34 140 51v1059h-144v111h144v179z" />
<glyph unicode="&#x453;" horiz-adv-x="917" d="M83 0v53q37 21 70.5 32t70.5 19v857q-79 12 -141 49v55h795q-2 -83 -8 -172.5t-18 -176.5h-55l-94 255h-288v-867q122 -24 192 -51v-53h-524zM386 1263l248 371q17 2 45 -1t58 -10t56 -16.5t38 -19.5v-41l-398 -321z" />
<glyph unicode="&#x454;" horiz-adv-x="1015" d="M87 532q0 135 37.5 239.5t105.5 174.5t162 107.5t206 37.5q108 0 192 -18t141 -49q-4 -36 -10.5 -76.5t-15.5 -80.5t-20 -77.5t-25 -65.5h-53l-89 254q-15 10 -35.5 14t-64.5 4q-71 0 -129 -23t-101 -74t-68.5 -133.5t-27.5 -198.5l415 31q24 -57 0 -114h-411 q7 -75 36.5 -142t78.5 -120.5t117 -84.5t153 -31q75 0 130.5 21.5t93.5 51.5l28 -30q-39 -75 -125 -125t-201 -50q-125 0 -222.5 39.5t-163 113.5t-100 177t-34.5 228z" />
<glyph unicode="&#x455;" horiz-adv-x="921" d="M98 36q4 77 19 148.5t39 136.5h53l94 -232q24 -16 56.5 -18t59.5 -2q94 0 151.5 50.5t57.5 122.5q0 60 -37.5 102t-94.5 78t-122 70t-123 80t-94.5 105.5t-36.5 147.5q0 57 26.5 106t71 84t104.5 55.5t127 20.5q116 0 189 -13t142 -37q-8 -69 -20 -137.5t-34 -141.5h-53 l-81 218q-26 10 -58 13t-65 3q-38 0 -67.5 -13.5t-49.5 -34.5t-30.5 -48.5t-10.5 -56.5q0 -57 37.5 -98.5t94.5 -77t122 -69t123 -76.5t95 -99.5t37 -135.5q0 -73 -31 -130t-85 -97.5t-126 -63t-152 -22.5q-91 0 -168 16t-160 46z" />
<glyph unicode="&#x456;" horiz-adv-x="640" d="M87 0v53q33 17 66.5 29t74.5 22v837l-141 18v55q62 26 134.5 44.5t144.5 32.5h53v-987q43 -10 77 -21.5t65 -29.5v-53h-474zM187 1427q0 57 37.5 91.5t98.5 34.5q62 0 98 -34.5t36 -91.5t-36 -90.5t-98 -33.5q-61 0 -98.5 33.5t-37.5 90.5z" />
<glyph unicode="&#x457;" horiz-adv-x="740" d="M83 1423q0 55 32 90.5t83 35.5t82 -35.5t31 -90.5q0 -53 -30.5 -86.5t-82.5 -33.5q-51 0 -83 33.5t-32 86.5zM136 0v53q32 17 66 29t75 22v837l-141 18v55q62 26 134.5 44.5t144.5 32.5h54v-987q43 -10 76.5 -21.5t63.5 -29.5v-53h-473zM428 1423q0 55 31 90.5t84 35.5 q51 0 82 -35.5t31 -90.5q0 -53 -31 -86.5t-82 -33.5q-53 0 -84 33.5t-31 86.5z" />
<glyph unicode="&#x458;" horiz-adv-x="612" d="M75 -411q26 13 52 44.5t48.5 88t36.5 138t14 191.5v890l-141 18v55q62 30 135.5 48t143.5 29h53v-999q0 -151 -38 -251.5t-89.5 -162.5t-104.5 -91.5t-85 -37.5zM183 1427q0 57 37.5 91.5t98.5 34.5q62 0 98 -34.5t36 -91.5t-36 -90.5t-98 -33.5q-61 0 -98.5 33.5 t-37.5 90.5z" />
<glyph unicode="&#x459;" horiz-adv-x="1577" d="M8 173l30 53l181 -43q31 51 54 136.5t39 187.5t24.5 214t8.5 216q-42 13 -77.5 32t-64.5 41v55h870v-55q-24 -15 -62 -28t-78 -23v-329q36 4 81 11t130 7q162 0 258 -75t96 -234q0 -85 -31.5 -150t-85.5 -109t-132 -66t-169 -22q-58 0 -129 4t-152 4h-183v53 q51 36 126 51v867h-282q-2 -113 -12.5 -239.5t-32 -249t-55.5 -230t-83 -179.5q-41 -62 -88 -86.5t-87 -16.5q-32 36 -61 95t-33 108zM933 92q30 -3 57.5 -5t55.5 -2q126 0 184.5 63t58.5 193q0 59 -19.5 101t-50 66t-71 34.5t-85.5 10.5q-30 0 -63 -1t-67 -7v-453z" />
<glyph unicode="&#x45a;" horiz-adv-x="1724" d="M83 0v53q30 17 66 29t75 22v855q-39 10 -75 21.5t-66 29.5v55h458v-55q-49 -30 -126 -51v-373h473v373q-75 12 -128 51v55h461v-55q-24 -15 -62.5 -28t-78.5 -23v-329q36 4 80.5 11t130.5 7q160 0 256.5 -75t96.5 -234q0 -85 -30.5 -150t-86 -109t-132 -66t-168.5 -22 q-57 0 -129 4t-153 4h-185v53q53 39 128 51v388h-473v-388q43 -8 73 -20.5t53 -30.5v-53h-458zM1080 92q28 -3 55.5 -5t57.5 -2q240 0 240 256q0 59 -18 101t-49 67.5t-71.5 37t-84.5 11.5q-31 0 -64.5 -3.5t-65.5 -9.5v-453z" />
<glyph unicode="&#x45b;" horiz-adv-x="1243" d="M30 1470v55q62 26 144 45t156 32h54v-328h443v-111h-443v-392h2q45 99 128.5 170t203.5 71q85 0 152 -20.5t111.5 -71.5t68 -137t23.5 -218v-441l134 -20v-45q-61 -28 -133 -48.5t-139 -31.5h-53v545q0 167 -47 261.5t-170 94.5q-56 0 -100.5 -20.5t-81 -52.5t-62 -73 t-37.5 -86v-544q34 -8 64.5 -18.5t60.5 -32.5v-53h-458v53q65 34 140 51v1059h-144v111h144v179z" />
<glyph unicode="&#x45c;" horiz-adv-x="1151" d="M83 0v53q57 34 141 51v855q-75 14 -141 51v55h437v-55q-21 -15 -46 -28t-59 -23v-398l99 20q85 98 161.5 183.5t141.5 185.5q-36 14 -66.5 28t-57.5 32v55h410v-55q-20 -17 -55.5 -30t-86.5 -30q-73 -88 -154 -177.5t-171 -178.5q47 -51 99.5 -113t105.5 -128t107 -129.5 t104 -119.5l100 -51v-53h-249l-68 49q-96 115 -175 230t-160 225h-85v-400q43 -10 78 -21.5t60 -29.5v-53h-470zM482 1263l248 371q17 2 45 -1t58 -10t56 -16.5t38 -19.5v-41l-398 -321z" />
<glyph unicode="&#x45e;" horiz-adv-x="1075" d="M-24 1010v55h446v-53q-44 -30 -121 -53l272 -631l41 -132h4l32 134l202 629q-64 12 -117 51v55h364v-55q-44 -30 -121 -51l-332 -959q-51 -136 -97.5 -220.5t-92 -133t-93.5 -71t-103 -33.5q-24 41 -41.5 90t-31.5 93l28 51h222q12 17 22 33t20.5 39.5t23.5 60t29 91.5 l-443 959q-32 8 -58.5 20.5t-54.5 30.5zM224 1455q34 28 74 40.5t85 16.5l54 -28v-189q30 -13 70 -18t75 -5q20 0 67.5 4t76.5 13v195l53 28q45 -4 84.5 -19t65.5 -38q0 -49 -17 -97t-56.5 -84t-106.5 -58.5t-169 -22.5q-106 0 -175 22.5t-109 58.5t-56 84t-16 97z" />
<glyph unicode="&#x45f;" horiz-adv-x="1281" d="M83 0v53q24 15 60 28t81 23v855q-33 4 -66.5 15.5t-74.5 35.5v55h458v-55q-24 -13 -53.5 -26t-72.5 -25v-865h452v865q-46 10 -76.5 22.5t-51.5 28.5v55h460v-55q-69 -39 -140 -51v-855q44 -4 78 -18.5t62 -32.5v-53h-464q-12 -100 -27 -191.5t-39 -194.5h-55 q-21 104 -35 195t-32 191h-464z" />
<glyph unicode="&#x462;" horiz-adv-x="1518" d="M21 1315h463v108q-43 8 -87.5 21t-87.5 32v60h569v-60q-41 -17 -88.5 -31t-101.5 -22v-108h545q-2 -84 -8.5 -182t-17.5 -186h-53l-110 256h-356v-339q39 6 95 11t99 5q104 0 204.5 -17t178 -65t124 -131.5t46.5 -213.5q0 -125 -49 -212.5t-131 -142.5t-187 -79.5 t-218 -24.5q-11 0 -41.5 1t-70 2t-82 2t-75.5 1h-272v61q83 39 175 52v1090h-273l-111 -302h-55q-7 42 -10 96.5t-6 111t-5.5 110t-2.5 96.5zM688 113q11 -4 31 -5.5t43.5 -2.5t45 -1h33.5q75 0 141 19t116 61t79.5 108t29.5 161q0 173 -99.5 244.5t-272.5 71.5 q-51 0 -84 -1.5t-63 -9.5v-645z" />
<glyph unicode="&#x463;" horiz-adv-x="1243" d="M32 1065h354v388l-162 17v55q55 26 138 45t162 32h53v-537h394q5 -77 -2.5 -144t-18.5 -157h-56l-119 207h-198v-341q37 4 81.5 11t129.5 7q175 0 275 -75t100 -234q0 -85 -33 -150t-90.5 -109t-138.5 -66t-177 -22q-57 0 -128.5 4t-152.5 4h-198v53q33 17 68.5 29 t72.5 22v867h-179l-94 -255h-56q-10 91 -16.5 179.5t-8.5 169.5zM577 92q28 -3 55.5 -5t58.5 -2q123 0 192 62t69 194q0 59 -19 100t-51 66t-76 35.5t-93 10.5q-34 0 -69 -2t-67 -8v-451z" />
<glyph unicode="&#x472;" horiz-adv-x="1575" d="M113 746q0 166 46 307.5t131.5 245t211.5 160.5t286 57t285.5 -57t212 -160.5t132 -245t45.5 -307.5q0 -167 -45.5 -308.5t-132 -245t-212.5 -161t-285 -57.5q-160 0 -286 57.5t-211.5 161t-131.5 245t-46 308.5zM339 733q49 59 101 94t101 53q45 14 89 14 q57 0 109.5 -23t103.5 -49.5t102 -49t107 -22.5q37 0 89 5t95 35q-5 128 -35 241t-87 196t-142.5 131t-200.5 48q-120 0 -201.5 -53.5t-132.5 -145t-74.5 -213.5t-23.5 -261zM341 650q8 -120 42 -223.5t93 -178.5t141 -119t190 -44q104 0 184 49t133.5 133.5t81 198 t32.5 243.5q-58 -61 -124 -88t-115 -27q-57 0 -111.5 23.5t-108 50.5t-107.5 50.5t-109 23.5q-45 0 -107 -17.5t-115 -74.5z" />
<glyph unicode="&#x473;" horiz-adv-x="1177" d="M87 532q0 135 35.5 238.5t101.5 174.5t158.5 108.5t205.5 37.5q132 0 228 -40.5t156.5 -114.5t89.5 -176t29 -228q0 -268 -137 -413t-366 -145q-128 0 -222 39.5t-155.5 113.5t-92.5 177t-31 228zM290 561q64 48 119 65t97 17q39 0 71 -11.5t62 -26.5t59.5 -26.5 t61.5 -11.5q24 0 58 10.5t64 31.5q-6 84 -27.5 155t-60 122t-93.5 80.5t-130 29.5q-124 0 -200.5 -106t-80.5 -329zM292 467q4 -85 25.5 -159t61.5 -127t101 -82.5t144 -29.5q113 0 186.5 110.5t75.5 342.5q-57 -47 -109.5 -66t-99.5 -19q-38 0 -71 12.5t-65 28.5t-63 29 t-63 13q-24 0 -59 -15t-64 -38z" />
<glyph unicode="&#x474;" horiz-adv-x="1490" d="M0 1429v62h565v-62q-37 -15 -81.5 -29t-93.5 -24l330 -916l46 -170h5l28 170q40 150 95.5 301t118 281.5t125.5 235t116 163.5q37 41 75.5 56t78.5 19q21 -8 43.5 -37.5t39.5 -68t27.5 -79t10.5 -68.5l-33 -51l-205 58q-69 -98 -144.5 -246t-145.5 -322t-128 -362.5 t-89 -365.5h-83l-539 1402q-42 10 -83 24t-79 29z" />
<glyph unicode="&#x475;" horiz-adv-x="1087" d="M-21 1010v55h445v-53q-28 -15 -56.5 -29t-64.5 -24l246 -642l30 -112h4l22 127q41 168 98 341t147 309q40 61 92 86t93 16q19 -15 35 -38.5t29 -51t21 -57.5t10 -55l-31 -55l-179 45q-30 -49 -59.5 -114t-56 -133.5t-49 -135.5t-39.5 -121l-113 -368l-97 -26l-414 985 q-62 21 -113 51z" />
<glyph unicode="&#x48a;" horiz-adv-x="1579" d="M61 0v61q86 39 175 52v1263q-43 10 -87.5 23t-87.5 30v62h540v-62q-34 -17 -72.5 -30t-87.5 -23v-925l-24 -159l103 168l624 865v51q-49 10 -92.5 24t-80.5 29v62h541v-62q-38 -17 -83 -30t-92 -23v-1266h234l18 -14q-8 -41 -31.5 -95t-53.5 -111.5t-64 -114t-64 -96.5 h-57l61 321h-409v61q35 15 75 29t88 23v922l20 160l-93 -160l-633 -875v-47q49 -8 93 -21t80 -31v-61h-540zM411 1829q24 24 69.5 34.5t90.5 12.5l53 -27v-181q30 -14 74 -22t92 -8q37 0 87 6t80 17v188l53 27q34 2 79 -11.5t72 -35.5q0 -57 -21.5 -106t-66 -85t-115 -57.5 t-170.5 -21.5q-195 0 -286 78t-91 192z" />
<glyph unicode="&#x48b;" horiz-adv-x="1319" d="M83 0v53q37 17 70.5 29t70.5 22v855q-84 12 -141 51v55h452v-55q-24 -13 -55 -26t-73 -25v-585l-23 -197h10l83 160l456 728h288v-55q-69 -39 -141 -51v-865h202l11 -17q-11 -51 -34 -111t-52 -115.5t-58 -100t-48 -65.5h-57l57 315h-332v53q59 34 127 51v609l22 169h-11 l-80 -160l-453 -722h-291zM319 1455q35 26 76.5 39.5t83.5 17.5l53 -28v-189q31 -13 71 -18t74 -5q21 0 68 4t78 13v195l53 28q42 -6 82.5 -21t65.5 -36q0 -49 -17 -97t-56 -84t-106.5 -58.5t-169.5 -22.5q-106 0 -174 22.5t-108.5 58.5t-57 84t-16.5 97z" />
<glyph unicode="&#x48c;" horiz-adv-x="1333" d="M21 1099v111h277v166q-42 8 -87 22t-87 31v62h569v-62q-41 -17 -89 -31t-102 -22v-166h412v-111h-412v-211q39 4 95.5 9.5t99.5 5.5q104 0 204.5 -19.5t177.5 -68.5t124 -134t47 -217q0 -126 -49 -214t-131 -145.5t-187 -84t-218 -26.5q-11 0 -42 1t-70 2t-82 2t-75 1 h-272v61q83 39 174 52v986h-277zM502 113q11 -4 31 -5.5t44 -2.5t45 -1h34q75 0 140.5 21.5t116 65t80 111.5t29.5 165q0 173 -99.5 249t-272.5 76q-51 0 -84.5 -1t-63.5 -9v-669z" />
<glyph unicode="&#x48d;" horiz-adv-x="1059" d="M4 955v110h220v388l-163 17v55q60 28 144.5 45t156.5 32h53v-537h307v-110h-307v-325q36 4 81 11t130 7q160 0 257 -75t97 -234q0 -85 -31 -150t-86.5 -109t-132 -66t-167.5 -22q-58 0 -129.5 4t-152.5 4h-198v53q37 21 70.5 32t70.5 19v851h-220zM415 92q28 -3 55.5 -5 t57.5 -2q241 0 241 256q0 59 -18 101t-49 66t-71.5 34.5t-85.5 10.5q-30 0 -64 -1t-66 -7v-453z" />
<glyph unicode="&#x48e;" horiz-adv-x="1268" d="M61 0v61q43 21 87.5 32t87.5 20v1263q-49 8 -91.5 22t-83.5 31v62h189q89 0 188 8.5t192 8.5q104 0 204.5 -22.5t178.5 -75.5t126 -141.5t48 -220.5q0 -164 -81.5 -265.5t-204.5 -152.5l109 -170l-101 -62l-123 198q-85 -21 -185 -21h-33t-47.5 1t-47 3t-32.5 4v-470 q57 -6 108.5 -20t96.5 -32v-61h-585zM441 697q10 -4 30.5 -5t43 -4t43.5 -3h34q70 0 132 20l-151 238l96 59l154 -252q61 42 98.5 115.5t37.5 182.5q0 175 -99.5 262t-273.5 87q-51 0 -83 -2t-62 -9v-689z" />
<glyph unicode="&#x48f;" horiz-adv-x="1205" d="M66 -372q72 34 141 51v1262l-141 18v55q68 30 151.5 53.5t150.5 23.5h30v-239q45 106 119.5 171.5t198.5 67.5q23 0 45.5 -2.5t43.5 -6.5q149 -26 231 -151.5t82 -374.5q0 -193 -70 -327.5t-194 -198.5l134 -194l-94 -58l-148 214q-33 -9 -64.5 -13.5t-67.5 -4.5 q-75 0 -120 10t-96 33v-338q35 -5 68.5 -16.5t72.5 -34.5v-54h-473v54zM398 115q39 -23 86.5 -34.5t124.5 -11.5q21 0 41.5 2t37.5 8l-132 191l87 62l135 -196q63 64 99.5 172.5t36.5 247.5q0 88 -14 161t-44.5 127.5t-80.5 84.5t-123 30q-106 0 -168 -67t-86 -185v-592z " />
<glyph unicode="&#x490;" horiz-adv-x="1077" d="M61 0v61q86 35 175 52v1263q-43 8 -87.5 22t-87.5 31v62h811l112 289h55q6 -44 9.5 -96t5 -106.5t2.5 -105.5t1 -92h-616v-1267q104 -16 205 -52v-61h-585z" />
<glyph unicode="&#x491;" horiz-adv-x="872" d="M83 0v53q37 21 70.5 32t70.5 19v857q-79 12 -141 49v55h618q2 2 2 8l94 250h55q10 -90 16 -179t8 -173h-461v-867q122 -24 192 -51v-53h-524z" />
<glyph unicode="&#x492;" horiz-adv-x="1156" d="M83 703v110h189v563q-42 8 -87 22t-87 31v62h997q0 -42 -2 -98t-4.5 -115.5t-7 -115.5t-10.5 -101h-55l-111 319h-428v-567h320v-110h-320v-590q104 -16 204 -52v-61h-583v61q85 35 174 52v590h-189z" />
<glyph unicode="&#x493;" horiz-adv-x="915" d="M66 467v110h158v384q-79 12 -141 49v55h795q-2 -83 -8 -172.5t-18 -176.5h-55l-94 255h-288v-394h239v-110h-239v-363q122 -24 192 -51v-53h-524v53q37 21 70.5 32t70.5 19v363h-158z" />
<glyph unicode="&#x494;" horiz-adv-x="1298" d="M61 0v61q88 37 175 52v1263q-43 8 -87.5 22t-87.5 31v62h998q0 -42 -1 -98t-4.5 -113t-8 -114.5t-10.5 -102.5h-55l-111 317h-428v-596q57 32 144.5 64t209.5 32q99 0 178 -24.5t133.5 -81t82 -145t27.5 -216.5q0 -151 -20.5 -266t-73.5 -195t-143.5 -127t-232.5 -59 l-13 57q98 35 154 84.5t85.5 119t35.5 160t4 207.5q-4 192 -67 283.5t-210 91.5q-89 0 -162 -25.5t-132 -62.5v-568q108 -16 200 -52v-61h-580z" />
<glyph unicode="&#x495;" horiz-adv-x="1166" d="M83 0v53q37 21 70.5 32t70.5 19v857q-79 12 -141 49v55h795q-2 -83 -8 -169.5t-16 -173.5h-55l-96 249h-288v-498q51 55 121.5 89t176.5 34q145 0 225 -80.5t80 -219.5v-294q0 -132 -25.5 -218.5t-73 -136t-118.5 -72t-162 -26.5l-11 59q57 17 95.5 40.5t61 66.5 t32.5 111t10 176v252q0 100 -44 160.5t-144 60.5q-60 0 -116 -18t-108 -48v-305q117 -19 188 -51v-53h-520z" />
<glyph unicode="&#x496;" horiz-adv-x="2087" d="M0 0v53l100 51q79 85 153.5 176.5t142.5 181t127.5 174t108.5 154.5l-400 586q-87 26 -151 53v62h470v-62q-30 -15 -66 -29t-78 -24l359 -573h137v573q-45 12 -83 25t-68 28v62h492v-62q-47 -24 -136 -53v-590l144 29l358 561q-43 12 -80 26t-73 27v62h468v-62 q-38 -17 -78.5 -30t-80.5 -23l-388 -567q53 -71 115 -156.5t129 -178t140.5 -187t150.5 -177.5h166q0 -42 -4 -98.5t-11 -117t-14 -117t-16 -98.5h-53l-89 321h-142l-71 53q-126 147 -229.5 316.5t-218.5 343.5h-123v-600q36 -10 70 -22t66 -30v-61h-494v61q63 35 153 52 v620l-128 -32q-116 -175 -213.5 -337.5t-222.5 -310.5l-73 -53h-266z" />
<glyph unicode="&#x497;" horiz-adv-x="1592" d="M0 0v53l98 51q53 61 103.5 130t95 133t82.5 120t68 94q-81 92 -156.5 186.5t-143.5 191.5q-55 12 -106 51v55h368v-55q-41 -30 -106 -51q57 -102 125 -193t143 -193h108v386q-71 14 -118 51v55h412v-55q-20 -17 -47 -30t-66 -21v-398l118 20q74 102 134.5 188.5 t120.5 189.5q-30 10 -55.5 20.5t-51.5 30.5v55h370v-55q-37 -26 -122 -51q-69 -94 -142 -184t-143 -179q28 -39 72 -98t95 -128t107 -141.5t107 -136.5h123q-4 -102 -9 -203.5t-15 -203.5h-53l-95 315h-109l-60 49q-36 49 -79 114t-82 131t-74 122.5t-54 87.5h-103v-400 q66 -17 128 -51v-53h-427v53q30 15 58.5 28t59.5 23v414l-114 -22q-19 -30 -51 -87t-70.5 -123.5t-79.5 -130t-79 -106.5l-63 -49h-222z" />
<glyph unicode="&#x498;" horiz-adv-x="1179" d="M106 57q0 35 4.5 78.5t12 91.5t17 95.5t20.5 90.5h55l90 -298q12 -6 35.5 -11.5t52.5 -11t60 -7.5t59 -2q79 0 143.5 25.5t111 70.5t72 104.5t25.5 129.5q0 85 -26.5 143t-71 92.5t-103 49.5t-122.5 15l-165 -22q-14 65 -2 122h69q36 0 87 3.5t86 8.5q97 34 149 109.5 t52 177.5q0 140 -79.5 217t-219.5 77q-71 0 -112.5 -12t-56.5 -28l-111 -260h-55q-10 57 -17.5 146.5t-5.5 176.5q32 26 77.5 42t95 26.5t101.5 14.5t96 4q86 0 173 -14.5t158.5 -56t116 -113.5t44.5 -182q0 -108 -63 -203t-199 -148v-9q64 -10 120.5 -37t98 -70.5t66 -107 t24.5 -151.5q0 -100 -33.5 -176.5t-93.5 -131.5t-140 -87.5t-170 -45.5q-26 -191 -69 -390h-57q-16 98 -33 192.5t-32 190.5q-100 6 -187.5 29t-147.5 52z" />
<glyph unicode="&#x499;" horiz-adv-x="1008" d="M98 102l38 143h43q28 -30 62 -71.5t68 -81.5q45 -17 128 -17q65 0 113 21.5t78 55t45 77t15 88.5q0 102 -43.5 138.5t-118.5 48.5l-200 -31q-9 28 -10 58t10 57h217q19 8 39.5 26t38.5 44.5t29.5 63t11.5 81.5q0 102 -56.5 147.5t-147.5 45.5q-43 0 -78 -5t-45 -9 l-97 -240h-53q-24 70 -34.5 140t-12.5 138q43 24 130.5 47.5t223.5 23.5q173 0 267.5 -63t94.5 -187q0 -51 -21.5 -93.5t-54 -77t-74.5 -57.5t-82 -36q117 -10 195.5 -75t78.5 -185q0 -149 -91.5 -234t-243.5 -102q-13 -95 -26 -180.5t-37 -184.5h-55q-19 98 -33 183.5 t-28 179.5q-92 11 -163.5 43.5t-120.5 79.5z" />
<glyph unicode="&#x49a;" horiz-adv-x="1439" d="M61 0v61q86 35 175 52v1263q-96 12 -175 53v62h540v-62q-34 -15 -74.5 -29t-85.5 -24v-590l128 29l398 561q-42 10 -80.5 23t-73.5 30v62h471v-62q-42 -19 -82.5 -32t-79.5 -21l-427 -567q53 -71 120 -156.5t142.5 -178t155.5 -187t157 -179.5h161q0 -42 -4 -98.5 t-10.5 -116t-14 -116t-16.5 -98.5h-53l-89 321h-134l-73 51q-126 147 -250.5 317.5t-241.5 344.5h-104v-600q98 -16 160 -52v-61h-540z" />
<glyph unicode="&#x49b;" horiz-adv-x="1179" d="M83 0v53q57 34 141 51v855q-75 14 -141 51v55h437v-55q-21 -15 -46 -28t-59 -23v-398l99 20q85 98 161.5 183.5t141.5 185.5q-36 14 -66.5 28t-57.5 32v55h410v-55q-20 -17 -55.5 -30t-86.5 -30q-73 -88 -154 -177.5t-171 -178.5q47 -51 101.5 -115t110 -132t112 -134 t107.5 -121h115q-4 -102 -10.5 -203.5t-12.5 -203.5h-56l-95 315h-105l-68 49q-96 115 -175 230t-160 225h-85v-400q43 -10 78 -21.5t60 -29.5v-53h-470z" />
<glyph unicode="&#x49c;" horiz-adv-x="1518" d="M61 0v61q86 35 175 52v1263q-96 12 -175 53v62h540v-62q-34 -15 -74.5 -29t-85.5 -24v-592l100 11v343h109v-333l63 8l399 563q-43 10 -81.5 23t-71.5 30v62h468v-62q-43 -19 -83.5 -32t-77.5 -21l-427 -565q53 -71 121.5 -157.5t144 -180t155.5 -189t156 -180.5l102 -51 v-53h-266l-72 51q-125 147 -249 319.5t-238 347.5h-43v-330h-109v330h-100v-605q98 -16 160 -52v-61h-540z" />
<glyph unicode="&#x49d;" horiz-adv-x="1345" d="M83 0v53q57 34 141 51v855q-75 14 -141 51v55h437v-55q-21 -15 -46 -28t-59 -23v-398l126 8v295h102v-287l64 4q85 98 161.5 183.5t143.5 185.5q-36 14 -67 28t-59 32v55h411v-55q-21 -17 -58.5 -33t-84.5 -27q-72 -88 -153 -177.5t-170 -178.5q47 -51 99 -113 t105.5 -128t106.5 -129.5t104 -119.5l100 -51v-53h-249l-68 49q-96 115 -175 230t-159 225h-52v-266h-102v266h-126v-400q43 -10 78 -21.5t60 -29.5v-53h-470z" />
<glyph unicode="&#x49e;" horiz-adv-x="1422" d="M21 1136v102h264v138q-100 12 -175 53v62h540v-62q-34 -15 -74.5 -29t-85.5 -24v-138h234v-102h-234v-350l138 29l396 561q-42 10 -79.5 23t-72.5 30v62h470v-62q-43 -19 -84.5 -32t-79.5 -21l-424 -565q53 -71 120 -157.5t141 -180t151.5 -189t154.5 -180.5l102 -51v-53 h-267l-72 51q-126 147 -245 317.5t-234 344.5h-115v-600q98 -16 160 -52v-61h-540v61q86 35 175 52v1023h-264z" />
<glyph unicode="&#x49f;" horiz-adv-x="1098" d="M6 1216v111h185v126l-161 17v55q59 28 142.5 45t157.5 32h54v-275h334v-111h-334v-633h55q34 39 74 86t80.5 96.5t79 99t71.5 94.5q-53 14 -105 51v55h411v-55q-40 -17 -79.5 -30t-82.5 -21q-32 -43 -73.5 -92.5t-84 -98t-82 -91.5t-67.5 -70q33 -42 78.5 -103t98.5 -129 t110 -138.5t112 -132.5l119 -51v-53h-264l-57 51q-113 140 -187.5 250t-137.5 205l-69 22v-424q70 -12 138 -51v-53h-471v53q71 34 140 51v1112h-185z" />
<glyph unicode="&#x4a0;" horiz-adv-x="1622" d="M21 1491h829v-62q-37 -15 -77 -29t-85 -24v-590l127 29l399 561q-43 10 -80 23t-73 30v62h471v-62q-43 -19 -84.5 -32t-79.5 -21l-427 -565q53 -71 123 -157.5t145 -180t155.5 -189t155.5 -180.5l103 -51v-53h-266l-73 51q-125 147 -250 317.5t-239 344.5h-107v-600 q96 -16 162 -52v-61h-541v61q85 35 175 52v1267h-275l-109 -300h-55q-7 44 -11 98.5t-6 110t-4.5 108t-2.5 94.5z" />
<glyph unicode="&#x4a1;" horiz-adv-x="1301" d="M32 1065h639v-55q-43 -30 -106 -51v-398l97 20q82 86 161.5 177.5t145.5 191.5q-36 14 -68 28t-60 32v55h411v-55q-21 -17 -55 -30t-85 -30q-73 -88 -154.5 -177.5t-171.5 -178.5q47 -51 99 -113t106.5 -128t107.5 -129.5t104 -119.5l98 -51v-53h-246l-69 49 q-96 115 -176 230t-160 225h-85v-400q87 -19 138 -51v-53h-471v53q57 34 140 51v867h-167l-95 -234h-53q-10 81 -16.5 164t-8.5 164z" />
<glyph unicode="&#x4a2;" horiz-adv-x="1581" d="M61 0v61q86 35 175 52v1263q-100 14 -175 53v62h540v-62q-36 -19 -76.5 -32t-83.5 -21v-556h669v556q-45 10 -84.5 23t-75.5 30v62h539v-62q-38 -21 -84 -33t-90 -20v-1266h234q0 -42 -4.5 -98.5t-11 -117t-14 -117t-13.5 -98.5h-55l-90 321h-411v61q76 35 160 52v596 h-669v-596q43 -8 83.5 -21t76.5 -31v-61h-540z" />
<glyph unicode="&#x4a3;" horiz-adv-x="1305" d="M83 0v53q30 17 66 29t75 22v855q-39 10 -75 21.5t-66 29.5v55h458v-55q-49 -30 -126 -51v-373h473v373q-75 12 -128 51v55h461v-55q-57 -37 -141 -51v-867h168q-4 -102 -9.5 -203.5t-13.5 -203.5h-54l-96 315h-315v53q53 39 128 51v388h-473v-388q43 -8 73 -20.5 t53 -30.5v-53h-458z" />
<glyph unicode="&#x4a4;" horiz-adv-x="1953" d="M61 0v61q86 35 175 52v1263q-100 14 -175 53v62h540v-62q-36 -19 -76.5 -32t-83.5 -21v-556h669v556q-17 2 -40.5 7t-47 13t-43.5 15.5t-29 17.5v62h982q0 -42 -1.5 -98t-4.5 -115.5t-6 -115.5t-10 -101h-55l-111 319h-429v-1267q110 -16 203 -52v-61h-568v61 q36 19 79.5 27t80.5 25v596h-669v-596q43 -8 83.5 -21t76.5 -31v-61h-540z" />
<glyph unicode="&#x4a5;" horiz-adv-x="1581" d="M83 0v53q30 17 66 29t75 22v855q-39 10 -75 21.5t-66 29.5v55h458v-55q-49 -30 -126 -51v-373h473v373q-75 12 -128 51v55h782q-2 -83 -7.5 -172.5t-18.5 -176.5h-55l-93 255h-288v-867q121 -24 192 -51v-53h-512v53q53 39 128 51v388h-473v-388q43 -8 73 -20.5t53 -30.5 v-53h-458z" />
<glyph unicode="&#x4a6;" horiz-adv-x="2150" d="M61 0v61q33 17 75.5 30t99.5 22v1263q-43 8 -87.5 22t-87.5 31v62h1406v-62q-40 -21 -85 -33t-89 -20v-592q57 32 144.5 64t208.5 32q100 0 179 -24.5t133 -81t82.5 -145t28.5 -216.5q0 -151 -20.5 -266t-74 -195t-144 -127t-233.5 -59l-12 57q96 35 153 84.5t86 119 t35.5 160t4.5 207.5q-4 189 -68 282t-207 93q-89 0 -163 -25.5t-133 -62.5v-568q87 -10 172 -52v-61h-536v61q47 31 160 52v1267h-648v-1267q83 -16 160 -52v-61h-540z" />
<glyph unicode="&#x4a7;" horiz-adv-x="1856" d="M83 0v53q41 24 74.5 35.5t66.5 15.5v855q-45 10 -81.5 22.5t-59.5 28.5v55h1135v-55q-28 -17 -62 -32t-79 -19v-447q19 40 48 79t68.5 69.5t88.5 49t106 18.5q88 0 155 -21.5t111.5 -72.5t68 -137t23.5 -218v-213q0 -267 -100 -387t-283 -130l-11 59q57 17 96 50t63.5 87 t34 133t9.5 188v176q0 167 -47 260.5t-171 93.5q-106 0 -167.5 -58.5t-92.5 -143.5v-290q73 -12 141 -51v-53h-458v53q21 15 50 28t76 23v867h-471v-867q43 -12 73 -25t53 -26v-53h-458z" />
<glyph unicode="&#x4a8;" horiz-adv-x="1799" d="M113 746q0 156 46 295t129.5 244t204.5 168t269 63q69 0 121 -23t76 -64l-18 -39q-19 9 -53 12.5t-51 3.5q-117 0 -208.5 -51.5t-155.5 -141t-98 -209.5t-34 -260q0 -137 39 -257.5t113 -210t180.5 -140.5t240.5 -51q43 0 66.5 3.5t52.5 17.5q-69 34 -134.5 95 t-118 145.5t-84 188.5t-31.5 227q0 137 42.5 254.5t114.5 202t168 133t201 48.5q93 0 182.5 -39.5t160 -119.5t113 -199.5t42.5 -281.5q0 -128 -42.5 -235.5t-105.5 -190t-135.5 -139.5t-133.5 -82q21 -10 56 -20t69 -10q75 0 129.5 19.5t103.5 61.5l25 -30 q-24 -71 -93 -115.5t-176 -44.5q-75 0 -145 25t-111 54q-32 -28 -105 -53.5t-169 -25.5q-164 0 -301.5 57.5t-235 161t-152 245t-54.5 308.5zM892 746q0 -104 23.5 -195t62 -164.5t88.5 -129.5t103 -93q65 37 120 98t93.5 140.5t58.5 172t20 191.5q0 114 -16 209.5t-49 165 t-83 109t-118 39.5q-79 0 -136 -43t-93.5 -116t-55 -172t-18.5 -212z" />
<glyph unicode="&#x4a9;" horiz-adv-x="1402" d="M87 532q0 116 39.5 217t108 178t160 120.5t195.5 43.5q65 0 110.5 -21.5t45.5 -70.5l-11 -15q-24 6 -53.5 9t-53.5 3q-77 -2 -138.5 -35.5t-104 -94.5t-66 -146.5t-23.5 -187.5q0 -95 31 -180.5t86.5 -148.5t132 -98.5t167.5 -35.5q37 0 77.5 3t57.5 9 q-62 17 -118.5 59.5t-99 101.5t-67 128t-24.5 139q0 123 35 210.5t92.5 143t132.5 82t153 26.5q61 0 128.5 -24.5t122.5 -77t90.5 -134t35.5 -196.5q0 -81 -28.5 -156.5t-73.5 -136.5t-99.5 -104.5t-107.5 -62.5q15 -4 38.5 -7t50.5 -6t51.5 -3h40.5q71 0 126 31l15 -25 q-11 -26 -31 -44.5t-44.5 -29t-51 -16t-48.5 -5.5q-61 0 -127.5 12t-102.5 40q-55 -26 -121 -39t-121 -13q-128 0 -240 39.5t-193 113.5t-128 177t-47 228zM744 516q0 -134 46.5 -239.5t136.5 -156.5q38 20 74 61t64 97.5t43.5 126.5t15.5 151q0 60 -9 118.5t-31.5 103.5 t-58 72.5t-88.5 27.5q-96 0 -144.5 -101t-48.5 -261z" />
<glyph unicode="&#x4aa;" horiz-adv-x="1370" d="M113 746q0 209 57.5 354.5t155.5 238t227.5 135t273.5 42.5q140 0 236 -18t168 -53q0 -35 -2 -80.5t-6.5 -97t-11 -100.5t-12.5 -90h-55l-111 307q-24 13 -78 17.5t-107 4.5q-106 0 -201.5 -39.5t-166.5 -121.5t-114 -206.5t-43 -292.5q0 -151 38.5 -274t111 -209 t177 -132t236.5 -46q71 0 117.5 10.5t61.5 28.5l100 264h56q10 -59 18.5 -150t4.5 -177q-59 -46 -154.5 -64t-184.5 -23q-11 -94 -28 -188.5t-40 -192.5h-55q-19 100 -35.5 198.5t-33.5 193.5q-285 37 -442.5 221t-157.5 540z" />
<glyph unicode="&#x4ab;" horiz-adv-x="992" d="M87 532q0 271 132.5 415t359.5 144q104 0 186.5 -18t139.5 -49q-6 -70 -23.5 -157t-42.5 -145h-57l-89 254q-15 10 -34.5 15t-64.5 5q-145 0 -223.5 -105t-78.5 -356q0 -82 22.5 -158t68 -137t115 -97.5t160.5 -36.5q75 0 130 21.5t94 51.5l27 -30q-36 -69 -109.5 -115 t-175.5 -58q-12 -94 -25 -177.5t-36 -182.5h-57q-18 102 -32 190t-29 184q-181 40 -269.5 182.5t-88.5 359.5z" />
<glyph unicode="&#x4ac;" horiz-adv-x="1317" d="M41 1491h1237q0 -42 -2 -95.5t-5 -110t-7 -111t-10 -99.5h-55l-110 305h-327v-1270h234q0 -42 -4 -98.5t-10 -117t-13.5 -117t-16.5 -98.5h-53l-90 321h-449v61q47 17 94.5 30t103.5 22v1267h-326l-112 -305h-54q-7 43 -11 97.5t-7 111t-5 111t-2 96.5z" />
<glyph unicode="&#x4ad;" horiz-adv-x="1057" d="M59 1065h937q-2 -77 -7 -167.5t-16 -181.5h-55l-93 255h-201v-877h187q-4 -102 -10 -204.5t-13 -204.5h-53l-96 315h-347v53q66 34 141 51v867h-199l-94 -255h-55q-10 91 -17 179.5t-9 169.5z" />
<glyph unicode="&#x4ae;" horiz-adv-x="1370" d="M0 1429v62h565v-62q-33 -13 -73.5 -27t-91.5 -26l350 -626l327 626q-48 10 -92 24t-82 29v62h469v-62q-81 -41 -162 -53l-403 -742v-521q83 -10 162 -52v-61h-541v61q77 39 175 52v519l-430 744q-49 8 -90.5 22t-82.5 31z" />
<glyph unicode="&#x4af;" horiz-adv-x="1079" d="M-21 1010v55h445v-53q-28 -15 -56.5 -29t-64.5 -24l246 -642l43 -138h4l34 140l226 640q-34 8 -63 20.5t-54 30.5v55h362v-55q-20 -15 -51.5 -28t-69.5 -23l-334 -863v-417q42 -11 76 -23t64 -28v-54h-473v54q32 16 66 28t74 23v413l-361 867q-62 21 -113 51z" />
<glyph unicode="&#x4b0;" horiz-adv-x="1370" d="M0 1429v62h565v-62q-33 -13 -73.5 -27t-91.5 -26l350 -626l327 626q-48 10 -92 24t-80 29v62h467v-62q-81 -41 -162 -53l-403 -742h309v-110h-309v-411q83 -10 162 -52v-61h-541v61q77 39 175 52v411h-309v110h307l-428 742q-49 8 -90.5 22t-82.5 31z" />
<glyph unicode="&#x4b1;" horiz-adv-x="1079" d="M-21 1010v55h445v-53q-28 -15 -56.5 -29t-64.5 -24l193 -506l92 -274h4l85 277l179 503q-34 8 -63 20.5t-54 30.5v55h362v-55q-20 -15 -51.5 -28t-69.5 -23l-330 -849h257v-110h-259l-2 -321q42 -11 76 -23t64 -28v-54h-473v54q32 16 66 28t74 23v321h-260v110h254 l-355 849q-62 21 -113 51z" />
<glyph unicode="&#x4b2;" horiz-adv-x="1460" d="M21 0v61q40 21 79.5 32t78.5 20l417 637l-400 626q-43 12 -84 25t-84 28v62h564v-62q-35 -13 -74 -26t-90 -27l298 -482l290 482q-83 19 -175 53v62h490v-62q-36 -15 -76.5 -29t-83.5 -24l-374 -577l443 -689h213q0 -42 -4 -98.5t-11 -117t-14.5 -117t-13.5 -98.5h-55 l-89 321h-425v61q77 39 161 52l-337 535l-324 -538q45 -6 88.5 -15.5t84.5 -33.5v-61h-493z" />
<glyph unicode="&#x4b3;" horiz-adv-x="1104" d="M21 0v53q59 36 119 51l318 424l-320 431q-30 10 -54.5 21.5t-49.5 29.5v55h428v-53q-26 -17 -50 -31t-54 -22l221 -320l218 320q-73 24 -106 51v55h355v-55q-40 -28 -119 -51l-293 -388l346 -479h156q-4 -102 -10 -203.5t-14 -203.5h-53l-96 315h-315v51q30 17 55 31 t51 22l-236 352l-239 -352q30 -10 55.5 -22.5t51.5 -28.5v-53h-365z" />
<glyph unicode="&#x4b4;" horiz-adv-x="1884" d="M41 1491h1124q0 -42 -2 -95.5t-5.5 -110t-6.5 -111t-9 -99.5h-56l-110 305h-216v-1270h644v1266q-38 10 -71.5 22t-64.5 31v62h515v-62q-43 -17 -86.5 -31t-88.5 -22v-1266h245q-2 -42 -6 -98.5t-11 -117t-14 -117t-13 -98.5h-56l-90 321h-1303v61q47 17 93.5 30 t104.5 22v1267h-326l-112 -305h-54q-7 43 -11 97.5t-7 111t-5 111t-2 96.5z" />
<glyph unicode="&#x4b5;" horiz-adv-x="1650" d="M59 1065h935q-2 -77 -7 -167.5t-16 -181.5h-55l-93 255h-199v-877h583v865q-30 6 -60.5 19.5t-64.5 31.5v55h458v-55q-28 -15 -61.5 -28t-78.5 -23v-865h189q-4 -102 -9.5 -204.5t-14.5 -204.5h-53l-96 315h-1124v53q57 34 141 51v867h-199l-94 -255h-55 q-10 91 -17 179.5t-9 169.5z" />
<glyph unicode="&#x4b6;" horiz-adv-x="1420" d="M19 1429v62h499v-62q-30 -15 -64.5 -29t-77.5 -24v-374q0 -149 61 -238t202 -89q89 0 170 25.5t138 61.5v614q-38 10 -76 24t-74 29v62h496v-62q-30 -15 -65 -29t-76 -24v-1266h236q0 -42 -4 -98.5t-10 -117t-14 -117t-16 -98.5h-53l-90 321h-449v61q51 24 99 35.5 t96 16.5v547q-57 -32 -151.5 -63.5t-216.5 -31.5q-89 0 -163.5 16.5t-129 61.5t-84 121.5t-29.5 196.5v415q-39 6 -77.5 20t-76.5 33z" />
<glyph unicode="&#x4b7;" horiz-adv-x="1187" d="M32 1010v55h458v-55q-21 -15 -53 -29t-73 -22v-256q0 -100 42.5 -160.5t142.5 -60.5q59 0 116 18t108 47v412q-64 12 -125 51v55h458v-55q-58 -37 -141 -51v-867h177q-4 -102 -11 -203.5t-13 -203.5h-55l-96 315h-364v53q88 36 170 51v382q-51 -55 -121.5 -90.5 t-176.5 -35.5q-144 0 -223 81t-79 219v299q-81 14 -141 51z" />
<glyph unicode="&#x4b8;" horiz-adv-x="1413" d="M19 1429v62h518v-62q-31 -15 -74.5 -29t-86.5 -24v-374q0 -147 68 -236t204 -91v327h110v-321q71 11 139 33.5t111 47.5v614q-39 10 -77.5 24t-74.5 29v62h496v-62q-30 -15 -65 -29t-75 -24v-1263q42 -8 76.5 -21t63.5 -31v-61h-541v61q51 24 99.5 35.5t97.5 16.5v547 q-39 -24 -105 -45t-145 -36v-307h-110v295q-13 -2 -26 -2h-28q-90 0 -166 16.5t-133 61.5t-89.5 121.5t-32.5 196.5v415q-39 6 -77.5 20t-76.5 33z" />
<glyph unicode="&#x4b9;" horiz-adv-x="1319" d="M32 1010v55h458v-55q-21 -15 -53 -29t-73 -22v-256q0 -98 51.5 -157.5t185.5 -63.5v341h100v-335q55 8 111.5 23t92.5 36v412q-69 12 -127 51v55h460v-55q-58 -37 -141 -51v-855q43 -10 76.5 -21.5t64.5 -29.5v-53h-503v53q88 36 170 51v382q-35 -37 -88 -62.5 t-116 -41.5v-186h-100v166q-17 -2 -31 -2h-29q-104 0 -174.5 21t-114 61t-61.5 95t-18 123v299q-81 14 -141 51z" />
<glyph unicode="&#x4ba;" horiz-adv-x="1354" d="M61 0v62q30 15 65 29t76 24v1263q-43 8 -78.5 21t-62.5 31v61h541v-61q-51 -24 -99 -35.5t-96 -16.5v-547q57 32 151.5 63.5t216.5 31.5q89 0 163.5 -16.5t129 -61.5t84 -121.5t29.5 -196.5v-415q39 -6 77.5 -20t76.5 -33v-62h-499v62q30 15 64.5 29t77.5 24v374 q0 149 -61 238t-202 89q-89 0 -170 -25.5t-138 -61.5v-614q38 -10 76 -24t74 -29v-62h-496z" />
<glyph unicode="&#x4bb;" horiz-adv-x="1250" d="M30 1470v55q62 26 144 45t156 32h54v-752h2q45 100 128.5 170.5t203.5 70.5q85 0 152 -20.5t111.5 -72t68 -137.5t23.5 -218v-539q37 -8 73 -18.5t68 -32.5v-53h-460v53q51 28 128 51v499q0 167 -47 261.5t-170 94.5q-56 0 -100.5 -20.5t-81 -52.5t-62 -73.5t-37.5 -86.5 v-622q34 -8 64.5 -18.5t60.5 -32.5v-53h-458v53q65 34 140 51v1349z" />
<glyph unicode="&#x4bc;" horiz-adv-x="1737" d="M-2 1031q0 44 16 103t55 102q49 0 108 -21.5t102 -49.5l17 -35l-174 -167q24 -69 87 -99.5t140 -32.5q13 168 70.5 296.5t148 215t206.5 130t244 43.5q136 0 248 -39.5t192 -119t124 -199t44 -278.5q0 -55 -4 -90.5t-10 -69.5h-1054q0 -149 45 -262t121.5 -187.5 t175.5 -112.5t204.5 -39t212 31.5t195.5 101.5l22 -45q-85 -122 -214 -177.5t-253 -55.5q-151 0 -281 47.5t-226 141t-152 233t-61 324.5q-87 2 -152 27.5t-108.5 69t-66 99t-22.5 115.5zM558 831h852q2 24 3 44.5t1 42.5q0 108 -29.5 197.5t-82 153.5t-124.5 100.5 t-158 36.5q-100 0 -182 -39.5t-142 -113t-95.5 -180t-42.5 -242.5z" />
<glyph unicode="&#x4bd;" horiz-adv-x="1285" d="M0 795q0 97 66 174q46 4 92.5 -23.5t65.5 -61.5q4 -6 7 -13t5 -13l-128 -121q6 -30 27 -50t48.5 -33t60.5 -19.5t63 -8.5q24 226 146 345.5t331 119.5q75 0 147.5 -20.5t128.5 -66t91.5 -123.5t35.5 -193q0 -74 -16 -156h-665q0 -89 22.5 -167t67.5 -135t113.5 -90.5 t162.5 -33.5q34 0 72 6t75.5 16t67 24t49.5 31l31 -34q-17 -37 -53.5 -68.5t-84 -55t-102.5 -37.5t-114 -14q-126 0 -220.5 39.5t-159.5 113.5t-97.5 176t-32.5 229q-158 5 -230.5 79t-72.5 184zM516 626h466q2 19 3 37t1 36q0 136 -51.5 216.5t-159.5 80.5 q-120 0 -183.5 -81.5t-75.5 -288.5z" />
<glyph unicode="&#x4be;" horiz-adv-x="1737" d="M-2 1031q0 44 16 103t55 102q49 0 108 -21.5t102 -49.5l17 -35l-174 -167q24 -69 87 -99.5t140 -32.5q13 168 70.5 296.5t148 215t206.5 130t244 43.5q136 0 248 -39.5t192 -119t124 -199t44 -278.5q0 -55 -4 -90.5t-10 -69.5h-1054q0 -149 45 -262t121.5 -187.5 t175.5 -112.5t204.5 -39t212 31.5t195.5 101.5l22 -45q-77 -108 -186.5 -163.5t-225.5 -67.5q-12 -96 -28.5 -190.5t-38.5 -192.5h-56q-20 100 -37 198.5t-33 193.5q-35 5 -66.5 14t-63.5 20q-100 32 -182 93t-141 149t-93 203t-36 256q-87 2 -152 27.5t-108.5 69t-66 99 t-22.5 115.5zM558 831h852q2 24 3 44.5t1 42.5q0 108 -29.5 197.5t-82 153.5t-124.5 100.5t-158 36.5q-100 0 -182 -39.5t-142 -113t-95.5 -180t-42.5 -242.5z" />
<glyph unicode="&#x4bf;" horiz-adv-x="1285" d="M0 795q0 97 66 174q46 4 92.5 -23.5t65.5 -61.5q4 -6 7 -13t5 -13l-128 -121q6 -30 27 -50t48.5 -33t60.5 -19.5t63 -8.5q24 226 146 345.5t331 119.5q75 0 147.5 -20.5t128.5 -66t91.5 -123.5t35.5 -193q0 -74 -16 -156h-665q0 -89 22.5 -167t67.5 -135t113.5 -90.5 t162.5 -33.5q34 0 72 6t75.5 16t67 24t49.5 31l31 -34q-32 -66 -117 -113.5t-188 -59.5q-10 -94 -22.5 -177.5t-36.5 -182.5h-55q-21 102 -34 188t-29 181q-191 37 -285.5 181.5t-96.5 365.5q-158 5 -230.5 79t-72.5 184zM516 626h466q2 19 3 36t1 35q0 136 -51.5 217.5 t-159.5 81.5q-120 0 -183.5 -81.5t-75.5 -288.5z" />
<glyph unicode="&#x4c0;" horiz-adv-x="748" d="M102 0v61q83 39 170 52v1263q-42 8 -84.5 22t-85.5 31v62h546v-62q-39 -17 -83.5 -31t-87.5 -22v-1263q45 -8 90 -21t81 -31v-61h-546z" />
<glyph unicode="&#x4c3;" horiz-adv-x="1375" d="M61 0v61q86 35 175 52v1263q-96 12 -175 53v62h540v-62q-34 -15 -74.5 -29t-85.5 -24v-590l128 29l396 561q-43 10 -80 23t-72 30v62h469v-62q-42 -19 -82.5 -32t-79.5 -21l-425 -565q93 -42 195 -123t188.5 -185.5t142 -225.5t55.5 -245q0 -121 -38.5 -208.5 t-104.5 -146.5t-154.5 -89.5t-190.5 -36.5l-13 57q59 12 113.5 39t95 74t64 115t23.5 166q0 77 -25.5 154.5t-67 148.5t-94.5 136t-108.5 119t-107.5 93.5t-91 59.5h-136v-600q98 -16 160 -52v-61h-540z" />
<glyph unicode="&#x4c4;" horiz-adv-x="1151" d="M83 0v53q57 34 141 51v855q-75 14 -141 51v55h437v-55q-21 -15 -46 -28t-59 -23v-398l99 20q85 98 161.5 183.5t141.5 185.5q-36 14 -66.5 28t-57.5 32v55h410v-55q-20 -17 -55.5 -30t-86.5 -30q-73 -88 -154 -177.5t-171 -178.5q60 -26 138 -85.5t146 -144.5t115 -191.5 t47 -223.5q0 -183 -98 -286.5t-281 -113.5l-10 59q113 34 155 107.5t42 197.5q0 99 -40.5 195.5t-99.5 176t-128 138.5t-122 81h-85v-400q43 -10 78 -21.5t60 -29.5v-53h-470z" />
<glyph unicode="&#x4c5;" horiz-adv-x="1396" d="M-21 222l31 53l246 -45q32 53 62.5 140.5t55 222.5t41 325t16.5 448q-133 20 -218 63v62h1120v-62q-75 -39 -174 -53v-1266h234l17 -18q-8 -41 -31.5 -94t-53.5 -109.5t-64 -112t-64 -95.5h-57l61 319h-409v61q39 17 79.5 29t83.5 23v1267h-399q-8 -335 -31 -555 t-56.5 -364t-77.5 -229t-95 -151q-42 -55 -104 -81t-119 -26q-15 17 -31 48t-30 66.5t-22.5 70t-10.5 63.5z" />
<glyph unicode="&#x4c6;" horiz-adv-x="1162" d="M6 173l30 53l181 -43q31 51 54 136.5t39 187.5t24.5 214t8.5 216q-42 13 -77.5 32t-64.5 41v55h870v-55q-68 -39 -140 -51v-865h209l10 -17q-10 -51 -33.5 -111t-52.5 -115.5t-57.5 -100t-47.5 -65.5h-58l58 315h-345v53q51 36 125 51v867h-281q-2 -113 -12.5 -239.5 t-32 -249t-56 -230t-82.5 -179.5q-41 -62 -88 -86.5t-87 -16.5q-32 36 -61 95t-33 108z" />
<glyph unicode="&#x4c7;" horiz-adv-x="1549" d="M61 0v61q86 35 175 52v1263q-100 14 -175 53v62h540v-62q-36 -19 -76.5 -32t-83.5 -21v-556h669v556q-45 10 -84.5 23t-75.5 30v62h539v-62q-38 -21 -84 -33t-90 -20v-1376q0 -145 -28.5 -233t-81.5 -136t-129.5 -64t-174.5 -16l-13 57q55 12 96.5 34.5t69.5 66t42 114.5 t14 177v709h-669v-596q43 -8 83.5 -21t76.5 -31v-61h-540z" />
<glyph unicode="&#x4c8;" horiz-adv-x="1303" d="M83 0v53q30 17 66 29t75 22v855q-39 10 -75 21.5t-66 29.5v55h458v-55q-49 -30 -126 -51v-373h473v373q-75 12 -128 51v55h461v-55q-57 -37 -141 -51v-959q0 -132 -25.5 -217.5t-73.5 -135t-118.5 -72t-161.5 -26.5l-10 59q57 17 95.5 40.5t60.5 66.5t31.5 111t9.5 176 v490h-473v-388q43 -8 73 -20.5t53 -30.5v-53h-458z" />
<glyph unicode="&#x4c9;" horiz-adv-x="1554" d="M61 0v61q86 35 175 52v1263q-100 14 -175 53v62h540v-62q-36 -19 -76.5 -32t-83.5 -21v-556h669v556q-45 10 -84.5 23t-75.5 30v62h539v-62q-38 -21 -84 -33t-90 -20v-1266h236l16 -18q-8 -41 -31.5 -94t-53 -109.5t-65 -112t-65.5 -95.5h-57l64 319h-409v61 q76 35 160 52v596h-669v-596q43 -8 83.5 -21t76.5 -31v-61h-540z" />
<glyph unicode="&#x4ca;" horiz-adv-x="1309" d="M83 0v53q30 17 66 29t75 22v855q-39 10 -75 21.5t-66 29.5v55h458v-55q-49 -30 -126 -51v-373h473v373q-75 12 -128 51v55h461v-55q-57 -37 -141 -51v-865h192l10 -17q-10 -51 -33.5 -111t-52.5 -115.5t-57.5 -100t-47.5 -65.5h-56l56 315h-331v53q53 39 128 51v388h-473 v-388q43 -8 73 -20.5t53 -30.5v-53h-458z" />
<glyph unicode="&#x4cb;" horiz-adv-x="1354" d="M19 1429v62h499v-62q-30 -15 -64.5 -29t-77.5 -24v-374q0 -149 61 -238t202 -89q89 0 170 25.5t138 61.5v614q-38 10 -76 24t-74 29v62h496v-62q-30 -15 -65 -29t-76 -24v-1263q43 -8 78.5 -21t62.5 -31v-61h-392l-90 -321h-53q-8 42 -15.5 98.5t-14 117t-11 117.5 t-4.5 98h234v550q-57 -32 -151.5 -63.5t-216.5 -31.5q-89 0 -163.5 16.5t-129 61.5t-84 121.5t-29.5 196.5v415q-39 6 -77.5 20t-76.5 33z" />
<glyph unicode="&#x4cc;" horiz-adv-x="1187" d="M32 1010v55h458v-55q-21 -15 -53 -29t-73 -22v-256q0 -100 42.5 -160.5t142.5 -60.5q59 0 116 18t108 47v412q-64 12 -125 51v55h458v-55q-58 -37 -141 -51v-855q43 -10 76.5 -21.5t64.5 -29.5v-53h-350l-96 -315h-55q-6 102 -12.5 204.5t-11.5 204.5h192v392 q-51 -55 -121.5 -90.5t-176.5 -35.5q-144 0 -223 81t-79 219v299q-81 14 -141 51z" />
<glyph unicode="&#x4cd;" horiz-adv-x="1852" d="M61 1429v62h437l371 -973l72 -220h2l73 224l384 969h385v-62q-39 -17 -79 -31t-83 -22v-1266h232l17 -14q-8 -41 -30.5 -95t-53 -111.5t-65 -113t-64.5 -95.5h-57l61 319h-409v61q43 17 85.5 29t87.5 23v958l8 250h-16l-71 -228l-436 -1093h-56l-415 1093l-77 249h-19 l2 -271v-958q41 -8 81.5 -21t80.5 -31v-61h-446v61q41 17 84.5 31t88.5 23v1261q-45 8 -88.5 22t-86.5 31z" />
<glyph unicode="&#x4ce;" horiz-adv-x="1588" d="M66 0v53q70 34 141 51l31 833q-45 17 -78.5 36t-61.5 37v55h416l216 -624l41 -147h7l45 149l229 622h403v-55q-28 -17 -62 -30t-78 -21l46 -865h198l10 -17q-10 -51 -34.5 -111t-53 -115.5t-57.5 -100t-46 -65.5h-57l57 315h-332v53q21 10 50.5 23t76.5 28l-43 863h-16 l-350 -967h-59l-343 967h-17l-32 -863q77 -24 128 -51v-53h-375z" />
<glyph unicode="&#x4cf;" horiz-adv-x="646" d="M83 0v53q30 15 71.5 28t77.5 23v1280q-41 9 -83.5 22t-65.5 29v56h482v-56q-26 -16 -62 -28t-79 -23v-1280q37 -10 70.5 -21.5t70.5 -29.5v-53h-482z" />
<glyph unicode="&#x4d0;" horiz-adv-x="1453" d="M0 0v61q77 35 153 52l540 1403h61l539 -1403q42 -8 84 -19t78 -33v-61h-546v61q43 17 87.5 30t87.5 22l-145 389h-508l-141 -389q90 -12 183 -52v-61h-473zM360 1829q24 24 69 34.5t90 12.5l54 -27v-181q30 -14 73.5 -22t91.5 -8q37 0 87 6t80 17v188l53 27 q32 2 78 -11.5t74 -35.5q0 -57 -21.5 -106t-66 -85t-115.5 -57.5t-171 -21.5q-195 0 -285.5 78t-90.5 192zM473 614h430l-168 451l-40 183h-4l-55 -187z" />
<glyph unicode="&#x4d1;" horiz-adv-x="1075" d="M83 260q0 98 39.5 161t116 99t189.5 52t263 24q8 91 5 165t-23.5 126t-60 80.5t-103.5 28.5q-31 0 -67.5 -3t-73.5 -17l-100 -256h-55q-21 63 -37 131.5t-20 134.5q81 49 180 77t220 28q109 0 174 -31t98.5 -80t44.5 -109t11 -119q0 -128 -5 -246.5t-5 -226.5 q0 -47 2 -81t4 -72l146 -22v-45q-53 -28 -118 -48.5t-124 -31.5h-54q-21 49 -25 107.5t-6 128.5h-11q-8 -42 -33 -86t-64.5 -78t-92.5 -55.5t-122 -21.5q-130 0 -211.5 79t-81.5 207zM189 1455q34 28 74 40.5t85 16.5l54 -28v-189q30 -13 70 -18t75 -5q20 0 67.5 4t76.5 13 v195l53 28q45 -4 84.5 -19t65.5 -38q0 -49 -17 -97t-56.5 -84t-106.5 -58.5t-169 -22.5q-106 0 -175 22.5t-109 58.5t-56 84t-16 97zM287 298q0 -91 47 -141.5t128 -50.5q53 0 93.5 21.5t68.5 51.5t44.5 60.5t24.5 52.5v224q-124 0 -203 -13t-124 -40.5t-62 -69t-17 -95.5z " />
<glyph unicode="&#x4d2;" horiz-adv-x="1453" d="M0 0v61q77 35 153 52l540 1403h61l539 -1403q42 -8 84 -19t78 -33v-61h-546v61q43 17 87.5 30t87.5 22l-145 389h-508l-141 -389q90 -12 183 -52v-61h-473zM366 1681q0 51 34 76.5t88 25.5q51 0 84.5 -25.5t33.5 -76.5q0 -49 -33.5 -74.5t-84.5 -25.5q-53 0 -87.5 25.5 t-34.5 74.5zM473 614h430l-168 451l-40 183h-4l-55 -187zM841 1681q0 51 34 76.5t85 25.5q53 0 87 -25.5t34 -76.5q0 -49 -34 -74.5t-87 -25.5q-51 0 -85 25.5t-34 74.5z" />
<glyph unicode="&#x4d3;" horiz-adv-x="1075" d="M83 260q0 98 39.5 161t116 99t189.5 52t263 24q8 91 5 165t-23.5 126t-60 80.5t-103.5 28.5q-31 0 -67.5 -3t-73.5 -17l-100 -256h-55q-21 63 -37 131.5t-20 134.5q81 49 180 77t220 28q109 0 174 -31t98.5 -80t44.5 -109t11 -119q0 -128 -5 -246.5t-5 -226.5 q0 -47 2 -81t4 -72l146 -22v-45q-53 -28 -118 -48.5t-124 -31.5h-54q-21 49 -25 107.5t-6 128.5h-11q-8 -42 -33 -86t-64.5 -78t-92.5 -55.5t-122 -21.5q-130 0 -211.5 79t-81.5 207zM179 1412q0 51 31.5 82t82.5 31t83.5 -31t32.5 -82q0 -49 -32 -79t-84 -30 q-51 0 -82.5 30t-31.5 79zM287 298q0 -91 47 -141.5t128 -50.5q53 0 93.5 21.5t68.5 51.5t44.5 60.5t24.5 52.5v224q-124 0 -203 -13t-124 -40.5t-62 -69t-17 -95.5zM652 1412q0 51 32 82t83 31q50 0 82.5 -31t32.5 -82q0 -49 -32.5 -79t-82.5 -30q-51 0 -83 30t-32 79z" />
<glyph unicode="&#x4d4;" horiz-adv-x="1961" d="M0 0v61q77 35 153 52l754 1275q-30 9 -62 18.5t-61 22.5v62h1009q-2 -85 -6 -171.5t-17 -173.5h-53l-89 234h-463v-565h345l85 158h51q17 -211 0 -430h-51l-85 162h-345v-595h490l103 256h55q12 -89 19.5 -180.5t3.5 -185.5h-1050v61q75 35 175 52v432h-418l-247 -432 q88 -12 181 -52v-61h-477zM607 656h354v645h-4l-88 -198z" />
<glyph unicode="&#x4d5;" horiz-adv-x="1656" d="M83 260q0 98 39.5 161t116 99t189.5 52t263 24q6 65 6 124q0 130 -40.5 203t-147.5 73q-31 0 -67.5 -3t-73.5 -17l-100 -256h-55q-21 63 -37 131.5t-20 134.5q81 49 180 77t220 28q122 0 185.5 -35.5t89.5 -90.5q24 26 51 49t64.5 40t87.5 27t120 10q75 0 147.5 -20.5 t129 -67t91.5 -124.5t35 -194q0 -36 -3 -73t-12 -80h-660q0 -89 22.5 -167t66 -135t110.5 -90.5t159 -33.5q36 0 75.5 6t75.5 16t66 24t49 31l32 -34q-16 -37 -52.5 -68.5t-85 -55t-103.5 -37.5t-112 -14q-58 0 -120.5 11t-123.5 37.5t-112 72t-83 114.5 q-17 -49 -51.5 -91.5t-82 -75t-107.5 -50.5t-129 -18q-130 0 -211.5 79t-81.5 207zM287 298q0 -91 47 -141.5t128 -50.5q53 0 92.5 20.5t67.5 49.5t44.5 58.5t24.5 50.5v231q-124 0 -203 -13t-124 -40.5t-61 -69t-16 -95.5zM886 626h466q2 19 3.5 37t1.5 36 q0 136 -51.5 216.5t-159.5 80.5q-120 0 -183.5 -81.5t-76.5 -288.5z" />
<glyph unicode="&#x4d6;" horiz-adv-x="1238" d="M61 0v61q75 35 175 52v1263q-43 8 -87.5 22t-87.5 31v62h1010q-2 -85 -7 -171.5t-16 -173.5h-56l-87 234h-464v-565h347l84 158h53q12 -211 0 -430h-53l-84 162h-347v-595h490l104 256h54q14 -89 20.5 -180.5t2.5 -185.5h-1051zM248 1829q24 24 69 34.5t90 12.5l54 -27 v-181q30 -14 73.5 -22t91.5 -8q37 0 87 6t80 17v188l53 27q32 2 78 -11.5t74 -35.5q0 -57 -21.5 -106t-66 -85t-115.5 -57.5t-171 -21.5q-195 0 -285.5 78t-90.5 192z" />
<glyph unicode="&#x4d7;" horiz-adv-x="1071" d="M87 532q0 273 126 416t356 143q75 0 147 -20.5t128.5 -67t91.5 -124.5t35 -194q0 -36 -3 -73t-11 -80h-665q0 -89 22.5 -167t67 -135t113 -90.5t159.5 -33.5q75 0 151.5 21.5t114.5 55.5l30 -34q-17 -37 -53.5 -68.5t-83.5 -55t-102 -37.5t-113 -14q-126 0 -221.5 39.5 t-159.5 113.5t-97 176t-33 229zM211 1455q34 28 74 40.5t85 16.5l54 -28v-189q30 -13 70 -18t75 -5q20 0 67.5 4t76.5 13v195l53 28q45 -4 84.5 -19t65.5 -38q0 -49 -17 -97t-56.5 -84t-106.5 -58.5t-169 -22.5q-106 0 -175 22.5t-109 58.5t-56 84t-16 97zM298 626h468 q3 19 4 37t1 36q0 136 -51 216.5t-159 80.5q-122 0 -186 -81.5t-77 -288.5z" />
<glyph unicode="&#x4d8;" horiz-adv-x="1512" d="M113 665q0 59 7 127h1069q-4 143 -40.5 256t-103.5 193t-167 122.5t-232 42.5q-28 0 -62.5 -2t-67 -5.5t-59 -10t-40.5 -12.5l-112 -309h-53q-9 43 -15.5 93t-10.5 100t-5.5 93.5t1.5 75.5q74 36 191 61.5t241 25.5q370 0 558 -194t188 -576q0 -190 -46.5 -335 t-129 -241.5t-200 -146t-258.5 -49.5q-150 0 -272 42.5t-206.5 129t-129.5 216.5t-45 303zM330 592q0 -106 30 -197.5t86 -161t136 -109t180 -39.5q194 0 305 145.5t122 450.5h-852q-6 -45 -7 -89z" />
<glyph unicode="&#x4d9;" horiz-adv-x="1104" d="M100 417q0 34 4 70.5t11 75.5h702q0 89 -13.5 168.5t-47.5 138.5t-92.5 92.5t-149.5 33.5q-30 0 -67.5 -3t-74.5 -17l-102 -254h-53q-20 65 -34.5 132.5t-18.5 133.5q81 49 167 76t208 27q128 0 218.5 -39.5t148 -113.5t85 -176t27.5 -230q0 -272 -127 -415t-354 -143 q-75 0 -152.5 25t-140.5 77t-103.5 136t-40.5 205zM305 469q-15 -183 51.5 -291.5t186.5 -108.5q122 0 191 96.5t79 303.5h-508z" />
<glyph unicode="&#x4da;" horiz-adv-x="1512" d="M113 665q0 59 7 127h1069q-4 143 -40.5 256t-103.5 193t-167 122.5t-232 42.5q-28 0 -62.5 -2t-67 -5.5t-59 -10t-40.5 -12.5l-112 -309h-53q-9 43 -15.5 93t-10.5 100t-5.5 93.5t1.5 75.5q74 36 191 61.5t241 25.5q370 0 558 -194t188 -576q0 -190 -46.5 -335 t-129 -241.5t-200 -146t-258.5 -49.5q-150 0 -272 42.5t-206.5 129t-129.5 216.5t-45 303zM330 592q0 -106 30 -197.5t86 -161t136 -109t180 -39.5q194 0 305 145.5t122 450.5h-852q-6 -45 -7 -89zM350 1681q0 51 34 76.5t88 25.5q51 0 84.5 -25.5t33.5 -76.5 q0 -49 -33.5 -74.5t-84.5 -25.5q-53 0 -87.5 25.5t-34.5 74.5zM825 1681q0 51 34 76.5t85 25.5q53 0 87 -25.5t34 -76.5q0 -49 -34 -74.5t-87 -25.5q-51 0 -85 25.5t-34 74.5z" />
<glyph unicode="&#x4db;" horiz-adv-x="1104" d="M100 417q0 34 4 70.5t11 75.5h702q0 89 -13.5 168.5t-47.5 138.5t-92.5 92.5t-149.5 33.5q-30 0 -67.5 -3t-74.5 -17l-102 -254h-53q-20 65 -34.5 132.5t-18.5 133.5q81 49 167 76t208 27q128 0 218.5 -39.5t148 -113.5t85 -176t27.5 -230q0 -272 -127 -415t-354 -143 q-75 0 -152.5 25t-140.5 77t-103.5 136t-40.5 205zM203 1412q0 51 31.5 82t82.5 31t83.5 -31t32.5 -82q0 -49 -32 -79t-84 -30q-51 0 -82.5 30t-31.5 79zM305 469q-15 -183 51.5 -291.5t186.5 -108.5q122 0 191 96.5t79 303.5h-508zM676 1412q0 51 32 82t83 31 q50 0 82.5 -31t32.5 -82q0 -49 -32.5 -79t-82.5 -30q-51 0 -83 30t-32 79z" />
<glyph unicode="&#x4dc;" horiz-adv-x="2016" d="M0 0v53l100 51q79 85 153.5 176.5t142.5 181t127.5 174t108.5 154.5l-400 586q-87 26 -151 53v62h470v-62q-30 -15 -66 -29t-78 -24l359 -573h137v573q-45 12 -83 25t-68 28v62h494v-62q-26 -13 -61 -26t-77 -27v-590l144 29l358 561q-43 12 -80 26t-73 27v62h468v-62 q-38 -17 -78.5 -30t-80.5 -23l-388 -567q55 -71 117 -157.5t129 -181t140.5 -188t152.5 -178.5l100 -51v-53h-267l-71 53q-126 147 -229.5 316.5t-218.5 343.5h-123v-600q36 -10 71 -22t67 -30v-61h-496v61q63 35 153 52v620l-128 -32q-116 -175 -213.5 -337.5 t-222.5 -310.5l-73 -53h-266zM648 1681q0 51 34 76.5t88 25.5q51 0 84.5 -25.5t33.5 -76.5q0 -49 -33.5 -74.5t-84.5 -25.5q-53 0 -87.5 25.5t-34.5 74.5zM1123 1681q0 51 34 76.5t85 25.5q53 0 87 -25.5t34 -76.5q0 -49 -34 -74.5t-87 -25.5q-51 0 -85 25.5t-34 74.5z" />
<glyph unicode="&#x4dd;" horiz-adv-x="1537" d="M0 0v53l98 51q53 61 103.5 130t95 133t81.5 120t67 94q-81 92 -155.5 186.5t-142.5 191.5q-55 12 -106 51v55h368v-55q-41 -30 -106 -51q57 -102 124 -193t142 -193h110v386q-71 14 -118 51v55h412v-55q-20 -17 -47 -30t-66 -21v-398l118 20q74 102 134.5 188.5 t120.5 189.5q-30 10 -55.5 20.5t-51.5 30.5v55h370v-55q-37 -26 -122 -51q-69 -94 -141 -184t-142 -179q28 -39 68 -96t88 -124t100.5 -137.5t103.5 -134.5l87 -51v-53h-226l-60 49q-36 49 -77 114t-82 131t-75 122.5t-55 87.5h-103v-400q66 -17 128 -51v-53h-427v53 q30 15 58.5 28t59.5 23v414l-116 -22q-19 -30 -51.5 -87t-69.5 -123.5t-78 -130t-79 -106.5l-63 -49h-222zM418 1412q0 51 31.5 82t82.5 31t83.5 -31t32.5 -82q0 -49 -32 -79t-84 -30q-51 0 -82.5 30t-31.5 79zM891 1412q0 51 32 82t83 31q50 0 82.5 -31t32.5 -82 q0 -49 -32.5 -79t-82.5 -30q-51 0 -83 30t-32 79z" />
<glyph unicode="&#x4de;" horiz-adv-x="1179" d="M106 57q0 35 4.5 78.5t12 91.5t17 95.5t20.5 90.5h55l90 -298q12 -6 35.5 -11.5t52.5 -10t60 -6.5t59 -2q79 0 143.5 25.5t111 69.5t72 103.5t25.5 129.5q0 85 -26.5 143t-71 92.5t-103 49.5t-122.5 15l-165 -22q-14 65 -2 122h69q36 0 87 3.5t86 8.5q97 34 149 109.5 t52 177.5q0 140 -79.5 217t-219.5 77q-71 0 -112.5 -12t-56.5 -28l-111 -260h-55q-10 57 -17.5 146.5t-5.5 176.5q32 26 77.5 42t95 26.5t101.5 14.5t96 4q86 0 173 -14.5t158.5 -56t116 -113.5t44.5 -182q0 -108 -63 -203t-199 -148v-9q64 -10 120.5 -37t98 -70.5t66 -107 t24.5 -151.5q0 -115 -45.5 -200.5t-122 -140.5t-178 -82t-209.5 -27q-120 0 -227.5 23.5t-180.5 59.5zM209 1681q0 51 34 76.5t88 25.5q51 0 84.5 -25.5t33.5 -76.5q0 -49 -33.5 -74.5t-84.5 -25.5q-53 0 -87.5 25.5t-34.5 74.5zM684 1681q0 51 34 76.5t85 25.5 q53 0 87 -25.5t34 -76.5q0 -49 -34 -74.5t-87 -25.5q-51 0 -85 25.5t-34 74.5z" />
<glyph unicode="&#x4df;" horiz-adv-x="1008" d="M98 102l38 143h43q28 -30 62 -71.5t68 -81.5q45 -17 128 -17q65 0 113 21.5t78 55t45 77t15 88.5q0 102 -43.5 138.5t-118.5 48.5l-200 -31q-9 28 -10 58t10 57h217q19 8 39.5 26t38.5 44.5t29.5 63t11.5 81.5q0 102 -56.5 147.5t-147.5 45.5q-43 0 -78 -5t-45 -9 l-97 -240h-53q-24 70 -34.5 140t-12.5 138q43 24 130.5 47.5t223.5 23.5q173 0 267.5 -63t94.5 -187q0 -51 -21.5 -93.5t-54 -77t-74.5 -57.5t-82 -36q117 -10 195.5 -75t78.5 -185q0 -170 -117 -256.5t-310 -86.5q-124 0 -216.5 36.5t-154.5 91.5zM138 1412q0 51 31.5 82 t82.5 31t83.5 -31t32.5 -82q0 -49 -32 -79t-84 -30q-51 0 -82.5 30t-31.5 79zM611 1412q0 51 32 82t83 31q50 0 82.5 -31t32.5 -82q0 -49 -32.5 -79t-82.5 -30q-51 0 -83 30t-32 79z" />
<glyph unicode="&#x4e0;" horiz-adv-x="1181" d="M106 57q0 35 4.5 79.5t12 92.5t17 95.5t20.5 88.5h55l90 -298q12 -6 35.5 -11.5t52.5 -10t60 -6.5t59 -2q79 0 143.5 25.5t111 70.5t72 104.5t25.5 127.5q0 85 -30.5 145t-79.5 96.5t-111 53t-125 16.5l-162 -23q-15 65 -2 126l142 2l275 445l62 74v9l-117 -13h-424 l-83 -230h-53q-17 89 -31.5 194.5t-14.5 182.5h898v-66l-325 -492l-85 -108q113 0 200.5 -29.5t147.5 -81.5t91.5 -125t31.5 -163q0 -117 -46.5 -202.5t-124.5 -140.5t-178 -82t-206 -27q-120 0 -227.5 23.5t-180.5 59.5z" />
<glyph unicode="&#x4e1;" horiz-adv-x="998" d="M66 1065h790v-66l-279 -495l-85 -108q102 0 182 -28.5t133 -82t81 -126t28 -159.5q0 -115 -38.5 -200t-105.5 -141.5t-156.5 -83t-191.5 -26.5q-97 0 -192.5 35.5t-156.5 92.5l38 142h43q28 -30 62 -71.5t65 -82.5q45 -17 128 -17q79 0 137.5 27t97.5 73.5t58.5 108.5 t19.5 131q0 79 -25.5 138t-68 98.5t-99 59t-118.5 19.5l-123 -22q-6 30 -7.5 58.5t7.5 58.5h102l247 443l58 92v8l-116 -12h-333l-84 -213h-54q-18 89 -29.5 178.5t-14.5 170.5z" />
<glyph unicode="&#x4e2;" horiz-adv-x="1573" d="M61 0v61q86 39 175 52v1263q-43 10 -87.5 23t-87.5 30v62h540v-62q-34 -17 -72.5 -30t-87.5 -23v-925l-24 -159l103 168l624 865v51q-49 10 -92.5 24t-80.5 29v62h541v-62q-38 -17 -83 -30t-92 -23v-1263q100 -16 175 -52v-61h-541v61q35 15 75 29t88 23v922l20 160 l-93 -160l-633 -875v-47q49 -8 93 -21t80 -31v-61h-540zM471 1679v110h641v-110h-641z" />
<glyph unicode="&#x4e3;" horiz-adv-x="1303" d="M83 0v53q37 17 70.5 29t70.5 22v855q-84 12 -141 51v55h452v-55q-24 -13 -55 -26t-73 -25v-585l-23 -197h10l83 160l456 728h288v-55q-69 -39 -141 -51v-855q40 -10 76.5 -21.5t64.5 -29.5v-53h-452v53q59 34 127 51v609l22 169h-11l-80 -160l-453 -722h-291zM388 1357 v110h539v-110h-539z" />
<glyph unicode="&#x4e4;" horiz-adv-x="1573" d="M61 0v61q86 39 175 52v1263q-43 10 -87.5 23t-87.5 30v62h540v-62q-34 -17 -72.5 -30t-87.5 -23v-925l-24 -159l103 168l624 865v51q-49 10 -92.5 24t-80.5 29v62h541v-62q-38 -17 -83 -30t-92 -23v-1263q100 -16 175 -52v-61h-541v61q35 15 75 29t88 23v922l20 160 l-93 -160l-633 -875v-47q49 -8 93 -21t80 -31v-61h-540zM435 1681q0 51 34 76.5t88 25.5q51 0 84.5 -25.5t33.5 -76.5q0 -49 -33.5 -74.5t-84.5 -25.5q-53 0 -87.5 25.5t-34.5 74.5zM910 1681q0 51 34 76.5t85 25.5q53 0 87 -25.5t34 -76.5q0 -49 -34 -74.5t-87 -25.5 q-51 0 -85 25.5t-34 74.5z" />
<glyph unicode="&#x4e5;" horiz-adv-x="1303" d="M83 0v53q37 17 70.5 29t70.5 22v855q-84 12 -141 51v55h452v-55q-24 -13 -55 -26t-73 -25v-585l-23 -197h10l83 160l456 728h288v-55q-69 -39 -141 -51v-855q40 -10 76.5 -21.5t64.5 -29.5v-53h-452v53q59 34 127 51v609l22 169h-11l-80 -160l-453 -722h-291zM301 1412 q0 51 31.5 82t82.5 31t83.5 -31t32.5 -82q0 -49 -32 -79t-84 -30q-51 0 -82.5 30t-31.5 79zM774 1412q0 51 32 82t83 31q50 0 82.5 -31t32.5 -82q0 -49 -32.5 -79t-82.5 -30q-51 0 -83 30t-32 79z" />
<glyph unicode="&#x4e6;" horiz-adv-x="1575" d="M113 746q0 166 46 307.5t131.5 245t211.5 160.5t286 57t285.5 -57t212 -160.5t132 -245t45.5 -307.5q0 -167 -45.5 -308.5t-132 -245t-212.5 -161t-285 -57.5q-160 0 -286 57.5t-211.5 161t-131.5 245t-46 308.5zM341 746q0 -137 28.5 -257.5t86.5 -210t145 -141.5 t206 -52q108 0 189 52t133.5 141.5t79.5 210t27 257.5q0 136 -28 256t-85.5 209.5t-145 142t-206.5 52.5q-118 0 -199.5 -52.5t-132.5 -142t-74.5 -209.5t-23.5 -256zM431 1681q0 51 34 76.5t88 25.5q51 0 84.5 -25.5t33.5 -76.5q0 -49 -33.5 -74.5t-84.5 -25.5 q-53 0 -87.5 25.5t-34.5 74.5zM906 1681q0 51 34 76.5t85 25.5q53 0 87 -25.5t34 -76.5q0 -49 -34 -74.5t-87 -25.5q-51 0 -85 25.5t-34 74.5z" />
<glyph unicode="&#x4e7;" horiz-adv-x="1177" d="M87 532q0 135 35.5 238.5t101.5 174.5t158.5 108.5t205.5 37.5q132 0 228 -40.5t156.5 -114.5t89.5 -176t29 -228q0 -268 -137 -413t-366 -145q-128 0 -222 39.5t-155.5 113.5t-92.5 177t-31 228zM230 1412q0 51 31.5 82t82.5 31t83.5 -31t32.5 -82q0 -49 -32 -79 t-84 -30q-51 0 -82.5 30t-31.5 79zM292 532q0 -95 18 -180.5t57.5 -148.5t103.5 -98.5t153 -35.5q115 0 188.5 112.5t73.5 350.5q0 98 -18 182.5t-56.5 147.5t-98 98.5t-142.5 35.5q-126 0 -202.5 -112.5t-76.5 -351.5zM703 1412q0 51 32 82t83 31q50 0 82.5 -31t32.5 -82 q0 -49 -32.5 -79t-82.5 -30q-51 0 -83 30t-32 79z" />
<glyph unicode="&#x4e8;" horiz-adv-x="1575" d="M113 746q0 166 46 307.5t131.5 245t211.5 160.5t286 57t285.5 -57t212 -160.5t132 -245t45.5 -307.5q0 -167 -45.5 -308.5t-132 -245t-212.5 -161t-285 -57.5q-160 0 -286 57.5t-211.5 161t-131.5 245t-46 308.5zM341 697q4 -128 35 -240t89.5 -194t143.5 -130t198 -48 q104 0 182 48t131 130t82 194t34 240h-895zM341 825h895q-9 121 -41 227.5t-89.5 185.5t-141 123.5t-193.5 44.5q-109 0 -188 -44.5t-130 -123.5t-78.5 -186t-33.5 -227z" />
<glyph unicode="&#x4e9;" horiz-adv-x="1177" d="M87 532q0 135 35.5 238.5t101.5 174.5t158.5 108.5t205.5 37.5q132 0 228 -40.5t156.5 -114.5t89.5 -176t29 -228q0 -268 -137 -413t-366 -145q-128 0 -222 39.5t-155.5 113.5t-92.5 177t-31 228zM292 486q4 -90 24.5 -165.5t59.5 -132t101 -88t147 -31.5 q108 0 182 100.5t80 316.5h-594zM292 596h594q-6 85 -27.5 159t-60 127t-94.5 83.5t-133 30.5q-120 0 -194 -96.5t-85 -303.5z" />
<glyph unicode="&#x4ea;" horiz-adv-x="1575" d="M113 746q0 166 46 307.5t131.5 245t211.5 160.5t286 57t285.5 -57t212 -160.5t132 -245t45.5 -307.5q0 -167 -45.5 -308.5t-132 -245t-212.5 -161t-285 -57.5q-160 0 -286 57.5t-211.5 161t-131.5 245t-46 308.5zM341 697q4 -128 35 -240t89.5 -194t143.5 -130t198 -48 q104 0 182 48t131 130t82 194t34 240h-895zM341 825h895q-9 121 -41 227.5t-89.5 185.5t-141 123.5t-193.5 44.5q-109 0 -188 -44.5t-130 -123.5t-78.5 -186t-33.5 -227zM431 1681q0 51 34 76.5t88 25.5q51 0 84.5 -25.5t33.5 -76.5q0 -49 -33.5 -74.5t-84.5 -25.5 q-53 0 -87.5 25.5t-34.5 74.5zM906 1681q0 51 34 76.5t85 25.5q53 0 87 -25.5t34 -76.5q0 -49 -34 -74.5t-87 -25.5q-51 0 -85 25.5t-34 74.5z" />
<glyph unicode="&#x4eb;" horiz-adv-x="1177" d="M87 532q0 135 35.5 238.5t101.5 174.5t158.5 108.5t205.5 37.5q132 0 228 -40.5t156.5 -114.5t89.5 -176t29 -228q0 -268 -137 -413t-366 -145q-128 0 -222 39.5t-155.5 113.5t-92.5 177t-31 228zM236 1412q0 51 31.5 82t82.5 31t83.5 -31t32.5 -82q0 -49 -32 -79 t-84 -30q-51 0 -82.5 30t-31.5 79zM292 486q4 -90 24.5 -165.5t59.5 -132t101 -88t147 -31.5q108 0 182 100.5t80 316.5h-594zM292 596h594q-6 85 -27.5 159t-60 127t-94.5 83.5t-133 30.5q-120 0 -194 -96.5t-85 -303.5zM709 1412q0 51 32 82t83 31q50 0 82.5 -31t32.5 -82 q0 -49 -32.5 -79t-82.5 -30q-51 0 -83 30t-32 79z" />
<glyph unicode="&#x4ec;" horiz-adv-x="1347" d="M124 47q2 34 5 82t7 98t9.5 98.5t10.5 89.5h55l110 -311q24 -12 79.5 -15.5t108.5 -3.5q95 0 187 40.5t164.5 121.5t117 202.5t44.5 283.5l-620 -64q-10 42 -10 84t10 82l620 -2q-16 287 -154 430t-374 143q-71 0 -112 -12t-59 -28l-110 -260h-55q-4 28 -8.5 66t-8 80.5 t-4.5 88t-1 88.5q32 26 78 42t95 26.5t101 14.5t96 4q173 0 308.5 -43.5t229.5 -136t143 -238.5t49 -350q0 -205 -60 -350.5t-159 -240t-225.5 -139t-263.5 -44.5q-140 0 -235 18t-169 55zM226 1681q0 51 34 76.5t88 25.5q51 0 84.5 -25.5t33.5 -76.5q0 -49 -33.5 -74.5 t-84.5 -25.5q-53 0 -87.5 25.5t-34.5 74.5zM701 1681q0 51 34 76.5t85 25.5q53 0 87 -25.5t34 -76.5q0 -49 -34 -74.5t-87 -25.5q-51 0 -85 25.5t-34 74.5z" />
<glyph unicode="&#x4ed;" horiz-adv-x="1045" d="M98 102l38 143h43q28 -30 62 -71.5t66 -81.5q45 -17 132 -17q140 0 226.5 115t88.5 310l-422 -31q-24 57 0 114h422q-4 116 -28.5 194.5t-66 128t-96 70t-120.5 20.5q-87 0 -108 -14l-95 -260h-53q-19 59 -34 134t-23 150q57 32 136 58.5t213 26.5q102 0 189.5 -28 t152.5 -92t101.5 -166t36.5 -252q0 -151 -41.5 -260.5t-111 -179.5t-157.5 -104.5t-182 -34.5q-122 0 -214.5 36.5t-154.5 91.5zM124 1412q0 51 31.5 82t82.5 31t83.5 -31t32.5 -82q0 -49 -32 -79t-84 -30q-51 0 -82.5 30t-31.5 79zM597 1412q0 51 32 82t83 31 q50 0 82.5 -31t32.5 -82q0 -49 -32.5 -79t-82.5 -30q-51 0 -83 30t-32 79z" />
<glyph unicode="&#x4ee;" horiz-adv-x="1405" d="M0 1429v62h561v-62q-37 -15 -80.5 -29t-92.5 -24l354 -705l44 -136h4l43 140l279 701q-106 19 -181 53v62h475v-62q-28 -13 -66.5 -27t-87.5 -26l-417 -948q-45 -115 -89.5 -203.5t-91.5 -143.5t-100.5 -80t-114.5 -11q-13 18 -25 48.5t-20 62t-15 62t-9 56.5l32 53 l220 -57q8 9 18 26t19.5 38.5t17.5 42.5t14 38l-531 1016q-40 10 -81 23t-79 30zM411 1679v110h641v-110h-641z" />
<glyph unicode="&#x4ef;" horiz-adv-x="1075" d="M-24 1010v55h446v-53q-44 -30 -121 -53l272 -631l41 -132h4l32 134l202 629q-64 12 -117 51v55h364v-55q-44 -30 -121 -51l-332 -959q-51 -136 -97.5 -220.5t-92 -133t-93.5 -71t-103 -33.5q-24 41 -41.5 90t-31.5 93l28 51h222q12 17 22 33t20.5 39.5t23.5 60t29 91.5 l-443 959q-32 8 -58.5 20.5t-54.5 30.5zM307 1357v110h539v-110h-539z" />
<glyph unicode="&#x4f0;" horiz-adv-x="1405" d="M0 1429v62h561v-62q-37 -15 -80.5 -29t-92.5 -24l354 -705l44 -136h4l43 140l279 701q-106 19 -181 53v62h475v-62q-28 -13 -66.5 -27t-87.5 -26l-417 -948q-45 -115 -89.5 -203.5t-91.5 -143.5t-100.5 -80t-114.5 -11q-13 18 -25 48.5t-20 62t-15 62t-9 56.5l32 53 l220 -57q8 9 18 26t19.5 38.5t17.5 42.5t14 38l-531 1016q-40 10 -81 23t-79 30zM398 1681q0 51 34 76.5t88 25.5q51 0 84.5 -25.5t33.5 -76.5q0 -49 -33.5 -74.5t-84.5 -25.5q-53 0 -87.5 25.5t-34.5 74.5zM873 1681q0 51 34 76.5t85 25.5q53 0 87 -25.5t34 -76.5 q0 -49 -34 -74.5t-87 -25.5q-51 0 -85 25.5t-34 74.5z" />
<glyph unicode="&#x4f1;" horiz-adv-x="1075" d="M-24 1010v55h446v-53q-44 -30 -121 -53l272 -631l41 -132h4l32 134l202 629q-64 12 -117 51v55h364v-55q-44 -30 -121 -51l-332 -959q-51 -136 -97.5 -220.5t-92 -133t-93.5 -71t-103 -33.5q-24 41 -41.5 90t-31.5 93l28 51h222q12 17 22 33t20.5 39.5t23.5 60t29 91.5 l-443 959q-32 8 -58.5 20.5t-54.5 30.5zM230 1412q0 51 31.5 82t82.5 31t83.5 -31t32.5 -82q0 -49 -32 -79t-84 -30q-51 0 -82.5 30t-31.5 79zM703 1412q0 51 32 82t83 31q50 0 82.5 -31t32.5 -82q0 -49 -32.5 -79t-82.5 -30q-51 0 -83 30t-32 79z" />
<glyph unicode="&#x4f2;" horiz-adv-x="1405" d="M0 1429v62h561v-62q-37 -15 -80.5 -29t-92.5 -24l354 -705l44 -136h4l43 140l279 701q-106 19 -181 53v62h475v-62q-28 -13 -66.5 -27t-87.5 -26l-417 -948q-45 -115 -89.5 -203.5t-91.5 -143.5t-100.5 -80t-114.5 -11q-13 18 -25 48.5t-20 62t-15 62t-9 56.5l32 53 l220 -57q8 9 18 26t19.5 38.5t17.5 42.5t14 38l-531 1016q-40 10 -81 23t-79 30zM500 1653l149 239q12 2 38 -3t53.5 -11t50 -16.5t28.5 -21.5v-29l-279 -197zM774 1648l246 244q14 2 39.5 -3t53.5 -13t51 -18.5t35 -23.5l-2 -21l-378 -203z" />
<glyph unicode="&#x4f3;" horiz-adv-x="1075" d="M-24 1010v55h446v-53q-44 -30 -121 -53l272 -631l41 -132h4l32 134l202 629q-64 12 -117 51v55h364v-55q-44 -30 -121 -51l-332 -959q-51 -136 -97.5 -220.5t-92 -133t-93.5 -71t-103 -33.5q-24 41 -41.5 90t-31.5 93l28 51h222q12 17 22 33t20.5 39.5t23.5 60t29 91.5 l-443 959q-32 8 -58.5 20.5t-54.5 30.5zM296 1307l164 329q13 2 40.5 -1t56 -10t52 -16t30.5 -18v-32l-294 -285zM544 1312l284 324q15 2 41.5 -1t53.5 -12t51.5 -20.5t34.5 -25.5v-28l-424 -275z" />
<glyph unicode="&#x4f4;" horiz-adv-x="1354" d="M19 1429v62h499v-62q-30 -15 -64.5 -29t-77.5 -24v-374q0 -149 61 -238t202 -89q89 0 170 25.5t138 61.5v614q-38 10 -76 24t-74 29v62h496v-62q-30 -15 -65 -29t-76 -24v-1263q43 -8 78.5 -21t62.5 -31v-61h-541v61q51 24 99 35.5t96 16.5v547q-57 -32 -151.5 -63.5 t-216.5 -31.5q-89 0 -163.5 16.5t-129 61.5t-84 121.5t-29.5 196.5v415q-39 6 -77.5 20t-76.5 33zM305 1681q0 51 34 76.5t88 25.5q51 0 84.5 -25.5t33.5 -76.5q0 -49 -33.5 -74.5t-84.5 -25.5q-53 0 -87.5 25.5t-34.5 74.5zM780 1681q0 51 34 76.5t85 25.5q53 0 87 -25.5 t34 -76.5q0 -49 -34 -74.5t-87 -25.5q-51 0 -85 25.5t-34 74.5z" />
<glyph unicode="&#x4f5;" horiz-adv-x="1187" d="M32 1010v55h458v-55q-21 -15 -53 -29t-73 -22v-256q0 -100 42.5 -160.5t142.5 -60.5q59 0 116 18t108 47v412q-64 12 -125 51v55h458v-55q-58 -37 -141 -51v-855q43 -10 76.5 -21.5t64.5 -29.5v-53h-503v53q88 36 170 51v382q-51 -55 -121.5 -90.5t-176.5 -35.5 q-144 0 -223 81t-79 219v299q-81 14 -141 51zM224 1412q0 51 31.5 82t82.5 31t83.5 -31t32.5 -82q0 -49 -32 -79t-84 -30q-51 0 -82.5 30t-31.5 79zM697 1412q0 51 32 82t83 31q50 0 82.5 -31t32.5 -82q0 -49 -32.5 -79t-82.5 -30q-51 0 -83 30t-32 79z" />
<glyph unicode="&#x4f6;" horiz-adv-x="1079" d="M61 0v61q86 35 175 52v1263q-43 8 -87.5 22t-87.5 31v62h998q0 -42 -2 -98t-4.5 -115.5t-7 -115.5t-10.5 -101h-55l-111 319h-428v-1270h215q0 -42 -4 -98.5t-11 -117t-14 -117t-15 -98.5h-54l-89 321h-408z" />
<glyph unicode="&#x4f7;" horiz-adv-x="915" d="M83 0v53q37 21 70.5 32t70.5 19v857q-79 12 -141 49v55h795q-2 -83 -8 -172.5t-18 -176.5h-55l-94 255h-288v-877h207q-4 -102 -9.5 -204.5t-14.5 -204.5h-53l-96 315h-366z" />
<glyph unicode="&#x4f8;" horiz-adv-x="1797" d="M61 0v61q84 39 175 52v1263q-43 10 -87.5 23t-87.5 30v62h567v-62q-40 -17 -87 -31t-100 -22v-488q38 4 93.5 9.5t97.5 5.5q104 0 200.5 -19.5t168.5 -68.5t116 -134t44 -217q0 -126 -49 -214t-128 -145.5t-179 -84t-202 -26.5q-10 0 -41.5 1t-70 2t-81 2t-73.5 1h-276z M441 113q10 -4 30.5 -5.5t43 -2.5t43.5 -1h34q148 0 244.5 89.5t96.5 273.5q0 160 -87.5 242.5t-259.5 82.5q-51 0 -84 -1t-61 -9v-669zM556 1681q0 51 34 76.5t88 25.5q51 0 84.5 -25.5t33.5 -76.5q0 -49 -33.5 -74.5t-84.5 -25.5q-53 0 -87.5 25.5t-34.5 74.5zM1031 1681 q0 51 34 76.5t85 25.5q53 0 87 -25.5t34 -76.5q0 -49 -34 -74.5t-87 -25.5q-51 0 -85 25.5t-34 74.5zM1195 0v61q43 21 83.5 32t82.5 20v1263q-40 10 -81.5 21t-84.5 32v62h541v-62q-71 -34 -171 -53v-1263q53 -8 93.5 -21t77.5 -31v-61h-541z" />
<glyph unicode="&#x4f9;" horiz-adv-x="1588" d="M83 0v53q37 21 70.5 32t70.5 19v855q-41 6 -75 19.5t-66 31.5v55h460v-55q-49 -30 -128 -51v-329q36 4 81 11t130 7q160 0 257 -75t97 -234q0 -85 -31 -150t-86.5 -109t-132 -66t-167.5 -22q-58 0 -129.5 4t-152.5 4h-198zM415 92q28 -3 55.5 -5t57.5 -2q241 0 241 256 q0 59 -18 101t-49 66t-71.5 34.5t-85.5 10.5q-30 0 -64 -1t-66 -7v-453zM449 1412q0 51 31.5 82t82.5 31t83.5 -31t32.5 -82q0 -49 -32 -79t-84 -30q-51 0 -82.5 30t-31.5 79zM922 1412q0 51 32 82t83 31q50 0 82.5 -31t32.5 -82q0 -49 -32.5 -79t-82.5 -30q-51 0 -83 30 t-32 79zM1046 1010v55h460v-55q-26 -17 -62 -29t-78 -22v-855q36 -10 70 -21.5t70 -29.5v-53h-458v53q30 15 60 28t65 23v855q-81 14 -127 51z" />
<glyph unicode="&#x4fc;" horiz-adv-x="1426" d="M21 0v61q38 21 78.5 32t79.5 20l417 637l-400 626q-43 12 -84 25t-84 28v62h564v-62q-35 -13 -74 -26t-90 -27l298 -482l292 482q-87 19 -177 53v62h490v-62q-36 -15 -77.5 -29t-84.5 -24l-372 -577q130 -192 221.5 -318.5t147 -219.5t81 -165t25.5 -157 q0 -92 -30 -164.5t-83 -122.5t-126.5 -76.5t-158.5 -24.5l-14 57q100 43 153.5 105.5t53.5 178.5q0 42 -15 100.5t-57.5 146t-121 211t-208.5 298.5l-326 -538q45 -6 88.5 -15.5t84.5 -33.5v-61h-491z" />
<glyph unicode="&#x4fd;" horiz-adv-x="1104" d="M21 0v53q59 36 119 51l318 424l-320 431q-30 10 -54.5 21.5t-49.5 29.5v55h428v-53q-26 -17 -50 -31t-54 -22l221 -320l218 320q-73 24 -106 51v55h355v-55q-40 -28 -119 -51l-293 -388q43 -57 107 -135t125 -166.5t104.5 -180t43.5 -178.5q0 -177 -98.5 -264.5 t-281.5 -97.5l-10 59q115 36 157 102t42 180q0 73 -36.5 153.5t-86.5 158t-101.5 143.5t-80.5 111l-239 -352q30 -10 55.5 -22.5t51.5 -28.5v-53h-365z" />
<glyph unicode="&#x2000;" horiz-adv-x="951" />
<glyph unicode="&#x2001;" horiz-adv-x="1902" />
<glyph unicode="&#x2002;" horiz-adv-x="951" />
<glyph unicode="&#x2003;" horiz-adv-x="1902" />
<glyph unicode="&#x2004;" horiz-adv-x="634" />
<glyph unicode="&#x2005;" horiz-adv-x="475" />
<glyph unicode="&#x2006;" horiz-adv-x="317" />
<glyph unicode="&#x2007;" horiz-adv-x="317" />
<glyph unicode="&#x2008;" horiz-adv-x="237" />
<glyph unicode="&#x2009;" horiz-adv-x="380" />
<glyph unicode="&#x200a;" horiz-adv-x="105" />
<glyph unicode="&#x2010;" horiz-adv-x="904" d="M151 532v135h601v-135h-601z" />
<glyph unicode="&#x2011;" horiz-adv-x="904" d="M151 532v135h601v-135h-601z" />
<glyph unicode="&#x2012;" horiz-adv-x="904" d="M151 532v135h601v-135h-601z" />
<glyph unicode="&#x2013;" horiz-adv-x="1333" d="M153 532v135h1027v-135h-1027z" />
<glyph unicode="&#x2014;" horiz-adv-x="1886" d="M153 532v135h1581v-135h-1581z" />
<glyph unicode="&#x2018;" horiz-adv-x="621" d="M156 1419q0 53 17.5 106.5t54 99t91.5 80.5t132 51l35 -73q-81 -26 -129 -77t-38 -132q24 -19 66.5 -39.5t74.5 -30.5q8 -34 -0.5 -66.5t-27.5 -57t-44.5 -40t-46.5 -17.5q-75 6 -130 55t-55 141z" />
<glyph unicode="&#x2019;" horiz-adv-x="621" d="M122 1010q83 26 137 87.5t44 142.5q-24 18 -67 37.5t-74 31.5q-10 35 -0.5 67t28.5 56.5t43.5 40t47.5 15.5q71 -6 128.5 -54t57.5 -141q0 -51 -21.5 -106.5t-62 -104.5t-98 -87.5t-127.5 -57.5z" />
<glyph unicode="&#x201a;" horiz-adv-x="621" d="M122 -236q83 26 137 87.5t44 142.5q-24 18 -67 37.5t-74 31.5q-10 35 -0.5 67t28.5 56.5t43.5 40t47.5 15.5q71 -6 128.5 -54t57.5 -141q0 -51 -21.5 -106.5t-62 -104.5t-98 -87.5t-127.5 -57.5z" />
<glyph unicode="&#x201c;" horiz-adv-x="1008" d="M156 1419q0 53 17.5 106.5t54 99t91.5 80.5t132 51l35 -73q-81 -26 -129 -77t-38 -132q24 -19 66.5 -39.5t74.5 -30.5q8 -34 -0.5 -66.5t-27.5 -57t-44.5 -40t-46.5 -17.5q-75 6 -130 55t-55 141zM544 1419q0 53 17.5 106.5t54 99t91.5 80.5t132 51l35 -73 q-81 -26 -129 -77t-38 -132q24 -19 66.5 -39.5t74.5 -30.5q8 -34 -0.5 -66.5t-27.5 -57t-44.5 -40t-46.5 -17.5q-75 6 -130 55t-55 141z" />
<glyph unicode="&#x201d;" horiz-adv-x="1008" d="M122 1010q83 26 137 87.5t44 142.5q-24 18 -67 37.5t-74 31.5q-10 35 -0.5 67t28.5 56.5t43.5 40t47.5 15.5q71 -6 128.5 -54t57.5 -141q0 -51 -21.5 -106.5t-62 -104.5t-98 -87.5t-127.5 -57.5zM510 1010q83 26 137 87.5t44 142.5q-24 18 -67 37.5t-74 31.5 q-10 35 -0.5 67t28.5 56.5t43.5 40t47.5 15.5q71 -6 128.5 -54t57.5 -141q0 -51 -21.5 -106.5t-62 -104.5t-98 -87.5t-127.5 -57.5z" />
<glyph unicode="&#x201e;" horiz-adv-x="1008" d="M122 -236q83 26 137 87.5t44 142.5q-24 18 -67 37.5t-74 31.5q-10 35 -0.5 67t28.5 56.5t43.5 40t47.5 15.5q71 -6 128.5 -54t57.5 -141q0 -51 -21.5 -106.5t-62 -104.5t-98 -87.5t-127.5 -57.5zM510 -236q83 26 137 87.5t44 142.5q-24 18 -67 37.5t-74 31.5 q-10 35 -0.5 67t28.5 56.5t43.5 40t47.5 15.5q71 -6 128.5 -54t57.5 -141q0 -51 -21.5 -106.5t-62 -104.5t-98 -87.5t-127.5 -57.5z" />
<glyph unicode="&#x2020;" horiz-adv-x="1038" d="M67.5 987.5q-1.5 28.5 3 57t14.5 50.5h28l371 -71l-77 415v31q24 12 54.5 17.5t62.5 5.5t61 -6.5t47 -16.5v-31l-76 -415l371 71h28q6 -19 11 -46t5 -56.5t-4 -57.5t-12 -49h-33l-366 71l68 -260v-43l-81 -1080h-47l-81 1082v41l69 260l-371 -71h-28q-8 19 -12 46 t-5.5 55.5z" />
<glyph unicode="&#x2021;" horiz-adv-x="1038" d="M67.5 95q1.5 29 5.5 55.5t12 42.5h28l371 -69l-69 398v41l69 394l-371 -71h-28q-6 17 -11 44t-6.5 56.5t3 58t14.5 50.5h28l371 -71l-77 415v31q24 12 54.5 17.5t62.5 5.5t61 -6.5t47 -16.5v-31l-76 -415l371 71h28q6 -19 11 -46t5 -56.5t-4 -57.5t-12 -49h-33l-366 71 l68 -394v-43l-68 -396l366 69h33q8 -20 12 -47.5t4 -57t-5 -56t-11 -44.5h-28l-371 69l76 -417v-28q-18 -12 -47 -18.5t-61 -6.5t-62.5 6.5t-54.5 18.5v28l77 417l-371 -69h-28q-10 20 -14.5 49t-3 58z" />
<glyph unicode="&#x2022;" horiz-adv-x="968" d="M185 662q0 66 23.5 121.5t64 95t96 62t117.5 22.5q61 0 115.5 -20.5t95 -60t64 -94.5t23.5 -126q0 -70 -23.5 -125t-64 -95t-95 -60t-115.5 -20q-62 0 -117.5 20t-96 60t-64 95t-23.5 125z" />
<glyph unicode="&#x2026;" horiz-adv-x="1882" d="M151 122q0 63 40.5 101.5t104.5 38.5q66 0 106.5 -38.5t40.5 -101.5q0 -62 -40.5 -100.5t-106.5 -38.5q-63 0 -104 38.5t-41 100.5zM794 122q0 63 40.5 101.5t104.5 38.5q66 0 106.5 -38.5t40.5 -101.5q0 -62 -40.5 -100.5t-106.5 -38.5q-63 0 -104 38.5t-41 100.5z M1440 122q0 63 40.5 101.5t104.5 38.5q66 0 106.5 -38.5t40.5 -101.5q0 -62 -40.5 -100.5t-106.5 -38.5q-63 0 -104 38.5t-41 100.5z" />
<glyph unicode="&#x202f;" horiz-adv-x="380" />
<glyph unicode="&#x2030;" horiz-adv-x="2551" d="M111 1154q0 84 27.5 150t78 113.5t117.5 73t147 25.5q81 0 149 -22t117.5 -67t77 -113t27.5 -160q0 -83 -27.5 -150t-77 -114t-117.5 -72.5t-149 -25.5t-147.5 22.5t-117 67.5t-78 113t-27.5 159zM195 53l1243 1459l74 -65l-1246 -1462zM289 1154q0 -128 49 -205t143 -77 q191 0 192 282q0 281 -192 281t-192 -281zM863 339q0 84 27.5 150t78 113.5t117.5 73t147 25.5q81 0 149 -22t117.5 -67t77 -113t27.5 -160q0 -83 -27.5 -150t-77 -114t-117.5 -72.5t-149 -25.5t-147.5 22.5t-117 67.5t-78 113t-27.5 159zM1041 339q0 -128 49 -205t143 -77 q191 0 192 282q0 281 -192 281t-192 -281zM1698 339q0 84 27.5 150t78 113.5t117.5 73t147 25.5q81 0 149 -22t117.5 -67t77 -113t27.5 -160q0 -83 -27.5 -150t-77 -114t-117.5 -72.5t-149 -25.5t-147.5 22.5t-117 67.5t-78 113t-27.5 159zM1876 339q0 -128 49 -205t143 -77 q191 0 192 282q0 281 -192 281t-192 -281z" />
<glyph unicode="&#x2039;" horiz-adv-x="595" d="M51 551l366 437l52 -41l-224 -380l237 -403l-49 -42z" />
<glyph unicode="&#x203a;" horiz-adv-x="595" d="M115 164l237 392l-226 391l51 41l366 -435l-379 -429z" />
<glyph unicode="&#x2044;" horiz-adv-x="674" d="M-321 53l1243 1459l74 -65l-1246 -1462z" />
<glyph unicode="&#x205f;" horiz-adv-x="475" />
<glyph unicode="&#x20ac;" d="M-120 547l33 122h136q-2 18 -2 37.5v41.5v33.5t2 33.5h-169l33 120h146q21 151 79 260.5t143 181.5t192.5 105.5t233.5 33.5q141 0 236.5 -18t168.5 -53q0 -35 -2 -80.5t-6.5 -97t-11 -100.5t-12.5 -90h-56l-110 307q-24 13 -78 17.5t-108 4.5q-181 0 -302 -112 t-158 -359h644l-32 -120h-624v-69v-41t2 -36h581l-32 -122h-537q19 -104 58.5 -189.5t100.5 -146t145 -93.5t192 -33q71 0 118 10.5t61 28.5l101 264h55q11 -59 18 -150t5 -177q-32 -26 -76 -41.5t-94.5 -26t-101.5 -15t-98 -4.5q-311 0 -481.5 143t-211.5 430h-181z" />
<glyph unicode="&#x2122;" horiz-adv-x="2116" d="M85 1491h752q-2 -57 -9.5 -136t-20.5 -148h-55l-69 205h-132v-632q37 -10 64.5 -19t42.5 -19v-49h-398v49q26 14 54.5 23.5t55.5 14.5v632h-134l-70 -205h-53q-10 69 -18 146.5t-10 137.5zM894 693v49q53 28 108 38l27 606q-35 13 -59.5 27t-44.5 26v52h349l149 -441 l32 -113h6l32 115l160 439h347v-52q-21 -10 -47 -20.5t-59 -16.5l31 -622q55 -10 107 -38v-49h-377v49q16 10 38 18.5t57 19.5l-31 615h-13l-251 -702h-73l-246 702h-14l-23 -615q57 -17 96 -38v-49h-301z" />
<glyph unicode="&#x2202;" horiz-adv-x="1083" d="M87 394q0 116 37.5 237t111 220t181 162.5t250.5 63.5q97 0 148 -33q0 66 -11.5 148t-43.5 153t-88 119t-146 48q-55 0 -102.5 -23.5t-95.5 -49.5l-30 41q62 49 141 87.5t175 38.5q185 0 283.5 -160t98.5 -487q0 -222 -45.5 -404.5t-124 -311t-184 -199t-225.5 -70.5 q-158 0 -244 105.5t-86 314.5zM279 352q0 -128 44.5 -205.5t129.5 -77.5q71 0 136 59t115 171t80.5 275t30.5 367q-46 26 -82 34.5t-77 8.5q-117 0 -190.5 -64t-115 -158.5t-56.5 -205.5t-15 -204z" />
<glyph unicode="&#x220f;" horiz-adv-x="1703" d="M85 -364q33 17 75.5 30t99.5 21v1689q-43 8 -87.5 22t-87.5 31v62h1533v-62q-40 -21 -84.5 -33t-88.5 -20v-1689q85 -10 173 -51v-62h-538v62q46 30 160 51v1693h-776v-1693q83 -17 160 -51v-62h-539v62z" />
<glyph unicode="&#x2211;" horiz-adv-x="1345" d="M75 1404v87h1156q0 -42 -2 -94.5t-4 -108t-5.5 -110t-9.5 -96.5h-54l-112 298h-682l552 -732l-648 -882h807l122 264h53q6 -42 9 -104t7 -126t5 -125t3 -103h-1189v138l628 853z" />
<glyph unicode="&#x221a;" horiz-adv-x="1162" d="M0 1012v53h309l232 -658q16 -49 23 -81t13 -81q11 47 20.5 88t20.5 78l473 1477h498v-112h-424l-588 -1802h-57l-380 985q-74 12 -140 53z" />
<glyph unicode="&#x221e;" horiz-adv-x="1522" d="M113 691q0 93 27.5 162t73.5 115t106 68.5t123 22.5q61 0 109.5 -15t88.5 -45t75.5 -78t71.5 -112q21 51 48.5 97t65 80t85.5 53.5t112 19.5t120.5 -21.5t99 -65t67 -109.5t24.5 -158q0 -91 -27.5 -160.5t-73.5 -116t-105.5 -70t-126.5 -23.5q-117 0 -195.5 59 t-155.5 194q-24 -49 -50 -95t-61.5 -81.5t-81 -56t-107.5 -20.5q-63 0 -119.5 20.5t-99.5 63.5t-68.5 110t-25.5 162zM209 707q0 -55 18 -94.5t50 -67t74.5 -40.5t89.5 -13q94 0 148 41.5t96 116.5q-77 132 -136 191.5t-142 59.5q-86 0 -142 -52t-56 -142zM827 748 q40 -62 72 -110t62.5 -80t65 -49t76.5 -17q41 0 79.5 14t68 38.5t48 58t18.5 76.5q0 59 -19.5 101.5t-51.5 69t-74 39t-88 12.5q-92 0 -152 -39t-105 -114z" />
<glyph unicode="&#x222b;" horiz-adv-x="811" d="M-61 -303q6 71 17.5 133t28.5 111h51l94 -183q53 0 82.5 12.5t46 50t19.5 105.5t3 176l-45 1057q0 132 27 218t73 136t108 69.5t137 19.5q15 0 41 -1t53.5 -4.5t53 -8.5t44.5 -11q-7 -71 -18 -133t-29 -111h-53l-94 183q-44 0 -75 -12.5t-49 -50t-24.5 -105.5t-2.5 -177 l45 -1056q0 -132 -25.5 -218t-72.5 -136.5t-110.5 -69.5t-136.5 -19q-17 0 -42 1t-51.5 4.5t-52 8.5t-43.5 11z" />
<glyph unicode="&#x2248;" d="M128 514q77 116 147 159.5t134 43.5q53 0 104.5 -22.5t100 -50t98.5 -49.5t103 -22q39 0 80.5 15.5t84.5 55.5l28 -44q-62 -90 -123 -127t-119 -37q-55 0 -107 22.5t-103.5 50t-102.5 50t-102 22.5q-46 0 -94 -25.5t-97 -92.5zM128 856q77 116 147 159.5t134 43.5 q53 0 104.5 -22.5t100 -50t98.5 -49.5t103 -22q39 0 80.5 15.5t84.5 55.5l28 -44q-62 -90 -123 -127t-119 -37q-55 0 -107 22.5t-103.5 50t-102.5 50t-102 22.5q-46 0 -94 -25.5t-97 -92.5z" />
<glyph unicode="&#x2260;" d="M89 504v114h356l102 230h-458v113h507l278 620l89 -39l-258 -581h343v-113h-394l-103 -230h497v-114h-546l-317 -717l-87 40l298 677h-307z" />
<glyph unicode="&#x2264;" d="M94 903v66l820 501l53 -94l-532 -321l-183 -86l181 -66l563 -332l-84 -138zM100 579l56 98l828 -481l-55 -98z" />
<glyph unicode="&#x2265;" d="M145 193l818 500l59 -99l-817 -498zM145 1331l83 139l818 -471v-66l-820 -500l-51 93l532 322l183 85l-181 66z" />
<glyph unicode="&#x25ca;" horiz-adv-x="1083" d="M75 728l439 788h51l445 -777l-445 -765h-51zM238 752l252 -451l61 -145h2l61 149l236 413l-252 451l-59 146h-4l-60 -150z" />
<glyph unicode="&#x25fc;" horiz-adv-x="1064" d="M0 0v1065h1065v-1065h-1065z" />
</font>
</defs>
</svg>
