<?xml version="1.0" standalone="no"?>
<!DOCTYPE svg PUBLIC "-//W3C//DTD SVG 1.1//EN" "http://www.w3.org/Graphics/SVG/1.1/DTD/svg11.dtd" >
<svg xmlns="http://www.w3.org/2000/svg" xmlns:xlink="http://www.w3.org/1999/xlink" version="1.1">
<metadata></metadata>
<defs>
<font id="pt_serifitalic" horiz-adv-x="1094" >
<font-face units-per-em="2048" ascent="1593" descent="-455" />
<missing-glyph horiz-adv-x="506" />
<glyph unicode="&#xfb01;" horiz-adv-x="1102" d="M-108 -397q25 12 60.5 45t69.5 87t64.5 132.5t47.5 182.5l135 890h-152v54q42 24 89 41.5t89 27.5l14 73q28 130 75.5 214.5t110.5 133.5t140 68t163 19q87 0 164.5 -27t123.5 -61q-4 -46 -36.5 -103.5t-82.5 -80.5l-167 188q-50 0 -96 -12t-87 -49t-73 -102.5 t-55 -174.5l-21 -105h126q44 0 96 2.5t103 5.5t98 8t80 10l38 -26l-176 -927h155v-55q-43 -33 -102 -53.5t-115 -20.5q-60 0 -86.5 27t-26.5 63q0 41 6 81t17 88l134 693h-368l-134 -850q-23 -148 -77 -246.5t-116 -159t-120 -90t-90 -37.5z" />
<glyph unicode="&#xfb02;" horiz-adv-x="1140" d="M-108 -397q25 12 60.5 45t69.5 87t64.5 132.5t47.5 182.5l135 890h-152v54q42 24 89 41.5t89 27.5l14 73q44 203 154.5 319t303.5 116q38 0 81 -7t79 -23q42 10 83 19t74 11l42 -23l-267 -1431h152v-55q-42 -33 -101 -53.5t-116 -20.5q-61 0 -89 27t-28 63q0 41 6.5 81 t16.5 88q40 199 71 354t54 274t39.5 205t26.5 146q24 140 30 186q-32 35 -71 56t-87 21q-42 0 -80.5 -12t-74.5 -49t-66 -103.5t-53 -175.5l-21 -105h228q10 -52 -21 -104h-228q-30 -187 -59 -373.5t-58 -376.5q-31 -182 -83.5 -297.5t-112 -185.5t-119 -102.5t-105.5 -47.5 z" />
<glyph horiz-adv-x="0" />
<glyph unicode="&#xd;" horiz-adv-x="506" />
<glyph unicode=" "  horiz-adv-x="506" />
<glyph unicode="&#x09;" horiz-adv-x="506" />
<glyph unicode="&#xa0;" horiz-adv-x="506" />
<glyph unicode="!" horiz-adv-x="682" d="M142 119q0 63 39.5 100.5t103.5 37.5t103.5 -37.5t39.5 -100.5q0 -60 -39.5 -97.5t-103.5 -37.5q-63 0 -103 37.5t-40 97.5zM305 455l8 368l126 618q50 24 104 24t97 -24l-138 -618l-143 -368h-54z" />
<glyph unicode="&#x22;" horiz-adv-x="711" d="M186 1399q16 28 41.5 46t61.5 18q64 0 74 -64l-133 -346h-42zM437 1399q16 28 41.5 46t61.5 18q64 0 74 -64l-133 -346h-42z" />
<glyph unicode="#" d="M64 487l53 95h158l143 315h-161l50 95h153l158 349h109l-157 -349h297l159 349h108l-159 -349h167l-56 -95h-153l-141 -315h161l-58 -95h-145l-166 -366h-108l166 366h-299l-163 -366h-111l165 366h-170zM387 582h296l142 315h-297z" />
<glyph unicode="$" d="M36 92q16 69 40 132t49 104h55l83 -203q40 -39 153 -41l127 586q-54 36 -106 72.5t-93 83.5t-67 106.5t-26 141.5q0 76 29 147.5t86.5 128t144.5 93t201 42.5l23 102h109l-23 -102q102 -4 175.5 -23t125.5 -43q-18 -70 -52 -116.5t-65 -78.5h-54l-76 142q-16 2 -35 4.5 t-40 6.5l-113 -538q50 -33 101 -69.5t92 -86.5t66 -117t25 -157q0 -82 -32 -154.5t-93 -130t-148.5 -96t-195.5 -48.5l-26 -126h-109l26 120q-54 3 -110 15.5t-103.5 30.5t-86.5 36.5t-57 35.5zM445 1134q0 -85 41.5 -138.5t105.5 -94.5l102 476q-114 -8 -181.5 -71.5 t-67.5 -171.5zM522 90q50 8 95 29t80.5 53.5t56.5 76.5t21 100q0 88 -40.5 148.5t-101.5 108.5z" />
<glyph unicode="%" horiz-adv-x="1633" d="M88 52l1387 1431l73 -64l-1389 -1433zM132 1044q0 96 37.5 178t100 140.5t144 91.5t168.5 33q144 0 221.5 -75t77.5 -194q0 -108 -40.5 -190.5t-104.5 -138.5t-144 -84t-160 -28q-62 0 -117.5 20t-96 55t-63.5 84.5t-23 107.5zM305 1042q0 -37 7 -70.5t25 -60t45 -41.5 t65 -15q46 0 93 23t84.5 71t60.5 120.5t23 173.5q0 32 -7 61t-24 53t-44 37.5t-69 13.5q-46 0 -92 -28t-83.5 -76t-60.5 -116t-23 -146zM740 244q0 96 37.5 178t100 140.5t144 91.5t168.5 33q144 0 221.5 -75t77.5 -194q0 -108 -40.5 -190.5t-104.5 -138.5t-144 -84 t-160 -28q-62 0 -117.5 20t-96 55t-63.5 84.5t-23 107.5zM913 242q0 -37 7 -70.5t25 -60t45 -41.5t65 -15q46 0 93 23t84.5 71t60.5 120.5t23 173.5q0 32 -7 61t-24 53t-44 37.5t-69 13.5q-46 0 -92 -28t-83.5 -76t-60.5 -116t-23 -146z" />
<glyph unicode="&#x26;" horiz-adv-x="1820" d="M140 315q0 106 52.5 197.5t124.5 165.5t146 126.5t119 78.5q-45 68 -61.5 136.5t-16.5 142.5q0 67 31 126t83 103t121.5 70t143.5 26q266 0 266 -211q0 -71 -34.5 -133.5t-88 -116t-116 -98.5t-116.5 -80q62 -106 151 -219t189 -226q21 23 58.5 77t75.5 127.5t70 160.5 t45 172q-67 13 -113 50l10 54h424l-12 -54q-67 -35 -149 -50q-46 -123 -96 -223.5t-96.5 -176.5t-86.5 -129.5t-62 -77.5q67 -65 130 -120.5t147 -110.5l106 -50l-12 -52h-297q-40 30 -97 72.5t-120 119.5q-38 -40 -90 -78.5t-118 -70t-143.5 -50.5t-159.5 -19 q-102 0 -178.5 28t-128 74.5t-76.5 108.5t-25 130zM363 355q2 -119 77.5 -195t207.5 -76q94 0 183.5 42.5t171.5 130.5q-52 56 -110 132.5t-111 155.5t-95.5 152.5t-64.5 121.5q-111 -88 -184 -199.5t-75 -264.5zM662 1178q0 -71 29.5 -144t71.5 -133q44 31 84 68.5t74 80 t53.5 90.5t19.5 103q0 74 -29 115t-100 39q-46 2 -83.5 -16.5t-63.5 -48.5t-41 -70t-15 -84z" />
<glyph unicode="'" horiz-adv-x="461" d="M186 1399q16 28 41.5 46t61.5 18q64 0 74 -64l-133 -346h-42z" />
<glyph unicode="(" horiz-adv-x="716" d="M128 245q0 233 69.5 423.5t177 341t239.5 264t257 193.5l36 -38q-102 -88 -208.5 -207t-194.5 -264t-143.5 -318.5t-53.5 -370.5q-2 -187 44 -351.5t169 -314.5l-60 -42q-180 155 -256 323t-76 361z" />
<glyph unicode=")" horiz-adv-x="716" d="M-167 -397q92 76 197.5 192.5t194 268t148 335t59.5 393.5q0 89 -9 166.5t-33.5 152.5t-66 152.5t-106.5 165.5l54 38q180 -163 258.5 -331.5t78.5 -364.5q0 -217 -65 -404t-169.5 -339.5t-235 -270.5t-263.5 -196z" />
<glyph unicode="*" horiz-adv-x="971" d="M301 1028q-6 23 0 40l261 90q32 -19 32 -51l-212 -180q-16 2 -32.5 18t-29.5 38t-19 45zM301 1323.5q4 21.5 16.5 43.5t30 39t37.5 21l209 -182q0 -39 -30 -55l-261 97q-6 15 -2 36.5zM578 1539q8 14 30 21t48 7q25 0 48 -6.5t33 -21.5l-45 -271q-32 -21 -66 0zM580 811 l48 271q34 17 68 0l44 -269q-11 -14 -32 -20t-46 -6q-26 0 -48 5.5t-34 18.5zM727 1241l209 186q17 -2 33.5 -18t29 -38t17.5 -44.5t-1 -41.5l-259 -99q-30 21 -29 55zM729 1103q0 33 27 53l257 -88q8 -14 3 -37.5t-17.5 -45.5t-29 -39t-36.5 -19z" />
<glyph unicode="+" d="M78 662v111h413v439h111v-439h415v-111h-415v-449h-111v449h-413z" />
<glyph unicode="," horiz-adv-x="590" d="M-75 -311q43 14 85 44.5t76.5 68t56.5 82.5t28 88q-20 24 -56.5 47t-66.5 33q-2 40 15 77.5t42 66.5t53 47t51 20q71 -10 106.5 -50t35.5 -119q0 -80 -34.5 -155t-90 -137.5t-127 -108.5t-147.5 -67z" />
<glyph unicode="-" horiz-adv-x="887" d="M148 522l29 132h590l-27 -132h-592z" />
<glyph unicode="." horiz-adv-x="566" d="M60 119q0 63 40 100.5t103 37.5q64 0 104 -37.5t40 -100.5q0 -60 -40 -97.5t-104 -37.5q-62 0 -102.5 37.5t-40.5 97.5z" />
<glyph unicode="/" horiz-adv-x="718" d="M-78 -232l761 1719l88 -38l-763 -1720z" />
<glyph unicode="0" d="M40 424q0 124 19 251t55 245t91.5 221.5t129.5 180.5t167.5 121t203.5 44q123 0 199.5 -45t119.5 -112.5t57 -145t14 -142.5q0 -185 -41.5 -374.5t-124 -344t-207.5 -252t-293 -97.5q-123 0 -200 45t-119 113.5t-56.5 146.5t-14.5 145zM241 416q0 -60 9 -123t32 -114 t63 -85t100 -34q113 0 197.5 90.5t140.5 233t85 317t29 343.5q0 63 -10 125.5t-33 114t-62.5 83.5t-99.5 34q-116 -2 -200.5 -94.5t-140.5 -237t-83 -317.5t-27 -336z" />
<glyph unicode="1" d="M180 0l12 60q56 26 113.5 42.5t116.5 29.5l218 1026l39 122q-60 -23 -129.5 -32.5t-135.5 -6.5v50q102 32 215 77.5t215 118.5h53l-287 -1355q102 -24 192 -72l-13 -60h-609z" />
<glyph unicode="2" d="M-12 0l14 67q62 50 150.5 125t185.5 166t192.5 195.5t172 212t124.5 216t48 208.5q0 84 -51 136.5t-152 52.5q-88 0 -158 -25l-134 -299h-52q-10 60 -17.5 141.5t-5.5 155.5q88 60 183.5 97.5t215.5 37.5q104 0 174.5 -23t113 -63.5t61.5 -93.5t19 -115 q0 -121 -72.5 -249t-182 -252.5t-239 -238t-241.5 -203.5l-105 -82v-8l117 12h359l153 234h52q-2 -50 -8 -105t-16 -109.5t-20 -103.5t-18 -87h-863z" />
<glyph unicode="3" d="M12 82l96 187h42q10 -14 27 -37t36 -48t36.5 -50.5t29.5 -43.5q21 -4 57 -10.5t90 -6.5q86 0 153 34.5t111.5 91t67.5 128.5t21 147q2 128 -67.5 181t-197.5 53h-125l2 52l442 474l94 74v8l-112 -12h-339l-127 -214h-52q2 90 9 193.5t24 179.5h806l-2 -66l-430 -466 l-124 -92v-4l74 16q169 -15 247.5 -101t78.5 -238q0 -106 -34.5 -204.5t-107.5 -172t-188.5 -117.5t-277.5 -44q-48 0 -101.5 8t-102.5 22t-89.5 33t-66.5 45z" />
<glyph unicode="4" d="M-36 403l10 48l993 1036h57l-207 -975h267l-25 -109h-265l-63 -292q36 -8 73.5 -20.5t72.5 -30.5l-10 -60h-542l12 60q54 16 104 29t100 22l61 292h-638zM132 497l153 15h341l114 537l60 151h-6l-111 -151l-453 -483z" />
<glyph unicode="5" d="M32 82l98 187h41q11 -14 24.5 -37t28 -48t29 -50.5t26.5 -43.5q21 -4 46.5 -10.5t63.5 -6.5q100 0 173 34.5t120 93t70 133.5t23 155q0 137 -90.5 196t-254.5 55l-148 -3l236 726h499l113 114h52q-6 -32 -17.5 -70t-25 -77t-29.5 -74.5t-28 -58.5h-516l-134 -402h102 q201 0 311 -90.5t110 -263.5q0 -126 -42 -230t-118 -179.5t-183.5 -116.5t-242.5 -41q-50 0 -99 8t-94.5 22t-82.5 34t-61 44z" />
<glyph unicode="6" d="M82 382q0 170 68.5 344.5t198 328t314.5 271t417 173.5l8 -62q-275 -100 -462 -276.5t-281 -441.5q50 60 142.5 105t206.5 45q181 0 265.5 -87.5t84.5 -229.5q0 -98 -34.5 -200.5t-105.5 -186t-179.5 -137.5t-256.5 -54q-73 0 -143 20t-124.5 68.5t-86.5 125.5t-32 194z M282 399q0 -64 9.5 -124t34.5 -105t68 -72t108 -27q90 0 154.5 47t106 117t61.5 150t20 147q0 112 -51 170t-177 58q-94 0 -173.5 -48t-127.5 -110q-6 -17 -12 -45.5t-10 -57.5t-7.5 -57t-3.5 -43z" />
<glyph unicode="7" d="M153 0q130 299 300.5 603t403.5 609l83 100l-111 -10h-432l-128 -214h-52q4 90 12.5 194.5t23.5 180.5h865v-62q-148 -179 -259 -347.5t-199 -337t-159 -345.5t-140 -371h-208z" />
<glyph unicode="8" d="M26 285q0 155 109.5 271t317.5 177q-102 74 -153 153t-51 182q0 88 32 165t93 133.5t148.5 88.5t198.5 32q178 0 263.5 -77t85.5 -206q0 -63 -26.5 -124t-74.5 -115t-117 -98t-152 -73q58 -40 104.5 -78.5t78.5 -84t50 -99.5t18 -125q0 -80 -34 -158t-100.5 -138.5 t-167.5 -98.5t-235 -38q-183 0 -285.5 85.5t-102.5 225.5zM205 295q0 -100 62.5 -162t169.5 -62q89 0 153 28.5t103.5 72t58.5 98t19 106.5q0 54 -21 98t-56.5 83t-85.5 74t-109 71q-92 -48 -149 -102t-90 -108.5t-44 -105.5t-11 -91zM428 1103q0 -42 20 -81.5t51 -76 t72 -68t85 -56.5q125 94 180 188t53 181q2 84 -43.5 141.5t-155.5 57.5q-63 0 -112.5 -23t-82.5 -62.5t-50 -92t-17 -108.5z" />
<glyph unicode="9" d="M82 36q277 100 463 276.5t280 441.5q-50 -60 -141.5 -105t-205.5 -45q-183 0 -266.5 87.5t-83.5 231.5q0 98 34.5 200.5t105.5 186t178.5 136.5t255.5 53q73 0 143 -19t124.5 -67.5t87.5 -126.5t33 -194q0 -169 -68.5 -343.5t-199 -328t-316 -271t-416.5 -175.5zM328 942 q0 -111 50 -170.5t176 -59.5q94 0 173.5 49.5t127.5 111.5q6 16 12 45t11 58t8 56t3 44q0 64 -10 124t-35 104.5t-68 70.5t-108 26q-90 0 -154.5 -46.5t-105.5 -115.5t-60.5 -149t-19.5 -148z" />
<glyph unicode=":" horiz-adv-x="674" d="M158 119q0 63 40 100.5t103 37.5q64 0 104 -37.5t40 -100.5q0 -60 -40 -97.5t-104 -37.5q-62 0 -102.5 37.5t-40.5 97.5zM263 923q0 63 40 100.5t103 37.5q64 0 104 -37.5t40 -100.5q0 -60 -40 -97.5t-104 -37.5q-62 0 -102.5 37.5t-40.5 97.5z" />
<glyph unicode=";" horiz-adv-x="650" d="M-6 -311q43 14 85 44.5t76.5 68t56.5 82.5t28 88q-20 24 -56.5 47t-66.5 33q-2 40 15 77.5t42 66.5t53 47t51 20q71 -10 106.5 -50t35.5 -119q0 -80 -34.5 -155t-90 -137.5t-127 -108.5t-147.5 -67zM252 923q0 63 40 100.5t103 37.5q64 0 104 -37.5t40 -100.5 q0 -60 -40 -97.5t-104 -37.5q-62 0 -102.5 37.5t-40.5 97.5z" />
<glyph unicode="&#x3c;" d="M92 677v65l805 490l52 -92l-523 -315l-179 -83l177 -65l553 -326l-82 -136z" />
<glyph unicode="=" d="M28 495v111h939v-111h-939zM28 829v111h939v-111h-939z" />
<glyph unicode="&#x3e;" d="M117 1096l84 136l802 -461v-65l-804 -491l-51 92l522 315l178 84l-176 65z" />
<glyph unicode="?" horiz-adv-x="1031" d="M247 119q0 63 39 100.5t103 37.5t103.5 -37.5t39.5 -100.5q0 -60 -39.5 -97.5t-103.5 -37.5q-63 0 -102.5 37.5t-39.5 97.5zM330 1315q0 43 5 84q89 48 180 68t197 20q167 0 257 -74t90 -205q0 -104 -44 -180.5t-111 -138.5t-146 -115t-150 -110.5t-123.5 -126.5 t-62.5 -161h-42q-8 108 24.5 190t84.5 147.5t116.5 120.5t120 111t93.5 115.5t40 136.5q-2 94 -55.5 138t-139.5 44q-67 0 -111.5 -10.5t-65.5 -27.5l-82 -257h-52q-4 30 -9 67t-9.5 79t-4.5 85z" />
<glyph unicode="@" horiz-adv-x="2103" d="M167 493q0 227 75 411t205.5 313.5t306 199.5t376.5 70q188 0 350 -55t281 -158.5t184.5 -253t65.5 -339.5q0 -135 -45.5 -256.5t-126.5 -213.5t-185 -146.5t-219 -54.5q-62 0 -106 20t-67.5 65t-24.5 116t23 171h-8q-24 -67 -65 -132.5t-93 -118.5t-111.5 -87 t-119.5 -34q-126 0 -193.5 87t-67.5 231q0 134 45 261t121 227.5t176 161t212 60.5q75 0 118.5 -12t93.5 -36q77 36 157 34l-106 -598q-12 -69 -18 -125t-0.5 -97t23 -63t53.5 -22q69 0 142 39t135 112t100 177.5t38 233.5q0 159 -59 288.5t-164.5 220t-247 140t-301.5 49.5 q-192 0 -346 -68t-262.5 -186t-166.5 -278t-58 -341q0 -186 60 -329t169.5 -242.5t261 -150.5t334.5 -51q60 0 137 14.5t140 43.5l34 -92q-74 -42 -161.5 -58.5t-193.5 -16.5q-180 0 -343 54.5t-287.5 163t-197.5 271t-73 380.5zM789 353q0 -100 32 -156.5t119 -56.5 q40 0 86 38.5t91 101.5t87.5 141t75.5 157l53 311q-34 21 -68.5 31.5t-88.5 8.5q-80 2 -150.5 -53t-122.5 -140.5t-83 -187t-31 -195.5z" />
<glyph unicode="A" horiz-adv-x="1407" d="M-102 0l12 60q82 34 163 51l826 1376h54l235 -1376q38 -8 77 -19.5t70 -31.5l-11 -60h-530l10 60q94 36 184 51l-63 382h-490l-224 -382q90 -12 167 -51l-11 -60h-469zM495 602h414l-67 442l-5 180h-4l-83 -184z" />
<glyph unicode="B" horiz-adv-x="1263" d="M-42 0l10 60q94 40 185 51l261 1238q-42 9 -81.5 22.5t-79.5 29.5l14 62h222q77 0 154.5 6t193.5 6q84 0 159.5 -15t131.5 -46t90 -82.5t34 -125.5t-22 -139.5t-68 -121.5t-116.5 -97t-164.5 -67v-8q48 -4 98.5 -21t91.5 -49.5t66 -81.5t25 -115q0 -111 -42 -205 t-124.5 -164t-208 -109.5t-292.5 -39.5q-74 0 -162 6t-174 6h-201zM341 113q27 -7 67 -13q29 -4 83 -5q20 0 43 1h13q79 0 151 23q78 25 135.5 73.5t92.5 118t35 159.5q0 70 -24 113t-69 66t-107.5 32t-140.5 9h-158zM484 798h106q35 0 84 3t84 8q165 58 229 157t64 216 q0 82 -59 133t-196 51q-68 0 -114.5 -3t-77.5 -7z" />
<glyph unicode="C" horiz-adv-x="1326" d="M138 539q0 213 60.5 387.5t172 298.5t271.5 193t361 69q137 0 233.5 -19t160.5 -51q-6 -34 -17.5 -79t-27 -95.5t-32 -98.5t-31.5 -87h-55l-44 301q-27 10 -82 15.5t-107 5.5q-138 0 -255.5 -53.5t-202.5 -158t-133.5 -261t-48.5 -363.5q0 -130 45 -218.5t112.5 -142.5 t147.5 -77q74 -21 140 -21h11h20q58 0 100 10q49 12 72 27l155 259h52q0 -58 -12 -147t-34 -173q-42 -23 -90 -39.5t-100.5 -26.5t-102.5 -15t-94 -5q-177 0 -300.5 50.5t-199.5 132t-110.5 182t-34.5 200.5z" />
<glyph unicode="D" horiz-adv-x="1465" d="M-42 0l10 60q86 36 185 51l261 1238q-46 11 -86.5 24.5t-74.5 27.5l14 62h211q36 0 85 2t100 5t99.5 6t79.5 3q167 0 284 -40t189 -107.5t104 -160.5t32 -200q0 -106 -17 -222t-59 -225.5t-112.5 -208t-175.5 -172.5t-249 -117.5t-332 -43.5q-32 0 -74.5 3t-90.5 6l-96 6 t-88 3h-199zM337 96q20 -2 50.5 -3t60.5 -2t54 -2t37 1h10q190 0 319 78q133 80 213.5 208t113.5 287.5t33 320.5q0 82 -19 153t-67 122t-130.5 81t-211.5 30q-54 0 -110.5 -2t-85.5 -6z" />
<glyph unicode="E" horiz-adv-x="1194" d="M-42 0l10 60q86 36 185 51l261 1238q-42 11 -81.5 23.5t-79.5 28.5l14 62h989q-17 -84 -40.5 -169.5t-53.5 -169.5h-55l-35 230h-458l-115 -554h338l116 155h52q-17 -104 -38.5 -209.5t-51.5 -213.5h-52l-48 160h-341l-121 -584h478l157 251h52q-4 -82 -16.5 -174.5 t-35.5 -184.5h-1030z" />
<glyph unicode="F" horiz-adv-x="1116" d="M-42 0l10 60q38 16 80 29t84 22l261 1238q-42 13 -78 25.5t-62 26.5l14 62h980q-18 -82 -41.5 -167.5t-54.5 -171.5h-55l-35 230h-467l-126 -596h365l114 155h52q-11 -94 -35 -210.5t-53 -211.5h-52l-46 161h-368l-112 -541q87 -12 166 -51l-10 -60h-531z" />
<glyph unicode="G" horiz-adv-x="1417" d="M138 541q0 211 59.5 385.5t172 298.5t275 193t366.5 69q138 0 236 -18t163 -52q-6 -32 -17.5 -78t-27.5 -96.5t-32.5 -99.5t-30.5 -86h-55l-43 301q-38 10 -94.5 15.5t-108.5 5.5q-162 0 -281.5 -66t-199 -179t-119.5 -264t-40 -324q0 -148 42 -239.5t103.5 -141.5 t131.5 -67q62 -14 116 -14h13h12q77 0 143 25q70 27 97 48l93 421q-54 4 -100.5 19t-90.5 31l15 62h511l-12 -62q-23 -14 -56.5 -26t-85.5 -24l-101 -478q-46 -28 -104 -50t-119.5 -39t-123.5 -27t-114 -10q-277 0 -435 147.5t-158 419.5z" />
<glyph unicode="H" horiz-adv-x="1501" d="M-42 0l10 60q46 21 92 32.5t93 18.5l261 1238q-94 19 -161 52l14 61h529l-13 -61q-35 -18 -81 -30.5t-88 -21.5l-115 -545h657l116 545q-42 11 -78 22.5t-70 29.5l14 61h529l-13 -61q-41 -20 -88 -31.5t-93 -20.5l-263 -1238q94 -16 158 -51l-10 -60h-529l10 60 q40 16 83 29t87 22l123 585h-658l-121 -585q38 -8 75.5 -20.5t68.5 -30.5l-10 -60h-529z" />
<glyph unicode="I" horiz-adv-x="716" d="M-2 0l10 60q92 38 180 51l261 1238q-42 9 -79 22.5t-77 29.5l14 63h535l-13 -63q-42 -16 -89.5 -29.5t-89.5 -22.5l-261 -1238q41 -8 82 -20.5t72 -30.5l-11 -60h-534z" />
<glyph unicode="J" horiz-adv-x="690" d="M-67 -303q41 34 76 68t64 85.5t54.5 124.5t47.5 182l251 1192q-89 21 -155 52l14 62h532l-10 -62q-42 -18 -90.5 -30.5t-90.5 -21.5l-246 -1169q-31 -144 -84 -238.5t-115 -151.5t-123.5 -85t-109.5 -40z" />
<glyph unicode="K" horiz-adv-x="1330" d="M-42 0l10 60q94 38 185 51l261 1238q-46 9 -86.5 21.5t-74.5 30.5l14 63h529l-13 -63q-71 -33 -169 -52l-121 -578l125 29l502 549q-42 11 -75.5 22.5t-64.5 29.5l14 63h475l-15 -63q-38 -18 -84 -30.5t-85 -21.5l-541 -564q37 -69 86 -152t104.5 -173.5t115 -182 t118.5 -175.5l90 -50l-11 -52h-253l-61 50q-94 144 -181.5 311t-165.5 339h-110l-123 -589q86 -16 144 -51l-10 -60h-529z" />
<glyph unicode="L" horiz-adv-x="1123" d="M-42 0l10 60q56 24 100.5 34t84.5 17l261 1238q-98 19 -161 52l14 62h572l-14 -62q-52 -18 -105.5 -31.5t-105.5 -20.5l-261 -1241h478l195 337h54q-4 -44 -10.5 -101t-16 -119t-21 -120.5t-23.5 -104.5h-1051z" />
<glyph unicode="M" horiz-adv-x="1790" d="M-42 0l10 60q84 36 182 53l261 1236q-42 9 -83 22.5t-77 29.5l12 62h435l148 -955l25 -215h2l109 219l589 951h384l-14 -62q-82 -35 -169 -52l-263 -1241q41 -8 78.5 -19t66.5 -29l-10 -60h-518l10 60q46 16 90 28t92 23l197 940l62 244h-16l-114 -223l-660 -1072h-54 l-181 1072l-24 244h-18l-55 -265l-198 -940q38 -8 75 -20.5t73 -30.5l-12 -60h-435z" />
<glyph unicode="N" horiz-adv-x="1509" d="M-42 0l10 60q90 54 189 74l254 1197q-40 16 -76 35t-66 38l10 59h347l450 -993l62 -179h8l34 179l180 848q-84 36 -144 83l12 62h445l-12 -62q-42 -29 -92 -49.5t-96 -33.5l-287 -1344h-112l-524 1152l-44 163h-7l-21 -163l-209 -992q38 -11 75.5 -29.5t69.5 -44.5 l-13 -60h-443z" />
<glyph unicode="O" horiz-adv-x="1524" d="M138 580q0 190 57.5 355.5t166 287.5t261 193t344.5 71q153 0 257.5 -50t168 -131.5t92 -187t28.5 -217.5q0 -168 -47 -334t-145.5 -297.5t-248 -213.5t-353.5 -82q-150 0 -260 49.5t-181 132t-105.5 192t-34.5 232.5zM361 578q0 -115 30.5 -207t83.5 -156.5t125 -98.5 q68 -32 148 -32h10h8q148 0 246 74q102 76 163 196t87.5 265.5t26.5 283.5q0 106 -24 193.5t-72.5 150.5t-118 97.5t-161.5 34.5q-144 0 -248.5 -75.5t-172.5 -192.5t-99.5 -259t-31.5 -274z" />
<glyph unicode="P" horiz-adv-x="1221" d="M-42 0l10 60q48 21 93 31.5t92 19.5l261 1238q-46 9 -85.5 22.5t-75.5 29.5l14 62h188q84 0 183 8t189 8q100 0 184.5 -20t144.5 -62.5t93 -106.5t33 -152q0 -123 -45 -227t-129 -181.5t-203.5 -121.5t-264.5 -44h-35.5t-52.5 1t-56 3t-47 4l-96 -461q54 -6 101.5 -19.5 t86.5 -31.5l-11 -60h-572zM474 683q10 -2 30 -4t42 -3t42 -2.5t32 -1.5q217 0 328 124.5t111 339.5q0 52 -11.5 95t-44 74.5t-87.5 48t-143 16.5q-50 0 -88.5 -3t-68.5 -7z" />
<glyph unicode="Q" horiz-adv-x="1566" d="M138 580q0 190 57.5 355.5t166 287.5t261 193t344.5 71q153 0 257.5 -50t168 -131.5t92 -187t28.5 -217.5q0 -168 -47 -334t-145.5 -297.5t-248 -213.5t-353.5 -82q-150 0 -260 49.5t-181 132t-105.5 192t-34.5 232.5zM345 -138l73 42q49 6 96.5 6t92.5 -6 q91 -12 177.5 -37.5t174.5 -53.5t179 -46q83 -16 172 -16h20q101 2 216 38l4 -30q-100 -75 -198 -128q-94 -51 -194 -51h-7q-86 0 -173 31.5t-183.5 75.5t-207.5 92t-242 83zM361 578q0 -115 30.5 -207t83.5 -156.5t125 -98.5q68 -32 148 -32h10h8q148 0 246 74 q102 76 163 196t87.5 265.5t26.5 283.5q0 106 -24 193.5t-72.5 150.5t-118 97.5t-161.5 34.5q-144 0 -248.5 -75.5t-172.5 -192.5t-99.5 -259t-31.5 -274z" />
<glyph unicode="R" horiz-adv-x="1309" d="M-42 0l10 60q50 21 95 31.5t90 19.5l261 1238q-50 13 -91 25.5t-70 26.5l14 62h184q83 0 184.5 8t193.5 8q207 0 308 -88.5t101 -252.5q0 -81 -28 -156t-79 -136t-125.5 -105.5t-168.5 -68.5q61 -142 133 -281.5t150 -277.5l98 -61l-10 -52h-239l-70 58q-44 74 -79 144.5 t-63 142t-50 146.5t-41 157h-200l-113 -537q92 -16 165 -51l-10 -60h-550zM484 737h149h12q104 0 176 34q76 36 122.5 95t68.5 134.5t22 155.5v7q0 109 -64 157q-66 50 -210 50q-48 0 -82 -3t-64 -7z" />
<glyph unicode="S" horiz-adv-x="1100" d="M46 73q8 38 24 89t34.5 103t37.5 101.5t35 84.5h55l21 -307q23 -18 77 -40q50 -20 105 -20h10h20q59 0 114 10q65 12 117 43.5t83.5 82.5t31.5 129q0 86 -41 144.5t-101.5 103.5t-130.5 85.5t-130.5 90.5t-101.5 118t-41 168q0 96 35 174.5t102.5 135t165.5 87.5t224 31 q127 0 227.5 -20t156.5 -48q-8 -36 -24 -83t-32.5 -97.5t-35.5 -97.5t-33 -82h-54l-26 286q-36 17 -91 25.5t-120 8.5q-62 0 -118 -15t-96 -45t-63 -76t-23 -109q0 -83 40.5 -138.5t101 -99t130.5 -84.5t130.5 -93.5t101.5 -126.5t41 -183q0 -98 -39 -177t-111 -136.5 t-177.5 -89.5t-238.5 -32q-68 0 -129 9t-112.5 23t-91 32t-60.5 35z" />
<glyph unicode="T" horiz-adv-x="1273" d="M184 1055q2 41 9.5 95t15.5 109t17.5 108.5t20.5 95.5h1212q-9 -42 -21.5 -94.5t-27.5 -107.5t-30.5 -108.5t-30.5 -97.5h-54l-43 299h-321l-263 -1243q50 -10 95.5 -20.5t84.5 -30.5l-11 -60h-586l10 60q50 19 99 30.5t108 20.5l263 1243h-320l-173 -299h-54z" />
<glyph unicode="U" horiz-adv-x="1390" d="M192 298q-5 35 -5 73q0 65 16 137l179 841q-41 9 -85 22.5t-76 29.5l13 62h531l-13 -62q-82 -35 -170 -52l-177 -829q-16 -76 -16 -137q0 -28 3 -52q11 -78 50.5 -128t104.5 -73.5t151 -23.5q169 0 270.5 94.5t143.5 296.5l177 834q-92 32 -151 70l13 62h447l-15 -62 q-36 -23 -84 -41.5t-93 -28.5l-178 -838q-58 -274 -205.5 -392.5t-378.5 -118.5q-138 0 -233.5 39t-149.5 109.5t-69 167.5z" />
<glyph unicode="V" horiz-adv-x="1407" d="M199 1401l12 61h549l-12 -61q-38 -16 -86 -28.5t-96 -23.5l153 -954l10 -168h4l78 172l513 950q-48 11 -90 23.5t-78 28.5l14 61h464l-13 -61q-36 -16 -74 -28.5t-86 -23.5l-757 -1349l-114 -26l-243 1375q-48 11 -85 24.5t-63 27.5z" />
<glyph unicode="W" horiz-adv-x="1931" d="M199 1401l12 61h539l-13 -61q-41 -16 -86 -28.5t-95 -23.5l26 -845l-6 -272h4l128 276l486 954h74l88 -954l10 -272h4l111 276l372 837q-41 9 -86 21.5t-81 30.5l12 61h460l-13 -61q-40 -20 -80 -30.5t-80 -21.5l-636 -1349l-133 -26l-96 1138l-566 -1112l-130 -26 l-77 1375q-82 19 -148 52z" />
<glyph unicode="X" horiz-adv-x="1380" d="M-84 0l13 60q41 21 83 31.5t84 19.5l548 624l-259 614q-42 11 -80 22.5t-75 29.5l13 61h555l-13 -61q-64 -29 -171 -52l186 -472l390 472q-39 11 -78.5 21.5t-81.5 30.5l12 61h481l-14 -61q-38 -16 -81 -28.5t-87 -23.5l-497 -566l286 -672q96 -16 157 -51l-11 -60h-555 l10 60q80 38 170 51l-211 524l-439 -527q42 -6 82.5 -15t75.5 -33l-12 -60h-481z" />
<glyph unicode="Y" horiz-adv-x="1326" d="M192 1401l15 62h551l-12 -62q-34 -12 -76 -26.5t-96 -25.5l211 -614l443 614q-44 11 -82.5 23.5t-71.5 28.5l12 62h466l-15 -62q-42 -20 -83.5 -31.5t-83.5 -20.5l-549 -727l-109 -511q77 -10 147 -51l-11 -60h-531l11 60q84 38 184 51l108 509l-269 729q-46 9 -85 22.5 t-74 29.5z" />
<glyph unicode="Z" horiz-adv-x="1258" d="M10 0v106l1099 1248h-607l-191 -293h-54q2 44 9 96.5t16 106.5t18 105.5t19 93.5h1039v-109l-1099 -1246h656l190 293h55q-4 -44 -11 -96t-15 -105.5t-17.5 -105.5t-20.5 -94h-1086z" />
<glyph unicode="[" horiz-adv-x="640" d="M-14 -480l411 1943h395l-19 -90h-217l-376 -1764h217l-17 -89h-394z" />
<glyph unicode="\" horiz-adv-x="797" d="M-98 1441l88 46l865 -1710l-86 -48z" />
<glyph unicode="]" horiz-adv-x="640" d="M-119 -480l19 89h215l376 1764h-218l18 90h394l-412 -1943h-392z" />
<glyph unicode="^" horiz-adv-x="1083" d="M219 907l389 578h69l355 -578h-186l-184 315l-48 140l-68 -142l-207 -313h-120z" />
<glyph unicode="_" horiz-adv-x="855" d="M-94 -299h857v-110h-857v110z" />
<glyph unicode="`" horiz-adv-x="674" d="M287 1515v42q12 10 40 19t61.5 15.5t63.5 9.5t47 1l180 -364l-46 -34z" />
<glyph unicode="a" horiz-adv-x="1116" d="M90 291q0 146 41.5 284.5t121.5 247t193.5 174.5t257.5 66q52 0 83.5 -9.5t75.5 -27.5q84 44 175 44l-187 -956h152v-52q-42 -33 -100.5 -53.5t-115.5 -20.5q-60 0 -86 26t-26 55q0 38 14.5 123t43.5 217h-8q-27 -75 -68 -152t-94 -140t-118 -103t-138 -40 q-217 0 -217 317zM277 325q0 -106 26.5 -163.5t91.5 -57.5q56 0 112.5 53.5t106.5 128.5t90 156.5t63 135.5l66 358q-29 21 -56 29t-75 8q-96 0 -174.5 -59t-133.5 -153.5t-86 -209t-31 -226.5z" />
<glyph unicode="b" horiz-adv-x="1098" d="M75 62l268 1363l-146 18v48q34 12 73 25t80 24.5t80.5 19t73.5 11.5l44 -23l-185 -871h11q38 76 83 147t96 125t107 87.5t119 33.5q111 0 175.5 -77.5t64.5 -240.5q0 -161 -45 -302t-126 -246.5t-196 -167.5t-255 -62q-102 0 -191 27t-131 61zM265 108q32 -20 79 -32 t93 -12q81 0 153 56.5t126 148.5q55 93 86 209q29 109 29 220v14v11q0 92 -31 153q-33 64 -108 64q-54 0 -107 -48t-97.5 -116t-81.5 -142t-61 -124z" />
<glyph unicode="c" horiz-adv-x="893" d="M84 341q0 150 48 282.5t130.5 232t194 157t239.5 57.5q79 0 129 -13t76 -36q2 -23 -4 -51t-17 -55.5t-29 -50t-36 -31.5l-143 147q-71 -2 -140.5 -43.5t-125.5 -118.5q-56 -78 -90 -188q-32 -101 -31 -226v-22v-9q0 -135 57 -201q59 -68 162 -68q44 0 82 13t72 31.5 t61 39.5t48 37l31 -39q-24 -40 -59 -77.5t-83 -68t-107.5 -48.5t-130.5 -18q-155 0 -244.5 98.5t-89.5 268.5z" />
<glyph unicode="d" horiz-adv-x="1116" d="M94 293q0 148 41.5 287t121.5 246t192.5 172t256.5 65q54 0 81.5 -7t69.5 -26l79 395l-147 18v52q32 13 70 24t78 21t82 18.5t77 12.5l44 -17l-285 -1440h152v-52q-42 -33 -100.5 -53.5t-114.5 -20.5q-61 0 -87 26t-26 55q0 38 14.5 123t43.5 217h-8q-27 -75 -69 -152 t-95 -140t-116.5 -103t-137.5 -40q-217 0 -217 319zM282 325q0 -106 26.5 -163.5t90.5 -57.5q56 0 112.5 53.5t106.5 128.5t90 156.5t63 135.5l66 358q-31 21 -57 28t-74 9q-100 -2 -179.5 -61t-133.5 -152.5t-82.5 -208t-28.5 -226.5z" />
<glyph unicode="e" horiz-adv-x="947" d="M84 349q0 148 41.5 279.5t116.5 230t182.5 155t239.5 56.5q100 0 172.5 -51.5t72.5 -151.5q0 -148 -147.5 -233.5t-474.5 -111.5q-9 -35 -12.5 -68.5t-3.5 -64.5q0 -126 64 -205.5t187 -79.5q40 0 79 13t73 31.5t62.5 39.5t48.5 37l34 -39q-18 -40 -54 -77.5t-84 -68 t-108.5 -48.5t-129.5 -18q-174 0 -266.5 99.5t-92.5 275.5zM301 612q203 6 315.5 70t112.5 177q0 44 -26 81.5t-103 39.5q-90 -2 -167.5 -84.5t-131.5 -283.5z" />
<glyph unicode="f" horiz-adv-x="620" d="M-108 -397q25 12 60.5 45t69.5 87t64.5 132.5t47.5 182.5l135 890h-152v54q42 24 89 41.5t89 27.5l14 73q28 130 74.5 214.5t109.5 133.5t138 68t161 19q35 0 84 -8.5t83 -25.5q-4 -46 -22 -95t-60 -84l-158 129q-38 -10 -69.5 -23t-59.5 -47t-53 -96.5t-48 -171.5 l-21 -105h232q2 -13 2 -25q0 -40 -23 -79h-232l-134 -850q-23 -148 -77 -246.5t-116 -159t-120 -90t-90 -37.5z" />
<glyph unicode="g" horiz-adv-x="1021" d="M-115 -199q0 58 26.5 108.5t70.5 95.5t100 82.5t117 71.5q-32 16 -51.5 44.5t-19.5 63.5q0 32 20.5 66t48.5 65.5t56.5 54.5t43.5 34q-26 6 -52 22.5t-49 43.5t-37.5 63t-14.5 80q0 81 34.5 150t95.5 118t140 77.5t170 28.5q100 0 164.5 -25.5t99.5 -54.5 q18 17 49.5 33.5t67.5 31.5t73.5 27t70.5 23q6 -11 10.5 -31.5t3.5 -45.5t-8.5 -51t-22.5 -48l-215 16q6 -19 13 -43.5t7 -53.5q0 -84 -35 -155t-95.5 -122t-140.5 -80t-171 -29q-36 0 -57.5 1t-48.5 7q-19 -20 -51.5 -48.5t-32.5 -62.5q0 -36 46 -54t116 -34t151.5 -34 t151.5 -48t115.5 -78.5t45.5 -126.5q0 -98 -55 -176.5t-145.5 -134t-207 -86t-234.5 -30.5q-96 0 -165.5 20t-113 54t-64.5 78t-21 92zM73 -153q-2 -94 72 -147t200 -53q64 0 128 19t115.5 53t83.5 85.5t32 115.5q0 63 -51 97.5t-124.5 55.5t-151.5 34.5t-134 32.5 q-98 -72 -135 -149q-35 -73 -35 -137v-7zM313 700q0 -80 51.5 -117t109.5 -37q63 0 107.5 22t75 59t45 85t14.5 101q0 77 -36 125t-112 48q-60 0 -107 -23t-80.5 -61.5t-50.5 -91t-17 -110.5z" />
<glyph unicode="h" horiz-adv-x="1134" d="M71 0l286 1425l-142 18v48q32 12 70 26t80 25.5t82 19t75 9.5l44 -19l-188 -877h11q39 84 89 156t106 125t116 83.5t123 30.5q96 0 139 -55.5t43 -137.5q0 -56 -10.5 -120.5t-25.5 -126.5l-118 -514h154v-54q-42 -33 -100.5 -53.5t-117.5 -20.5q-60 0 -83 25t-23 54 q0 38 10.5 85t20.5 95l75 349q15 64 26.5 120.5t11.5 108.5q0 48 -21 81.5t-56 33.5q-65 0 -125.5 -46t-112.5 -110.5t-92 -135t-61 -116.5l-110 -532h-176z" />
<glyph unicode="i" horiz-adv-x="578" d="M113 78q0 41 6 81t17 88l145 674l-133 21v52q31 13 71 26.5t82 24t79.5 18t66.5 7.5l37 -26l-195 -928h154v-54q-44 -33 -103 -53.5t-115 -20.5q-60 0 -86 27t-26 63zM316 1406q0 54 33.5 85.5t87.5 31.5q58 0 91.5 -31t33.5 -86q0 -52 -33.5 -81.5t-91.5 -29.5 q-54 0 -87.5 29.5t-33.5 81.5z" />
<glyph unicode="j" horiz-adv-x="574" d="M-153 -397q25 12 59 43t67 84t65.5 132.5t55.5 187.5l183 873l-124 19v52q64 30 143.5 53t144.5 23l41 -26l-203 -954q-31 -148 -86 -246.5t-116 -159t-116 -90t-89 -37.5zM305 1406q0 54 33.5 85.5t87.5 31.5q58 0 91.5 -31t33.5 -86q0 -52 -33.5 -81.5t-91.5 -29.5 q-54 0 -87.5 29.5t-33.5 81.5z" />
<glyph unicode="k" horiz-adv-x="1004" d="M71 0l284 1425l-146 18v52q60 28 147 50t160 26l44 -23l-197 -976h61q44 28 91 67.5t90 81.5t76 80t52 66q2 14 3 39t0 51.5t-2 50.5t-3 36q78 28 150 28q76 0 126 -28q-28 -69 -84 -138t-121 -128t-127.5 -108.5t-100.5 -75.5q15 -40 47.5 -104t71 -132.5t81.5 -133.5 t79 -108h131v-54q-42 -33 -91 -53.5t-104 -20.5q-49 0 -89 23t-76 83q-67 113 -112.5 214t-87.5 189l-75 21l-98 -518h-180z" />
<glyph unicode="l" horiz-adv-x="578" d="M96 78q0 41 6 81t17 88l244 1178l-148 18v52q30 13 68 26t81 24.5t85 18.5t75 7l42 -23l-289 -1432h153v-54q-41 -33 -101 -53.5t-116 -20.5q-60 0 -88.5 27t-28.5 63z" />
<glyph unicode="m" horiz-adv-x="1670" d="M90 0l195 923l-128 19v52q69 36 149.5 56t138.5 20l44 -26l-92 -369h8q25 58 70 127t104 128.5t125.5 99.5t132.5 40q26 0 51 -8.5t44 -30.5t31 -60t12 -96q0 -46 -9 -98t-21 -102q31 72 79 141t104 126t120 92.5t131 35.5q80 0 120 -50.5t40 -138.5q0 -67 -12 -126 t-28 -129l-135 -510h155v-54q-42 -33 -102.5 -53.5t-114.5 -20.5q-61 0 -84.5 27t-23.5 65q0 60 30 167l98 379q12 50 24 104.5t14 90.5q-2 54 -18 86.5t-64 32.5q-50 0 -102 -39.5t-99 -100t-85.5 -131.5t-64.5 -135l-127 -534h-167l132 586q14 65 24.5 125t10.5 124 q0 48 -16.5 76.5t-58.5 28.5t-92.5 -39.5t-98 -100t-88.5 -131.5t-66 -137l-111 -532h-179z" />
<glyph unicode="n" horiz-adv-x="1152" d="M90 0l183 923l-127 19l4 52q30 15 66.5 28.5t75 24t75 17t68.5 6.5l41 -26l-79 -369h10q40 84 91.5 156t108.5 125t119.5 83.5t128.5 30.5q87 0 128 -55.5t41 -139.5q0 -46 -10.5 -114.5t-25.5 -130.5l-119 -514h155v-54q-42 -33 -101.5 -53.5t-115.5 -20.5 q-60 0 -83.5 25t-23.5 54q0 40 10.5 87t20.5 95l76 347q14 64 25.5 119.5t11.5 109.5q0 48 -22 81.5t-70 33.5q-56 0 -115 -46t-109 -110.5t-90.5 -135t-61.5 -116.5l-111 -532h-175z" />
<glyph unicode="o" horiz-adv-x="1062" d="M86 389q0 111 34.5 231t105.5 220t177.5 165t248.5 65q163 0 245.5 -100.5t82.5 -297.5q0 -138 -39.5 -264t-111 -222t-171.5 -154t-221 -58q-162 0 -256.5 104t-94.5 311zM273 343q0 -124 54.5 -201.5t146.5 -77.5q74 0 131 55.5t98 146.5t62.5 205.5t21.5 232.5 q0 123 -42.5 198.5t-134.5 77.5q-102 -2 -167 -67t-102.5 -161t-52.5 -206.5t-15 -202.5z" />
<glyph unicode="p" horiz-adv-x="1132" d="M2 -399l90 415l195 907l-128 19v52q69 30 145 53t143 23l42 -26l-86 -367h8q38 84 83 155t97.5 124t113 83.5t128.5 30.5q46 0 88 -18t73.5 -54.5t49 -90.5t17.5 -126q0 -161 -48 -307t-130.5 -257t-193.5 -177t-238 -66q-36 0 -61 3t-43.5 8t-36 13t-39.5 18l-68 -321 q73 -12 146 -52v-61h-329zM293 113q29 -25 61.5 -37t103.5 -12q84 0 158 62t129 158t87.5 214t32.5 233q0 100 -34.5 154.5t-95.5 54.5q-60 0 -114.5 -47t-101.5 -114t-84.5 -141t-60.5 -130z" />
<glyph unicode="q" horiz-adv-x="1075" d="M84 293q0 148 39.5 287t117.5 246t194.5 172t270.5 65q46 0 93 -6t88.5 -15.5t76.5 -21t55 -21.5l-279 -1304q69 -12 145 -52v-61h-327l-19 17l186 808h-9q-28 -73 -68 -150t-93 -140t-117 -103t-137 -40q-217 0 -217 319zM271 325v-14q0 -96 25 -149q28 -58 93 -58 q56 0 111.5 53.5t105.5 128.5t89.5 155.5t62.5 134.5l69 369q-23 16 -54 22t-79 6q-106 0 -186 -59t-133.5 -153.5t-79.5 -208.5q-24 -107 -24 -211v-16z" />
<glyph unicode="r" horiz-adv-x="803" d="M90 0l195 923l-128 19v52q71 34 148 51.5t140 24.5l42 -26l-59 -277h9q60 138 147.5 220.5t188.5 82.5q28 0 55 -5.5t51 -20.5q0 -18 -6 -48.5t-17.5 -61.5t-25 -59.5t-28.5 -43.5l-164 86q-55 -20 -123 -105t-120 -230l-126 -582h-179z" />
<glyph unicode="s" horiz-adv-x="873" d="M14 38q10 54 25 105t61 95l189 -174q44 0 86.5 11t77 34t56 56.5t23.5 81.5q-2 50 -28 86t-66.5 70t-86.5 67.5t-87 73.5t-67 94t-26 129q0 76 29.5 132t81 93.5t123 57.5t157.5 20q54 0 122 -9.5t129 -45.5q0 -24 -8.5 -54t-22 -58t-30.5 -52t-36 -32l-154 161 q-44 -2 -81.5 -10.5t-65.5 -27.5t-44 -49t-16 -76q0 -54 27 -93t68 -73.5t87.5 -66.5t87.5 -73t68.5 -94.5t27.5 -125.5q0 -76 -34.5 -134.5t-94.5 -99.5t-138 -62t-165 -21q-88 0 -160.5 18t-114.5 46z" />
<glyph unicode="t" horiz-adv-x="703" d="M111 940l2 54q42 24 89 42.5t93 28.5l33 159q30 23 68.5 40.5t79.5 34.5l44 -25l-50 -230h259q4 -25 0 -52t-21 -52h-259l-132 -605q-8 -40 -12 -70.5t-4 -55.5q0 -54 31 -79.5t69 -25.5q52 0 111.5 20t109.5 45l24 -37q-19 -28 -56.5 -55t-84.5 -50t-98.5 -38t-97.5 -15 q-92 0 -144 42t-52 130q0 29 5 65t14 74l137 655h-158z" />
<glyph unicode="u" horiz-adv-x="1132" d="M111 171q0 46 14.5 136t35.5 196.5t45 218t43 201.5l-128 19v52q34 13 72.5 25.5t77 23t74 18t64.5 9.5l46 -26q-34 -157 -68 -297.5t-64 -297.5q-10 -50 -21 -112t-11 -134q0 -44 24 -71.5t54 -27.5q46 0 92.5 27.5t87.5 71.5t77 97t65.5 105.5t49 97.5t30.5 71l92 470 h173l-171 -930h154v-52q-42 -33 -101 -53.5t-116 -20.5q-60 0 -86 25t-26 54q0 38 10 126.5t46 215.5h-9q-27 -58 -68 -133t-97 -142t-128 -113.5t-159 -46.5q-74 0 -124 52t-50 145z" />
<glyph unicode="v" horiz-adv-x="933" d="M32 940v52q12 9 37 22.5t55.5 26t62.5 21t62 8.5q46 0 66 -23t26 -57l96 -679l10 -131h4l69 135q76 126 134 244t100 237q0 23 -5 59t-10.5 74t-11.5 70.5t-11 44.5q60 26 124 27h5q62 0 108 -27q-32 -129 -86 -263.5t-124.5 -268.5t-152.5 -263.5t-172 -248.5l-99 -26 l-154 949z" />
<glyph unicode="w" horiz-adv-x="1434" d="M32 940v52q12 9 37 22.5t55.5 26t62.5 21t62 8.5q46 0 70 -22t28 -58l56 -660l-8 -150h4l63 153l338 686l71 25q26 -177 42 -293t23 -171q17 -125 33 -250l2 -150h4l55 135q78 126 132 243t94 236q0 23 -5.5 60t-11 75t-11.5 70.5t-10 44.5q29 13 62.5 19.5t64.5 6.5 q63 0 111 -26q-32 -129 -84 -263.5t-119 -268.5t-146 -263.5t-169 -248.5l-99 -26l-87 594v172h-6l-84 -172q-69 -144 -140 -285t-142 -283l-115 -26l-100 949z" />
<glyph unicode="x" horiz-adv-x="947" d="M-50 14q18 62 77 140t129.5 151t137.5 132.5t101 88.5l-142 385l-134 16v53q13 8 37 21.5t54.5 26t61.5 21t61 8.5q45 0 66 -24t33 -56l102 -363q48 48 106 108.5t87 114.5q2 15 2 42.5t-2 57.5t-4 56t-4 39q36 12 70 19.5t70 7.5q67 0 116 -27q-12 -42 -41 -89.5 t-69 -96t-85 -95.5t-86.5 -88t-78.5 -73t-57 -51l150 -407l136 -17v-53q-13 -8 -37 -20t-52 -25t-60.5 -21t-59.5 -8q-43 0 -66 23t-35 56l-114 378q-23 -26 -53 -55t-60 -60t-55 -62.5t-39 -58.5q-4 -14 -5 -41.5t-2 -57.5t-1 -56t2 -40q-36 -14 -72.5 -20t-70.5 -6 q-69 0 -114 26z" />
<glyph unicode="y" horiz-adv-x="949" d="M-32 -403q-2 24 5 53t20 58t35 54t50 39l169 -88q14 11 37 31t48 54.5t50 83.5t48 118l-246 923l-134 17v52q10 9 34 21.5t55.5 25t65 22t62.5 9.5q44 0 64 -22t30 -58l173 -731l7 -125h5l48 123q27 58 55 128t55 141.5t50 140t40 127.5q0 23 -5.5 60t-11.5 75 t-12.5 70.5t-10.5 44.5q29 13 63 19.5t64 6.5q63 0 111 -26q-64 -259 -176 -518t-248 -526q-113 -219 -225.5 -328t-254.5 -109q-32 0 -60 8.5t-60 25.5z" />
<glyph unicode="z" horiz-adv-x="909" d="M-50 56l293 320l459 507q-35 -2 -73 -2q-63 0 -131 6q-110 10 -227 28l-96 -150l-52 12l30 213q12 82 112 82q76 0 218.5 -22t341.5 -33l48 53q28 -4 52 -21t28 -46l-719 -792q123 -23 240.5 -61.5t217.5 -93.5l121 138l50 -29l-74 -213q-10 -32 -37 -52.5t-67 -20.5 q-39 0 -98 26t-133 59.5t-159.5 66.5t-179.5 49l-85 -92q-28 4 -53 21t-27 47z" />
<glyph unicode="{" horiz-adv-x="732" d="M113 462l12 62q40 0 74.5 17t63 47t48 70t30.5 86l106 497q20 100 83.5 161t163.5 61h187l-16 -90h-102q-56 0 -88.5 -28.5t-48.5 -94.5l-102 -485q-14 -69 -46.5 -117t-72.5 -78.5t-84 -46t-80 -19.5l-5 -13q31 -4 62.5 -17.5t57.5 -39t43 -61.5t17 -86q0 -32 -7 -66 l-104 -490q-6 -26 -6 -48q0 -78 90 -74h100l-19 -89h-188q-78 0 -120.5 37.5t-42.5 112.5q0 35 9 69l104 495q10 48 11 81q0 70 -34 108.5t-96 38.5z" />
<glyph unicode="|" horiz-adv-x="494" d="M255 -271v1734h108v-1734h-108z" />
<glyph unicode="}" horiz-adv-x="732" d="M-108 -480l18 89h100q56 0 89 27t47 95l105 490q14 70 43 118t66 78t77.5 45.5t78.5 19.5l2 13q-29 2 -58.5 15.5t-52 36.5t-36.5 59t-14 84q0 39 8 75l103 485q6 25 6 45q2 80 -89 78h-98l16 90h190q77 0 119 -39t42 -112q0 -36 -8 -69l-105 -491q-11 -48 -11 -82 q0 -146 130 -146l-12 -62q-40 0 -74.5 -18t-63 -47.5t-48 -68.5t-30.5 -85l-107 -502q-20 -100 -82.5 -160.5t-162.5 -60.5h-188z" />
<glyph unicode="~" d="M138 672q75 113 144 156t132 43q52 0 102 -22t98 -49t97 -49t102 -22q38 0 78 15.5t82 55.5l28 -44q-61 -88 -120.5 -124t-115.5 -36q-54 0 -105.5 22t-101.5 49t-100.5 48.5t-100.5 21.5q-46 0 -93 -25t-95 -90z" />
<glyph unicode="&#xa1;" horiz-adv-x="682" d="M78 -389l135 619l144 368h54l-10 -368l-124 -619q-25 -12 -51.5 -17t-52.5 -5q-29 0 -53 5t-42 17zM297 931q0 62 39.5 100.5t102.5 38.5q64 0 103.5 -38t39.5 -101q0 -60 -39 -97.5t-104 -37.5q-63 0 -102.5 37.5t-39.5 97.5z" />
<glyph unicode="&#xa2;" d="M98 357q0 132 45 249t122.5 210t182 154.5t222.5 84.5l72 324h109l-68 -311q6 0 12.5 1t13.5 -1q38 0 81 -3.5t82 -9.5t69.5 -14.5t42.5 -19.5q2 -23 -3 -51t-16.5 -55.5t-28.5 -50t-35 -31.5l-142 144q-52 0 -99 -6l-184 -863q106 4 177.5 42t113.5 75l32 -39 q-24 -38 -57 -72t-77 -62.5t-98.5 -48t-116.5 -23.5l-70 -335h-108l71 335q-178 16 -261.5 116.5t-83.5 260.5zM299 374q-2 -113 45 -176.5t126 -82.5l180 827q-82 -31 -147.5 -85.5t-111.5 -127.5t-70 -163t-22 -192z" />
<glyph unicode="&#xa3;" d="M-54 0l12 64q54 21 96 44.5t75.5 49.5t61.5 57.5t58 71.5q40 52 63 114.5t23 110.5q0 58 -8 101t-18 74h-223l22 109h179q-17 67 -24.5 132.5t-7.5 111.5q0 102 28 185t92 141.5t164.5 89.5t243.5 31q128 0 231.5 -21t159.5 -49q-8 -34 -24 -81t-33.5 -96.5t-36.5 -97.5 t-33 -83h-53l-23 286q-40 17 -93 25.5t-120 8.5q-98 0 -167 -31.5t-104 -100.5q-21 -41 -29.5 -94.5t-6.5 -97.5q2 -70 9.5 -126t19.5 -133h327l-24 -109h-288q2 -23 4.5 -41t3.5 -35t0 -37t-6 -52q-4 -69 -50 -151t-134 -146l-81 -58v-8l115 12h418l152 234h52 q-4 -46 -11 -100t-16 -109.5t-18 -106.5t-17 -89h-961z" />
<glyph unicode="&#xa5;" d="M80 1401l12 62h550l-14 -62q-33 -12 -74.5 -24.5t-95.5 -27.5l190 -616l432 616q-44 11 -84.5 23.5t-74.5 28.5l12 62h462l-12 -62q-90 -39 -169 -52l-474 -649h300l-21 -108h-340l-29 -132h340l-21 -109h-341l-50 -240q80 -10 145 -51l-11 -60h-530l10 60q83 38 186 51 l50 240h-340l20 109h341l29 132h-340l23 108h297l-220 649q-46 11 -84.5 23.5t-73.5 28.5z" />
<glyph unicode="&#xa7;" horiz-adv-x="1100" d="M190 635q0 105 78.5 179.5t195.5 123.5q-44 21 -81.5 46t-65.5 59.5t-45 79.5t-17 103q0 56 25 104.5t70 82.5t107.5 54t140.5 20q113 0 194 -11t148 -37q-4 -33 -9.5 -57t-11.5 -47t-13 -48t-19 -59h-52l-116 151q-25 10 -47 13t-56 5q-90 -2 -132.5 -50t-40.5 -102 q-2 -62 42.5 -103t111.5 -72.5t145.5 -59.5t145.5 -67.5t111.5 -96.5t44.5 -142q0 -60 -25 -109t-64.5 -89t-87.5 -70.5t-92 -50.5q42 -19 78 -41.5t65 -51.5t45.5 -65.5t16.5 -84.5q0 -146 -111 -229.5t-297 -83.5q-175 0 -338 60q2 38 6.5 64.5t10.5 50.5t15 47.5t21 56.5 h52l133 -164q24 -18 45.5 -22t48.5 -4q102 0 165 51t61 123q2 62 -43 100t-112 66.5t-145 54.5t-145.5 64.5t-112 99t-44.5 158.5zM378 681q-2 -54 24 -93.5t69 -69t97 -52.5t111 -44q36 21 68 50.5t57 59.5t40 61t13 61q2 50 -24 86.5t-68 62.5t-96.5 48t-110.5 46 q-69 -34 -125.5 -91.5t-54.5 -124.5z" />
<glyph unicode="&#xa8;" horiz-adv-x="1018" d="M374 1383q0 50 31.5 80t83.5 30q50 0 81.5 -30t31.5 -80q0 -48 -31.5 -77.5t-81.5 -29.5q-52 0 -83.5 29.5t-31.5 77.5zM796 1383q0 50 31.5 80t81.5 30q52 0 83.5 -30t31.5 -80q0 -48 -31.5 -77.5t-83.5 -29.5q-50 0 -81.5 29.5t-31.5 77.5z" />
<glyph unicode="&#xa9;" horiz-adv-x="1685" d="M106 606q0 173 62 310t164.5 231t235 144t276.5 50q143 0 276.5 -50t234.5 -144t162.5 -231t61.5 -310q0 -174 -61.5 -310.5t-162.5 -231t-234 -144.5t-277 -50q-150 0 -285 50t-235.5 144.5t-159 231t-58.5 310.5zM215 606q0 -144 49 -262.5t134.5 -201t200.5 -128.5 t245 -46q129 0 244.5 46t200 128.5t133.5 201t49 262.5t-52.5 262t-139.5 200.5t-200.5 128.5t-234.5 46q-138 0 -254 -46t-198.5 -129.5t-129.5 -200.5t-47 -261zM432 608q0 108 39 189.5t100.5 136t139.5 82.5t158 28q82 0 146.5 -11.5t106.5 -31.5q2 -19 2 -49.5 t-2 -63.5t-6 -64.5t-11 -52.5h-52l-63 174q-14 10 -45.5 11t-61.5 3q-119 -2 -184.5 -95t-65.5 -256q0 -69 14.5 -133t47 -113t84.5 -77t126 -28q42 0 68 8t34 17l58 148h53q8 -31 12 -95t-2 -114q-18 -14 -46.5 -23.5t-60 -16t-65 -8.5t-59.5 -2q-102 0 -187.5 28 t-146.5 84t-96 137.5t-35 187.5z" />
<glyph unicode="&#xaa;" horiz-adv-x="897" d="M82 1032q0 102 35.5 187t95.5 144.5t139.5 91.5t167.5 32q42 0 87 -9t80 -31l126 32l35 -16l-119 -562l106 -20v-37q-33 -24 -85 -39.5t-115 -15.5q-41 0 -55 23t-10 53l30 154h-8q-15 -30 -42.5 -69t-67 -75t-89.5 -61t-108 -25q-96 0 -149.5 64t-53.5 179zM257 1044 q0 -64 25 -106.5t75 -42.5q38 0 76.5 23.5t74 58t65 75t45.5 76.5l48 240q-30 12 -62 25t-67 13q-53 0 -102.5 -23t-89.5 -69t-64 -114t-24 -156z" />
<glyph unicode="&#xab;" horiz-adv-x="962" d="M96 541l537 432l44 -42l-378 -394l227 -378l-62 -44zM502 541l443 428l43 -40l-309 -390l158 -378l-60 -42z" />
<glyph unicode="&#xac;" horiz-adv-x="1044" d="M78 677v132h887v-395h-130v263h-757z" />
<glyph unicode="&#xad;" horiz-adv-x="887" d="M148 522l29 132h590l-27 -132h-592z" />
<glyph unicode="&#xae;" horiz-adv-x="1455" d="M265 942q0 134 45 237t121.5 174.5t177.5 107.5t214 36q117 0 218 -36t176.5 -107.5t119.5 -174.5t44 -237q0 -135 -45 -238.5t-121.5 -174.5t-177.5 -107.5t-214 -36.5q-117 0 -218 36.5t-176.5 107.5t-119.5 174.5t-44 238.5zM363 942q0 -108 37 -195t99.5 -148.5 t146 -94t177.5 -30.5q98 -2 182.5 30.5t146.5 93t96 147t34 197.5q0 109 -36 195.5t-99 147t-146.5 94t-177.5 31.5q-100 2 -183.5 -31.5t-145.5 -94t-96.5 -147t-34.5 -195.5zM570 646v50q36 12 74 18v488q-24 2 -41 7t-33 15v46h80q37 0 89.5 4t85.5 4q46 0 89 -9 t76.5 -31t52 -55.5t18.5 -79.5q0 -65 -45 -102.5t-103 -55.5q38 -61 72 -118.5t95 -112.5l48 -24v-44h-104l-59 22q-52 62 -83 129.5t-55 127.5h-75v-211q27 -2 45 -7t32 -11v-50h-259zM752 986h67q126 0 121 117q-2 54 -36.5 81.5t-88.5 27.5q-23 0 -36.5 -1t-26.5 -5v-220 z" />
<glyph unicode="&#xaf;" horiz-adv-x="969" d="M430 1331l21 108h531l-23 -108h-529z" />
<glyph unicode="&#xb0;" horiz-adv-x="863" d="M265 1192q0 65 23 119.5t64 93t95.5 60.5t114.5 22t114.5 -19t94.5 -55t63 -91.5t23 -129.5q0 -69 -23 -123t-63 -92.5t-94.5 -58t-114.5 -19.5t-114.5 19.5t-95.5 58t-64 92.5t-23 123zM382 1192q0 -85 53.5 -138t126.5 -53q80 0 129 50t49 141q0 88 -49 140.5 t-129 52.5q-82 0 -131 -52.5t-49 -140.5z" />
<glyph unicode="&#xb1;" d="M78 369v111h939v-111h-939zM78 913v111h413v439h111v-439h415v-111h-415v-321h-111v321h-413z" />
<glyph unicode="&#xb4;" horiz-adv-x="1068" d="M470 1238l265 364q17 2 44.5 -1t56.5 -9.5t54 -15.5t37 -19v-40l-411 -315z" />
<glyph unicode="&#xb5;" horiz-adv-x="1198" d="M136 -418l282 1341l-125 17v54q73 28 146 46.5t139 29.5l48 -23q-16 -78 -31 -143t-30 -131.5t-32 -142.5t-38 -179q-17 -82 -25 -146t-5 -109.5t22 -68.5t59 -23q46 0 100 35.5t107.5 98.5t103.5 147.5t88 184.5l87 466l178 11l-174 -930l154 -2l-2 -55 q-48 -29 -88.5 -57.5t-82.5 -30.5q-28 0 -48 16l-110 76l60 343h-8q-106 -225 -216.5 -329t-234.5 -104q-36 0 -61 13t-58 45h-13l9 -397l-12 -53q-106 -28 -189 0z" />
<glyph unicode="&#xb6;" horiz-adv-x="1066" d="M186 1044q0 88 26 164.5t77.5 132.5t130.5 89t186 33h397v-64q-36 -16 -74 -28.5t-85 -21.5v-1152q0 -140 -18.5 -229t-54.5 -142t-84.5 -78t-108.5 -39q-41 -67 -97.5 -101t-111.5 -51l-22 42q46 19 84.5 51.5t66.5 84.5t44 129.5t16 185.5v598q-67 0 -133 21t-119 67.5 t-86.5 123t-33.5 184.5zM602 -243q88 36 117 144.5t29 295.5v1163h-92v-1310q0 -84 -12.5 -161.5t-41.5 -131.5z" />
<glyph unicode="&#xb7;" horiz-adv-x="480" d="M124 641q0 63 40 100.5t103 37.5q64 0 104 -37.5t40 -100.5q0 -60 -40 -97.5t-104 -37.5q-62 0 -102.5 37.5t-40.5 97.5z" />
<glyph unicode="&#xb8;" horiz-adv-x="929" d="M192 -462q40 6 79.5 18t71 28.5t50 40.5t16.5 54q0 18 -5 35t-18.5 30t-39 23t-67.5 14l118 221h96l-84 -144q88 -4 125.5 -40.5t41.5 -96.5q2 -65 -36 -112.5t-96.5 -77.5t-126.5 -43.5t-125 -11.5v62z" />
<glyph unicode="&#xba;" horiz-adv-x="909" d="M82 1044q0 96 37.5 178t100 140.5t144 91.5t168.5 33q144 0 221.5 -75t77.5 -194q0 -108 -40.5 -190.5t-104.5 -138.5t-144 -84t-160 -28q-62 0 -117.5 20t-96 55t-63.5 84.5t-23 107.5zM255 1042q0 -37 7 -70.5t25 -60t45 -41.5t65 -15q46 0 93 23t84.5 71t60.5 120.5 t23 173.5q0 32 -7 61t-24 53t-44 37.5t-69 13.5q-46 0 -92 -28t-83.5 -76t-60.5 -116t-23 -146z" />
<glyph unicode="&#xbb;" horiz-adv-x="962" d="M58 159l307 391l-156 377l58 42l279 -421l-446 -429zM369 157l379 395l-228 377l62 44l367 -425l-535 -433z" />
<glyph unicode="&#xbf;" horiz-adv-x="987" d="M-30 -157q0 104 44 181.5t111 139t146.5 115.5t150.5 111t123.5 124.5t64.5 160.5h40q8 -108 -23 -190t-84.5 -148t-117.5 -120t-120 -109.5t-94 -116t-40 -135.5q2 -94 56.5 -139t139.5 -42q68 -2 111.5 9t64.5 27l81 257h53q6 -43 14.5 -105t8.5 -126q0 -24 -1 -43 t-3 -41q-90 -48 -180 -68t-199 -20q-167 0 -257 73t-90 205zM506 931q0 62 39 100.5t103 38.5t104 -38t40 -101q0 -60 -40 -97.5t-104 -37.5q-63 0 -102.5 37.5t-39.5 97.5z" />
<glyph unicode="&#xc0;" horiz-adv-x="1407" d="M-102 0l12 60q82 34 163 51l826 1376h54l235 -1376q38 -8 77 -19.5t70 -31.5l-11 -60h-530l10 60q94 36 184 51l-63 382h-490l-224 -382q90 -12 167 -51l-11 -60h-469zM495 602h414l-67 442l-5 180h-4l-83 -184zM506 1756v42q12 15 39 28.5t58.5 23t60.5 14t47 2.5 l301 -260l-34 -39z" />
<glyph unicode="&#xc1;" horiz-adv-x="1407" d="M-102 0l12 60q82 34 163 51l826 1376h54l235 -1376q38 -8 77 -19.5t70 -31.5l-11 -60h-530l10 60q94 36 184 51l-63 382h-490l-224 -382q90 -12 167 -51l-11 -60h-469zM495 602h414l-67 442l-5 180h-4l-83 -184zM880 1606l305 260q19 2 48 -2.5t59.5 -14t56.5 -22.5 t38 -29v-42l-472 -189z" />
<glyph unicode="&#xc2;" horiz-adv-x="1407" d="M-102 0l12 60q82 34 163 51l826 1376h54l235 -1376q38 -8 77 -19.5t70 -31.5l-11 -60h-530l10 60q94 36 184 51l-63 382h-490l-224 -382q90 -12 167 -51l-11 -60h-469zM495 602h414l-67 442l-5 180h-4l-83 -184zM622 1611l350 233q11 8 29 9q16 0 25 -9l178 -227l-32 -44 l-209 117l-311 -119z" />
<glyph unicode="&#xc3;" horiz-adv-x="1407" d="M-102 0l12 60q82 34 163 51l826 1376h54l235 -1376q38 -8 77 -19.5t70 -31.5l-11 -60h-530l10 60q94 36 184 51l-63 382h-490l-224 -382q90 -12 167 -51l-11 -60h-469zM495 602h414l-67 442l-5 180h-4l-83 -184zM647 1678q79 71 141 96.5t112 25.5q37 0 72 -10t66 -23 t62.5 -23t64.5 -10q27 0 56.5 9t62.5 33l28 -61q-68 -68 -124 -92.5t-109 -24.5q-40 0 -74 11.5t-67.5 24t-65 24t-64.5 11.5q-30 0 -59 -11.5t-63 -40.5z" />
<glyph unicode="&#xc4;" horiz-adv-x="1407" d="M-102 0l12 60q82 34 163 51l826 1376h54l235 -1376q38 -8 77 -19.5t70 -31.5l-11 -60h-530l10 60q94 36 184 51l-63 382h-490l-224 -382q90 -12 167 -51l-11 -60h-469zM495 602h414l-67 442l-5 180h-4l-83 -184zM592 1648q0 50 34 75t84 25q52 0 86 -25t34 -75 q0 -48 -34 -73t-86 -25q-50 0 -84 25t-34 73zM1057 1648q0 50 33.5 75t85.5 25q50 0 84 -25t36 -75q-2 -48 -36 -73t-84 -25q-52 0 -85.5 25t-33.5 73z" />
<glyph unicode="&#xc5;" horiz-adv-x="1407" d="M-102 0l12 60q82 34 163 51l822 1370q-80 4 -126 40.5t-46 103.5q0 42 23 78.5t60.5 63.5t88 43t106.5 16q35 0 69.5 -6t61 -24t42.5 -47t16 -74q0 -40 -19.5 -73t-53 -59t-76 -42t-88.5 -20l235 -1370q38 -8 77 -19.5t70 -31.5l-11 -60h-530l10 60q94 36 184 51l-63 382 h-490l-224 -382q90 -12 167 -51l-11 -60h-469zM495 602h414l-67 442l-5 180h-4l-83 -184zM839 1631q0 -36 28 -50t66 -14q60 0 100.5 28t40.5 70q0 41 -27.5 58t-66.5 17q-60 0 -100.5 -30.5t-40.5 -78.5z" />
<glyph unicode="&#xc6;" horiz-adv-x="1906" d="M-102 0l12 60q82 34 163 51l1001 1251q-60 12 -113 39l14 62h995q-32 -161 -96 -339h-54l-36 230h-458l-114 -554h338l115 155h52q-15 -104 -35.5 -213t-54.5 -210h-50l-50 160h-339l-125 -586h480l157 253h52q-4 -86 -16 -176.5t-36 -182.5h-1030l11 60q86 36 184 51 l90 423h-403l-329 -423q44 -6 84 -18.5t82 -32.5l-11 -60h-480zM635 642h342l137 634h-5l-123 -194z" />
<glyph unicode="&#xc7;" horiz-adv-x="1326" d="M138 539q0 213 60.5 387.5t172 298.5t271.5 193t361 69q137 0 233.5 -19t160.5 -51q-6 -34 -17.5 -79t-27 -95.5t-32 -98.5t-31.5 -87h-55l-44 301q-27 10 -82 15.5t-107 5.5q-138 0 -255.5 -53.5t-202.5 -158t-133.5 -261t-48.5 -363.5q0 -130 45 -218.5t112.5 -142.5 t147.5 -77t151 -21q71 -2 120 10t72 27l155 259h52q0 -58 -12 -147t-34 -173q-80 -46 -180.5 -64.5t-187.5 -21.5l-77 -131q115 -2 153.5 -45t38.5 -107q0 -67 -43 -116t-105.5 -80.5t-135.5 -47t-134 -15.5v69q40 6 82.5 17.5t76.5 30.5t54.5 46t20.5 64q0 21 -6 38.5 t-21.5 29.5t-43 19t-72.5 11l110 223q-155 12 -261 65t-173 131.5t-97.5 173.5t-30.5 189z" />
<glyph unicode="&#xc8;" horiz-adv-x="1194" d="M-42 0l10 60q86 36 185 51l261 1238q-42 11 -81.5 23.5t-79.5 28.5l14 62h989q-17 -84 -40.5 -169.5t-53.5 -169.5h-55l-35 230h-458l-115 -554h338l116 155h52q-17 -104 -38.5 -209.5t-51.5 -213.5h-52l-48 160h-341l-121 -584h478l157 251h52q-4 -82 -16.5 -174.5 t-35.5 -184.5h-1030zM449 1756v42q12 15 39 28.5t58.5 23t60.5 14t47 2.5l301 -260l-34 -39z" />
<glyph unicode="&#xc9;" horiz-adv-x="1194" d="M-42 0l10 60q86 36 185 51l261 1238q-42 11 -81.5 23.5t-79.5 28.5l14 62h989q-17 -84 -40.5 -169.5t-53.5 -169.5h-55l-35 230h-458l-115 -554h338l116 155h52q-17 -104 -38.5 -209.5t-51.5 -213.5h-52l-48 160h-341l-121 -584h478l157 251h52q-4 -82 -16.5 -174.5 t-35.5 -184.5h-1030zM665 1606l305 260q19 2 48 -2.5t59.5 -14t56.5 -22.5t38 -29v-42l-472 -189z" />
<glyph unicode="&#xca;" horiz-adv-x="1194" d="M-42 0l10 60q86 36 185 51l261 1238q-42 11 -81.5 23.5t-79.5 28.5l14 62h989q-17 -84 -40.5 -169.5t-53.5 -169.5h-55l-35 230h-458l-115 -554h338l116 155h52q-17 -104 -38.5 -209.5t-51.5 -213.5h-52l-48 160h-341l-121 -584h478l157 251h52q-4 -82 -16.5 -174.5 t-35.5 -184.5h-1030zM548 1611l350 233q11 8 29 9q16 0 25 -9l178 -227l-32 -44l-209 117l-311 -119z" />
<glyph unicode="&#xcb;" horiz-adv-x="1194" d="M-42 0l10 60q86 36 185 51l261 1238q-42 11 -81.5 23.5t-79.5 28.5l14 62h989q-17 -84 -40.5 -169.5t-53.5 -169.5h-55l-35 230h-458l-115 -554h338l116 155h52q-17 -104 -38.5 -209.5t-51.5 -213.5h-52l-48 160h-341l-121 -584h478l157 251h52q-4 -82 -16.5 -174.5 t-35.5 -184.5h-1030zM478 1648q0 50 34 75t84 25q52 0 86 -25t34 -75q0 -48 -34 -73t-86 -25q-50 0 -84 25t-34 73zM943 1648q0 50 33.5 75t85.5 25q50 0 84 -25t36 -75q-2 -48 -36 -73t-84 -25q-52 0 -85.5 25t-33.5 73z" />
<glyph unicode="&#xcc;" horiz-adv-x="716" d="M-2 0l10 60q92 38 180 51l261 1238q-42 9 -79 22.5t-77 29.5l14 62h535l-13 -62q-42 -16 -89.5 -29.5t-89.5 -22.5l-261 -1238q41 -8 82 -20.5t72 -30.5l-11 -60h-534zM243 1756v42q12 15 39 28.5t58.5 23t60.5 14t47 2.5l301 -260l-34 -39z" />
<glyph unicode="&#xcd;" horiz-adv-x="716" d="M-2 0l10 60q92 38 180 51l261 1238q-42 9 -79 22.5t-77 29.5l14 62h535l-13 -62q-42 -16 -89.5 -29.5t-89.5 -22.5l-261 -1238q41 -8 82 -20.5t72 -30.5l-11 -60h-534zM406 1606l305 260q19 2 48 -2.5t59.5 -14t56.5 -22.5t38 -29v-42l-472 -189z" />
<glyph unicode="&#xce;" horiz-adv-x="716" d="M-2 0l10 60q92 38 180 51l261 1238q-42 9 -79 22.5t-77 29.5l14 62h535l-13 -62q-42 -16 -89.5 -29.5t-89.5 -22.5l-261 -1238q41 -8 82 -20.5t72 -30.5l-11 -60h-534zM287 1611l350 233q11 8 29 9q16 0 25 -9l178 -227l-32 -44l-209 117l-311 -119z" />
<glyph unicode="&#xcf;" horiz-adv-x="716" d="M-2 0l10 60q92 38 180 51l261 1238q-42 9 -79 22.5t-77 29.5l14 62h535l-13 -62q-42 -16 -89.5 -29.5t-89.5 -22.5l-261 -1238q41 -8 82 -20.5t72 -30.5l-11 -60h-534zM237 1648q0 50 34 75t84 25q52 0 86 -25t34 -75q0 -48 -34 -73t-86 -25q-50 0 -84 25t-34 73z M702 1648q0 50 33.5 75t85.5 25q50 0 84 -25t36 -75q-2 -48 -36 -73t-84 -25q-52 0 -85.5 25t-33.5 73z" />
<glyph unicode="&#xd0;" horiz-adv-x="1465" d="M-42 0l10 60q86 36 185 51l122 581h-187l23 108h186l117 549q-46 11 -86.5 24.5t-74.5 27.5l14 62h211q36 0 85 2t100 5t99.5 6t79.5 3q167 0 284 -40t189 -107.5t104 -160.5t32 -200q0 -106 -17 -222t-59 -225.5t-112.5 -208t-175.5 -172.5t-249 -117.5t-332 -43.5 q-32 0 -74.5 3t-90.5 6l-96 6t-88 3h-199zM337 96q20 -2 50.5 -3t60.5 -2t54 -2t37 1q196 -2 329 77.5t213.5 208t113.5 288t33 320.5q0 82 -19 153t-67 122t-130.5 81t-211.5 30q-54 0 -110.5 -2t-85.5 -6l-120 -562h349l-22 -108h-349z" />
<glyph unicode="&#xd1;" horiz-adv-x="1509" d="M-42 0l10 60q90 54 189 74l254 1197q-40 16 -76 35t-66 38l10 59h347l450 -993l62 -179h8l34 179l180 848q-84 36 -144 83l12 62h445l-12 -62q-42 -29 -92 -49.5t-96 -33.5l-287 -1344h-112l-524 1152l-44 163h-7l-21 -163l-209 -992q38 -11 75.5 -29.5t69.5 -44.5 l-13 -60h-443zM654 1678q79 71 141 96.5t112 25.5q37 0 72 -10t66 -23t62.5 -23t64.5 -10q27 0 56.5 9t62.5 33l28 -61q-68 -68 -124 -92.5t-109 -24.5q-40 0 -74 11.5t-67.5 24t-65 24t-64.5 11.5q-30 0 -59 -11.5t-63 -40.5z" />
<glyph unicode="&#xd2;" horiz-adv-x="1524" d="M138 580q0 190 57.5 355.5t166 287.5t261 193t344.5 71q153 0 257.5 -50t168 -131.5t92 -187t28.5 -217.5q0 -168 -47 -334t-145.5 -297.5t-248 -213.5t-353.5 -82q-150 0 -260 49.5t-181 132t-105.5 192t-34.5 232.5zM361 578q0 -115 30.5 -207t83.5 -156.5t125 -98.5 t158 -32q153 -2 254.5 74t162.5 196t87.5 265.5t26.5 283.5q0 106 -24 193.5t-72.5 150.5t-118 97.5t-161.5 34.5q-144 0 -248.5 -75.5t-172.5 -192.5t-99.5 -259t-31.5 -274zM612 1756v42q12 15 39 28.5t58.5 23t60.5 14t47 2.5l301 -260l-34 -39z" />
<glyph unicode="&#xd3;" horiz-adv-x="1524" d="M138 580q0 190 57.5 355.5t166 287.5t261 193t344.5 71q153 0 257.5 -50t168 -131.5t92 -187t28.5 -217.5q0 -168 -47 -334t-145.5 -297.5t-248 -213.5t-353.5 -82q-150 0 -260 49.5t-181 132t-105.5 192t-34.5 232.5zM361 578q0 -115 30.5 -207t83.5 -156.5t125 -98.5 t158 -32q153 -2 254.5 74t162.5 196t87.5 265.5t26.5 283.5q0 106 -24 193.5t-72.5 150.5t-118 97.5t-161.5 34.5q-144 0 -248.5 -75.5t-172.5 -192.5t-99.5 -259t-31.5 -274zM819 1606l305 260q19 2 48 -2.5t59.5 -14t56.5 -22.5t38 -29v-42l-472 -189z" />
<glyph unicode="&#xd4;" horiz-adv-x="1524" d="M138 580q0 190 57.5 355.5t166 287.5t261 193t344.5 71q153 0 257.5 -50t168 -131.5t92 -187t28.5 -217.5q0 -168 -47 -334t-145.5 -297.5t-248 -213.5t-353.5 -82q-150 0 -260 49.5t-181 132t-105.5 192t-34.5 232.5zM361 578q0 -115 30.5 -207t83.5 -156.5t125 -98.5 t158 -32q153 -2 254.5 74t162.5 196t87.5 265.5t26.5 283.5q0 106 -24 193.5t-72.5 150.5t-118 97.5t-161.5 34.5q-144 0 -248.5 -75.5t-172.5 -192.5t-99.5 -259t-31.5 -274zM680 1611l350 233q11 8 29 9q16 0 25 -9l178 -227l-32 -44l-209 117l-311 -119z" />
<glyph unicode="&#xd5;" horiz-adv-x="1524" d="M138 580q0 190 57.5 355.5t166 287.5t261 193t344.5 71q153 0 257.5 -50t168 -131.5t92 -187t28.5 -217.5q0 -168 -47 -334t-145.5 -297.5t-248 -213.5t-353.5 -82q-150 0 -260 49.5t-181 132t-105.5 192t-34.5 232.5zM361 578q0 -115 30.5 -207t83.5 -156.5t125 -98.5 t158 -32q153 -2 254.5 74t162.5 196t87.5 265.5t26.5 283.5q0 106 -24 193.5t-72.5 150.5t-118 97.5t-161.5 34.5q-144 0 -248.5 -75.5t-172.5 -192.5t-99.5 -259t-31.5 -274zM658 1678q79 71 141 96.5t112 25.5q37 0 72 -10t66 -23t62.5 -23t64.5 -10q27 0 56.5 9t62.5 33 l28 -61q-68 -68 -124 -92.5t-109 -24.5q-40 0 -74 11.5t-67.5 24t-65 24t-64.5 11.5q-30 0 -59 -11.5t-63 -40.5z" />
<glyph unicode="&#xd6;" horiz-adv-x="1524" d="M138 580q0 190 57.5 355.5t166 287.5t261 193t344.5 71q153 0 257.5 -50t168 -131.5t92 -187t28.5 -217.5q0 -168 -47 -334t-145.5 -297.5t-248 -213.5t-353.5 -82q-150 0 -260 49.5t-181 132t-105.5 192t-34.5 232.5zM361 578q0 -115 30.5 -207t83.5 -156.5t125 -98.5 t158 -32q153 -2 254.5 74t162.5 196t87.5 265.5t26.5 283.5q0 106 -24 193.5t-72.5 150.5t-118 97.5t-161.5 34.5q-144 0 -248.5 -75.5t-172.5 -192.5t-99.5 -259t-31.5 -274zM625 1648q0 50 34 75t84 25q52 0 86 -25t34 -75q0 -48 -34 -73t-86 -25q-50 0 -84 25t-34 73z M1090 1648q0 50 33.5 75t85.5 25q50 0 84 -25t36 -75q-2 -48 -36 -73t-84 -25q-52 0 -85.5 25t-33.5 73z" />
<glyph unicode="&#xd8;" horiz-adv-x="1524" d="M138 580q0 190 57.5 355.5t166 287.5t261 193t344.5 71q108 0 191 -25t144 -69l81 96l84 -66l-86 -103q71 -82 101.5 -192.5t30.5 -226.5q0 -168 -47 -334t-145.5 -297.5t-248 -213.5t-353.5 -82q-119 0 -211 31t-161 85l-98 -118l-82 70l102 121q-67 84 -99 191t-32 226 zM361 592q0 -74 13 -139.5t35 -119.5l775 921q-48 60 -115.5 92.5t-155.5 32.5q-144 0 -247.5 -74.5t-170.5 -188t-99.5 -253.5t-34.5 -271zM466 230q108 -148 292 -146q100 -2 178.5 32t137 93.5t99.5 139t66 169.5t36.5 185t13.5 186q-2 146 -51 262z" />
<glyph unicode="&#xd9;" horiz-adv-x="1390" d="M192 298q-15 97 11 210l179 841q-41 9 -85 22.5t-76 29.5l13 62h531l-13 -62q-82 -35 -170 -52l-177 -829q-24 -111 -13 -189t50.5 -128t104.5 -73.5t151 -23.5q169 0 270.5 94.5t143.5 296.5l177 834q-92 32 -151 70l13 62h447l-15 -62q-36 -23 -84 -41.5t-93 -28.5 l-178 -838q-58 -274 -205.5 -392.5t-378.5 -118.5q-138 0 -233.5 39t-149.5 109.5t-69 167.5zM546 1756v42q12 15 39 28.5t58.5 23t60.5 14t47 2.5l301 -260l-34 -39z" />
<glyph unicode="&#xda;" horiz-adv-x="1390" d="M192 298q-15 97 11 210l179 841q-41 9 -85 22.5t-76 29.5l13 62h531l-13 -62q-82 -35 -170 -52l-177 -829q-24 -111 -13 -189t50.5 -128t104.5 -73.5t151 -23.5q169 0 270.5 94.5t143.5 296.5l177 834q-92 32 -151 70l13 62h447l-15 -62q-36 -23 -84 -41.5t-93 -28.5 l-178 -838q-58 -274 -205.5 -392.5t-378.5 -118.5q-138 0 -233.5 39t-149.5 109.5t-69 167.5zM884 1606l305 260q19 2 48 -2.5t59.5 -14t56.5 -22.5t38 -29v-42l-472 -189z" />
<glyph unicode="&#xdb;" horiz-adv-x="1390" d="M192 298q-15 97 11 210l179 841q-41 9 -85 22.5t-76 29.5l13 62h531l-13 -62q-82 -35 -170 -52l-177 -829q-24 -111 -13 -189t50.5 -128t104.5 -73.5t151 -23.5q169 0 270.5 94.5t143.5 296.5l177 834q-92 32 -151 70l13 62h447l-15 -62q-36 -23 -84 -41.5t-93 -28.5 l-178 -838q-58 -274 -205.5 -392.5t-378.5 -118.5q-138 0 -233.5 39t-149.5 109.5t-69 167.5zM650 1611l350 233q11 8 29 9q16 0 25 -9l178 -227l-32 -44l-209 117l-311 -119z" />
<glyph unicode="&#xdc;" horiz-adv-x="1390" d="M192 298q-15 97 11 210l179 841q-41 9 -85 22.5t-76 29.5l13 62h531l-13 -62q-82 -35 -170 -52l-177 -829q-24 -111 -13 -189t50.5 -128t104.5 -73.5t151 -23.5q169 0 270.5 94.5t143.5 296.5l177 834q-92 32 -151 70l13 62h447l-15 -62q-36 -23 -84 -41.5t-93 -28.5 l-178 -838q-58 -274 -205.5 -392.5t-378.5 -118.5q-138 0 -233.5 39t-149.5 109.5t-69 167.5zM631 1648q0 50 34 75t84 25q52 0 86 -25t34 -75q0 -48 -34 -73t-86 -25q-50 0 -84 25t-34 73zM1096 1648q0 50 33.5 75t85.5 25q50 0 84 -25t36 -75q-2 -48 -36 -73t-84 -25 q-52 0 -85.5 25t-33.5 73z" />
<glyph unicode="&#xdd;" horiz-adv-x="1326" d="M192 1401l15 62h551l-12 -62q-34 -12 -76 -26.5t-96 -25.5l211 -614l443 614q-44 11 -82.5 23.5t-71.5 28.5l12 62h466l-15 -62q-42 -20 -83.5 -31.5t-83.5 -20.5l-549 -727l-109 -511q77 -10 147 -51l-11 -60h-531l11 60q84 38 184 51l108 509l-269 729q-46 9 -85 22.5 t-74 29.5zM794 1606l305 260q19 2 48 -2.5t59.5 -14t56.5 -22.5t38 -29v-42l-472 -189z" />
<glyph unicode="&#xde;" horiz-adv-x="1219" d="M-42 0l10 58q48 24 93 34t92 19l261 1241q-42 8 -81.5 20.5t-79.5 31.5l14 59h540l-13 -59q-42 -19 -90 -31.5t-90 -20.5l-20 -102q48 4 95.5 6t91.5 2q220 0 340 -86t120 -265q0 -94 -39.5 -190.5t-121 -174.5t-209 -127.5t-303.5 -49.5h-32t-47 1t-48 3.5t-34 4.5 l-54 -263q54 -8 101.5 -20.5t86.5 -32.5l-11 -58h-572zM430 484q11 -4 30.5 -5t41.5 -3t42 -2h32q102 0 185 29t139.5 84t86.5 131t30 167q0 138 -68 201t-233 63q-52 0 -84 -2.5t-62 -10.5z" />
<glyph unicode="&#xdf;" horiz-adv-x="1276" d="M-108 -397q25 12 60.5 45t69.5 87t64.5 132.5t47.5 182.5l135 890h-152v54q42 24 89 41.5t89 27.5l14 73q26 130 88.5 214.5t140.5 133.5t160.5 68t152.5 19q94 0 159.5 -23t106.5 -62t58 -91t17 -108q0 -20 -2 -42.5t-6 -44.5q-81 -11 -155 -37.5t-130.5 -67t-91 -99 t-34.5 -135.5q0 -50 27 -91t68 -77.5t88 -72.5t87.5 -80.5t67.5 -99.5t27 -129q0 -75 -34 -136.5t-93.5 -106.5t-138 -69.5t-166.5 -24.5t-159 17t-112 45q10 56 24.5 106t60.5 92l186 -170q42 0 85.5 14t78.5 41t57 64.5t24 85.5q-2 60 -28 105.5t-67 82t-87 70t-86.5 73.5 t-66.5 88.5t-26 120.5q0 69 27 132.5t80 120t130.5 100.5t177.5 70q8 46 1 90t-32 78.5t-66 56.5t-95 24q-48 -2 -98.5 -17t-95.5 -52t-79 -101t-51 -162l-176 -1059q-23 -148 -77 -246.5t-116 -159t-120 -90t-90 -37.5z" />
<glyph unicode="&#xe0;" horiz-adv-x="1116" d="M90 291q0 146 41.5 284.5t121.5 247t193.5 174.5t257.5 66q52 0 83.5 -9.5t75.5 -27.5q84 44 175 44l-187 -955h152v-53q-42 -33 -100.5 -53.5t-115.5 -20.5q-60 0 -86 26t-26 55q0 38 14.5 123t43.5 217h-8q-27 -75 -68 -152t-94 -140t-118 -103t-138 -40 q-217 0 -217 317zM277 325q0 -106 26.5 -163.5t91.5 -57.5q56 0 112.5 53.5t106.5 128.5t90 156.5t63 135.5l66 358q-29 21 -56 29t-75 8q-96 0 -174.5 -59t-133.5 -153.5t-86 -209t-31 -226.5zM389 1515v42q12 10 40 19t61.5 15.5t63.5 9.5t47 1l180 -364l-46 -34z" />
<glyph unicode="&#xe1;" horiz-adv-x="1116" d="M90 291q0 146 41.5 284.5t121.5 247t193.5 174.5t257.5 66q52 0 83.5 -9.5t75.5 -27.5q84 44 175 44l-187 -955h152v-53q-42 -33 -100.5 -53.5t-115.5 -20.5q-60 0 -86 26t-26 55q0 38 14.5 123t43.5 217h-8q-27 -75 -68 -152t-94 -140t-118 -103t-138 -40 q-217 0 -217 317zM277 325q0 -106 26.5 -163.5t91.5 -57.5q56 0 112.5 53.5t106.5 128.5t90 156.5t63 135.5l66 358q-29 21 -56 29t-75 8q-96 0 -174.5 -59t-133.5 -153.5t-86 -209t-31 -226.5zM598 1238l265 364q17 2 44.5 -1t56.5 -9.5t54 -15.5t37 -19v-40l-411 -315z " />
<glyph unicode="&#xe2;" horiz-adv-x="1116" d="M90 291q0 146 41.5 284.5t121.5 247t193.5 174.5t257.5 66q52 0 83.5 -9.5t75.5 -27.5q84 44 175 44l-187 -955h152v-53q-42 -33 -100.5 -53.5t-115.5 -20.5q-60 0 -86 26t-26 55q0 38 14.5 123t43.5 217h-8q-27 -75 -68 -152t-94 -140t-118 -103t-138 -40 q-217 0 -217 317zM277 325q0 -106 26.5 -163.5t91.5 -57.5q56 0 112.5 53.5t106.5 128.5t90 156.5t63 135.5l66 358q-29 21 -56 29t-75 8q-96 0 -174.5 -59t-133.5 -153.5t-86 -209t-31 -226.5zM451 1266l315 388q10 9 28 9q16 0 25 -9l152 -386l-56 -36l-163 224l-240 -224 z" />
<glyph unicode="&#xe3;" horiz-adv-x="1116" d="M90 291q0 146 41.5 284.5t121.5 247t193.5 174.5t257.5 66q52 0 83.5 -9.5t75.5 -27.5q84 44 175 44l-187 -955h152v-53q-42 -33 -100.5 -53.5t-115.5 -20.5q-60 0 -86 26t-26 55q0 38 14.5 123t43.5 217h-8q-27 -75 -68 -152t-94 -140t-118 -103t-138 -40 q-217 0 -217 317zM277 325q0 -106 26.5 -163.5t91.5 -57.5q56 0 112.5 53.5t106.5 128.5t90 156.5t63 135.5l66 358q-29 21 -56 29t-75 8q-96 0 -174.5 -59t-133.5 -153.5t-86 -209t-31 -226.5zM391 1364q78 73 138.5 98t108.5 25q38 0 70 -10t61 -23t59.5 -23t61.5 -10 q27 0 54.5 9t60.5 33l28 -59q-68 -68 -123 -93.5t-103 -25.5q-37 0 -71 11.5t-65 24t-61.5 24t-61.5 11.5q-27 0 -55 -10.5t-62 -39.5z" />
<glyph unicode="&#xe4;" horiz-adv-x="1116" d="M90 291q0 146 41.5 284.5t121.5 247t193.5 174.5t257.5 66q52 0 83.5 -9.5t75.5 -27.5q84 44 175 44l-187 -955h152v-53q-42 -33 -100.5 -53.5t-115.5 -20.5q-60 0 -86 26t-26 55q0 38 14.5 123t43.5 217h-8q-27 -75 -68 -152t-94 -140t-118 -103t-138 -40 q-217 0 -217 317zM277 325q0 -106 26.5 -163.5t91.5 -57.5q56 0 112.5 53.5t106.5 128.5t90 156.5t63 135.5l66 358q-29 21 -56 29t-75 8q-96 0 -174.5 -59t-133.5 -153.5t-86 -209t-31 -226.5zM406 1383q0 50 31.5 80t83.5 30q50 0 81.5 -30t31.5 -80q0 -48 -31.5 -77.5 t-81.5 -29.5q-52 0 -83.5 29.5t-31.5 77.5zM828 1383q0 50 31.5 80t81.5 30q52 0 83.5 -30t31.5 -80q0 -48 -31.5 -77.5t-83.5 -29.5q-50 0 -81.5 29.5t-31.5 77.5z" />
<glyph unicode="&#xe5;" horiz-adv-x="1116" d="M90 291q0 146 41.5 284.5t121.5 247t193.5 174.5t257.5 66q52 0 83.5 -9.5t75.5 -27.5q84 44 175 44l-187 -955h152v-53q-42 -33 -100.5 -53.5t-115.5 -20.5q-60 0 -86 26t-26 55q0 38 14.5 123t43.5 217h-8q-27 -75 -68 -152t-94 -140t-118 -103t-138 -40 q-217 0 -217 317zM277 325q0 -106 26.5 -163.5t91.5 -57.5q56 0 112.5 53.5t106.5 128.5t90 156.5t63 135.5l66 358q-29 21 -56 29t-75 8q-96 0 -174.5 -59t-133.5 -153.5t-86 -209t-31 -226.5zM547 1391q0 48 16.5 92t48.5 76.5t75.5 51t97.5 18.5q80 0 124 -44t44 -112 q0 -50 -19 -93t-50.5 -74.5t-74.5 -49.5t-91 -18q-80 0 -125.5 40t-45.5 113zM656 1399q0 -37 22 -56t48 -19q40 0 77.5 38.5t37.5 112.5q0 69 -60 68q-64 0 -94.5 -47t-30.5 -97z" />
<glyph unicode="&#xe6;" horiz-adv-x="1543" d="M60 253q0 80 45 145.5t129.5 111.5t204 66t267.5 6q25 88 37.5 161.5t3 125.5t-42 81.5t-94.5 29.5q-30 0 -66 -3.5t-74 -17.5l-111 -230h-54q-40 116 -42 238q90 48 191.5 75.5t220.5 27.5q118 0 175 -35.5t69 -87.5q67 56 153 89.5t186 33.5t172 -51.5t72 -151.5 q0 -148 -147 -233.5t-476 -111.5q-8 -35 -11 -68.5t-3 -64.5q0 -126 63.5 -205.5t187.5 -79.5q40 0 78 13t73 31.5t63 39.5t49 37l33 -39q-19 -40 -54.5 -77.5t-83.5 -68t-108.5 -48.5t-129.5 -18q-133 0 -221 62t-121 185q-59 -111 -149 -179t-212 -68q-57 0 -106.5 20 t-86 56t-58.5 88t-22 115zM267 271q0 -91 44 -129t100 -38q46 0 89 22t77.5 56.5t60.5 77.5t41 85q-2 33 1 79t7 80q-106 12 -185.5 -5t-132 -51t-77.5 -81.5t-25 -95.5zM895 612q203 6 315 70t112 177q0 44 -26 82.5t-104 38.5q-89 0 -166 -83.5t-131 -284.5z" />
<glyph unicode="&#xe7;" horiz-adv-x="893" d="M84 341q0 150 48 282.5t130.5 232t194 157t239.5 57.5q79 0 129 -13t76 -36q2 -23 -4 -51t-17 -55.5t-29 -50t-36 -31.5l-143 147q-71 -2 -140.5 -43.5t-125 -119t-90 -187.5t-31.5 -248q-2 -143 57 -210.5t162 -65.5q44 -2 82 11t72 31.5t61 39.5t48 37l31 -39 q-40 -70 -120 -130t-198 -76l-69 -122q88 -4 125.5 -40.5t41.5 -96.5q2 -65 -36 -112.5t-96.5 -77.5t-126.5 -43.5t-125 -11.5v62q40 6 79.5 18t71 28.5t50.5 40.5t16 54q0 18 -5 35t-18.5 30t-39 23t-66.5 14l105 196q-140 10 -221.5 105t-81.5 259z" />
<glyph unicode="&#xe8;" horiz-adv-x="947" d="M84 349q0 148 41.5 279.5t116.5 230t182.5 155t239.5 56.5q100 0 172.5 -51.5t72.5 -151.5q0 -148 -147.5 -233.5t-474.5 -111.5q-9 -35 -12.5 -68.5t-3.5 -64.5q0 -126 64 -205.5t187 -79.5q40 0 79 13t73 31.5t62.5 39.5t48.5 37l34 -39q-18 -40 -54 -77.5t-84 -68 t-108.5 -48.5t-129.5 -18q-174 0 -266.5 99.5t-92.5 275.5zM301 612q203 6 315.5 70t112.5 177q0 44 -26 81.5t-103 39.5q-90 -2 -167.5 -84.5t-131.5 -283.5zM369 1515v42q12 10 40 19t61.5 15.5t63.5 9.5t47 1l180 -364l-46 -34z" />
<glyph unicode="&#xe9;" horiz-adv-x="947" d="M84 349q0 148 41.5 279.5t116.5 230t182.5 155t239.5 56.5q100 0 172.5 -51.5t72.5 -151.5q0 -148 -147.5 -233.5t-474.5 -111.5q-9 -35 -12.5 -68.5t-3.5 -64.5q0 -126 64 -205.5t187 -79.5q40 0 79 13t73 31.5t62.5 39.5t48.5 37l34 -39q-18 -40 -54 -77.5t-84 -68 t-108.5 -48.5t-129.5 -18q-174 0 -266.5 99.5t-92.5 275.5zM301 612q203 6 315.5 70t112.5 177q0 44 -26 81.5t-103 39.5q-90 -2 -167.5 -84.5t-131.5 -283.5zM532 1238l265 364q17 2 44.5 -1t56.5 -9.5t54 -15.5t37 -19v-40l-411 -315z" />
<glyph unicode="&#xea;" horiz-adv-x="947" d="M84 349q0 148 41.5 279.5t116.5 230t182.5 155t239.5 56.5q100 0 172.5 -51.5t72.5 -151.5q0 -148 -147.5 -233.5t-474.5 -111.5q-9 -35 -12.5 -68.5t-3.5 -64.5q0 -126 64 -205.5t187 -79.5q40 0 79 13t73 31.5t62.5 39.5t48.5 37l34 -39q-18 -40 -54 -77.5t-84 -68 t-108.5 -48.5t-129.5 -18q-174 0 -266.5 99.5t-92.5 275.5zM301 612q203 6 315.5 70t112.5 177q0 44 -26 81.5t-103 39.5q-90 -2 -167.5 -84.5t-131.5 -283.5zM391 1266l315 388q10 9 28 9q16 0 25 -9l152 -386l-56 -36l-163 224l-240 -224z" />
<glyph unicode="&#xeb;" horiz-adv-x="947" d="M84 349q0 148 41.5 279.5t116.5 230t182.5 155t239.5 56.5q100 0 172.5 -51.5t72.5 -151.5q0 -148 -147.5 -233.5t-474.5 -111.5q-9 -35 -12.5 -68.5t-3.5 -64.5q0 -126 64 -205.5t187 -79.5q40 0 79 13t73 31.5t62.5 39.5t48.5 37l34 -39q-18 -40 -54 -77.5t-84 -68 t-108.5 -48.5t-129.5 -18q-174 0 -266.5 99.5t-92.5 275.5zM301 612q203 6 315.5 70t112.5 177q0 44 -26 81.5t-103 39.5q-90 -2 -167.5 -84.5t-131.5 -283.5zM338 1383q0 50 31.5 80t83.5 30q50 0 81.5 -30t31.5 -80q0 -48 -31.5 -77.5t-81.5 -29.5q-52 0 -83.5 29.5 t-31.5 77.5zM760 1383q0 50 31.5 80t81.5 30q52 0 83.5 -30t31.5 -80q0 -48 -31.5 -77.5t-83.5 -29.5q-50 0 -81.5 29.5t-31.5 77.5z" />
<glyph unicode="&#xec;" horiz-adv-x="578" d="M112 1515v42q12 10 40 19t61.5 15.5t63.5 9.5t47 1l180 -364l-46 -34zM113 78q0 41 6 81t17 88l145 674l-133 21v52q31 13 71 26.5t82 24t79.5 18t66.5 7.5l37 -26l-195 -927h154v-55q-44 -33 -103 -53.5t-115 -20.5q-60 0 -86 27t-26 63z" />
<glyph unicode="&#xed;" horiz-adv-x="578" d="M113 78q0 41 6 81t17 88l145 674l-133 21v52q31 13 71 26.5t82 24t79.5 18t66.5 7.5l37 -26l-195 -927h154v-55q-44 -33 -103 -53.5t-115 -20.5q-60 0 -86 27t-26 63zM317 1238l265 364q17 2 44.5 -1t56.5 -9.5t54 -15.5t37 -19v-40l-411 -315z" />
<glyph unicode="&#xee;" horiz-adv-x="578" d="M113 78q0 41 6 81t17 88l145 674l-133 21v52q31 13 71 26.5t82 24t79.5 18t66.5 7.5l37 -26l-195 -927h154v-55q-44 -33 -103 -53.5t-115 -20.5q-60 0 -86 27t-26 63zM180 1266l315 388q10 9 28 9q16 0 25 -9l152 -386l-56 -36l-163 224l-240 -224z" />
<glyph unicode="&#xef;" horiz-adv-x="578" d="M95 1383q0 50 31.5 80t83.5 30q50 0 81.5 -30t31.5 -80q0 -48 -31.5 -77.5t-81.5 -29.5q-52 0 -83.5 29.5t-31.5 77.5zM113 78q0 41 6 81t17 88l145 674l-133 21v52q31 13 71 26.5t82 24t79.5 18t66.5 7.5l37 -26l-195 -927h154v-55q-44 -33 -103 -53.5t-115 -20.5 q-60 0 -86 27t-26 63zM517 1383q0 50 31.5 80t81.5 30q52 0 83.5 -30t31.5 -80q0 -48 -31.5 -77.5t-83.5 -29.5q-50 0 -81.5 29.5t-31.5 77.5z" />
<glyph unicode="&#xf0;" horiz-adv-x="1035" d="M60 351q0 127 43 253.5t123.5 226.5t194 163t256.5 63q38 0 75 -8.5t61 -24.5q0 84 -16 151.5t-45 123.5l-230 -105l-48 78l232 105q-44 56 -98 93t-111 53v44h188q38 -15 83 -45.5t87 -78.5l206 94l44 -78l-198 -93q42 -70 68 -165.5t26 -225.5q0 -213 -51 -395.5 t-137 -317t-202 -211.5t-244 -77q-150 0 -228.5 99.5t-78.5 277.5zM249 341q0 -48 6 -96t25 -89t52 -66.5t88 -25.5q70 0 139 66.5t126 182t92.5 272.5t35.5 340q-46 26 -81.5 34t-75.5 8q-115 0 -192 -64t-125 -157.5t-69 -202t-21 -202.5z" />
<glyph unicode="&#xf1;" horiz-adv-x="1152" d="M90 0l183 923l-127 19l4 52q30 15 66.5 28.5t75 24t75 17t68.5 6.5l41 -26l-79 -369h10q40 84 91.5 156t108.5 125t119.5 83.5t128.5 30.5q87 0 128 -55.5t41 -139.5q0 -46 -10.5 -114.5t-25.5 -130.5l-119 -513h155v-55q-42 -33 -101.5 -53.5t-115.5 -20.5 q-60 0 -83.5 25t-23.5 54q0 40 10.5 87t20.5 95l76 347q14 64 25.5 119.5t11.5 109.5q0 48 -22 81.5t-70 33.5q-56 0 -115 -46t-109 -110.5t-90.5 -135t-61.5 -116.5l-111 -532h-175zM403 1364q78 73 138.5 98t108.5 25q38 0 70 -10t61 -23t59.5 -23t61.5 -10q27 0 54.5 9 t60.5 33l28 -59q-68 -68 -123 -93.5t-103 -25.5q-37 0 -71 11.5t-65 24t-61.5 24t-61.5 11.5q-27 0 -55 -10.5t-62 -39.5z" />
<glyph unicode="&#xf2;" horiz-adv-x="1062" d="M86 389q0 111 34.5 231t105.5 220t177.5 165t248.5 65q163 0 245.5 -100.5t82.5 -297.5q0 -138 -39.5 -264t-111 -222t-171.5 -154t-221 -58q-162 0 -256.5 104t-94.5 311zM273 343q0 -124 54.5 -201.5t146.5 -77.5q74 0 131 55.5t98 146.5t62.5 205.5t21.5 232.5 q0 123 -42.5 198.5t-134.5 77.5q-102 -2 -167 -67t-102.5 -161t-52.5 -206.5t-15 -202.5zM341 1515v42q12 10 40 19t61.5 15.5t63.5 9.5t47 1l180 -364l-46 -34z" />
<glyph unicode="&#xf3;" horiz-adv-x="1062" d="M86 389q0 111 34.5 231t105.5 220t177.5 165t248.5 65q163 0 245.5 -100.5t82.5 -297.5q0 -138 -39.5 -264t-111 -222t-171.5 -154t-221 -58q-162 0 -256.5 104t-94.5 311zM273 343q0 -124 54.5 -201.5t146.5 -77.5q74 0 131 55.5t98 146.5t62.5 205.5t21.5 232.5 q0 123 -42.5 198.5t-134.5 77.5q-102 -2 -167 -67t-102.5 -161t-52.5 -206.5t-15 -202.5zM545 1238l265 364q17 2 44.5 -1t56.5 -9.5t54 -15.5t37 -19v-40l-411 -315z" />
<glyph unicode="&#xf4;" horiz-adv-x="1062" d="M86 389q0 111 34.5 231t105.5 220t177.5 165t248.5 65q163 0 245.5 -100.5t82.5 -297.5q0 -138 -39.5 -264t-111 -222t-171.5 -154t-221 -58q-162 0 -256.5 104t-94.5 311zM273 343q0 -124 54.5 -201.5t146.5 -77.5q74 0 131 55.5t98 146.5t62.5 205.5t21.5 232.5 q0 123 -42.5 198.5t-134.5 77.5q-102 -2 -167 -67t-102.5 -161t-52.5 -206.5t-15 -202.5zM417 1266l315 388q10 9 28 9q16 0 25 -9l152 -386l-56 -36l-163 224l-240 -224z" />
<glyph unicode="&#xf5;" horiz-adv-x="1062" d="M86 389q0 111 34.5 231t105.5 220t177.5 165t248.5 65q163 0 245.5 -100.5t82.5 -297.5q0 -138 -39.5 -264t-111 -222t-171.5 -154t-221 -58q-162 0 -256.5 104t-94.5 311zM273 343q0 -124 54.5 -201.5t146.5 -77.5q74 0 131 55.5t98 146.5t62.5 205.5t21.5 232.5 q0 123 -42.5 198.5t-134.5 77.5q-102 -2 -167 -67t-102.5 -161t-52.5 -206.5t-15 -202.5zM378 1364q78 73 138.5 98t108.5 25q38 0 70 -10t61 -23t59.5 -23t61.5 -10q27 0 54.5 9t60.5 33l28 -59q-68 -68 -123 -93.5t-103 -25.5q-37 0 -71 11.5t-65 24t-61.5 24t-61.5 11.5 q-27 0 -55 -10.5t-62 -39.5z" />
<glyph unicode="&#xf6;" horiz-adv-x="1062" d="M86 389q0 111 34.5 231t105.5 220t177.5 165t248.5 65q163 0 245.5 -100.5t82.5 -297.5q0 -138 -39.5 -264t-111 -222t-171.5 -154t-221 -58q-162 0 -256.5 104t-94.5 311zM273 343q0 -124 54.5 -201.5t146.5 -77.5q74 0 131 55.5t98 146.5t62.5 205.5t21.5 232.5 q0 123 -42.5 198.5t-134.5 77.5q-102 -2 -167 -67t-102.5 -161t-52.5 -206.5t-15 -202.5zM336 1383q0 50 31.5 80t83.5 30q50 0 81.5 -30t31.5 -80q0 -48 -31.5 -77.5t-81.5 -29.5q-52 0 -83.5 29.5t-31.5 77.5zM758 1383q0 50 31.5 80t81.5 30q52 0 83.5 -30t31.5 -80 q0 -48 -31.5 -77.5t-83.5 -29.5q-50 0 -81.5 29.5t-31.5 77.5z" />
<glyph unicode="&#xf7;" d="M78 666v111h939v-111h-939zM405 322q0 63 40 100.5t103 37.5q64 0 104 -37.5t40 -100.5q0 -60 -40 -97.5t-104 -37.5q-62 0 -102.5 37.5t-40.5 97.5zM405 1118q0 63 40 100.5t103 37.5q64 0 104 -37.5t40 -100.5q0 -60 -40 -97.5t-104 -37.5q-62 0 -102.5 37.5 t-40.5 97.5z" />
<glyph unicode="&#xf8;" horiz-adv-x="1062" d="M-40 -62l178 206q-52 92 -52 245q0 111 34.5 231t105.5 220t177.5 165t248.5 65q133 0 219 -76l148 172l80 -65l-166 -192q24 -48 35.5 -105.5t11.5 -131.5q0 -138 -39.5 -264t-111 -222t-171.5 -154t-221 -58q-146 0 -238 86l-163 -190zM273 330q0 -13 2 -27l488 562 q-47 113 -153 115q-100 -2 -165 -64.5t-102.5 -157t-52.5 -203t-17 -198.5v-27zM307 184q23 -56 66 -88t101 -32q72 0 129 54.5t98 143.5t62.5 200.5t21.5 227.5v50z" />
<glyph unicode="&#xf9;" horiz-adv-x="1132" d="M111 171q0 46 14.5 136t35.5 196.5t45 218t43 201.5l-128 19v52q34 13 72.5 25.5t77 23t74 18t64.5 9.5l46 -26q-34 -157 -68 -297.5t-64 -297.5q-10 -50 -21 -112t-11 -134q0 -44 24 -71.5t54 -27.5q46 0 92.5 27.5t87.5 71.5t77 97t65.5 105.5t49 97.5t30.5 71l92 470 h173l-171 -929h154v-53q-42 -33 -101 -53.5t-116 -20.5q-60 0 -86 25t-26 54q0 38 10 126.5t46 215.5h-9q-27 -58 -68 -133t-97 -142t-128 -113.5t-159 -46.5q-74 0 -124 52t-50 145zM343 1515v42q12 10 40 19t61.5 15.5t63.5 9.5t47 1l180 -364l-46 -34z" />
<glyph unicode="&#xfa;" horiz-adv-x="1132" d="M111 171q0 46 14.5 136t35.5 196.5t45 218t43 201.5l-128 19v52q34 13 72.5 25.5t77 23t74 18t64.5 9.5l46 -26q-34 -157 -68 -297.5t-64 -297.5q-10 -50 -21 -112t-11 -134q0 -44 24 -71.5t54 -27.5q46 0 92.5 27.5t87.5 71.5t77 97t65.5 105.5t49 97.5t30.5 71l92 470 h173l-171 -929h154v-53q-42 -33 -101 -53.5t-116 -20.5q-60 0 -86 25t-26 54q0 38 10 126.5t46 215.5h-9q-27 -58 -68 -133t-97 -142t-128 -113.5t-159 -46.5q-74 0 -124 52t-50 145zM587 1238l265 364q17 2 44.5 -1t56.5 -9.5t54 -15.5t37 -19v-40l-411 -315z" />
<glyph unicode="&#xfb;" horiz-adv-x="1132" d="M111 171q0 46 14.5 136t35.5 196.5t45 218t43 201.5l-128 19v52q34 13 72.5 25.5t77 23t74 18t64.5 9.5l46 -26q-34 -157 -68 -297.5t-64 -297.5q-10 -50 -21 -112t-11 -134q0 -44 24 -71.5t54 -27.5q46 0 92.5 27.5t87.5 71.5t77 97t65.5 105.5t49 97.5t30.5 71l92 470 h173l-171 -929h154v-53q-42 -33 -101 -53.5t-116 -20.5q-60 0 -86 25t-26 54q0 38 10 126.5t46 215.5h-9q-27 -58 -68 -133t-97 -142t-128 -113.5t-159 -46.5q-74 0 -124 52t-50 145zM417 1266l315 388q10 9 28 9q16 0 25 -9l152 -386l-56 -36l-163 224l-240 -224z" />
<glyph unicode="&#xfc;" horiz-adv-x="1132" d="M111 171q0 46 14.5 136t35.5 196.5t45 218t43 201.5l-128 19v52q34 13 72.5 25.5t77 23t74 18t64.5 9.5l46 -26q-34 -157 -68 -297.5t-64 -297.5q-10 -50 -21 -112t-11 -134q0 -44 24 -71.5t54 -27.5q46 0 92.5 27.5t87.5 71.5t77 97t65.5 105.5t49 97.5t30.5 71l92 470 h173l-171 -929h154v-53q-42 -33 -101 -53.5t-116 -20.5q-60 0 -86 25t-26 54q0 38 10 126.5t46 215.5h-9q-27 -58 -68 -133t-97 -142t-128 -113.5t-159 -46.5q-74 0 -124 52t-50 145zM366 1383q0 50 31.5 80t83.5 30q50 0 81.5 -30t31.5 -80q0 -48 -31.5 -77.5t-81.5 -29.5 q-52 0 -83.5 29.5t-31.5 77.5zM788 1383q0 50 31.5 80t81.5 30q52 0 83.5 -30t31.5 -80q0 -48 -31.5 -77.5t-83.5 -29.5q-50 0 -81.5 29.5t-31.5 77.5z" />
<glyph unicode="&#xfd;" horiz-adv-x="949" d="M-32 -403q-2 24 5 53t20 58t35 54t50 39l169 -88q14 11 37 31t48 54.5t50 83.5t48 118l-246 923l-134 17v52q10 9 34 21.5t55.5 25t65 22t62.5 9.5q44 0 64 -22t30 -58l173 -731l7 -125h5l48 123q27 58 55 128t55 141.5t50 140t40 127.5q0 23 -5.5 60t-11.5 75 t-12.5 70.5t-10.5 44.5q29 13 63 19.5t64 6.5q63 0 111 -26q-64 -259 -176 -518t-248 -526q-113 -219 -225.5 -328t-254.5 -109q-32 0 -60 8.5t-60 25.5zM518 1238l265 364q17 2 44.5 -1t56.5 -9.5t54 -15.5t37 -19v-40l-411 -315z" />
<glyph unicode="&#xfe;" horiz-adv-x="1132" d="M2 -399l383 1844l-128 20v52q69 29 145 52t144 23l40 -25l-183 -890h8q38 84 83 155t97.5 124t113 83.5t128.5 30.5q46 0 88 -18t73.5 -54.5t49 -90.5t17.5 -126q0 -161 -48 -307t-130.5 -257t-193.5 -177t-238 -66q-36 0 -61 3t-43.5 8t-36 13t-39.5 18l-68 -321 q73 -12 146 -52v-61h-329zM293 113q29 -25 61.5 -37t103.5 -12q84 0 158 62t129 158t87.5 214t32.5 233q0 100 -34.5 154.5t-95.5 54.5q-60 0 -114.5 -47t-101.5 -114t-84.5 -141t-60.5 -130z" />
<glyph unicode="&#xff;" horiz-adv-x="949" d="M-32 -403q-2 24 5 53t20 58t35 54t50 39l169 -88q14 11 37 31t48 54.5t50 83.5t48 118l-246 923l-134 17v52q10 9 34 21.5t55.5 25t65 22t62.5 9.5q44 0 64 -22t30 -58l173 -731l7 -125h5l48 123q27 58 55 128t55 141.5t50 140t40 127.5q0 23 -5.5 60t-11.5 75 t-12.5 70.5t-10.5 44.5q29 13 63 19.5t64 6.5q63 0 111 -26q-64 -259 -176 -518t-248 -526q-113 -219 -225.5 -328t-254.5 -109q-32 0 -60 8.5t-60 25.5zM288 1383q0 50 31.5 80t83.5 30q50 0 81.5 -30t31.5 -80q0 -48 -31.5 -77.5t-81.5 -29.5q-52 0 -83.5 29.5t-31.5 77.5 zM710 1383q0 50 31.5 80t81.5 30q52 0 83.5 -30t31.5 -80q0 -48 -31.5 -77.5t-83.5 -29.5q-50 0 -81.5 29.5t-31.5 77.5z" />
<glyph unicode="&#x131;" horiz-adv-x="578" d="M111 78q0 41 6 81t17 88l145 674l-133 21v52q31 13 71 26.5t82 24t79.5 18t66.5 7.5l37 -26l-195 -927h154v-55q-44 -33 -103 -53.5t-115 -20.5q-60 0 -86 27t-26 63z" />
<glyph unicode="&#x152;" horiz-adv-x="1975" d="M138 534q0 168 47 338t148.5 307t259 222.5t378.5 85.5q48 0 119.5 -6t129.5 -18h817q-18 -84 -41.5 -168.5t-52.5 -170.5h-55l-35 230h-458l-115 -554h339l115 155h52q-16 -104 -38 -209.5t-52 -213.5h-52l-48 160h-340l-124 -584h481l157 251h52q-4 -88 -17 -177.5 t-35 -181.5h-857q-56 -10 -102 -18t-103 -8q-289 0 -429.5 143.5t-140.5 416.5zM361 520q0 -75 15 -153t52.5 -142t105.5 -103.5t174 -37.5q54 -2 112.5 7t115.5 32l254 1206q-48 24 -110.5 37t-132.5 13q-136 0 -244.5 -67t-184 -183t-116.5 -272.5t-41 -336.5z" />
<glyph unicode="&#x153;" horiz-adv-x="1624" d="M86 389q0 111 34.5 231t105.5 220t177.5 165t248.5 65q100 0 179.5 -46.5t108.5 -136.5q90 102 194 142.5t205 40.5q102 0 173 -51.5t71 -151.5q0 -148 -146 -233.5t-474 -111.5q-8 -35 -11 -68.5t-3 -64.5q0 -126 62.5 -205.5t185.5 -79.5q42 0 80.5 13t72 31.5 t61.5 39.5t50 37l32 -39q-18 -40 -53.5 -77.5t-83.5 -68t-108 -48.5t-128 -18q-134 0 -210.5 56t-107.5 125q-40 -50 -87 -84.5t-95 -55.5t-96 -31t-87 -10q-162 0 -256.5 104t-94.5 311zM273 343q0 -124 54.5 -201.5t146.5 -77.5q74 0 131 55.5t98 146.5t62.5 205.5 t21.5 232.5q0 123 -42.5 198.5t-134.5 77.5q-102 -2 -167 -67t-102.5 -161t-52.5 -206.5t-15 -202.5zM977 612q203 6 315 70t112 177q0 44 -26 81t-102 37q-92 0 -169 -82t-130 -283z" />
<glyph unicode="&#x178;" horiz-adv-x="1326" d="M192 1401l15 62h551l-12 -62q-34 -12 -76 -26.5t-96 -25.5l211 -614l443 614q-44 11 -82.5 23.5t-71.5 28.5l12 62h466l-15 -62q-42 -20 -83.5 -31.5t-83.5 -20.5l-549 -727l-109 -511q77 -10 147 -51l-11 -60h-531l11 60q84 38 184 51l108 509l-269 729q-46 9 -85 22.5 t-74 29.5zM575 1648q0 50 34 75t84 25q52 0 86 -25t34 -75q0 -48 -34 -73t-86 -25q-50 0 -84 25t-34 73zM1040 1648q0 50 33.5 75t85.5 25q50 0 84 -25t36 -75q-2 -48 -36 -73t-84 -25q-52 0 -85.5 25t-33.5 73z" />
<glyph unicode="&#x192;" d="M18 -403q26 12 60.5 46t69 89t65 134.5t46.5 183.5l134 890h-150v54q42 24 88.5 41.5t88.5 27.5l15 73q27 130 74 214.5t108.5 133.5t136.5 68t161 19q36 0 85 -8.5t82 -25.5q-4 -46 -22 -95t-59 -84l-157 129q-38 -10 -70 -23t-60.5 -47t-53.5 -96.5t-48 -171.5 l-20 -105h231q10 -52 -21 -104h-232l-131 -850q-24 -148 -78 -246.5t-115.5 -159t-120 -90t-89.5 -37.5z" />
<glyph unicode="&#x2c6;" horiz-adv-x="921" d="M401 1266l315 388q10 9 28 9q16 0 25 -9l152 -386l-56 -36l-163 224l-240 -224z" />
<glyph unicode="&#x2c7;" horiz-adv-x="813" d="M439 1627q8 16 29 27t42 9l160 -222l272 222q19 2 37 -8.5t24 -25.5l-343 -386q-10 -6 -27 -7q-16 0 -25 7z" />
<glyph unicode="&#x2d8;" horiz-adv-x="1064" d="M499 1507l59 26q23 -52 75 -93t115 -43q33 0 72 7.5t75 23t69 40.5t53 57l51 -23q-18 -47 -51 -92.5t-75.5 -82t-93 -58.5t-102.5 -22q-114 0 -175 73t-72 187z" />
<glyph unicode="&#x2d9;" horiz-adv-x="624" d="M437 1406q0 54 33.5 85.5t87.5 31.5q58 0 91.5 -31t33.5 -86q0 -52 -33.5 -81.5t-91.5 -29.5q-54 0 -87.5 29.5t-33.5 81.5z" />
<glyph unicode="&#x2da;" horiz-adv-x="977" d="M493 1391q0 48 16.5 92t48.5 76.5t75.5 51t97.5 18.5q80 0 124 -44t44 -112q0 -50 -19 -93t-50.5 -74.5t-74.5 -49.5t-91 -18q-80 0 -125.5 40t-45.5 113zM602 1399q0 -37 22 -56t48 -19q40 0 77.5 38.5t37.5 112.5q0 69 -60 68q-64 0 -94.5 -47t-30.5 -97z" />
<glyph unicode="&#x2db;" horiz-adv-x="929" d="M211 -279q0 115 94 189t263 124l52 -2q-36 -13 -76 -40.5t-76 -62.5t-59.5 -80.5t-23.5 -95.5q0 -54 30 -89.5t97 -37.5q24 0 40 5.5t46 13.5v-65q-30 -17 -75 -30.5t-82 -13.5q-126 0 -178 52.5t-52 132.5z" />
<glyph unicode="&#x2dc;" horiz-adv-x="901" d="M261 1364q78 73 138.5 98t108.5 25q38 0 70 -10t61 -23t59.5 -23t61.5 -10q27 0 54.5 9t60.5 33l28 -59q-68 -68 -123 -93.5t-103 -25.5q-37 0 -71 11.5t-65 24t-61.5 24t-61.5 11.5q-27 0 -55 -10.5t-62 -39.5z" />
<glyph unicode="&#x2dd;" horiz-adv-x="1300" d="M520 1282l161 322q13 2 40 -1t55 -9.5t51.5 -15.5t29.5 -17v-32l-289 -279zM765 1287l277 317q15 2 41 -1t52.5 -11.5t50.5 -19.5t34 -26v-27l-416 -269z" />
<glyph unicode="&#x3a9;" horiz-adv-x="1664" d="M119 0q0 38 2 89t5.5 106.5t7.5 109.5t8 100h52l93 -246h331q-92 34 -175.5 91t-147 136.5t-101 180.5t-37.5 220q0 160 48 288.5t137.5 220t218.5 141.5t287 50q163 0 286.5 -48t208 -137.5t127.5 -215t43 -277.5q0 -130 -41 -236.5t-105.5 -189t-144.5 -139t-157 -85.5 h312l94 246h52q4 -46 8 -100t7 -109.5t5.5 -106.5t2.5 -89h-589v173q50 21 108.5 71.5t108.5 127.5t83.5 180.5t31.5 232.5q2 122 -25.5 230.5t-82.5 189t-137.5 127.5t-195.5 47q-126 0 -215.5 -46t-146 -124.5t-82.5 -182t-24 -217.5q-2 -130 33.5 -237.5t89 -190 t115 -136t111.5 -72.5v-173h-610z" />
<glyph unicode="&#x3c0;" horiz-adv-x="1284" d="M40 16q62 72 122.5 182.5t113 236t93 252t61.5 228.5h-35q-122 -2 -242 -126l-23 18q23 52 49 98t66 80t97 54t140 18q24 0 85 -2t143 -4t176 -4.5t179 -2.5q67 0 112 1.5t77.5 7.5t55.5 16.5t48 29.5l23 -19q-20 -67 -78 -117t-147 -48h-26l-167 -794l133 -17l-8 -44 q-67 -27 -150 -47.5t-153 -30.5h-52l196 933h-399l-83 -399q-15 -67 -35.5 -138t-45.5 -139t-53 -129.5t-58 -109.5q-16 -8 -40.5 -10t-51.5 -2q-44 0 -80.5 4t-34.5 8z" />
<glyph unicode="&#x401;" horiz-adv-x="1194" d="M-42 0l10 60q86 36 185 51l261 1238q-42 11 -81.5 23.5t-79.5 28.5l14 62h989q-17 -84 -40.5 -169.5t-53.5 -169.5h-55l-35 230h-458l-115 -554h338l116 155h52q-17 -104 -38.5 -209.5t-51.5 -213.5h-52l-48 160h-341l-121 -584h478l157 251h52q-4 -82 -16.5 -174.5 t-35.5 -184.5h-1030zM481 1648q0 50 34 75t84 25q52 0 86 -25t34 -75q0 -48 -34 -73t-86 -25q-50 0 -84 25t-34 73zM946 1648q0 50 33.5 75t85.5 25q50 0 84 -25t36 -75q-2 -48 -36 -73t-84 -25q-52 0 -85.5 25t-33.5 73z" />
<glyph unicode="&#x402;" horiz-adv-x="1559" d="M165 1055q2 41 9.5 95t17 109t18.5 108.5t17 95.5h1212q-8 -42 -19.5 -94.5t-26 -105.5t-30.5 -105.5t-32 -96.5h-53l-48 293h-319l-115 -541q64 32 163.5 63t218.5 31q176 0 252.5 -80.5t76.5 -220.5q0 -161 -51.5 -277t-132 -190.5t-177.5 -109.5t-191 -35l-2 56 q73 20 136.5 60t112 104.5t76.5 156t28 215.5q0 46 -9.5 85t-34 67.5t-65.5 44t-107 15.5q-87 0 -169 -26t-148 -62l-125 -599q35 -10 68.5 -23t66.5 -28l-12 -60h-541l11 60q50 19 100 30.5t106 20.5l263 1243h-319l-174 -299h-52z" />
<glyph unicode="&#x403;" horiz-adv-x="1037" d="M-42 0l10 60q94 36 185 51l261 1238q-42 9 -81.5 22.5t-79.5 29.5l14 62h978q-8 -42 -20.5 -96.5t-28.5 -113.5t-33 -114t-31 -99h-54l-42 314h-422l-261 -1243q102 -16 188 -51l-11 -60h-572zM681 1606l305 260q19 2 48 -2.5t59.5 -14t56.5 -22.5t38 -29v-42l-472 -189z " />
<glyph unicode="&#x404;" horiz-adv-x="1344" d="M138 539q0 213 60.5 387.5t172 298.5t271.5 193t361 69q137 0 233.5 -19t160.5 -51q-6 -34 -17.5 -79t-27 -95.5t-32 -98.5t-31.5 -87h-55l-44 301q-27 10 -82 15.5t-107 5.5q-118 0 -219 -37.5t-181.5 -113t-138 -187.5t-82.5 -258l688 30q4 -36 -3.5 -78.5t-24.5 -84.5 q-71 6 -156.5 11t-174.5 10.5t-177.5 8.5t-164.5 3q-6 -67 -6 -140q0 -130 45 -218.5t112.5 -142.5t147.5 -77t151 -21q71 -2 120 10t72 27l155 259h52q0 -58 -12 -147t-34 -173q-42 -23 -90 -39.5t-100.5 -26.5t-102.5 -15t-94 -5q-177 0 -300.5 50.5t-199.5 132 t-110.5 182t-34.5 200.5z" />
<glyph unicode="&#x405;" horiz-adv-x="1100" d="M46 73q8 38 24 89t34.5 103t37.5 101.5t35 84.5h55l21 -307q23 -19 77.5 -40.5t114.5 -19.5q69 -2 134 10t117 43.5t83.5 82.5t31.5 129q0 86 -41 144.5t-101.5 103.5t-130.5 85.5t-130.5 90.5t-101.5 118t-41 168q0 96 35 174.5t102.5 135t165.5 87.5t224 31 q127 0 227.5 -20t156.5 -48q-8 -36 -24 -83t-32.5 -97.5t-35.5 -97.5t-33 -82h-54l-26 286q-36 17 -91 25.5t-120 8.5q-62 0 -118 -15t-96 -45t-63 -76t-23 -109q0 -83 40.5 -138.5t101 -99t130.5 -84.5t130.5 -93.5t101.5 -126.5t41 -183q0 -98 -39 -177t-111 -136.5 t-177.5 -89.5t-238.5 -32q-68 0 -129 9t-112.5 23t-91 32t-60.5 35z" />
<glyph unicode="&#x406;" horiz-adv-x="716" d="M-2 0l10 60q92 38 180 51l261 1238q-42 9 -79 22.5t-77 29.5l14 62h535l-13 -62q-42 -16 -89.5 -29.5t-89.5 -22.5l-261 -1238q41 -8 82 -20.5t72 -30.5l-11 -60h-534z" />
<glyph unicode="&#x407;" horiz-adv-x="716" d="M-2 0l10 60q92 38 180 51l261 1238q-42 9 -79 22.5t-77 29.5l14 62h535l-13 -62q-42 -16 -89.5 -29.5t-89.5 -22.5l-261 -1238q41 -8 82 -20.5t72 -30.5l-11 -60h-534zM311 1648q0 50 33.5 75t83.5 25q52 0 85 -25t33 -75q0 -48 -33 -73t-85 -25q-50 0 -83.5 25t-33.5 73 zM681 1648q0 50 33.5 75t83.5 25q52 0 84.5 -25t32.5 -75q0 -48 -32 -73t-85 -25q-50 0 -83.5 25t-33.5 73z" />
<glyph unicode="&#x408;" horiz-adv-x="690" d="M-67 -303q41 34 76 68t64 85.5t54.5 124.5t47.5 182l251 1192q-89 21 -155 52l14 62h532l-10 -62q-42 -18 -90.5 -30.5t-90.5 -21.5l-246 -1169q-31 -144 -84 -238.5t-115 -151.5t-123.5 -85t-109.5 -40z" />
<glyph unicode="&#x409;" horiz-adv-x="1902" d="M-84 167q0 13 1 25.5t3 24.5l42 52l232 -44q42 52 91.5 138t101.5 218.5t106.5 318.5t108.5 439q-124 24 -199 62l13 62h1109l-12 -62q-42 -16 -91 -29.5t-104 -22.5l-100 -478q40 6 94 10t96 4q100 0 180.5 -21.5t139 -64.5t89.5 -104.5t31 -140.5q0 -165 -64 -273 t-162.5 -171.5t-214.5 -89.5t-219 -26q-10 0 -39 1t-68 2t-79.5 2t-72.5 1h-257l13 60q88 38 172 51l261 1243h-389q-52 -218 -100.5 -386t-92 -295t-85.5 -219.5t-82.5 -161.5t-81 -120t-82.5 -92q-54 -54 -121.5 -80t-121.5 -26q-18 28 -31 83.5t-15 109.5zM1057 113 q8 -4 27 -5.5t40.5 -3.5t42.5 -2h35q81 0 157 24t135.5 79.5t96 141t34.5 205.5q2 48 -11.5 89.5t-46 72t-88.5 47t-140 16.5q-48 0 -81.5 -3t-63.5 -9z" />
<glyph unicode="&#x40a;" horiz-adv-x="2055" d="M-42 0l12 60q46 21 92 31.5t93 19.5l261 1238q-94 15 -161 52l12 62h531l-13 -62q-41 -18 -84 -30.5t-85 -21.5l-110 -518h658l110 518q-42 11 -75 23.5t-73 28.5l12 62h544l-13 -62q-42 -16 -92 -29.5t-102 -22.5l-111 -520q40 6 94.5 10.5t95.5 4.5q100 0 183 -21 t141 -62.5t90.5 -102t32.5 -140.5q0 -155 -64.5 -256t-163 -160.5t-214.5 -83.5t-220 -24q-10 0 -39.5 1t-68.5 2t-79 2t-72 1h-251l13 60q43 19 83 31.5t86 19.5l129 612h-658l-127 -612q80 -16 144 -51l-10 -60h-531zM1212 113q8 -4 28 -5.5t42 -3.5t42.5 -2h31.5 q83 0 159.5 20t134.5 69.5t93 127.5t35 191q0 44 -14 84.5t-46 72t-87.5 50t-139.5 18.5q-50 0 -85.5 -3t-64.5 -9z" />
<glyph unicode="&#x40b;" horiz-adv-x="1597" d="M165 1055q2 41 8.5 95t15 109t18.5 108.5t20 95.5h1212q-8 -42 -20.5 -93.5t-27 -105.5t-30.5 -106.5t-30 -94.5h-53l-48 291h-319l-115 -541q62 32 153 63t211 31q137 0 218 -69t83 -220q0 -67 -20 -154l-75 -353q71 -12 138 -51l-11 -60h-349l99 478q13 61 15 118.5 t-16 102.5t-57 72t-107 27q-88 0 -163.5 -26t-141.5 -62l-125 -599q35 -10 69.5 -23t65.5 -28l-10 -60h-543l11 60q50 16 100 29t106 22l261 1243h-317l-172 -299h-54z" />
<glyph unicode="&#x40c;" horiz-adv-x="1330" d="M-42 0l10 60q94 38 185 51l261 1238q-46 9 -86.5 21.5t-74.5 30.5l14 62h529l-13 -62q-71 -33 -169 -52l-121 -578l125 29l502 549q-42 11 -75.5 22.5t-64.5 29.5l14 62h475l-15 -62q-38 -18 -84 -30.5t-85 -21.5l-541 -564q37 -69 86 -152t104.5 -173.5t115 -182 t118.5 -175.5l90 -50l-11 -52h-253l-61 50q-94 144 -181.5 311t-165.5 339h-110l-123 -589q86 -16 144 -51l-10 -60h-529zM783 1606l305 260q19 2 48 -2.5t59.5 -14t56.5 -22.5t38 -29v-42l-472 -189z" />
<glyph unicode="&#x40e;" horiz-adv-x="1357" d="M194 1401l13 62h549l-12 -62q-36 -16 -83 -28.5t-99 -23.5l221 -691l17 -134h4l71 138l397 687q-96 19 -167 52l13 62h465l-12 -62q-30 -14 -69 -27.5t-92 -24.5l-618 -990q-130 -199 -239.5 -296t-229.5 -73q-10 18 -17 47.5t-13 61t-8.5 62.5t2.5 56l60 50l219 -56 q10 8 25 25t29.5 38t28 42t21.5 37l-329 996q-36 11 -73.5 22.5t-73.5 29.5zM631 1761q33 27 94 41t105 18l52 -28v-138q12 -10 32 -18.5t53 -8.5q46 0 94 12.5t89 34.5t72 53t44 71q21 0 41.5 -8t31.5 -22q-13 -44 -48.5 -87t-88.5 -77.5t-123 -55.5t-154 -21 q-85 0 -143.5 24t-93 60.5t-48 77.5t-9.5 72z" />
<glyph unicode="&#x40f;" horiz-adv-x="1481" d="M-42 0l12 60q42 21 89 31.5t94 19.5l261 1238q-40 5 -79.5 18.5t-79.5 33.5l12 62h529l-11 -62q-25 -14 -66.5 -27.5t-104.5 -24.5l-261 -1241h635l264 1241q-38 11 -76 23.5t-69 28.5l11 62h528l-10 -62q-36 -16 -79.5 -29.5t-105.5 -22.5l-263 -1238q84 -16 161 -51 l-12 -60h-593q-30 -94 -67 -193.5t-87 -205.5h-56q0 102 3.5 201.5t12.5 197.5h-592z" />
<glyph unicode="&#x410;" horiz-adv-x="1407" d="M-102 0l12 60q82 34 163 51l826 1376h54l235 -1376q38 -8 77 -19.5t70 -31.5l-11 -60h-530l10 60q94 36 184 51l-63 382h-490l-224 -382q90 -12 167 -51l-11 -60h-469zM495 602h414l-67 442l-5 180h-4l-83 -184z" />
<glyph unicode="&#x411;" horiz-adv-x="1232" d="M-42 0l10 60q90 38 185 51l261 1238q-46 9 -85.5 22.5t-75.5 29.5l14 62h1001q-14 -84 -41 -187.5t-63 -191.5h-55l-48 270h-447l-104 -503q50 8 99 11t91 3q207 0 324.5 -76.5t117.5 -238.5q0 -120 -44.5 -221.5t-129.5 -175t-206.5 -116.5t-274.5 -43q-11 0 -41 1 t-69.5 2t-81.5 2t-74 1h-263zM353 113q8 -4 28 -5.5t42 -3.5t43 -2h33q98 0 176.5 31.5t133 88.5t82.5 136t28 170q0 48 -10 90t-40 72.5t-83 48t-136 17.5q-48 0 -87 -3t-76 -7z" />
<glyph unicode="&#x412;" horiz-adv-x="1263" d="M-42 0l10 60q94 40 185 51l261 1238q-42 9 -81.5 22.5t-79.5 29.5l14 62h222q77 0 154.5 6t193.5 6q84 0 159.5 -15t131.5 -46t90 -82.5t34 -125.5t-22 -139.5t-68 -121.5t-116.5 -97t-164.5 -67v-8q48 -4 98.5 -21t91.5 -49.5t66 -81.5t25 -115q0 -111 -42 -205 t-124.5 -164t-208 -109.5t-292.5 -39.5q-74 0 -162 6t-174 6h-201zM341 113q27 -8 66.5 -13.5t126.5 -3.5q86 -2 163.5 23t135.5 73.5t93 118t35 159.5q0 70 -24 113t-69 66t-107.5 32t-140.5 9h-158zM484 798h106q35 0 84 3t84 8q165 58 229 157t64 216q0 82 -59 133 t-196 51q-68 0 -114.5 -3t-77.5 -7z" />
<glyph unicode="&#x413;" horiz-adv-x="1037" d="M-42 0l10 60q94 36 185 51l261 1238q-42 9 -81.5 22.5t-79.5 29.5l14 62h978q-8 -42 -20.5 -96.5t-28.5 -113.5t-33 -114t-31 -99h-54l-42 314h-422l-261 -1243q102 -16 188 -51l-11 -60h-572z" />
<glyph unicode="&#x414;" horiz-adv-x="1415" d="M-117 -315q2 40 6.5 96t9.5 114.5t12 113.5t16 99h173q73 86 149 223t146.5 302t129.5 347t97 359q-52 10 -105 26t-95 36l15 62h1106l-14 -62q-67 -29 -182 -52l-261 -1241h238q-10 -44 -24.5 -98t-31 -112.5t-36.5 -114.5t-40 -98h-54l-12 315h-1028l-165 -315h-50z M236 108h649l261 1246h-396q-68 -258 -136 -459t-134 -354.5t-127.5 -260.5t-116.5 -172z" />
<glyph unicode="&#x415;" horiz-adv-x="1194" d="M-42 0l10 60q86 36 185 51l261 1238q-42 11 -81.5 23.5t-79.5 28.5l14 62h989q-17 -84 -40.5 -169.5t-53.5 -169.5h-55l-35 230h-458l-115 -554h338l116 155h52q-17 -104 -38.5 -209.5t-51.5 -213.5h-52l-48 160h-341l-121 -584h478l157 251h52q-4 -82 -16.5 -174.5 t-35.5 -184.5h-1030z" />
<glyph unicode="&#x416;" horiz-adv-x="1959" d="M-75 0l11 52l108 50q94 84 181.5 174.5t168 182t152.5 174.5t133 152l-268 564q-84 24 -136 52l14 62h444l-12 -62q-64 -31 -153 -52l239 -562h144l119 562q-42 13 -75.5 25.5t-63.5 26.5l14 62h482l-13 -62q-28 -12 -64 -25.5t-82 -26.5l-124 -578l141 29l465 549 q-37 11 -70.5 23.5t-68.5 28.5l12 62h474l-12 -62q-42 -16 -85 -28.5t-84 -23.5l-508 -566q33 -64 75 -147.5t90 -175t102.5 -183t114.5 -175.5l88 -50l-10 -52h-249l-58 52q-48 71 -88 150.5t-76.5 162t-70 167t-70.5 168.5h-126l-125 -589q33 -10 64.5 -21.5t60.5 -29.5 l-10 -60h-485l11 60q73 36 163 51l127 605l-144 -29q-50 -71 -108 -151.5t-122.5 -163.5t-134.5 -166t-148 -154l-80 -52h-274z" />
<glyph unicode="&#x417;" horiz-adv-x="1168" d="M20 58q7 34 20.5 78t31.5 90.5t37 93.5t37 85h53l26 -288q13 -6 37.5 -12.5t54.5 -11.5t61 -7t59 -2q89 0 165.5 24t133 75t88 129.5t33.5 184.5q-2 106 -76.5 154.5t-198.5 48.5l-164 -23q0 30 4 61t19 60h67q36 0 88 3t87 8q59 20 109 56t85.5 82.5t56.5 101t23 115.5 q-2 119 -58.5 167t-194.5 48q-62 0 -105 -12.5t-69 -27.5l-163 -255h-54q2 40 4 78t6.5 75t13 77t20.5 87q84 48 188.5 67t194.5 19q83 0 159 -16.5t133.5 -53t91.5 -92t34 -133.5q0 -54 -15 -111t-53.5 -111.5t-105.5 -103.5t-171 -85v-8q42 -6 85.5 -25t79 -53.5 t57.5 -82.5t22 -110q0 -122 -45 -219t-127.5 -166t-203 -106t-270.5 -37q-119 0 -223 24.5t-168 59.5z" />
<glyph unicode="&#x418;" horiz-adv-x="1521" d="M-42 0l10 60q92 38 185 51l261 1238q-40 11 -81.5 22.5t-79.5 29.5l14 62h529l-13 -62q-35 -16 -78 -28.5t-91 -23.5l-192 -906l-55 -156l128 168l798 844l11 50q-46 11 -86 23.5t-72 28.5l14 62h528l-13 -62q-42 -16 -88 -28.5t-94 -23.5l-263 -1238q44 -8 85 -20.5 t74 -30.5l-10 -60h-528l10 60q36 14 79.5 28t91.5 23l192 904l54 157l-116 -159l-813 -856l-8 -46q46 -8 85.5 -20.5t70.5 -30.5l-10 -60h-529z" />
<glyph unicode="&#x419;" horiz-adv-x="1521" d="M-42 0l10 60q92 38 185 51l261 1238q-40 11 -81.5 22.5t-79.5 29.5l14 62h529l-13 -62q-35 -16 -78 -28.5t-91 -23.5l-192 -906l-55 -156l128 168l798 844l11 50q-46 11 -86 23.5t-72 28.5l14 62h528l-13 -62q-42 -16 -88 -28.5t-94 -23.5l-263 -1238q44 -8 85 -20.5 t74 -30.5l-10 -60h-528l10 60q36 14 79.5 28t91.5 23l192 904l54 157l-116 -159l-813 -856l-8 -46q46 -8 85.5 -20.5t70.5 -30.5l-10 -60h-529zM690 1761q33 27 94 41t105 18l52 -28v-138q12 -10 32 -18.5t53 -8.5q46 0 94 12.5t89 34.5t72 53t44 71q21 0 41.5 -8t31.5 -22 q-13 -44 -48.5 -87t-88.5 -77.5t-123 -55.5t-154 -21q-85 0 -143.5 24t-93 60.5t-48 77.5t-9.5 72z" />
<glyph unicode="&#x41a;" horiz-adv-x="1330" d="M-42 0l10 60q94 38 185 51l261 1238q-46 9 -86.5 21.5t-74.5 30.5l14 62h529l-13 -62q-71 -33 -169 -52l-121 -578l125 29l502 549q-42 11 -75.5 22.5t-64.5 29.5l14 62h475l-15 -62q-38 -18 -84 -30.5t-85 -21.5l-541 -564q37 -69 86 -152t104.5 -173.5t115 -182 t118.5 -175.5l90 -50l-11 -52h-253l-61 50q-94 144 -181.5 311t-165.5 339h-110l-123 -589q86 -16 144 -51l-10 -60h-529z" />
<glyph unicode="&#x41b;" horiz-adv-x="1349" d="M-83 155.5q-1 34.5 3 61.5l42 52l232 -44q42 52 91.5 138t101.5 218.5t106.5 318.5t108.5 439q-124 24 -199 62l13 62h1097l-14 -62q-37 -16 -83 -29.5t-98 -22.5l-261 -1238q44 -8 84.5 -20.5t74.5 -30.5l-12 -60h-532l13 60q42 16 85 28t87 23l261 1243h-389 q-52 -220 -100.5 -387t-92 -294t-85.5 -220.5t-82.5 -162.5t-81 -119t-82.5 -91q-54 -54 -121.5 -80t-121.5 -26q-12 17 -21.5 47.5t-16 65t-7.5 69z" />
<glyph unicode="&#x41c;" horiz-adv-x="1790" d="M-42 0l10 60q84 36 182 53l261 1236q-42 9 -83 22.5t-77 29.5l12 62h435l148 -955l25 -215h2l109 219l589 951h384l-14 -62q-82 -35 -169 -52l-263 -1241q41 -8 78.5 -19t66.5 -29l-10 -60h-518l10 60q46 16 90 28t92 23l197 940l62 244h-16l-114 -223l-660 -1072h-54 l-181 1072l-24 244h-18l-55 -265l-198 -940q38 -8 75 -20.5t73 -30.5l-12 -60h-435z" />
<glyph unicode="&#x41d;" horiz-adv-x="1501" d="M-42 0l10 60q46 21 92 32.5t93 18.5l261 1238q-94 19 -161 52l14 62h529l-13 -62q-35 -18 -81 -30.5t-88 -21.5l-115 -545h657l116 545q-42 11 -78 22.5t-70 29.5l14 62h529l-13 -62q-41 -20 -88 -31.5t-93 -20.5l-263 -1238q94 -16 158 -51l-10 -60h-529l10 60 q40 16 83 29t87 22l123 585h-658l-121 -585q38 -8 75.5 -20.5t68.5 -30.5l-10 -60h-529z" />
<glyph unicode="&#x41e;" horiz-adv-x="1524" d="M138 580q0 190 57.5 355.5t166 287.5t261 193t344.5 71q153 0 257.5 -50t168 -131.5t92 -187t28.5 -217.5q0 -168 -47 -334t-145.5 -297.5t-248 -213.5t-353.5 -82q-150 0 -260 49.5t-181 132t-105.5 192t-34.5 232.5zM361 578q0 -115 30.5 -207t83.5 -156.5t125 -98.5 t158 -32q153 -2 254.5 74t162.5 196t87.5 265.5t26.5 283.5q0 106 -24 193.5t-72.5 150.5t-118 97.5t-161.5 34.5q-144 0 -248.5 -75.5t-172.5 -192.5t-99.5 -259t-31.5 -274z" />
<glyph unicode="&#x41f;" horiz-adv-x="1481" d="M-42 0l10 60q36 16 80 29t105 22l261 1238q-42 9 -81.5 22.5t-79.5 29.5l14 62h1379l-12 -62q-42 -20 -89.5 -31.5t-93.5 -20.5l-263 -1238q82 -10 159 -51l-10 -60h-528l10 60q26 14 67 27t102 24l264 1243h-638l-261 -1243q79 -16 144 -51l-10 -60h-529z" />
<glyph unicode="&#x420;" horiz-adv-x="1244" d="M-42 0l10 60q48 21 93 31.5t92 19.5l261 1238q-46 9 -85.5 22.5t-75.5 29.5l14 62h188q84 0 183 8t189 8q100 0 184.5 -20t144.5 -62.5t93 -106.5t33 -152q0 -123 -45 -227t-129 -181.5t-203.5 -121.5t-264.5 -44h-35.5t-52.5 1t-56 3t-47 4l-96 -461q54 -6 101.5 -19.5 t86.5 -31.5l-11 -60h-572zM474 683q10 -2 30 -4t42 -3t42 -2.5t32 -1.5q217 0 328 124.5t111 339.5q0 52 -11.5 95t-44 74.5t-87.5 48t-143 16.5q-50 0 -88.5 -3t-68.5 -7z" />
<glyph unicode="&#x421;" horiz-adv-x="1326" d="M138 539q0 213 60.5 387.5t172 298.5t271.5 193t361 69q137 0 233.5 -19t160.5 -51q-6 -34 -17.5 -79t-27 -95.5t-32 -98.5t-31.5 -87h-55l-44 301q-27 10 -82 15.5t-107 5.5q-138 0 -255.5 -53.5t-202.5 -158t-133.5 -261t-48.5 -363.5q0 -130 45 -218.5t112.5 -142.5 t147.5 -77t151 -21q71 -2 120 10t72 27l155 259h52q0 -58 -12 -147t-34 -173q-42 -23 -90 -39.5t-100.5 -26.5t-102.5 -15t-94 -5q-177 0 -300.5 50.5t-199.5 132t-110.5 182t-34.5 200.5z" />
<glyph unicode="&#x422;" horiz-adv-x="1273" d="M184 1055q2 41 9.5 95t15.5 109t17.5 108.5t20.5 95.5h1212q-9 -42 -21.5 -94.5t-27.5 -107.5t-30.5 -108.5t-30.5 -97.5h-54l-43 299h-321l-263 -1243q50 -10 95.5 -20.5t84.5 -30.5l-11 -60h-586l10 60q50 19 99 30.5t108 20.5l263 1243h-320l-173 -299h-54z" />
<glyph unicode="&#x423;" horiz-adv-x="1357" d="M194 1401l13 62h549l-12 -62q-36 -16 -83 -28.5t-99 -23.5l221 -691l17 -134h4l71 138l397 687q-96 19 -167 52l13 62h465l-12 -62q-30 -14 -69 -27.5t-92 -24.5l-618 -990q-130 -199 -239.5 -296t-229.5 -73q-10 18 -17 47.5t-13 61t-8.5 62.5t2.5 56l60 50l219 -56 q10 8 25 25t29.5 38t28 42t21.5 37l-329 996q-36 11 -73.5 22.5t-73.5 29.5z" />
<glyph unicode="&#x424;" horiz-adv-x="1620" d="M125 610q0 132 45 249.5t126.5 207t197.5 141.5t258 52q27 0 72 -2t75 -6l20 100q-46 10 -80.5 21.5t-57.5 27.5l13 62h470l-12 -62q-26 -14 -61 -26.5t-88 -22.5l-23 -107q44 11 91 13t81 2q100 0 172.5 -29t120 -80.5t70.5 -121.5t23 -150q0 -135 -44 -254t-125.5 -208 t-196 -140.5t-255.5 -51.5q-24 0 -69 3.5t-81 9.5l-25 -127q79 -20 125 -51l-12 -60h-471l11 60q71 32 159 48l27 126q-41 -4 -75 -6.5t-65 -2.5q-78 0 -153 23t-133 70t-94 120.5t-36 171.5zM325 622q-2 -71 22.5 -126t63 -94t90 -59t105.5 -20q25 0 53 3.5t45 8.5l175 821 q-23 4 -57.5 5t-58.5 1q-100 0 -182 -40t-139 -112t-88 -170t-29 -218zM885 330q19 -4 58 -5.5t56 -1.5q106 0 188.5 43t138 117.5t84.5 173.5t27 214q2 148 -69 218.5t-192 72.5q-32 0 -60 -2t-57 -11z" />
<glyph unicode="&#x425;" horiz-adv-x="1380" d="M-84 0l13 60q41 21 83 31.5t84 19.5l548 624l-259 614q-42 11 -80 22.5t-75 29.5l13 62h555l-13 -62q-64 -29 -171 -52l186 -472l390 472q-39 11 -78.5 21.5t-81.5 30.5l12 62h481l-14 -62q-38 -16 -81 -28.5t-87 -23.5l-497 -566l286 -672q96 -16 157 -51l-11 -60h-555 l10 60q80 38 170 51l-211 524l-439 -527q42 -6 82.5 -15t75.5 -33l-12 -60h-481z" />
<glyph unicode="&#x426;" horiz-adv-x="1509" d="M-42 0l10 60q65 28 185 53l261 1236q-77 13 -161 52l14 62h529l-15 -62q-62 -29 -167 -52l-261 -1241h622l266 1241q-37 9 -74 21.5t-73 30.5l13 62h529l-13 -62q-44 -16 -90 -29.5t-92 -22.5l-265 -1241h241q-10 -44 -25 -99t-34 -112.5t-39 -112.5t-37 -99h-52l-12 315 h-1260z" />
<glyph unicode="&#x427;" horiz-adv-x="1309" d="M213 1401l12 62h489l-14 -62q-30 -14 -65 -27.5t-81 -24.5l-74 -342q-16 -82 -17 -145.5t19 -107.5t65 -68t117 -24q88 0 169.5 25t152.5 61l128 601q-76 19 -139 52l13 62h487l-12 -62q-32 -16 -69.5 -28.5t-79.5 -23.5l-263 -1238q37 -8 69.5 -20.5t55.5 -30.5l-10 -60 h-531l11 60q54 24 105 35t100 16l114 537q-64 -32 -165.5 -63t-227.5 -31q-88 0 -154.5 25t-106.5 79t-49 137.5t15 203.5l76 350q-36 9 -73 21.5t-67 30.5z" />
<glyph unicode="&#x428;" horiz-adv-x="1923" d="M-42 0l10 60q84 38 164 51l261 1238q-38 11 -76 23.5t-64 28.5l14 62h485l-12 -62q-30 -16 -66 -28.5t-80 -23.5l-264 -1241h462l263 1241q-36 11 -69 23.5t-55 28.5l14 62h472l-16 -62q-31 -16 -70.5 -29.5t-74.5 -22.5l-264 -1241h462l266 1241q-36 11 -69.5 23.5 t-60.5 28.5l12 62h487l-12 -62q-36 -16 -74.5 -29.5t-82.5 -22.5l-264 -1238q38 -8 73 -20.5t61 -30.5l-10 -60h-1822z" />
<glyph unicode="&#x429;" horiz-adv-x="1963" d="M-42 0l10 60q38 16 77 29t87 22l261 1238q-38 9 -76 21.5t-64 30.5l14 62h485l-12 -62q-30 -16 -66 -28.5t-80 -23.5l-264 -1241h462l263 1241q-34 11 -66 23.5t-58 28.5l14 62h472l-16 -62q-27 -16 -63 -28.5t-82 -23.5l-264 -1241h462l266 1241q-36 11 -70.5 23.5 t-59.5 28.5l12 62h489l-14 -62q-68 -37 -157 -52l-266 -1243h241q-10 -42 -26 -97t-34.5 -112.5t-37.5 -113.5t-36 -98h-53l-12 315h-1738z" />
<glyph unicode="&#x42a;" horiz-adv-x="1473" d="M184 1055q2 44 9.5 97.5t16.5 108.5t18.5 107.5t18.5 94.5h839l-12 -62q-42 -16 -90 -29.5t-107 -22.5l-100 -478q40 8 95 11t97 3q98 0 181.5 -19.5t143.5 -60t93.5 -102t33.5 -145.5q0 -136 -46 -240.5t-132.5 -176.5t-212 -109.5t-282.5 -37.5q-11 0 -41 1t-67.5 2 t-79.5 2t-73 1h-268l13 60q85 36 184 51l261 1243h-268l-171 -299h-54zM616 113q8 -4 28 -5.5t42 -3.5t42 -2h32q96 0 175.5 26.5t138 82.5t91 143t32.5 206q0 44 -13.5 83.5t-48 70t-91 47t-139.5 16.5q-52 0 -87 -3t-64 -9z" />
<glyph unicode="&#x42b;" horiz-adv-x="1742" d="M-42 0l10 60q90 38 185 51l261 1238q-42 9 -81.5 22.5t-79.5 29.5l14 62h556l-14 -62q-42 -16 -91.5 -30.5t-103.5 -21.5l-100 -478q40 8 95 11t97 3q209 0 318.5 -89.5t109.5 -239.5q0 -144 -49 -249.5t-135.5 -176t-206 -103.5t-259.5 -33q-10 0 -39 1t-67.5 2t-79.5 2 t-73 1h-267zM353 113q8 -4 28 -5.5t42 -3.5t41.5 -2h32.5q191 0 303.5 115.5t110.5 342.5q2 44 -11 83.5t-43 69t-82 47t-133 17.5q-50 0 -86 -3t-65 -9zM1070 0l10 60q44 21 87 31.5t89 19.5l261 1238q-38 11 -74.5 21.5t-78.5 30.5l13 62h530l-12 -62q-75 -35 -178 -52 l-261 -1238q47 -8 85 -20.5t68 -30.5l-11 -60h-528z" />
<glyph unicode="&#x42c;" horiz-adv-x="1210" d="M-42 0l10 60q90 38 185 51l261 1238q-42 9 -81.5 22.5t-79.5 29.5l14 62h556l-12 -62q-42 -16 -92.5 -30.5t-104.5 -21.5l-100 -478q40 8 95 11t97 3q209 0 330.5 -85.5t121.5 -243.5q0 -150 -53.5 -257t-144.5 -175t-213.5 -99t-262.5 -31q-10 0 -39 1t-67.5 2t-79.5 2 t-73 1h-267zM353 113q8 -4 28 -5.5t42 -3.5t43 -2h31q96 0 176.5 26.5t139 82.5t91 143t29.5 206q2 44 -12 83.5t-48 70t-91 47t-140 16.5q-50 0 -86 -3t-65 -9z" />
<glyph unicode="&#x42d;" horiz-adv-x="1298" d="M42 50q14 90 44.5 187.5t61.5 169.5h53l46 -301q29 -10 73.5 -16t99.5 -6q116 0 221 38.5t189.5 118.5t144 199.5t82.5 278.5l-620 -63q-2 42 5 82.5t28 80.5l602 -2q8 125 -19 229.5t-83.5 177.5t-139 114t-182.5 41q-52 0 -111 -11.5t-86 -28.5l-162 -255h-55 q2 28 5.5 65t8.5 79t13 87t18 86q40 24 91.5 41t105.5 27t108 14t97 4q293 0 448.5 -156.5t155.5 -439.5q0 -193 -60.5 -361.5t-174.5 -291.5t-277 -193.5t-370 -70.5q-138 0 -218.5 20t-142.5 56z" />
<glyph unicode="&#x42e;" horiz-adv-x="2007" d="M-42 0l10 60q44 16 89 29t96 22l261 1238q-77 13 -161 52l14 62h531l-15 -62q-29 -12 -65.5 -25.5t-103.5 -26.5l-115 -545h241q29 144 92 270t155.5 217.5t214.5 143.5t271 52q153 0 253 -49t159.5 -126.5t83.5 -172.5t24 -188q0 -174 -51.5 -347.5t-151.5 -313.5 t-249.5 -228t-346.5 -88q-159 0 -260 66t-155 169.5t-66.5 232t6.5 254.5h-245l-121 -585q48 -10 83.5 -23t62.5 -28l-10 -60h-531zM917 541q0 -82 12.5 -163t47 -147t96 -107.5t157.5 -39.5q98 -2 176.5 39.5t138 112.5t102.5 164t70 194.5t40 205t13 197.5q2 58 -10 124.5 t-48.5 124.5t-101 95.5t-169.5 37.5q-92 0 -165.5 -38.5t-132.5 -104.5t-101.5 -151.5t-69.5 -178.5t-41 -188.5t-14 -176.5z" />
<glyph unicode="&#x42f;" horiz-adv-x="1309" d="M-106 0l10 52l110 50q82 71 149 141t125.5 136t112.5 128.5t109 122.5q-30 11 -69.5 36.5t-75 66t-61 96.5t-25.5 130q0 247 172.5 376.5t503.5 133.5q42 0 102.5 -3t124.5 -3h267l-12 -62q-36 -16 -78.5 -28.5t-102.5 -23.5l-262 -1238q100 -16 157 -51l-11 -60h-554 l12 60q87 38 196 51l105 503h-193q-62 -75 -115.5 -148t-106 -144t-109 -138t-124.5 -132l-82 -52h-275zM504 953q-2 -63 21 -109t57 -76.5t72 -47t69 -16.5q19 0 47 1t57.5 2t54.5 4t39 8l134 630q-19 5 -57.5 8t-68.5 3q-119 0 -201 -35.5t-132 -94t-72 -130.5t-20 -147z " />
<glyph unicode="&#x430;" horiz-adv-x="1116" d="M90 291q0 146 41.5 284.5t121.5 247t193.5 174.5t257.5 66q52 0 83.5 -9.5t75.5 -27.5q84 44 175 44l-187 -955h152v-53q-42 -33 -100.5 -53.5t-115.5 -20.5q-60 0 -86 26t-26 55q0 38 14.5 123t43.5 217h-8q-27 -75 -68 -152t-94 -140t-118 -103t-138 -40 q-217 0 -217 317zM277 325q0 -106 26.5 -163.5t91.5 -57.5q56 0 112.5 53.5t106.5 128.5t90 156.5t63 135.5l66 358q-29 21 -56 29t-75 8q-96 0 -174.5 -59t-133.5 -153.5t-86 -209t-31 -226.5z" />
<glyph unicode="&#x431;" horiz-adv-x="1073" d="M86 395q0 146 24 294t74 280t127.5 237.5t183.5 166.5q104 60 222 81t242 29l133 109h52q-4 -60 -31 -125.5t-62 -108.5q-24 -32 -65 -44t-99 -17q-167 -14 -279.5 -47.5t-187.5 -102.5t-123 -184t-82 -293h10q46 94 106 167.5t125.5 124.5t133.5 78.5t135 27.5 q64 0 115 -26.5t86 -73.5t54 -109.5t19 -137.5q0 -136 -43 -269t-120.5 -239.5t-181.5 -172.5t-230 -66q-75 0 -137 27t-106.5 79t-69.5 130.5t-25 184.5zM273 349q0 -150 50.5 -217.5t123.5 -67.5q71 0 135 53.5t112 139.5t76 196.5t28 225.5q0 138 -41 198.5t-129 60.5 q-56 0 -106 -28.5t-90.5 -68t-68 -80t-40.5 -67.5q-29 -63 -39.5 -146.5t-10.5 -198.5z" />
<glyph unicode="&#x432;" horiz-adv-x="1016" d="M84 321q0 108 23 208.5t61.5 185.5t91.5 151.5t114 110.5q124 92 301 93q100 0 173 -51.5t73 -149.5q0 -100 -75 -170.5t-213 -120.5q72 -4 118.5 -24t76 -50t41.5 -64.5t12 -67.5q0 -69 -33 -139t-92.5 -127.5t-143.5 -94.5t-184 -37q-89 0 -154 28t-108 74.5 t-62.5 109.5t-19.5 135zM271 345q0 -120 50.5 -200.5t158.5 -80.5q32 0 69 19t69 54.5t53 86t23 113.5q-2 85 -47 126t-148 59q-46 -10 -100 -16.5t-110 -10.5q-6 -30 -12 -68t-6 -82zM297 574q98 0 178.5 23t137.5 63t88.5 92t31.5 109q0 42 -20.5 79.5t-74.5 39.5 q-48 -2 -96.5 -23t-92.5 -69.5t-82.5 -125.5t-69.5 -188z" />
<glyph unicode="&#x433;" horiz-adv-x="813" d="M34 197q0 71 39.5 129.5t99 109.5t128 95.5t128.5 88.5t99.5 90t39.5 97q0 54 -22 93.5t-95 39.5q-74 0 -139 -38.5t-105 -78.5l-32 36q17 31 50.5 67.5t80.5 69t102.5 53.5t115.5 21q122 0 181.5 -59.5t59.5 -137.5q0 -77 -40 -137.5t-99.5 -112t-128.5 -96.5 t-128.5 -89.5t-99 -93.5t-39.5 -106q0 -54 35.5 -94t123.5 -40q77 0 145 34.5t120 76.5l29 -31q-27 -38 -68 -75.5t-94 -68t-115.5 -48.5t-132.5 -18q-48 0 -91.5 17t-77 46.5t-52 70.5t-18.5 89z" />
<glyph unicode="&#x434;" horiz-adv-x="1035" d="M60 351q0 127 43 253.5t123.5 226.5t194 163t256.5 63q38 0 75 -8.5t61 -24.5q0 64 -12 141.5t-40 144.5t-78 112t-125 45q-78 0 -127 -15t-96 -40l-28 39q23 26 60.5 48t82.5 40t94.5 27t97.5 9q81 0 147 -35.5t113 -108.5t73 -186t26 -270q0 -213 -51 -395.5t-137 -317 t-202 -211.5t-244 -77q-150 0 -228.5 99.5t-78.5 277.5zM249 341q0 -48 6 -96t25 -89t52 -66.5t88 -25.5q70 0 139 66.5t126 182t92.5 272.5t35.5 338q-46 26 -81.5 34t-75.5 10q-115 -2 -192 -65t-125 -156.5t-69 -202t-21 -202.5z" />
<glyph unicode="&#x435;" horiz-adv-x="947" d="M84 349q0 148 41.5 279.5t116.5 230t182.5 155t239.5 56.5q100 0 172.5 -51.5t72.5 -151.5q0 -148 -147.5 -233.5t-474.5 -111.5q-9 -35 -12.5 -68.5t-3.5 -64.5q0 -126 64 -205.5t187 -79.5q40 0 79 13t73 31.5t62.5 39.5t48.5 37l34 -39q-18 -40 -54 -77.5t-84 -68 t-108.5 -48.5t-129.5 -18q-174 0 -266.5 99.5t-92.5 275.5zM301 612q203 6 315.5 70t112.5 177q0 44 -26 81.5t-103 39.5q-90 -2 -167.5 -84.5t-131.5 -283.5z" />
<glyph unicode="&#x436;" horiz-adv-x="1641" d="M-46 14q-4 28 2 59t21 59.5t38 52.5t52 36l90 -123q46 12 91 57.5t78 121.5t54 182.5t19 242.5q2 119 -25 172t-89 53q-78 0 -141 -58l-23 30q54 75 119 116.5t151 41.5q44 0 78.5 -22t59.5 -59.5t37 -87t12 -101.5q0 -113 -18 -215h192l96 472h169l-98 -472h193 q27 106 72.5 195.5t103 154t127.5 100t146 35.5q56 0 79 -7.5t50 -19.5q2 -23 -3 -51t-20 -56t-36.5 -54.5t-53.5 -43.5l-90 122q-38 -11 -79.5 -55t-77 -120t-58 -184t-20.5 -245q-2 -120 34 -173t101 -53q36 0 64 14.5t58 43.5l22 -29q-42 -64 -110.5 -111t-144.5 -47 q-54 0 -93 22t-64 59t-36 86.5t-11 103.5q0 58 4 113.5t12 109.5h-187l-99 -482h-167l98 482h-192q-30 -108 -75.5 -199t-105 -157t-129.5 -102t-145 -36q-58 0 -82 8t-50 18z" />
<glyph unicode="&#x437;" horiz-adv-x="916" d="M-26 75q3 28 13.5 56t27.5 55t37.5 50t45.5 37l143 -198q16 -4 43 -7.5t44 -3.5q48 0 98 19t91 53.5t67 85.5t28 115q-2 83 -46 120.5t-148 54.5l-147 -38q-10 28 -9 57t9 55h149q113 36 169.5 108.5t54.5 138.5q2 63 -38 105t-130 42q-16 0 -45.5 -3.5t-50.5 -7.5 q-29 -34 -66 -88t-67 -96q-19 9 -37 29.5t-30.5 47.5t-16.5 59t4 61q19 12 50.5 27t78.5 28.5t107.5 23t139.5 9.5q58 0 110.5 -13t92 -38t62.5 -62.5t23 -87.5q0 -199 -279 -301q64 0 111 -19t77.5 -48t45 -67.5t14.5 -76.5q0 -75 -33.5 -145t-95 -122t-150.5 -84t-200 -32 q-117 0 -207 27t-140 74z" />
<glyph unicode="&#x438;" horiz-adv-x="1132" d="M111 171q0 46 14.5 136t35.5 196.5t45 218t43 201.5l-128 19v52q34 13 72.5 25.5t77 23t74 18t64.5 9.5l46 -26q-34 -157 -68 -297.5t-64 -297.5q-10 -50 -21 -112t-11 -134q0 -44 24 -71.5t54 -27.5q46 0 92.5 27.5t87.5 71.5t77 97t65.5 105.5t49 97.5t30.5 71l92 470 h173l-171 -929h154v-53q-42 -33 -101 -53.5t-116 -20.5q-60 0 -86 25t-26 54q0 38 10 126.5t46 215.5h-9q-27 -58 -68 -133t-97 -142t-128 -113.5t-159 -46.5q-74 0 -124 52t-50 145z" />
<glyph unicode="&#x439;" horiz-adv-x="1132" d="M111 171q0 46 14.5 136t35.5 196.5t45 218t43 201.5l-128 19v52q34 13 72.5 25.5t77 23t74 18t64.5 9.5l46 -26q-34 -157 -68 -297.5t-64 -297.5q-10 -50 -21 -112t-11 -134q0 -44 24 -71.5t54 -27.5q46 0 92.5 27.5t87.5 71.5t77 97t65.5 105.5t49 97.5t30.5 71l92 470 h173l-171 -929h154v-53q-42 -33 -101 -53.5t-116 -20.5q-60 0 -86 25t-26 54q0 38 10 126.5t46 215.5h-9q-27 -58 -68 -133t-97 -142t-128 -113.5t-159 -46.5q-74 0 -124 52t-50 145zM437 1427q33 25 73 39.5t84 18.5l52 -26v-162q12 -10 32 -18.5t53 -8.5q92 0 161 57.5 t96 137.5q19 0 41 -10t32 -24q-12 -44 -40.5 -90t-72 -83.5t-102.5 -62.5t-134 -25q-94 0 -150 28t-85.5 68t-37 83.5t-2.5 77.5z" />
<glyph unicode="&#x43a;" horiz-adv-x="1066" d="M90 0l181 923l-146 19v52q61 28 147.5 49.5t159.5 26.5l44 -23l-94 -475h61q44 28 93.5 67.5t96 81.5t84 80t56.5 66q2 14 3 39t0 51.5t-2 50.5t-3 36q78 28 150 28q73 0 123 -28q-29 -64 -88 -132t-127.5 -129.5t-133.5 -112t-101 -76.5q14 -40 48.5 -104t75 -132.5 t82.5 -133.5t71 -109h132v-53q-42 -33 -91 -53.5t-103 -20.5q-50 0 -87 25t-74 85q-68 113 -116 212t-89 187l-76 21l-98 -518h-179z" />
<glyph unicode="&#x43b;" horiz-adv-x="1073" d="M-60 104q0 34 8 65.5t29 57.5l171 -70q40 50 82.5 137.5t81.5 193.5t72.5 218.5t54.5 212.5q-44 10 -92 30t-72 41v54h700l-183 -927h155v-55q-42 -33 -101 -53.5t-119 -20.5t-86.5 25t-26.5 54q0 40 8 87t20 95l150 706h-244q-26 -113 -60.5 -237t-77.5 -243.5t-94 -223 t-111 -173.5q-50 -61 -106.5 -83.5t-124.5 -20.5q-16 21 -26 55.5t-8 74.5z" />
<glyph unicode="&#x43c;" horiz-adv-x="1475" d="M-60 106q0 58 28 105l164 -54q39 50 77 136.5t72 192.5t62.5 219.5t51.5 215.5q-42 16 -77.5 33t-52.5 38v52h357l80 -626l6 -145h6l84 151l392 620h189l-187 -927h155v-55q-41 -33 -100 -53.5t-117 -20.5q-60 0 -87.5 25t-27.5 54q0 40 10.5 88t21.5 96l102 465 q4 18 11.5 43.5t15.5 52.5t18 52t16 43h-6l-566 -907h-58l-41 407l-35 335l-11 165h-9q-23 -94 -49 -209.5t-61 -230t-81 -218t-107 -174.5q-50 -60 -100 -80.5t-116 -20.5q-14 24 -23 58.5t-7 73.5z" />
<glyph unicode="&#x43d;" horiz-adv-x="1152" d="M90 0l183 923l-127 19l-2 52q29 15 68 28.5t80 24t79 17t68 6.5l41 -26l-98 -470h405l92 470h176l-184 -927h153v-55q-42 -33 -101.5 -53.5t-115.5 -20.5q-60 0 -87.5 25t-27.5 54q0 38 11 86l22 96l46 235h-406l-100 -484h-175z" />
<glyph unicode="&#x43e;" horiz-adv-x="1062" d="M86 389q0 111 34.5 231t105.5 220t177.5 165t248.5 65q163 0 245.5 -100.5t82.5 -297.5q0 -138 -39.5 -264t-111 -222t-171.5 -154t-221 -58q-162 0 -256.5 104t-94.5 311zM273 343q0 -124 54.5 -201.5t146.5 -77.5q74 0 131 55.5t98 146.5t62.5 205.5t21.5 232.5 q0 123 -42.5 198.5t-134.5 77.5q-102 -2 -167 -67t-102.5 -161t-52.5 -206.5t-15 -202.5z" />
<glyph unicode="&#x43f;" horiz-adv-x="1152" d="M90 0l183 923l-127 19l4 52q30 15 66.5 28.5t75 24t75 17t68.5 6.5l41 -26l-79 -369h10q40 84 91.5 156t108.5 125t119.5 83.5t128.5 30.5q87 0 128 -55.5t41 -139.5q0 -46 -10.5 -114.5t-25.5 -130.5l-119 -513h155v-55q-42 -33 -101.5 -53.5t-115.5 -20.5 q-60 0 -83.5 25t-23.5 54q0 40 10.5 87t20.5 95l76 347q14 64 25.5 119.5t11.5 109.5q0 48 -22 81.5t-70 33.5q-56 0 -115 -46t-109 -110.5t-90.5 -135t-61.5 -116.5l-111 -532h-175z" />
<glyph unicode="&#x440;" horiz-adv-x="1132" d="M2 -399l90 415l195 907l-128 19v52q69 30 145 53t143 23l42 -26l-86 -367h8q38 84 83 155t97.5 124t113 83.5t128.5 30.5q46 0 88 -18t73.5 -54.5t49 -90.5t17.5 -126q0 -161 -48 -307t-130.5 -257t-193.5 -177t-238 -66q-36 0 -61 3t-43.5 8t-36 13t-39.5 18l-68 -321 q73 -12 146 -52v-61h-329zM293 113q29 -25 61.5 -37t103.5 -12q84 0 158 62t129 158t87.5 214t32.5 233q0 100 -34.5 154.5t-95.5 54.5q-60 0 -114.5 -47t-101.5 -114t-84.5 -141t-60.5 -130z" />
<glyph unicode="&#x441;" horiz-adv-x="893" d="M84 341q0 150 48 282.5t130.5 232t194 157t239.5 57.5q79 0 129 -13t76 -36q2 -23 -4 -51t-17 -55.5t-29 -50t-36 -31.5l-143 147q-71 -2 -140.5 -43.5t-125 -119t-90 -187.5t-31.5 -248q-2 -143 57 -210.5t162 -67.5q44 0 82 13t72 31.5t61 39.5t48 37l31 -39 q-24 -40 -59 -77.5t-83 -68t-107.5 -48.5t-130.5 -18q-155 0 -244.5 98.5t-89.5 268.5z" />
<glyph unicode="&#x442;" horiz-adv-x="1670" d="M90 0l195 923l-128 19v52q69 36 149.5 56t138.5 20l44 -26l-92 -369h8q25 58 70 127t104 128.5t125.5 99.5t132.5 40q26 0 51 -8.5t44 -30.5t31 -60t12 -96q0 -46 -9 -98t-21 -102q31 72 79 141t104 126t120 92.5t131 35.5q80 0 120 -50.5t40 -138.5q0 -67 -12 -126 t-28 -129l-135 -509h155v-55q-42 -33 -102.5 -53.5t-114.5 -20.5q-61 0 -84.5 27t-23.5 65q0 60 30 167l98 379q12 50 24 104.5t14 90.5q-2 54 -18 86.5t-64 32.5q-50 0 -102 -39.5t-99 -100t-85.5 -131.5t-64.5 -135l-127 -534h-167l132 586q14 65 24.5 125t10.5 124 q0 48 -16.5 76.5t-58.5 28.5t-92.5 -39.5t-98 -100t-88.5 -131.5t-66 -137l-111 -532h-179z" />
<glyph unicode="&#x443;" horiz-adv-x="949" d="M-32 -403q-2 24 5 53t20 58t35 54t50 39l169 -88q14 11 37 31t48 54.5t50 83.5t48 118l-246 923l-134 17v52q10 9 34 21.5t55.5 25t65 22t62.5 9.5q44 0 64 -22t30 -58l173 -731l7 -125h5l48 123q27 58 55 128t55 141.5t50 140t40 127.5q0 23 -5.5 60t-11.5 75 t-12.5 70.5t-10.5 44.5q29 13 63 19.5t64 6.5q63 0 111 -26q-64 -259 -176 -518t-248 -526q-113 -219 -225.5 -328t-254.5 -109q-32 0 -60 8.5t-60 25.5z" />
<glyph unicode="&#x444;" horiz-adv-x="1465" d="M84 263q0 182 42.5 329.5t113.5 253t164 161.5t192 56q48 0 84 -12.5t64 -35.5l71 410l-147 18v52q60 28 143.5 47t153.5 29l42 -23l-116 -610q36 48 105 90t168 42q46 0 85.5 -16t68.5 -51.5t46 -90.5t17 -137q0 -181 -43 -328.5t-114 -253t-164 -162.5t-191 -57 q-60 0 -96 26t-52 54l-71 -359q69 -12 146 -52v-61h-316l-18 17l114 524q-52 -67 -113.5 -111t-159.5 -44q-92 0 -155.5 67t-63.5 228zM263 269q0 -100 32.5 -148t86.5 -48q26 0 56 12.5t58 32.5t53 45t43 52l135 727q-25 17 -52 24t-75 7q-74 0 -134.5 -61t-106.5 -160.5 t-71 -226t-25 -256.5zM737 113q17 -23 48.5 -36t81.5 -13q71 0 132.5 62t106.5 162.5t70.5 226t25.5 254.5q0 100 -32 148t-86 48q-73 0 -125 -40t-88 -83z" />
<glyph unicode="&#x445;" horiz-adv-x="947" d="M-50 14q18 62 77 140t129.5 151t137.5 132.5t101 88.5l-142 385l-134 16v53q13 8 37 21.5t54.5 26t61.5 21t61 8.5q45 0 66 -24t33 -56l102 -363q48 48 106 108.5t87 114.5q2 15 2 42.5t-2 57.5t-4 56t-4 39q36 12 70 19.5t70 7.5q67 0 116 -27q-12 -42 -41 -89.5 t-69 -96t-85 -95.5t-86.5 -88t-78.5 -73t-57 -51l150 -407l136 -17v-53q-13 -8 -37 -20t-52 -25t-60.5 -21t-59.5 -8q-43 0 -66 23t-35 56l-114 378q-23 -26 -53 -55t-60 -60t-55 -62.5t-39 -58.5q-4 -14 -5 -41.5t-2 -57.5t-1 -56t2 -40q-36 -14 -72.5 -20t-70.5 -6 q-69 0 -114 26z" />
<glyph unicode="&#x446;" horiz-adv-x="1134" d="M111 171q0 46 14.5 136t35.5 196.5t45 218t43 201.5l-128 19v52q34 13 72.5 25.5t77 23t74 18t64.5 9.5l46 -26q-34 -157 -68 -297.5t-64 -297.5q-10 -50 -21 -112t-11 -134q0 -44 24 -71.5t54 -27.5q46 0 92.5 27.5t87.5 71.5t77 97t65.5 105.5t49 97.5t30.5 71l92 470 h173l-171 -929h154v-65q-26 -23 -39 -52.5t-19 -63.5t-7 -70.5t-3 -72.5q-2 -56 -24 -93t-57 -61t-78.5 -36t-87.5 -21l-14 42q37 10 59 31.5t33.5 45.5t13.5 50t2 46q-2 73 38.5 129t101.5 110l-7 6q-25 -19 -68.5 -35.5t-81.5 -16.5q-46 0 -68.5 25t-22.5 54 q0 38 10 126.5t46 215.5h-9q-27 -58 -68 -133t-97 -142t-128 -113.5t-159 -46.5q-74 0 -124 52t-50 145z" />
<glyph unicode="&#x447;" horiz-adv-x="1029" d="M60 942v52q34 13 72.5 25.5t77.5 23t74 18t65 9.5l46 -26q-42 -177 -73 -297.5t-31 -200.5q0 -44 25 -72.5t73 -28.5q33 0 73 13.5t79 36.5t74 54t60 67l92 428h173l-196 -927h153v-55q-42 -33 -101 -53.5t-117 -20.5q-60 0 -86.5 27t-26.5 63q0 25 3 47.5t9 51.5l84 353 h-8q-34 -43 -77 -82t-90.5 -68t-99.5 -47t-105 -18q-72 0 -121.5 45t-49.5 135q0 37 5 76t14.5 88t24 112.5t33.5 151.5z" />
<glyph unicode="&#x448;" horiz-adv-x="1628" d="M111 171q0 46 14.5 136t35.5 196.5t45 218t43 201.5l-128 19v52q34 13 72.5 25.5t77 23t74 18t64.5 9.5l46 -26q-34 -157 -68 -297.5t-64 -297.5q-10 -50 -21 -112t-11 -134q0 -44 24 -71.5t54 -27.5q46 0 88 27.5t78.5 71.5t67 97t54.5 105.5t40.5 97.5t27.5 71l96 470 h173q-33 -157 -66 -297.5t-63 -297.5q-10 -50 -23 -112t-13 -134q0 -44 23 -71.5t57 -27.5q46 0 87.5 27.5t78.5 71.5t68 97t55 105.5t42 97.5t28 71l92 470h171l-169 -929h153v-53q-42 -33 -100.5 -53.5t-115.5 -20.5q-60 0 -86.5 25t-26.5 54q0 38 11 126.5t46 215.5h-9 q-27 -58 -62.5 -133t-85.5 -142t-114.5 -113.5t-150.5 -46.5q-79 0 -121 52t-42 141q0 86 46 242h-8q-28 -58 -62 -133t-82 -142t-114 -113.5t-153 -46.5q-74 0 -124 52t-50 145z" />
<glyph unicode="&#x449;" horiz-adv-x="1630" d="M111 171q0 46 14.5 136t35.5 196.5t45 218t43 201.5l-128 19v52q34 13 72.5 25.5t77 23t74 18t64.5 9.5l46 -26q-34 -157 -68 -297.5t-64 -297.5q-10 -50 -21 -112t-11 -134q0 -44 24 -71.5t54 -27.5q46 0 88 27.5t78.5 71.5t67 97t54.5 105.5t40.5 97.5t27.5 71l96 470 h173q-33 -157 -66 -297.5t-63 -297.5q-10 -50 -23 -112t-13 -134q0 -44 23 -71.5t57 -27.5q46 0 87.5 27.5t78.5 71.5t68 97t55 105.5t42 97.5t28 71l92 470h171l-169 -929h157v-65q-26 -23 -39 -52.5t-19.5 -63.5t-9 -70.5t-4.5 -72.5q-2 -56 -24 -93t-56 -61t-77 -36 t-86 -21l-16 42q38 10 60 31.5t32.5 45.5t12.5 50t2 46q0 73 41 129t101 110l-6 6q-27 -19 -71 -35.5t-82 -16.5q-46 0 -69 25t-23 54q0 38 11 126.5t46 215.5h-9q-27 -58 -62.5 -133t-85.5 -142t-114.5 -113.5t-150.5 -46.5q-79 0 -121 52t-42 141q0 86 46 242h-8 q-28 -58 -62 -133t-82 -142t-114 -113.5t-153 -46.5q-74 0 -124 52t-50 145z" />
<glyph unicode="&#x44a;" horiz-adv-x="949" d="M56 779l32 211q12 82 113 82q38 0 76 -6.5t89.5 -15t118.5 -16.5t159 -15q23 12 44.5 25t42.5 26q24 -4 43.5 -33.5t12.5 -65.5q-135 -58 -240.5 -179.5t-179.5 -275.5h9q78 69 155 107.5t177 38.5q32 0 66.5 -11t62.5 -35t47 -63t19 -95q0 -94 -43 -181t-114 -155 t-160 -108t-183 -40q-48 0 -97 15t-87.5 48.5t-62.5 89t-24 134.5q0 82 31 169.5t85.5 173.5t126.5 164t153 143q-67 -14 -149 -11t-174 17l-97 -150zM311 251q0 -78 34.5 -132.5t99.5 -54.5q58 0 108.5 29.5t88 77.5t58.5 108t23 122q-2 38 -14.5 63t-31.5 40.5t-41 21.5 t-40 6q-38 0 -76 -7t-72 -20.5t-61.5 -33t-43.5 -43.5q-19 -56 -25.5 -95.5t-6.5 -81.5z" />
<glyph unicode="&#x44b;" horiz-adv-x="1403" d="M111 205q0 67 17.5 153.5t46 181.5t61.5 193t65 190l-126 19v52q32 15 73 27.5t82.5 23t82 17t71.5 8.5l46 -26q-50 -131 -96.5 -254.5t-94.5 -273.5h8q56 69 127.5 118t171.5 49q31 0 65.5 -10.5t62.5 -34.5t46.5 -62.5t18.5 -95.5q0 -93 -39.5 -183t-108.5 -162.5 t-160.5 -116.5t-193.5 -44q-46 0 -87 14t-72.5 42t-49 72t-17.5 103zM291 219q0 -73 25 -114t87 -41q58 0 105.5 34t80.5 85t51 114.5t20 126.5q-2 38 -14.5 62t-31 39.5t-40.5 22t-42 6.5q-73 0 -121.5 -39t-82.5 -87q-18 -56 -27.5 -105.5t-9.5 -103.5zM929 78 q0 41 6.5 81t17.5 88l175 797h178l-199 -927h153v-55q-42 -33 -101.5 -53.5t-114.5 -20.5q-60 0 -87.5 27t-27.5 63z" />
<glyph unicode="&#x44c;" horiz-adv-x="929" d="M111 205q0 67 17.5 153.5t46 181.5t61.5 193t65 190l-126 19v52q32 15 73 27.5t82.5 23t82 17t71.5 8.5l46 -26q-50 -131 -96.5 -254.5t-94.5 -273.5h8q56 69 147.5 118t192.5 49q32 0 66 -10.5t62.5 -34.5t47 -62.5t18.5 -95.5q0 -93 -43.5 -184t-115.5 -162.5 t-167 -115.5t-198 -44q-113 0 -179.5 56t-66.5 175zM291 219q0 -73 34 -114t99 -41q58 0 108 34t88 85t59 114.5t23 126.5q-2 38 -14.5 62t-31 39.5t-41.5 22t-43 6.5q-73 0 -141.5 -39t-102.5 -87q-18 -56 -27.5 -105.5t-9.5 -103.5z" />
<glyph unicode="&#x44d;" horiz-adv-x="971" d="M-26 75q3 28 13.5 56t27.5 55t37.5 50t45.5 37l143 -198q16 -4 38 -7.5t36 -3.5q58 0 118 30.5t110.5 87t88.5 138t58 184.5l-395 -51q-10 27 -10 67t10 66h403q2 17 3 37.5t1 38.5q0 146 -60 232t-166 86q-16 0 -44.5 -3.5t-49.5 -7.5q-29 -34 -67 -88t-68 -96 q-19 9 -37 29.5t-30.5 47.5t-16.5 59t4 61q40 26 129 57t232 31q166 0 268.5 -98.5t102.5 -269.5q0 -161 -45 -295t-123.5 -229.5t-184 -149.5t-225.5 -54q-117 0 -206 27t-141 74z" />
<glyph unicode="&#x44e;" horiz-adv-x="1495" d="M90 0l183 923l-127 19l-2 52q29 15 68 28.5t80 24t79 17t68 6.5l41 -26l-98 -470h188q21 94 65 183t109 158t150.5 112t189.5 43q163 0 245.5 -100.5t82.5 -297.5q0 -138 -40.5 -264t-114 -222t-174.5 -154t-222 -58q-146 0 -229.5 104t-83.5 311q0 46 6 95h-189 l-100 -484h-175zM727 343q0 -124 46 -201.5t124 -77.5q73 0 132 55.5t102 146.5t66 205.5t23 232.5q0 123 -42 198.5t-136 77.5q-91 -2 -152 -67t-96.5 -161t-51 -206.5t-15.5 -202.5z" />
<glyph unicode="&#x44f;" horiz-adv-x="1048" d="M-60 60v55h98q35 26 81 70.5t91 93.5t84.5 97t64.5 84q-38 8 -72 29t-61 52t-44 73t-17 94q0 77 39 141t105.5 110t156.5 72t194 26q27 0 65 -1t75 -4t74 -8.5t66 -13.5l-182 -913h155v-55q-42 -33 -101.5 -53.5t-117.5 -20.5q-61 0 -87.5 25t-26.5 54q0 38 9 85t19 95 l42 206l-144 -21q-44 -77 -110 -174t-141 -176q-48 -52 -90 -73t-85 -21q-44 0 -80 22t-60 50zM353 690q0 -80 61.5 -131t193.5 -51h52l96 447q-28 4 -67 8t-65 4q-56 0 -105 -21t-86.5 -57t-58.5 -87.5t-21 -111.5z" />
<glyph unicode="&#x451;" horiz-adv-x="947" d="M84 349q0 148 41.5 279.5t116.5 230t182.5 155t239.5 56.5q100 0 172.5 -51.5t72.5 -151.5q0 -148 -147.5 -233.5t-474.5 -111.5q-9 -35 -12.5 -68.5t-3.5 -64.5q0 -126 64 -205.5t187 -79.5q40 0 79 13t73 31.5t62.5 39.5t48.5 37l34 -39q-18 -40 -54 -77.5t-84 -68 t-108.5 -48.5t-129.5 -18q-174 0 -266.5 99.5t-92.5 275.5zM301 612q203 6 315.5 70t112.5 177q0 44 -26 81.5t-103 39.5q-90 -2 -167.5 -84.5t-131.5 -283.5zM346 1383q0 50 31.5 80t83.5 30q50 0 81.5 -30t31.5 -80q0 -48 -31.5 -77.5t-81.5 -29.5q-52 0 -83.5 29.5 t-31.5 77.5zM768 1383q0 50 31.5 80t81.5 30q52 0 83.5 -30t31.5 -80q0 -48 -31.5 -77.5t-83.5 -29.5q-50 0 -81.5 29.5t-31.5 77.5z" />
<glyph unicode="&#x452;" d="M73 0l226 1130h-171l27 108h164l40 187l-142 18v48q32 12 70 26t79 25.5t82 19t76 9.5l44 -19l-69 -314h356l-26 -108h-351l-98 -455h11q81 168 188.5 250t222.5 82q96 0 143 -52t47 -136q0 -54 -4 -91.5t-17 -97.5l-136 -630q-31 -115 -82 -194t-107 -131.5t-110 -81 t-87 -36.5l-25 46q26 12 60 44t67 81t63 116.5t48 155.5l127 596q13 62 18.5 98.5t5.5 74.5q0 48 -25 78t-61 30q-56 0 -113.5 -36.5t-106.5 -89.5t-88 -113t-60 -106l-110 -532h-176z" />
<glyph unicode="&#x453;" horiz-adv-x="813" d="M34 197q0 71 39.5 129.5t99 109.5t128 95.5t128.5 88.5t99.5 90t39.5 97q0 54 -22 93.5t-95 39.5q-74 0 -139 -38.5t-105 -78.5l-32 36q17 31 50.5 67.5t80.5 69t102.5 53.5t115.5 21q122 0 181.5 -59.5t59.5 -137.5q0 -77 -40 -137.5t-99.5 -112t-128.5 -96.5 t-128.5 -89.5t-99 -93.5t-39.5 -106q0 -54 35.5 -94t123.5 -40q77 0 145 34.5t120 76.5l29 -31q-27 -38 -68 -75.5t-94 -68t-115.5 -48.5t-132.5 -18q-48 0 -91.5 17t-77 46.5t-52 70.5t-18.5 89zM522 1238l265 364q17 2 44.5 -1t56.5 -9.5t54 -15.5t37 -19v-40l-411 -315z " />
<glyph unicode="&#x454;" horiz-adv-x="914" d="M84 343q0 148 41.5 272.5t114.5 217t171.5 151t210.5 77.5q48 8 103 9q80 -2 127 -14t71 -35q2 -23 -3 -51t-18 -55.5t-29 -50t-36 -31.5l-141 147q-61 0 -122.5 -26.5t-116 -76.5t-96.5 -126t-62 -181l388 30q5 -28 -0.5 -57t-22.5 -56h-375q-2 -26 -3 -51t-1 -54 q-2 -143 68.5 -210.5t172.5 -67.5q44 0 83 13t72 31.5t60.5 39.5t47.5 37l32 -39q-23 -40 -58.5 -77.5t-85 -68t-108.5 -48.5t-130 -18q-76 0 -141.5 26t-112.5 73.5t-74 115.5t-27 154z" />
<glyph unicode="&#x455;" horiz-adv-x="873" d="M14 38q10 54 25 105t61 95l189 -174q44 0 86.5 11t77 34t56 56.5t23.5 81.5q-2 50 -28 86t-66.5 70t-86.5 67.5t-87 73.5t-67 94t-26 129q0 76 29.5 132t81 93.5t123 57.5t157.5 20q54 0 122 -9.5t129 -45.5q0 -24 -8.5 -54t-22 -58t-30.5 -52t-36 -32l-154 161 q-44 -2 -81.5 -10.5t-65.5 -27.5t-44 -49t-16 -76q0 -54 27 -93t68 -73.5t87.5 -66.5t87.5 -73t68.5 -94.5t27.5 -125.5q0 -76 -34.5 -134.5t-94.5 -99.5t-138 -62t-165 -21q-88 0 -160.5 18t-114.5 46z" />
<glyph unicode="&#x456;" horiz-adv-x="578" d="M113 78q0 41 6 81t17 88l145 674l-133 21v52q31 13 71 26.5t82 24t79.5 18t66.5 7.5l37 -26l-195 -927h154v-55q-44 -33 -103 -53.5t-115 -20.5q-60 0 -86 27t-26 63zM316 1406q0 54 33.5 85.5t87.5 31.5q58 0 91.5 -31t33.5 -86q0 -52 -33.5 -81.5t-91.5 -29.5 q-54 0 -87.5 29.5t-33.5 81.5z" />
<glyph unicode="&#x457;" horiz-adv-x="644" d="M132 78q0 41 6 81t17 88l148 674l-136 21v52q32 13 71 26.5t81 24t80 18t67 7.5l38 -26l-195 -927h153v-55q-42 -33 -101.5 -53.5t-113.5 -20.5q-60 0 -87.5 27t-27.5 63zM146 1412q0 50 31.5 80.5t79.5 30.5q52 0 82 -30t30 -81q0 -48 -31 -77t-81 -29t-80.5 29 t-30.5 77zM484 1412q0 50 31 80.5t81 30.5t81 -30t31 -81q0 -48 -31 -77t-81 -29t-81 29t-31 77z" />
<glyph unicode="&#x458;" horiz-adv-x="574" d="M-153 -397q25 12 59 43t67 84t65.5 132.5t55.5 187.5l183 873l-124 19v52q64 30 143.5 53t144.5 23l41 -26l-203 -954q-31 -148 -86 -246.5t-116 -159t-116 -90t-89 -37.5zM305 1406q0 54 33.5 85.5t87.5 31.5q58 0 91.5 -31t33.5 -86q0 -52 -33.5 -81.5t-91.5 -29.5 q-54 0 -87.5 29.5t-33.5 81.5z" />
<glyph unicode="&#x459;" horiz-adv-x="1463" d="M-60 104q0 34 8 65.5t29 57.5l171 -70q40 50 82.5 137.5t81.5 193.5t72.5 218.5t54.5 212.5q-44 10 -92 30t-72 41v54h736q-38 -127 -71 -252.5t-67 -275.5h8q56 69 147.5 118t191.5 49q32 0 67 -10.5t63.5 -34.5t47.5 -62.5t19 -95.5q0 -93 -44 -184t-116.5 -162.5 t-167.5 -115.5t-198 -44q-113 0 -179 56t-66 175q0 67 15.5 160t39.5 194t52 203.5t54 192.5h-259q-26 -113 -60.5 -237t-77.5 -243.5t-94 -223t-111 -173.5q-50 -61 -106.5 -83.5t-124.5 -20.5q-16 21 -26 55.5t-8 74.5zM825 219q0 -73 35 -114t99 -41q58 0 108.5 34 t87.5 85t58 114.5t23 126.5q-2 38 -14 62t-32 39.5t-42 22t-41 6.5q-74 0 -142 -39t-102 -87q-18 -56 -28 -105.5t-10 -103.5z" />
<glyph unicode="&#x45a;" horiz-adv-x="1547" d="M90 0l183 923l-127 19l-2 52q29 15 68 28.5t80 24t79 17t68 6.5l41 -26l-98 -470h405l94 470h187q-28 -125 -56 -251.5t-53 -276.5h8q54 69 146.5 118t192.5 49q31 0 65.5 -10.5t63 -34.5t46.5 -62.5t18 -95.5q0 -93 -43.5 -184t-115.5 -162.5t-167 -115.5t-198 -44 q-113 0 -179.5 56t-66.5 175q0 12 6.5 49t13.5 79.5t15.5 84.5t14.5 66h-414l-100 -484h-175zM909 219q0 -73 34 -114t99 -41q59 0 109.5 34t87.5 85t58 114.5t23 126.5q-2 38 -14.5 62t-31 39.5t-40.5 22t-42 6.5q-37 0 -73.5 -11t-70 -28.5t-59.5 -40t-42 -46.5 q-19 -56 -28.5 -105.5t-9.5 -103.5z" />
<glyph unicode="&#x45b;" horiz-adv-x="1134" d="M71 0l228 1130h-171l25 108h166l38 187l-142 18v48q32 12 70 26t80 25.5t82 19t75 9.5l44 -19l-67 -314h356l-28 -108h-351l-98 -455h11q81 168 187.5 250t232.5 82q96 0 139.5 -55t43.5 -137q0 -38 -4 -81.5t-19 -103.5l-118 -513h154v-55q-42 -33 -100.5 -53.5 t-117.5 -20.5q-60 0 -83 25t-23 54q0 38 10.5 85t20.5 95l75 349q15 62 20.5 95.5t5.5 71.5q0 48 -21 81t-59 33q-64 0 -122.5 -36.5t-108 -89.5t-87 -113t-58.5 -106l-110 -532h-176z" />
<glyph unicode="&#x45c;" horiz-adv-x="1066" d="M90 0l181 923l-146 19v52q61 28 147.5 49.5t159.5 26.5l44 -23l-94 -475h61q44 28 93.5 67.5t96 81.5t84 80t56.5 66q2 14 3 39t0 51.5t-2 50.5t-3 36q78 28 150 28q73 0 123 -28q-29 -64 -88 -132t-127.5 -129.5t-133.5 -112t-101 -76.5q14 -40 48.5 -104t75 -132.5 t82.5 -133.5t71 -109h132v-53q-42 -33 -91 -53.5t-103 -20.5q-50 0 -87 25t-74 85q-68 113 -116 212t-89 187l-76 21l-98 -518h-179zM572 1238l265 364q17 2 44.5 -1t56.5 -9.5t54 -15.5t37 -19v-40l-411 -315z" />
<glyph unicode="&#x45e;" horiz-adv-x="949" d="M-32 -403q-2 24 5 53t20 58t35 54t50 39l169 -88q14 11 37 31t48 54.5t50 83.5t48 118l-246 923l-134 17v52q10 9 34 21.5t55.5 25t65 22t62.5 9.5q44 0 64 -22t30 -58l173 -731l7 -125h5l48 123q27 58 55 128t55 141.5t50 140t40 127.5q0 23 -5.5 60t-11.5 75 t-12.5 70.5t-10.5 44.5q29 13 63 19.5t64 6.5q63 0 111 -26q-64 -259 -176 -518t-248 -526q-113 -219 -225.5 -328t-254.5 -109q-32 0 -60 8.5t-60 25.5zM327 1427q33 25 73 39.5t84 18.5l52 -26v-162q12 -10 32 -18.5t53 -8.5q92 0 161 57.5t96 137.5q19 0 41 -10t32 -24 q-12 -44 -40.5 -90t-72 -83.5t-102.5 -62.5t-134 -25q-94 0 -150 28t-85.5 68t-37 83.5t-2.5 77.5z" />
<glyph unicode="&#x45f;" horiz-adv-x="1132" d="M111 171q0 46 14.5 136t35.5 196.5t45 218t43 201.5l-128 19v52q34 13 72.5 25.5t77 23t74 18t64.5 9.5l46 -26q-34 -157 -68 -297.5t-64 -297.5q-10 -50 -21 -112t-11 -134q0 -44 24 -71.5t54 -27.5q46 0 92.5 27.5t87.5 71.5t77 97t65.5 105.5t49 97.5t30.5 71l92 470 h173l-171 -927h154v-55q-42 -33 -101 -53.5t-116 -20.5q-60 0 -86 25t-26 54q0 38 10 126.5t46 215.5h-9q-27 -58 -68 -133t-97 -142t-128 -113.5t-159 -46.5q-74 0 -124 52t-50 145zM380 -437q38 19 48.5 46.5t7 59.5t-11.5 70t-8 75q-2 74 34.5 120t131.5 84l30 -30 q-34 -26 -41 -58t-2 -67.5t15 -73.5t12 -74q-2 -85 -59 -129t-142 -60z" />
<glyph unicode="&#x462;" horiz-adv-x="1491" d="M165 883q2 42 8.5 95.5t15 107.5t17.5 106.5t19 94.5h456l23 108q-42 9 -83 21.5t-75 30.5l12 60h556l-13 -60q-90 -35 -196 -52l-24 -108h533q-17 -81 -43 -176.5t-55 -181.5h-54l-54 249h-347l-72 -330q40 6 94.5 10.5t96.5 4.5q102 0 187 -19t145.5 -59.5t92.5 -106.5 t32 -160q0 -125 -49 -223t-136.5 -165.5t-212 -101.5t-274.5 -34q-10 0 -39.5 1t-68.5 2t-79.5 2t-71.5 1h-268l11 60q90 38 183 51l228 1067h-269l-172 -295h-54zM633 113q9 -4 28.5 -5.5t41.5 -3.5t43 -2h33q74 0 151 19t140.5 67t104.5 130.5t39 207.5q2 50 -14 92 t-51 72.5t-93.5 47t-142.5 16.5q-50 0 -83.5 -3t-62.5 -9z" />
<glyph unicode="&#x463;" horiz-adv-x="1421" d="M90 0l195 923l-128 19v52q69 36 149.5 56t138.5 20l44 -26l-92 -369h8q25 58 64 127t90 128.5t111.5 99.5t127.5 40q25 0 50 -8.5t44 -28.5t31.5 -52t12.5 -80q0 -34 -11.5 -81t-27.5 -99.5t-34.5 -105.5t-31.5 -99h8q57 69 149 118t192 49q32 0 66 -10.5t62.5 -34.5 t47.5 -62.5t19 -95.5q0 -93 -44 -184t-116.5 -162.5t-167 -115.5t-196.5 -44q-114 0 -180.5 54t-66.5 154q0 62 24 160.5t54 198t54 184t24 119.5q0 50 -16.5 73t-58.5 23q-35 0 -78 -39.5t-86 -100t-79.5 -131.5t-61.5 -137l-111 -532h-179zM773 192q0 -52 40 -90t104 -38 q56 0 106.5 34t88 85t59 114.5t23.5 126.5q-2 38 -14 62t-31 39.5t-42 22t-42 6.5q-74 0 -142 -39t-102 -87q-18 -56 -33 -108.5t-15 -127.5z" />
<glyph unicode="&#x472;" horiz-adv-x="1524" d="M138 580q0 190 57.5 355.5t166 287.5t261 193t344.5 71q153 0 257.5 -50t168 -131.5t92 -187t28.5 -217.5q0 -168 -47 -334t-145.5 -297.5t-248 -213.5t-353.5 -82q-150 0 -260 49.5t-181 132t-105.5 192t-34.5 232.5zM361 578q0 -115 30.5 -207t83.5 -156.5t125 -98.5 t158 -32q123 -2 214 50t152.5 136.5t97.5 194t50 227.5q-69 -63 -146 -86.5t-125 -23.5q-56 0 -104.5 23t-95.5 49.5t-94 49.5t-101 23q-44 0 -113 -13.5t-130 -63.5q-2 -17 -2 -36v-36zM372 725q63 54 127.5 87.5t112.5 50.5q26 8 48.5 11t41.5 3q56 0 102.5 -23t91 -49 t90.5 -48t100 -22q34 0 91 5.5t105 28.5q6 69 7 134q0 106 -24 193.5t-72.5 150.5t-118 97.5t-161.5 34.5q-126 0 -220.5 -57.5t-161.5 -150.5t-105.5 -210t-53.5 -236z" />
<glyph unicode="&#x473;" horiz-adv-x="1062" d="M86 389q0 111 34.5 231t105.5 220t177.5 165t248.5 65q163 0 245.5 -100.5t82.5 -297.5q0 -138 -39.5 -264t-111 -222t-171.5 -154t-221 -58q-162 0 -256.5 104t-94.5 311zM273 343q0 -124 54.5 -201.5t146.5 -77.5q58 0 106 36t86 96.5t64 141t41 170.5 q-54 -36 -98.5 -49.5t-80.5 -13.5q-34 0 -61 11.5t-52.5 25t-50 25t-52.5 11.5q-39 0 -97 -31q-6 -76 -6 -144zM293 568q58 36 105 49t80 13q34 0 60 -10t50 -24t48 -24t54 -10q16 0 41 5t50 19q6 57 6 118q0 123 -42.5 198.5t-134.5 77.5q-76 -2 -130 -37.5t-91.5 -93 t-60.5 -130.5t-35 -151z" />
<glyph unicode="&#x474;" horiz-adv-x="1437" d="M199 1401l12 62h556l-13 -62q-42 -16 -88 -28.5t-96 -23.5l134 -898l10 -166h5l60 166q72 148 158.5 296t174.5 276t132.5 182.5t48.5 60.5q78 94 138 148q46 40 87 54.5t80 18.5q17 -6 29.5 -28t22 -50t14.5 -59.5t5 -60.5q0 -12 -1 -25.5t-3 -25.5l-44 -50l-188 57 q-86 -95 -191.5 -240.5t-211 -316t-201.5 -355.5t-165 -359h-82l-235 1375q-38 11 -75.5 22.5t-72.5 29.5z" />
<glyph unicode="&#x475;" horiz-adv-x="1006" d="M32 940v52q12 9 37 22.5t55.5 26t62.5 21t62 8.5q46 0 66 -23t26 -57l96 -679l10 -131h4l61 143q38 82 77 167.5t84.5 169.5t96.5 160.5t109 142.5q46 52 102.5 76t98.5 26q16 0 23 -2q25 -24 39 -70t14 -94v-17.5t-3 -16.5l-39 -54l-189 44q-75 -94 -143 -208.5 t-128 -230t-111.5 -225t-91.5 -191.5l-132 -26l-154 949z" />
<glyph unicode="&#x48a;" horiz-adv-x="1561" d="M-42 0l10 60q92 38 185 51l261 1238q-40 11 -81.5 22.5t-79.5 29.5l14 62h529l-13 -62q-35 -16 -78 -28.5t-91 -23.5l-192 -906l-55 -156l128 168l798 844l11 50q-46 11 -86 23.5t-72 28.5l14 62h528l-13 -62q-42 -16 -88 -28.5t-94 -23.5l-263 -1241h226l19 -14 q-8 -42 -42 -100t-80.5 -119t-103.5 -113.5t-109 -76.5h-56l166 315h-399l10 60q36 14 79.5 28t91.5 23l192 904l54 157l-116 -159l-813 -856l-8 -46q46 -8 85.5 -20.5t70.5 -30.5l-10 -60h-529zM687 1761q34 27 93 41t103 18l53 -28v-138q15 -10 33.5 -18.5t51.5 -8.5 q46 0 94.5 12.5t89 34.5t72 53t43.5 71q20 0 42.5 -8t32.5 -22q-14 -44 -49.5 -87t-88.5 -77.5t-123 -55.5t-154 -21q-85 0 -144 24t-93.5 60.5t-47 77.5t-8.5 72z" />
<glyph unicode="&#x48b;" horiz-adv-x="1134" d="M111 171q0 46 14.5 136t35.5 196.5t45 218t43 201.5l-128 19v52q34 13 72.5 25.5t77 23t74 18t64.5 9.5l46 -26q-34 -157 -68 -297.5t-64 -297.5q-10 -50 -21 -112t-11 -134q0 -44 24 -71.5t54 -27.5q46 0 92.5 27.5t87.5 71.5t77 97t65.5 105.5t49 97.5t30.5 71l92 470 h173l-171 -929h154v-65q-26 -23 -39 -52.5t-19 -63.5t-7 -70.5t-3 -72.5q-2 -56 -24 -93t-57 -61t-78.5 -36t-87.5 -21l-14 42q37 10 59 31.5t33.5 45.5t13.5 50t2 46q-2 73 38.5 129t101.5 110l-7 6q-25 -19 -68.5 -35.5t-81.5 -16.5q-46 0 -68.5 25t-22.5 54 q0 38 10 126.5t46 215.5h-9q-27 -58 -68 -133t-97 -142t-128 -113.5t-159 -46.5q-74 0 -124 52t-50 145zM435 1427q33 25 73 39.5t84 18.5l52 -26v-162q12 -10 32 -18.5t53 -8.5q92 0 161 57.5t96 137.5q19 0 41 -10t32 -24q-12 -44 -40.5 -90t-72 -83.5t-102.5 -62.5 t-134 -25q-94 0 -150 28t-85.5 68t-37 83.5t-2.5 77.5z" />
<glyph unicode="&#x48c;" horiz-adv-x="1288" d="M36 0l10 60q90 38 184 51l202 967h-265l21 108h270l33 163q-42 9 -82 22.5t-79 29.5l15 62h556l-14 -62q-41 -16 -91 -30.5t-104 -21.5l-34 -163h405l-21 -108h-409l-41 -207q39 8 94.5 11t96.5 3q209 0 330 -85.5t121 -243.5q0 -150 -53 -257t-143.5 -175t-213 -99 t-262.5 -31q-10 0 -39.5 1t-68 2t-79 2t-72.5 1h-267zM430 113q9 -4 28.5 -5.5t41.5 -3.5t43 -2h31q96 -2 176.5 25.5t139.5 83.5t91 143t30 206q2 44 -12.5 83.5t-48 70t-90.5 47t-141 16.5q-50 0 -85.5 -3t-65.5 -9z" />
<glyph unicode="&#x48d;" horiz-adv-x="929" d="M73 938l27 109h175q30 125 56 231.5t38 166.5l-126 20v52q31 14 70.5 27t80.5 23t79.5 16.5t69.5 8.5l41 -25q-10 -34 -24 -88t-31 -123t-36 -148.5t-38 -160.5h347l-25 -109h-347q-29 -131 -53 -246.5t-36 -175.5h8q56 69 146.5 118t191.5 49q32 0 66 -10.5t62.5 -34.5 t47 -62.5t18.5 -95.5q0 -93 -43.5 -184t-115.5 -162.5t-167 -115.5t-198 -44q-113 0 -179.5 56t-66.5 175q0 40 12.5 117t32 177.5t44.5 214t51 224.5h-178zM291 219q0 -73 34 -114t99 -41q58 0 108 34t88 85t59 114.5t23 126.5q-2 38 -14.5 62t-31 39.5t-40.5 22t-42 6.5 q-37 0 -73.5 -11t-70 -28.5t-59.5 -40t-43 -46.5q-18 -56 -27.5 -105.5t-9.5 -103.5z" />
<glyph unicode="&#x48e;" horiz-adv-x="1221" d="M-42 0l10 60q48 21 93 31.5t92 19.5l261 1238q-46 9 -85.5 22.5t-75.5 29.5l14 62h188q84 0 183 8t189 8q100 0 184.5 -20t144.5 -62.5t93 -106.5t33 -152q0 -183 -97 -322t-272 -204l71 -169l-117 -48l-78 183q-35 -8 -73.5 -11t-80.5 -3h-33.5t-51.5 1t-55 3t-46 4 l-96 -461q54 -6 101.5 -19.5t86.5 -31.5l-11 -60h-572zM474 683q10 -2 30 -4t42 -3t42 -2.5t32 -1.5q70 0 130 13l-108 270l106 44l111 -272q100 54 150 159.5t50 249.5q0 52 -11.5 95t-44 74.5t-87.5 48t-143 16.5q-50 0 -88.5 -3t-68.5 -7z" />
<glyph unicode="&#x48f;" horiz-adv-x="1132" d="M2 -399l90 415l195 907l-128 19v52q69 30 145 53t143 23l42 -26l-86 -367h8q38 84 83 155t97.5 124t113 83.5t128.5 30.5q46 0 88 -18t73.5 -54.5t49 -90.5t17.5 -126q0 -104 -21 -202.5t-58 -186t-90 -161.5t-117 -129l138 -194l-90 -61l-138 195q-108 -68 -234 -68 q-36 0 -61 3t-43.5 8t-36 13t-39.5 18l-68 -321q73 -12 146 -52v-61h-329zM293 113q29 -25 61.5 -37t103.5 -12q84 0 164 70l-135 194l83 63l126 -180q37 50 68.5 112t53 129.5t34.5 138.5t13 140q0 100 -34.5 154.5t-95.5 54.5q-60 0 -114.5 -47t-101.5 -114t-84.5 -141 t-60.5 -130z" />
<glyph unicode="&#x490;" horiz-adv-x="1037" d="M-42 0l10 60q48 24 93 35t92 16l261 1238q-42 11 -83.5 21.5t-77.5 30.5l14 62h794l171 283h55q-4 -44 -10.5 -95t-15.5 -104.5t-19 -103.5t-20 -89h-606l-263 -1243q48 -4 96 -17.5t92 -33.5l-11 -60h-572z" />
<glyph unicode="&#x491;" horiz-adv-x="861" d="M92 0l201 942q-72 13 -126 48v54h598l146 253h54q-6 -87 -21 -184.5t-33 -172.5h-427l-205 -940h-187z" />
<glyph unicode="&#x492;" horiz-adv-x="1058" d="M-62 0l10 60q94 36 184 51l123 579h-186l23 108h183l120 551q-42 9 -82 22.5t-79 29.5l13 62h977q-8 -42 -21 -96.5t-28 -113.5t-32 -114t-31 -99h-53l-42 314h-421l-120 -556h316l-23 -108h-314l-122 -579q47 -8 96 -20.5t91 -30.5l-10 -60h-572z" />
<glyph unicode="&#x493;" horiz-adv-x="979" d="M48 420l27 108h172l83 395q-35 6 -74 27t-55 40v54h781q-18 -81 -42.5 -165.5t-54.5 -170.5h-54l-39 247h-284l-90 -427h298l-26 -108h-293l-90 -420h-173l87 420h-173z" />
<glyph unicode="&#x494;" horiz-adv-x="1273" d="M-42 0l10 60q94 36 185 51l261 1238q-42 9 -81.5 22.5t-79.5 29.5l14 62h978q-10 -42 -22.5 -96.5t-27.5 -110.5t-32 -113t-31 -101h-54l-42 312h-422l-123 -585q62 32 152 63t210 31q96 0 160.5 -22t105.5 -63t58 -98.5t17 -125.5q0 -150 -42.5 -287t-122.5 -243 t-194 -173.5t-259 -80.5v57q106 37 184.5 107t131.5 161t77.5 199.5t24.5 227.5q0 113 -42.5 172.5t-166.5 59.5q-87 0 -167.5 -25t-147.5 -61l-117 -557q48 -8 95 -20.5t89 -30.5l-13 -60h-566z" />
<glyph unicode="&#x495;" horiz-adv-x="1016" d="M90 0l197 921q-36 6 -71.5 28t-52.5 41v54h790q-17 -81 -41.5 -165.5t-52.5 -170.5h-52l-44 247h-283l-125 -579q69 86 148 139t189 53q100 0 155.5 -58.5t55.5 -158.5q0 -111 -35 -236t-102.5 -238t-169 -199.5t-233.5 -120.5l-24 46q83 44 154 124.5t122 177.5 t79.5 200.5t28.5 195.5q0 60 -28.5 99t-82.5 39q-78 0 -150.5 -39t-122.5 -109l-62 -291h-187z" />
<glyph unicode="&#x496;" horiz-adv-x="2033" d="M-75 0l11 52l108 50q94 84 181.5 174.5t168 182t152.5 174.5t133 152l-268 564q-84 24 -136 52l14 62h444l-12 -62q-64 -31 -153 -52l239 -562h144l119 562q-42 13 -75.5 25.5t-63.5 26.5l14 62h482l-13 -62q-28 -12 -64 -25.5t-82 -26.5l-124 -578l141 29l465 549 q-37 11 -70.5 23.5t-68.5 28.5l12 62h474l-12 -62q-42 -16 -85 -28.5t-84 -23.5l-508 -566q33 -64 74 -147.5t89 -173.5t102.5 -182t112.5 -174h165q-8 -42 -24 -97t-34.5 -112.5t-37.5 -112.5t-35 -99h-54l-14 315h-133l-58 52q-48 71 -88 150.5t-76.5 162t-70 167 t-70.5 168.5h-126l-125 -589q33 -10 64.5 -21.5t60.5 -29.5l-10 -60h-485l11 60q73 36 163 51l127 605l-144 -29q-50 -71 -108 -151.5t-122.5 -163.5t-134.5 -166t-148 -154l-80 -52h-274z" />
<glyph unicode="&#x497;" horiz-adv-x="1641" d="M-46 14q-4 28 2 59t21 59.5t38 52.5t52 36l90 -123q46 12 91 57.5t78 121.5t54 182.5t19 242.5q2 119 -25 172t-89 53q-78 0 -141 -58l-23 30q54 75 119 116.5t151 41.5q44 0 78.5 -22t59.5 -59.5t37 -87t12 -101.5q0 -113 -18 -215h192l96 472h169l-98 -472h193 q27 106 72.5 195.5t103 154t127.5 100t146 35.5q56 0 79 -7.5t50 -19.5q2 -23 -3 -51t-20 -56t-36.5 -54.5t-53.5 -43.5l-90 122q-38 -11 -79.5 -55t-77 -120t-58 -184t-20.5 -245q-2 -120 34 -173t101 -53q36 0 64 14.5t58 43.5l22 -29l-24 -38q-30 -46 -39 -87t-9 -81 t3 -77.5t1 -71.5q-2 -56 -24 -93t-57 -61t-77.5 -36t-86.5 -21l-14 42q37 10 59 31.5t32.5 45.5t12.5 50t2 46q0 73 28 126t93 113l-4 4q-73 -50 -151 -50q-54 0 -93 22t-64 59t-36 86.5t-11 103.5q0 58 4 113.5t12 109.5h-187l-99 -482h-167l98 482h-192 q-30 -108 -75.5 -199t-105 -157t-129.5 -102t-145 -36q-58 0 -82 8t-50 18z" />
<glyph unicode="&#x498;" horiz-adv-x="1168" d="M20 58q7 34 20.5 78t31.5 90.5t37 93.5t37 85h53l26 -290q13 -6 37.5 -12.5t54.5 -11.5t61 -7t59 -2q89 0 165.5 25t133 76t88 129.5t33.5 184.5q-2 106 -76.5 154.5t-198.5 48.5l-164 -23q0 30 4 61t19 60h67q36 0 88 3t87 8q59 20 109 56t85.5 82.5t56.5 101t23 115.5 q-2 119 -58.5 167t-194.5 48q-62 0 -105 -12.5t-69 -27.5l-163 -255h-54q2 40 4 78t6.5 75t13 77t20.5 87q84 48 188.5 67t194.5 19q83 0 159 -16.5t133.5 -53t91.5 -92t34 -133.5q0 -54 -15 -111t-53.5 -111.5t-105.5 -103.5t-171 -85v-8q42 -6 85.5 -25t79 -53.5 t57.5 -82.5t22 -110q0 -224 -142 -361t-397 -161q-29 -88 -65.5 -183.5t-85.5 -195.5h-54q0 96 2 190t10 189q-93 8 -172.5 29t-132.5 49z" />
<glyph unicode="&#x499;" horiz-adv-x="916" d="M-26 75q3 28 13.5 56t27.5 55t37.5 50t45.5 37l143 -198q16 -4 43 -7.5t44 -3.5q48 0 98 19t91 53.5t67 85.5t28 115q-2 83 -46 120.5t-148 54.5l-147 -38q-10 28 -9 57t9 55h149q113 36 169.5 108.5t54.5 138.5q2 63 -38 103.5t-130 43.5q-16 0 -45.5 -3.5t-50.5 -7.5 q-29 -36 -66 -89t-67 -95q-19 9 -37 29.5t-30.5 47.5t-16.5 59t4 61q19 12 50.5 27t78.5 28.5t107.5 23t139.5 9.5q58 0 110.5 -13t92 -38t62.5 -62.5t23 -87.5q0 -199 -279 -301q64 0 111 -19t77.5 -48t45 -67.5t14.5 -76.5q0 -69 -26 -131.5t-76 -113t-122 -84.5t-162 -46 q-29 -26 -33.5 -57t0 -65.5t13.5 -71.5t9 -73q0 -85 -56 -129t-142 -60l-15 37q37 19 48 46.5t9 59.5t-11 70t-9 75q-2 54 16 92t64 68q-113 3 -199 28.5t-134 72.5z" />
<glyph unicode="&#x49a;" horiz-adv-x="1390" d="M-42 0l10 60q94 38 185 51l261 1238q-46 9 -86.5 21.5t-74.5 30.5l14 62h529l-13 -62q-71 -33 -169 -52l-121 -578l125 29l502 549q-42 11 -75.5 22.5t-64.5 29.5l14 62h475l-15 -62q-38 -18 -84 -30.5t-85 -21.5l-541 -564q37 -69 85 -152t103.5 -172t114 -180 t117.5 -175h156q-8 -42 -24 -97t-34.5 -112.5t-37 -112.5t-36.5 -99h-54l-12 315h-128l-61 50q-94 144 -181.5 311t-165.5 339h-110l-123 -589q86 -16 144 -51l-10 -60h-529z" />
<glyph unicode="&#x49b;" d="M90 0l181 923l-146 19v52q61 28 147.5 49.5t159.5 26.5l44 -23l-94 -475h61q44 28 93.5 67.5t96 81.5t84 80t56.5 66q2 14 3 39t0 51.5t-2 50.5t-3 36q78 28 150 28q73 0 123 -28q-29 -64 -88 -132t-127.5 -129.5t-133.5 -112t-101 -76.5q14 -40 48.5 -104t75 -132.5 t82.5 -133.5t71 -109h157v-65q-25 -23 -39 -52.5t-20 -63.5t-8 -70.5t-4 -72.5q-2 -56 -24 -93t-56.5 -61t-77.5 -36t-87 -21l-14 42q37 10 58 31.5t32.5 45.5t13.5 50t2 46q0 73 39.5 129t98.5 110l-6 6q-25 -19 -67 -35.5t-77 -16.5h-3q-39 0 -71.5 25t-69.5 85 q-68 113 -116 212t-89 187l-76 21l-98 -518h-179z" />
<glyph unicode="&#x49c;" horiz-adv-x="1471" d="M-42 0l10 60q94 36 185 51l261 1238q-90 13 -161 52l14 62h529l-13 -62q-71 -33 -169 -52l-121 -580l101 10l68 337h109l-69 -327l61 11l501 549q-42 11 -78.5 23.5t-61.5 28.5l12 62h475l-13 -62q-44 -18 -87.5 -30.5t-83.5 -21.5l-540 -562q38 -69 87.5 -153 t103.5 -174.5t113 -182t119 -175.5l87 -50l-10 -52h-249l-62 50q-94 144 -181.5 313t-165.5 341h-46l-69 -324h-106l66 324h-98l-123 -593q90 -16 144 -51l-10 -60h-529z" />
<glyph unicode="&#x49d;" horiz-adv-x="1188" d="M90 0l181 923l-146 19v52q61 28 147.5 49.5t159.5 26.5l44 -23l-94 -475h100l61 276h99l-60 -276h48q44 28 85 67.5t76.5 81.5t62.5 80t47 66q2 14 3 39t0 51.5t-2 50.5t-3 36q77 28 150 28q75 0 125 -28q-30 -64 -82 -133t-110.5 -130.5t-115.5 -112t-95 -76.5 q14 -40 40 -104t59 -131.5t66 -132.5t65 -109h131v-53q-42 -33 -91 -53.5t-105 -20.5q-50 0 -86.5 25t-72.5 85q-33 56 -57 115.5t-42 114t-28 98.5t-20 71l-64 5l-56 -268h-99l59 276l-103 8l-98 -518h-179z" />
<glyph unicode="&#x49e;" horiz-adv-x="1375" d="M-2 0l10 60q48 19 93 30.5t91 20.5l213 1003h-259l21 100h259l29 135q-90 13 -160 52l12 62h530l-14 -62q-36 -16 -77.5 -28.5t-89.5 -23.5l-30 -135h231l-24 -100h-227l-74 -343l134 29l504 549q-42 11 -76.5 23.5t-63.5 28.5l12 62h473l-13 -62q-43 -18 -87.5 -30.5 t-83.5 -21.5l-537 -562q37 -69 86 -152t103.5 -174.5t113.5 -183t119 -175.5l90 -50l-11 -52h-255l-58 50q-94 144 -181 311t-166 339h-117l-125 -589q42 -8 79.5 -20.5t66.5 -30.5l-11 -60h-530z" />
<glyph unicode="&#x49f;" horiz-adv-x="1004" d="M71 0l232 1170h-175l25 108h170l32 147l-146 18v52q60 28 147 50t160 26l44 -23l-56 -270h351l-28 -108h-345l-119 -598h61q44 28 91 67.5t90 81.5t76 80t52 66q2 14 3 39t0 51.5t-2 50.5t-3 36q78 28 150 28q76 0 126 -28q-28 -69 -84 -138t-121 -128t-127.5 -108.5 t-100.5 -75.5q15 -40 47.5 -104t71 -132.5t81.5 -133.5t79 -107h131v-55q-42 -33 -91 -53.5t-104 -20.5q-49 0 -89 23t-76 83q-67 113 -112.5 214t-87.5 189l-75 21l-98 -518h-180z" />
<glyph unicode="&#x4a0;" horiz-adv-x="1589" d="M184 1059q2 44 9.5 97.5t16.5 107.5t18.5 105.5t18.5 93.5h812l-15 -62q-35 -16 -77 -28.5t-90 -23.5l-123 -578l125 29l504 549q-42 11 -77.5 23.5t-62.5 28.5l13 62h472l-13 -62q-44 -18 -87 -30.5t-82 -21.5l-539 -562q37 -69 86 -153t104 -174.5t113 -182t119 -175.5 l90 -50l-12 -52h-251l-62 50q-93 144 -180 311t-166 339h-108l-126 -589q42 -8 79.5 -20.5t66.5 -30.5l-10 -60h-531l11 60q93 38 184 51l263 1243h-270l-169 -295h-54z" />
<glyph unicode="&#x4a1;" horiz-adv-x="1176" d="M26 723q6 80 16 161t27 160h515l-95 -472h63q44 28 93 67.5t95.5 81.5t84.5 80t56 66q2 14 3 39t0 51.5t-2 50.5t-3 36q78 28 149 28q76 0 125 -28q-30 -64 -89 -132t-127 -129.5t-132.5 -112t-102.5 -76.5q14 -40 48.5 -104t75.5 -132.5t83 -133.5t71 -107h132v-55 q-42 -33 -91.5 -53.5t-103.5 -20.5q-50 0 -87.5 25t-73.5 85q-68 113 -115 212t-89 187l-76 21l-98 -518h-179l190 955h-170l-141 -232h-52z" />
<glyph unicode="&#x4a2;" horiz-adv-x="1531" d="M-42 0l10 60q46 21 92 32.5t93 18.5l261 1238q-94 19 -161 52l14 62h529l-13 -62q-35 -18 -81 -30.5t-88 -21.5l-115 -545h657l116 545q-42 11 -78 22.5t-70 29.5l14 62h529l-13 -62q-41 -20 -88 -31.5t-93 -20.5l-263 -1241h227q-8 -42 -24 -98t-33.5 -113.5 t-37.5 -112.5l-36 -99h-52l-13 315h-412l10 60q40 16 83 29t87 22l123 585h-658l-121 -585q38 -8 75.5 -20.5t68.5 -30.5l-10 -60h-529z" />
<glyph unicode="&#x4a3;" horiz-adv-x="1152" d="M90 0l183 923l-127 19l-2 52q29 15 68 28.5t80 24t79 17t68 6.5l41 -26l-98 -470h405l92 470h176l-184 -927h155v-67q-25 -23 -39 -52.5t-20 -63.5t-8 -70.5t-4 -72.5q-2 -56 -24 -93t-57 -61t-77.5 -36t-86.5 -21l-14 42q37 10 59 31.5t32.5 45.5t12.5 50t2 46 q0 73 40.5 129t102.5 110l-7 6q-27 -19 -71 -35.5t-82 -16.5q-45 0 -69 25t-24 54q0 38 11 86l22 96l46 235h-406l-100 -484h-175z" />
<glyph unicode="&#x4a4;" horiz-adv-x="1896" d="M-42 0l10 60q90 34 185 51l261 1238q-94 15 -161 52l14 62h529l-13 -62q-41 -18 -84 -30.5t-85 -21.5l-115 -545h657l116 545q-34 7 -80 21.5t-68 30.5l14 62h963q-8 -42 -20 -96.5t-28 -113.5t-33 -114t-31 -99h-53l-41 314h-422l-263 -1243q48 -6 97 -19.5t90 -31.5 l-10 -60h-558l10 60q84 40 170 51l125 585h-660l-121 -585q38 -8 75.5 -20.5t68.5 -30.5l-10 -60h-529z" />
<glyph unicode="&#x4a5;" horiz-adv-x="1445" d="M90 0l183 923l-127 19l-2 52q29 15 68 28.5t80 24t79 17t68 6.5l41 -26l-98 -470h405l92 470h570q-18 -81 -43 -169t-54 -173h-53l-39 253h-224l-165 -838h153v-55q-42 -33 -101.5 -53.5t-115.5 -20.5q-60 0 -87.5 25t-27.5 54q0 38 11 86l22 96l46 235h-406l-100 -484 h-175z" />
<glyph unicode="&#x4a6;" horiz-adv-x="2109" d="M-44 0l12 60q36 16 80 29t105 22l261 1238q-42 9 -81.5 22.5t-79.5 29.5l12 62h1381l-12 -62q-42 -20 -89.5 -31.5t-93.5 -20.5l-122 -580q62 32 151 63t208 31q96 0 161 -22t105.5 -63t58.5 -98t18 -128q0 -150 -43 -286t-123.5 -242t-194 -173.5t-256.5 -80.5l-2 57 q106 37 186 107t131 161t76 199.5t25 227.5q0 111 -43 171.5t-166 60.5q-88 0 -168 -25t-147 -61l-118 -557q40 -4 79 -15.5t78 -35.5l-12 -60h-524l10 60q52 30 169 51l266 1243h-638l-263 -1243q79 -16 144 -51l-10 -60h-531z" />
<glyph unicode="&#x4a7;" horiz-adv-x="1519" d="M90 0l183 923l-127 19l4 52q30 15 66.5 28.5t75 24t75 17t68.5 6.5l41 -26l-79 -369h10q40 84 91.5 156t108.5 125t119.5 83.5t128.5 30.5q87 0 128 -55.5t41 -139.5q0 -46 -10.5 -114.5t-25.5 -130.5l-63 -254q67 86 147.5 139t187.5 53q102 0 157.5 -58.5t55.5 -158.5 q0 -111 -34.5 -236t-103.5 -238t-170.5 -199.5t-233.5 -120.5l-22 46q83 44 153 124.5t121 177.5t80.5 200.5t29.5 195.5q0 60 -28.5 99t-82.5 39q-77 0 -150 -39t-123 -109l-61 -291h-171l130 596q14 64 25.5 119.5t11.5 109.5q0 48 -22 81.5t-70 33.5q-56 0 -115 -46 t-109 -110.5t-90.5 -135t-61.5 -116.5l-111 -532h-175z" />
<glyph unicode="&#x4a8;" horiz-adv-x="1748" d="M138 552q0 225 68.5 399.5t178.5 293.5t248 180.5t278 61.5q67 0 122 -21t85 -65l-24 -37q-16 8 -50.5 11.5t-51.5 3.5q-135 0 -250.5 -59.5t-199.5 -167.5t-132.5 -258t-48.5 -332q0 -125 34.5 -216t93.5 -149.5t136 -86.5t162 -26q42 -2 76 4t66 16q-40 26 -82.5 76 t-79 116.5t-59.5 149t-23 172.5q0 157 48 294t133 239.5t201.5 162t254.5 59.5q92 0 168.5 -28.5t130.5 -81.5t84.5 -127.5t30.5 -168.5q0 -125 -37.5 -255t-109.5 -245.5t-179.5 -209.5t-245.5 -146q16 -10 49.5 -19.5t66.5 -7.5q74 -2 132.5 15.5t112.5 61.5l18 -29 q-40 -70 -115.5 -114t-180.5 -44q-73 0 -135.5 24.5t-98.5 53.5q-50 -36 -142 -57t-184 -21q-97 0 -194.5 32t-177 100.5t-128.5 178.5t-49 267zM905 624q0 -87 14 -160t37.5 -133t50.5 -102.5t52 -67.5q85 44 167 121t145.5 185.5t102.5 243.5t39 296q0 123 -53.5 190 t-153.5 67q-84 0 -157 -52t-127.5 -140t-85.5 -204t-31 -244z" />
<glyph unicode="&#x4a9;" horiz-adv-x="1373" d="M84 411q0 148 54 269.5t140.5 208t192 134t210.5 47.5q63 0 103.5 -21t30.5 -69l-15 -13q-24 6 -52.5 9.5t-49.5 3.5q-76 -4 -152 -42.5t-136.5 -112t-99.5 -178t-39 -236.5q0 -60 18 -122t57 -111.5t101.5 -81.5t152.5 -32q29 0 67.5 4.5t55.5 11.5q-104 33 -166 127 t-62 213q0 124 48.5 222t122.5 166.5t165.5 106.5t179.5 38q123 0 201.5 -74.5t78.5 -232.5q0 -108 -41.5 -204.5t-102.5 -170.5t-129.5 -124.5t-126.5 -68.5q57 -21 130 -18q54 4 96.5 18t76.5 35l10 -25q-21 -54 -75.5 -84t-115.5 -30q-60 0 -122 12t-91 40 q-58 -26 -125 -39t-105 -13q-121 0 -212 33t-152.5 91.5t-91.5 138.5t-30 174zM675 389q2 -94 37.5 -168.5t96.5 -103.5q42 21 93 71t95.5 123.5t75 168t30.5 207.5q0 86 -32.5 131t-105.5 45q-50 0 -101 -38t-93 -101.5t-68 -150t-28 -184.5z" />
<glyph unicode="&#x4aa;" horiz-adv-x="1326" d="M138 539q0 213 60.5 387.5t172 298.5t271.5 193t361 69q137 0 233.5 -19t160.5 -51q-6 -34 -17.5 -79t-27 -95.5t-32 -98.5t-31.5 -87h-55l-44 301q-27 10 -82 15.5t-107 5.5q-138 0 -255.5 -53.5t-202.5 -158t-133.5 -261t-48.5 -363.5q0 -130 45 -218.5t112.5 -142.5 t147.5 -76t151 -22t120 12t72 27l155 257h52q0 -58 -12 -147t-34 -173q-74 -42 -166.5 -61t-178.5 -25q-54 -177 -148 -373h-55q0 98 2 194.5t11 190.5q-135 20 -229.5 76.5t-154 132.5t-86.5 166t-27 178z" />
<glyph unicode="&#x4ab;" horiz-adv-x="893" d="M84 341q0 150 48 282.5t130.5 232t194 157t239.5 57.5q79 0 129 -13t76 -36q2 -23 -4 -51t-17 -55.5t-29 -50t-36 -31.5l-143 147q-71 -2 -140.5 -43.5t-125 -119t-90 -187.5t-31.5 -248q-2 -143 57 -210.5t162 -67.5q44 0 82 13t72 31.5t61 39.5t48 37l31 -39 q-42 -74 -125 -134t-205 -72q-27 -26 -31.5 -57t1 -65.5t15 -71.5t9.5 -71q0 -85 -56.5 -129t-142.5 -60l-14 37q38 19 48 46.5t8 59.5t-10 70t-8 75q-2 54 16 93t66 67q-131 19 -208 114.5t-77 252.5z" />
<glyph unicode="&#x4ac;" horiz-adv-x="1273" d="M184 1055q2 41 9.5 95t15.5 109t17.5 108.5t20.5 95.5h1212q-9 -42 -21.5 -94.5t-27.5 -107.5t-30.5 -108.5t-30.5 -97.5h-54l-43 299h-321l-265 -1246h111h122q-9 -44 -24.5 -99t-34.5 -112.5t-38 -112.5t-35 -99h-55l-12 315h-449l10 60q50 19 99 30.5t108 20.5 l263 1243h-320l-173 -299h-54z" />
<glyph unicode="&#x4ad;" horiz-adv-x="1670" d="M90 0l195 923l-128 19v52q69 36 149.5 56t138.5 20l44 -26l-92 -369h8q25 58 70 127t104 128.5t125.5 99.5t132.5 40q26 0 51 -8.5t44 -30.5t31 -60t12 -96q0 -46 -9 -98t-21 -102q31 72 79 141t104 126t120 92.5t131 35.5q80 0 120 -50.5t40 -138.5q0 -67 -12 -126 t-28 -129l-135 -511h157v-65q-26 -23 -39 -52.5t-19.5 -63.5t-7.5 -70.5t-4 -72.5q-2 -56 -23.5 -93t-56 -61t-78 -36t-87.5 -21l-16 42q38 10 60 31.5t33.5 45.5t13.5 50t2 46q0 73 40 129t100 110l-6 6q-25 -19 -61.5 -35.5t-78.5 -16.5q-54 0 -76.5 27t-22.5 65 q0 60 30 167l98 379q12 50 25 104.5t13 90.5q0 54 -17 86.5t-65 32.5q-50 0 -102 -39.5t-99 -100t-85.5 -131.5t-64.5 -135l-127 -534h-167l132 586q14 65 24.5 125t10.5 124q0 48 -16.5 76.5t-58.5 28.5t-92.5 -39.5t-98 -100t-88.5 -131.5t-66 -137l-111 -532h-179z" />
<glyph unicode="&#x4ae;" horiz-adv-x="1326" d="M192 1401l15 62h551l-12 -62q-34 -12 -76 -26.5t-96 -25.5l211 -614l443 614q-44 11 -82.5 23.5t-71.5 28.5l12 62h466l-15 -62q-42 -20 -83.5 -31.5t-83.5 -20.5l-549 -727l-109 -511q77 -10 147 -51l-11 -60h-531l11 60q84 38 184 51l108 509l-269 729q-46 9 -85 22.5 t-74 29.5z" />
<glyph unicode="&#x4af;" horiz-adv-x="933" d="M32 940v52q12 9 37 22.5t55.5 26t62.5 21t62 8.5q46 0 66 -23t26 -57l110 -749l11 -133h4l68 137q32 58 64 129t62 144.5t53.5 145t40.5 132.5q0 23 -5 59t-10.5 74t-11.5 70.5t-11 44.5q30 13 63.5 19.5t62.5 6.5q62 0 111 -26q-32 -129 -77 -264.5t-101 -270.5 t-126.5 -264.5t-153.5 -244.5l-65 -305q70 -12 146 -52v-61h-327l-19 19l91 399l-156 923z" />
<glyph unicode="&#x4b0;" horiz-adv-x="1326" d="M192 1401l15 62h551l-12 -62q-34 -12 -76 -26.5t-96 -25.5l211 -614l443 614q-44 11 -82.5 23.5t-71.5 28.5l12 62h466l-15 -62q-42 -20 -83.5 -31.5t-83.5 -20.5l-549 -727h303l-23 -108h-305l-84 -403q77 -10 147 -51l-11 -60h-531l11 60q84 38 184 51l84 403h-303 l22 108h303l-267 727q-46 9 -85 22.5t-74 29.5z" />
<glyph unicode="&#x4b1;" horiz-adv-x="933" d="M32 940v52q12 9 37 22.5t55.5 26t62.5 21t62 8.5q46 0 66 -23t26 -57l110 -749l11 -130h4l68 134q32 58 64 129t62 144.5t53.5 145t40.5 132.5q0 23 -5 59t-10.5 74t-11.5 70.5t-11 44.5q30 13 63.5 19.5t62.5 6.5q62 0 111 -26q-58 -229 -153.5 -474t-231.5 -462h213 l-25 -108h-261l-65 -305q70 -12 146 -52v-61h-327l-19 19l91 399h-267l26 108h223l-138 815z" />
<glyph unicode="&#x4b2;" horiz-adv-x="1421" d="M-84 0l13 60q41 21 83 31.5t84 19.5l548 624l-259 614q-42 11 -80 22.5t-75 29.5l13 62h555l-13 -62q-64 -29 -171 -52l186 -472l390 472q-39 11 -78.5 21.5t-81.5 30.5l12 62h481l-14 -62q-38 -16 -81 -28.5t-87 -23.5l-497 -566l288 -675h211q-8 -44 -23.5 -99 t-33.5 -112.5t-38 -112.5l-36 -99h-54l-14 315h-423l10 60q80 38 170 51l-211 524l-439 -527q42 -6 82.5 -15t75.5 -33l-12 -60h-481z" />
<glyph unicode="&#x4b3;" horiz-adv-x="947" d="M-50 14q18 62 77 140t129.5 151t137.5 132.5t101 88.5l-142 385l-134 16v53q13 8 37 21.5t54.5 26t61.5 21t61 8.5q45 0 66 -24t33 -56l102 -363q48 48 106 108.5t87 114.5q2 15 2 42.5t-2 57.5t-4 56t-4 39q36 12 70 19.5t70 7.5q67 0 116 -27q-12 -42 -41 -89.5 t-69 -96t-85 -95.5t-86.5 -88t-78.5 -73t-57 -51l150 -407l151 -17v-65q-26 -23 -39 -52.5t-19.5 -63.5t-7.5 -70.5t-4 -72.5q-2 -56 -23.5 -93t-56 -61t-79 -36t-87.5 -21l-15 42q38 10 60 31.5t33.5 45.5t14 50t2.5 46q0 73 39 129t100 110l-6 6q-25 -19 -67 -35.5 t-69 -16.5q-43 0 -66 23t-35 56l-114 378q-23 -26 -53 -55t-60 -60t-55 -62.5t-39 -58.5q-4 -14 -5 -41.5t-2 -57.5t-1 -56t2 -40q-36 -14 -72.5 -20t-70.5 -6q-69 0 -114 26z" />
<glyph unicode="&#x4b4;" horiz-adv-x="1827" d="M184 1055q2 41 9.5 95t16.5 109t18.5 108.5t18.5 95.5h1102l-22.5 -94.5t-27 -107.5t-29 -108.5t-29.5 -97.5h-55l-44 299h-211l-265 -1246h631l264 1241q-72 17 -126 52l12 62h508l-12 -62q-44 -16 -90 -29.5t-92 -22.5l-266 -1241h241q-10 -44 -25 -99t-33.5 -113.5 t-37.5 -113.5t-38 -97h-52l-21 315h-1278l10 60q50 16 99 29t108 22l263 1243h-320l-173 -299h-54z" />
<glyph unicode="&#x4b5;" horiz-adv-x="1134" d="M111 171q0 46 14.5 136t35.5 196.5t45 218t43 201.5l-128 19v52q34 13 72.5 25.5t77 23t74 18t64.5 9.5l46 -26q-34 -157 -68 -297.5t-64 -297.5q-10 -50 -21 -112t-11 -134q0 -44 24 -71.5t54 -27.5q46 0 92.5 27.5t87.5 71.5t77 97t65.5 105.5t49 97.5t30.5 71l92 470 h173l-171 -929h154v-65q-26 -23 -39 -52.5t-19 -63.5t-7 -70.5t-3 -72.5q-2 -56 -24 -93t-57 -61t-78.5 -36t-87.5 -21l-14 42q37 10 59 31.5t33.5 45.5t13.5 50t2 46q-2 73 38.5 129t101.5 110l-7 6q-25 -19 -68.5 -35.5t-81.5 -16.5q-46 0 -68.5 25t-22.5 54 q0 38 10 126.5t46 215.5h-9q-27 -58 -68 -133t-97 -142t-128 -113.5t-159 -46.5q-74 0 -124 52t-50 145zM432 1331l21 108h531l-23 -108h-529z" />
<glyph unicode="&#x4b6;" horiz-adv-x="1349" d="M213 1401l12 62h489l-14 -62q-30 -14 -65 -27.5t-81 -24.5l-74 -342q-16 -82 -17 -145.5t19 -107.5t65 -68t117 -24q88 0 169.5 25t152.5 61l128 601q-76 19 -139 52l13 62h487l-12 -62q-32 -16 -69.5 -28.5t-79.5 -23.5l-263 -1241h229q-8 -44 -23.5 -99t-34 -112.5 t-37.5 -112.5t-36 -99h-55l-12 315h-447l11 60q54 24 105 35t100 16l114 537q-64 -32 -165.5 -63t-227.5 -31q-88 0 -154.5 25t-106.5 79t-49 137.5t15 203.5l76 350q-36 9 -73 21.5t-67 30.5z" />
<glyph unicode="&#x4b7;" horiz-adv-x="1031" d="M60 942v52q34 13 72.5 25.5t77.5 23t74 18t65 9.5l46 -26q-42 -177 -73 -297.5t-31 -200.5q0 -44 25 -72.5t73 -28.5q33 0 73 13.5t79 36.5t74 54t60 67l85 428h173l-168 -927h154v-67q-25 -23 -39.5 -52.5t-20.5 -63.5t-8.5 -70.5t-2.5 -72.5q0 -56 -22 -93t-56.5 -61 t-78 -36t-87.5 -21l-14 42q37 10 58.5 31.5t32.5 45.5t13 50t2 46q0 73 40.5 129t100.5 110l-6 6q-27 -19 -71 -35.5t-79 -16.5q-50 0 -72.5 27t-22.5 63q0 25 4 47.5t10 51.5l68 353h-8q-34 -43 -77.5 -82t-92.5 -68t-102 -47t-106 -18q-72 0 -121.5 45t-49.5 135 q0 37 5 76t14.5 88t24 112.5t33.5 151.5z" />
<glyph unicode="&#x4b8;" horiz-adv-x="1367" d="M213 1401l12 62h508l-12 -62q-34 -14 -77.5 -27.5t-89.5 -24.5l-80 -367q-14 -73 -13 -131.5t23 -100.5t68 -65t120 -23l68 320h106l-65 -314q74 10 143.5 32.5t119.5 47.5l128 601q-36 11 -71.5 23.5t-66.5 28.5l13 62h486l-12 -62q-34 -14 -70.5 -27.5t-77.5 -24.5 l-264 -1238q37 -8 70 -20.5t55 -30.5l-10 -60h-530l10 60q54 24 105.5 35t99.5 16l115 537q-44 -24 -115.5 -45t-150.5 -35l-64 -301h-108l64 289l-84 -2q-144 0 -225.5 70t-81.5 222q0 69 18 157l76 346q-69 13 -140 52z" />
<glyph unicode="&#x4b9;" horiz-adv-x="1116" d="M60 942v52q34 13 72.5 25.5t77.5 23t74 18t65 9.5l46 -26q-42 -177 -73 -297.5t-31 -200.5q0 -44 25 -72.5t73 -28.5q43 0 87 6l65 314h101l-64 -287q61 24 107 60t78 78l85 428h173l-168 -927h152v-55q-42 -33 -100.5 -53.5t-117.5 -20.5q-60 0 -86 27t-26 63 q0 25 3 47.5t9 51.5l69 353h-8q-32 -39 -80 -77.5t-110 -72.5l-48 -230h-101l40 189q-82 -24 -167 -24q-72 0 -121.5 45t-49.5 135q0 37 5 76t14.5 88t24 112.5t33.5 151.5z" />
<glyph unicode="&#x4ba;" horiz-adv-x="1309" d="M-42 0l12 62q32 16 69.5 28.5t79.5 23.5l263 1238q-37 8 -69.5 20.5t-55.5 30.5l10 60h531l-11 -60q-54 -24 -105 -35t-100 -16l-114 -537q64 32 165.5 63t227.5 31q88 0 154.5 -25t106.5 -79t49 -137.5t-15 -203.5l-76 -350q36 -9 73 -21.5t67 -30.5l-12 -62h-489l14 62 q30 14 65 27.5t81 24.5l74 342q16 82 17 145.5t-19 107.5t-65 68t-117 24q-88 0 -169.5 -25t-152.5 -61l-128 -601q76 -19 139 -52l-13 -62h-487z" />
<glyph unicode="&#x4bb;" horiz-adv-x="1134" d="M71 0l286 1425l-142 18v48q32 12 70 26t80 25.5t82 19t75 9.5l44 -19l-188 -877h11q39 84 89 156t106 125t116 83.5t123 30.5q96 0 139 -55.5t43 -137.5q0 -56 -10.5 -120.5t-25.5 -126.5l-118 -513h154v-55q-42 -33 -100.5 -53.5t-117.5 -20.5q-60 0 -83 25t-23 54 q0 38 10.5 85t20.5 95l75 349q15 64 26.5 120.5t11.5 108.5q0 48 -21 81.5t-56 33.5q-65 0 -125.5 -46t-112.5 -110.5t-92 -135t-61 -116.5l-110 -532h-176z" />
<glyph unicode="&#x4bc;" horiz-adv-x="1680" d="M102 961q0 92 40 155.5t81 95.5q50 2 104.5 -20t90.5 -50l10 -33l-207 -164q11 -68 67.5 -98t120.5 -32q42 184 118.5 312.5t179 209t224.5 115.5t257 35q114 0 206.5 -29t160.5 -85.5t105.5 -139t37.5 -189.5q0 -60 -7 -113.5t-18.5 -98.5t-22 -77t-16.5 -49h-1032 q-19 -144 6 -252.5t83.5 -182.5t144 -113t185 -42t207 29t209.5 102l14 -44q-52 -60 -115.5 -103.5t-130.5 -70.5t-134.5 -41t-128.5 -14q-133 0 -244.5 47.5t-186 139.5t-107 228.5t-9.5 316.5q-138 4 -215.5 67.5t-77.5 187.5zM620 815h836q14 48 24.5 113.5t10.5 145.5 q0 64 -18.5 121t-57 97.5t-98 63.5t-143.5 23q-98 0 -187.5 -34.5t-163 -104.5t-125.5 -176.5t-78 -248.5z" />
<glyph unicode="&#x4bd;" horiz-adv-x="1142" d="M50 716q0 30 6 61q18 102 101 174q48 4 86.5 -23t51.5 -61l6 -25l-151 -119q0 -56 46.5 -82.5t116.5 -28.5q30 100 81 183.5t119.5 145.5t155.5 95.5t188 33.5q102 0 174 -51.5t72 -151.5q0 -148 -147 -233.5t-476 -111.5q-8 -35 -11 -68.5t-3 -64.5q0 -126 63 -205.5 t185 -79.5q42 0 80.5 13t73.5 31.5t63 39.5t49 37l33 -39q-19 -40 -55.5 -77.5t-84.5 -68t-107.5 -48.5t-127.5 -18q-174 0 -267.5 99.5t-93.5 275.5q0 44 4 87.5t12 85.5q-128 4 -184.5 57.5t-58.5 136.5zM495 612q203 6 315.5 70t112.5 177q0 44 -26 81.5t-103 39.5 q-90 -2 -168 -84.5t-131 -283.5z" />
<glyph unicode="&#x4be;" horiz-adv-x="1680" d="M102 961q0 92 40 155.5t81 95.5q50 2 104.5 -20t90.5 -50l10 -33l-207 -164q11 -68 67.5 -98t120.5 -32q42 184 118.5 312.5t179 209t224.5 115.5t257 35q114 0 206.5 -29t160.5 -85.5t105.5 -139t37.5 -189.5q0 -60 -7 -113.5t-18.5 -98.5t-22 -77t-16.5 -49h-1032 q-19 -144 6 -252.5t83.5 -182.5t144 -113t185 -42t207 29t209.5 102l14 -44q-73 -86 -167 -137.5t-188 -71.5q-29 -92 -66.5 -189.5t-87.5 -203.5h-55q0 96 2 189t12 187q-126 6 -229.5 56.5t-172.5 142t-98 224t-6 306.5q-138 4 -215.5 67.5t-77.5 187.5zM620 815h836 q14 48 24.5 112.5t10.5 144.5q0 62 -16 118q-30 88 -103 138.5t-198 50.5q-98 0 -187.5 -34.5t-163 -104.5t-125.5 -176.5t-78 -248.5z" />
<glyph unicode="&#x4bf;" horiz-adv-x="1142" d="M50 716q0 30 6 61q18 102 101 174q48 4 86.5 -23t51.5 -61l6 -25l-151 -119q0 -56 46.5 -82.5t116.5 -28.5q30 100 81 183.5t119.5 145.5t155.5 95.5t188 33.5q102 0 174 -51.5t72 -151.5q0 -148 -147 -233.5t-476 -111.5q-8 -35 -11 -68.5t-3 -64.5q0 -126 63 -205.5 t185 -79.5q42 0 80.5 13t73.5 31.5t63 39.5t49 37l33 -39q-36 -70 -117 -130t-196 -76q-28 -26 -33 -57t0 -65.5t15 -71.5t10 -71q0 -85 -56 -129t-143 -60l-15 37q38 19 48.5 46.5t8 59.5t-10.5 70t-8 75q-2 54 17 93t67 70q-157 10 -240 108.5t-83 263.5q0 44 4 87.5 t12 85.5q-128 4 -184.5 57.5t-58.5 136.5zM495 612q203 6 315.5 70t112.5 177q0 44 -26 81.5t-103 39.5q-90 -2 -168 -84.5t-131 -283.5z" />
<glyph unicode="&#x4c0;" horiz-adv-x="716" d="M-2 0l10 60q92 38 180 51l261 1238q-42 9 -79 22.5t-77 29.5l14 62h535l-13 -62q-42 -16 -89.5 -29.5t-89.5 -22.5l-261 -1238q41 -8 82 -20.5t72 -30.5l-11 -60h-534z" />
<glyph unicode="&#x4c3;" horiz-adv-x="1330" d="M-42 0l10 60q94 36 185 51l261 1238q-90 13 -161 52l14 62h529l-13 -62q-37 -16 -79 -28.5t-90 -23.5l-121 -578l125 29l502 549q-42 11 -75.5 23.5t-64.5 28.5l14 62h473l-16 -62q-39 -20 -85 -31.5t-86 -20.5l-530 -555q77 -42 151 -110t132.5 -154.5t93.5 -190 t35 -218.5q0 -117 -42 -218.5t-118.5 -176.5t-185 -119t-240.5 -48l-2 56q174 34 279.5 152t107.5 315q-2 133 -38 234.5t-88 175.5t-112.5 125t-112.5 83h-134l-123 -589q42 -8 79.5 -20.5t64.5 -30.5l-10 -60h-529z" />
<glyph unicode="&#x4c4;" horiz-adv-x="1066" d="M90 0l181 923l-146 19v52q61 28 147.5 49.5t159.5 26.5l44 -23l-94 -475h61q44 28 93.5 67.5t96 81.5t84 80t56.5 66q2 14 3 39t0 51.5t-2 50.5t-3 36q78 28 150 28q73 0 123 -28q-29 -64 -88 -132t-129.5 -130.5t-139.5 -115t-115 -84.5q46 -23 108 -77t117.5 -127 t92.5 -157.5t37 -168.5q0 -96 -39.5 -181.5t-108.5 -151.5t-162 -108.5t-199 -53.5l2 58q68 19 124 57.5t97.5 90t64.5 115.5t21 134q2 84 -29.5 164.5t-75.5 146.5t-92 113.5t-81 69.5l-82 12l-98 -518h-179z" />
<glyph unicode="&#x4c5;" horiz-adv-x="1386" d="M-83 155.5q-1 34.5 3 61.5l42 52l232 -44q42 52 91.5 138t101.5 218.5t106.5 318.5t108.5 439q-124 24 -199 62l13 62h1097l-14 -62q-37 -16 -83 -29.5t-98 -22.5l-261 -1241h223l17 -14q-8 -42 -41.5 -100t-80.5 -119t-102.5 -113.5t-107.5 -76.5h-56l165 315h-402 l13 60q42 16 85 28t87 23l261 1243h-389q-52 -220 -100.5 -387t-92 -294t-85.5 -220.5t-82.5 -162.5t-81 -119t-82.5 -91q-54 -54 -121.5 -80t-121.5 -26q-12 17 -21.5 47.5t-16 65t-7.5 69z" />
<glyph unicode="&#x4c6;" horiz-adv-x="1088" d="M-60 104q0 34 8 65.5t29 57.5l171 -70q40 50 82.5 137.5t81.5 193.5t72.5 218.5t54.5 212.5q-44 10 -92 30t-72 41v54h700l-183 -927h219l17 -15q-25 -96 -69 -179.5t-105.5 -152.5t-138.5 -118t-172 -70l-19 36q106 54 187 159.5t124 232.5q-18 -8 -43 -15t-63 -7h-2 q-60 0 -86.5 25t-26.5 54q0 40 8 87t20 95l150 706h-244q-26 -113 -60.5 -237t-77.5 -243.5t-94 -223t-111 -173.5q-50 -61 -106.5 -83.5t-124.5 -20.5q-16 21 -26 55.5t-8 74.5z" />
<glyph unicode="&#x4c7;" horiz-adv-x="1521" d="M-42 0l10 60q90 34 185 51l261 1238q-94 15 -161 52l14 62h529l-13 -62q-41 -18 -84 -30.5t-85 -21.5l-115 -545h657l116 545q-42 11 -78 23.5t-70 28.5l14 62h529l-13 -62q-41 -20 -88 -31.5t-93 -20.5l-287 -1349q-31 -142 -77 -228.5t-106.5 -133.5t-140 -63 t-175.5 -16l-2 56q57 13 102.5 35t82.5 64.5t65 112t51 173.5l146 696h-658l-121 -585q38 -8 75.5 -20.5t68.5 -30.5l-10 -60h-529z" />
<glyph unicode="&#x4c8;" horiz-adv-x="1127" d="M90 0l183 923l-127 19l-2 52q29 15 68 28.5t80 24t79 17t68 6.5l41 -26l-98 -470h405l92 470h176l-200 -1021q-24 -117 -75 -200.5t-110.5 -139t-116 -87t-89.5 -39.5l-25 46q25 12 59 44t68 81t63 116.5t46 155.5l96 482h-406l-100 -482h-175z" />
<glyph unicode="&#x4c9;" horiz-adv-x="1541" d="M-42 0l10 60q46 21 92 32.5t93 18.5l261 1238q-94 19 -161 52l14 62h529l-13 -62q-35 -18 -81 -30.5t-88 -21.5l-115 -545h657l116 545q-42 11 -78 22.5t-70 29.5l14 62h529l-13 -62q-41 -20 -88 -31.5t-93 -20.5l-263 -1241h225l16 -14q-8 -42 -41 -100t-80.5 -119 t-102.5 -113.5t-107 -76.5h-57l165 315h-399l10 60q40 16 83 29t87 22l123 585h-658l-121 -585q38 -8 75.5 -20.5t68.5 -30.5l-10 -60h-529z" />
<glyph unicode="&#x4ca;" horiz-adv-x="1164" d="M90 0l183 923l-127 19l-2 52q29 15 68 28.5t80 24t79 17t68 6.5l41 -26l-98 -470h405l92 470h176l-184 -927h217l19 -15q-26 -96 -70.5 -179.5t-105 -152.5t-138 -118t-171.5 -70l-20 36q108 54 187.5 159.5t123.5 232.5q-18 -8 -42.5 -15t-61.5 -7h-2q-60 0 -87.5 25 t-27.5 54q0 38 11 86l22 96l46 235h-406l-100 -484h-175z" />
<glyph unicode="&#x4cb;" horiz-adv-x="1309" d="M213 1401l12 62h489l-14 -62q-30 -14 -65 -27.5t-81 -24.5l-74 -342q-16 -82 -17 -145.5t19 -107.5t65 -68t117 -24q88 0 169.5 25t152.5 61l128 601q-76 19 -139 52l13 62h487l-12 -62q-32 -16 -69.5 -28.5t-79.5 -23.5l-263 -1238q37 -8 69.5 -20.5t55.5 -30.5l-10 -60 h-393l-149 -315h-52q2 42 6 98t11 113.5t14 112.5t15 99h230h3l114 540q-64 -32 -165.5 -63t-227.5 -31q-88 0 -154.5 25t-106.5 79t-49 137.5t15 203.5l76 350q-36 9 -73 21.5t-67 30.5z" />
<glyph unicode="&#x4cc;" horiz-adv-x="1029" d="M60 942v52q34 13 72.5 25.5t77.5 23t74 18t65 9.5l46 -26q-42 -177 -73 -297.5t-31 -200.5q0 -44 25 -72.5t73 -28.5q33 0 73 13.5t79 36.5t74 54t60 67l92 428h173l-196 -927h153v-55q-42 -33 -101 -53.5t-117 -20.5q-60 0 -86.5 27t-26.5 63q0 25 3 47.5t9 51.5l84 353 h-8q-34 -43 -77 -82t-90.5 -68t-99.5 -47t-105 -18q-72 0 -121.5 45t-49.5 135q0 37 5 76t14.5 88t24 112.5t33.5 151.5zM282 -437q37 19 48 46.5t8 59.5t-12 70t-9 75q-2 74 35 120t132 84l30 -30q-34 -26 -40 -58t-1 -67.5t14.5 -73.5t9.5 -74q0 -85 -57.5 -129 t-142.5 -60z" />
<glyph unicode="&#x4cd;" horiz-adv-x="1827" d="M-42 0l10 60q84 36 182 53l261 1236q-42 9 -83 22.5t-77 29.5l12 62h435l148 -955l25 -215h2l109 219l589 951h384l-14 -62q-82 -35 -169 -52l-263 -1241h225l16 -14q-8 -42 -41.5 -100t-80.5 -119t-103 -113.5t-108 -76.5h-57l167 315h-401l10 60q46 16 90 28t92 23 l197 940l62 244h-16l-114 -223l-660 -1072h-54l-181 1072l-24 244h-18l-55 -265l-198 -940q38 -8 75 -20.5t73 -30.5l-12 -60h-435z" />
<glyph unicode="&#x4ce;" horiz-adv-x="1489" d="M-60 106q0 58 28 105l164 -54q39 50 77 136.5t72 192.5t62.5 219.5t51.5 215.5q-42 16 -77.5 33t-52.5 38v52h357l80 -626l6 -145h6l84 151l392 620h189l-187 -929h220l19 -15q-25 -94 -70 -177.5t-106 -152.5t-139 -118t-171 -70l-20 36q108 54 187.5 159.5t123.5 232.5 q-18 -8 -43 -15t-63 -7q-60 0 -87.5 25t-27.5 54q0 40 10.5 88t21.5 96l102 465q4 18 11.5 43.5t15.5 52.5t18 52t16 43h-6l-566 -907h-58l-41 407l-35 335l-11 165h-9q-23 -94 -49 -209.5t-61 -230t-81 -218t-107 -174.5q-50 -60 -100 -80.5t-116 -20.5q-14 24 -23 58.5 t-7 73.5z" />
<glyph unicode="&#x4cf;" horiz-adv-x="578" d="M78 16l285 1409l-148 18v52q30 13 68 25.5t81 24.5t85 19t75 7l42 -23l-289 -1435q72 -12 145 -53v-60h-326z" />
<glyph unicode="&#x4d0;" horiz-adv-x="1407" d="M-102 0l12 60q82 34 163 51l826 1376h54l235 -1376q38 -8 77 -19.5t70 -31.5l-11 -60h-530l10 60q94 36 184 51l-63 382h-490l-224 -382q90 -12 167 -51l-11 -60h-469zM495 602h414l-67 442l-5 180h-4l-83 -184zM620 1761q33 27 94 41t105 18l52 -28v-138 q12 -10 32 -18.5t53 -8.5q46 0 94 12.5t89 34.5t72 53t44 71q21 0 41.5 -8t31.5 -22q-13 -44 -48.5 -87t-88.5 -77.5t-123 -55.5t-154 -21q-85 0 -143.5 24t-93 60.5t-48 77.5t-9.5 72z" />
<glyph unicode="&#x4d1;" horiz-adv-x="1116" d="M90 291q0 146 41.5 284.5t121.5 247t193.5 174.5t257.5 66q52 0 83.5 -9.5t75.5 -27.5q84 44 175 44l-187 -955h152v-53q-42 -33 -100.5 -53.5t-115.5 -20.5q-60 0 -86 26t-26 55q0 38 14.5 123t43.5 217h-8q-27 -75 -68 -152t-94 -140t-118 -103t-138 -40 q-217 0 -217 317zM277 325q0 -106 26.5 -163.5t91.5 -57.5q56 0 112.5 53.5t106.5 128.5t90 156.5t63 135.5l66 358q-29 21 -56 29t-75 8q-96 0 -174.5 -59t-133.5 -153.5t-86 -209t-31 -226.5zM453 1427q33 25 73 39.5t84 18.5l52 -26v-162q12 -10 32 -18.5t53 -8.5 q92 0 161 57.5t96 137.5q19 0 41 -10t32 -24q-12 -44 -40.5 -90t-72 -83.5t-102.5 -62.5t-134 -25q-94 0 -150 28t-85.5 68t-37 83.5t-2.5 77.5z" />
<glyph unicode="&#x4d2;" horiz-adv-x="1407" d="M-102 0l12 60q82 34 163 51l826 1376h54l235 -1376q38 -8 77 -19.5t70 -31.5l-11 -60h-530l10 60q94 36 184 51l-63 382h-490l-224 -382q90 -12 167 -51l-11 -60h-469zM495 602h414l-67 442l-5 180h-4l-83 -184zM590 1648q0 50 34 75t84 25q52 0 86 -25t34 -75 q0 -48 -34 -73t-86 -25q-50 0 -84 25t-34 73zM1055 1648q0 50 33.5 75t85.5 25q50 0 84 -25t36 -75q-2 -48 -36 -73t-84 -25q-52 0 -85.5 25t-33.5 73z" />
<glyph unicode="&#x4d3;" horiz-adv-x="1116" d="M90 291q0 146 41.5 284.5t121.5 247t193.5 174.5t257.5 66q52 0 83.5 -9.5t75.5 -27.5q84 44 175 44l-187 -955h152v-53q-42 -33 -100.5 -53.5t-115.5 -20.5q-60 0 -86 26t-26 55q0 38 14.5 123t43.5 217h-8q-27 -75 -68 -152t-94 -140t-118 -103t-138 -40 q-217 0 -217 317zM277 325q0 -106 26.5 -163.5t91.5 -57.5q56 0 112.5 53.5t106.5 128.5t90 156.5t63 135.5l66 358q-29 21 -56 29t-75 8q-96 0 -174.5 -59t-133.5 -153.5t-86 -209t-31 -226.5zM420 1383q0 50 31.5 80t83.5 30q50 0 81.5 -30t31.5 -80q0 -48 -31.5 -77.5 t-81.5 -29.5q-52 0 -83.5 29.5t-31.5 77.5zM842 1383q0 50 31.5 80t81.5 30q52 0 83.5 -30t31.5 -80q0 -48 -31.5 -77.5t-83.5 -29.5q-50 0 -81.5 29.5t-31.5 77.5z" />
<glyph unicode="&#x4d4;" horiz-adv-x="1906" d="M-102 0l12 60q82 34 163 51l1001 1251q-60 12 -113 39l14 62h995q-32 -161 -96 -339h-54l-36 230h-458l-114 -554h338l115 155h52q-15 -104 -35.5 -213t-54.5 -210h-50l-50 160h-339l-125 -586h480l157 253h52q-4 -86 -16 -176.5t-36 -182.5h-1030l11 60q86 36 184 51 l90 423h-403l-329 -423q44 -6 84 -18.5t82 -32.5l-11 -60h-480zM635 642h342l137 634h-5l-123 -194z" />
<glyph unicode="&#x4d5;" horiz-adv-x="1543" d="M60 253q0 80 45 145.5t129.5 111.5t204 66t267.5 6q25 88 37.5 161.5t3 125.5t-42 81.5t-94.5 29.5q-30 0 -66 -3.5t-74 -17.5l-111 -230h-54q-40 116 -42 238q90 48 191.5 75.5t220.5 27.5q118 0 175 -35.5t69 -87.5q67 56 153 89.5t186 33.5t172 -51.5t72 -151.5 q0 -148 -147 -233.5t-476 -111.5q-8 -35 -11 -68.5t-3 -64.5q0 -126 63.5 -205.5t187.5 -79.5q40 0 78 13t73 31.5t63 39.5t49 37l33 -39q-19 -40 -54.5 -77.5t-83.5 -68t-108.5 -48.5t-129.5 -18q-133 0 -221 62t-121 185q-59 -111 -149 -179t-212 -68q-57 0 -106.5 20 t-86 56t-58.5 88t-22 115zM267 271q0 -91 44 -129t100 -38q46 0 89 22t77.5 56.5t60.5 77.5t41 85q-2 33 1 79t7 80q-106 12 -185.5 -5t-132 -51t-77.5 -81.5t-25 -95.5zM895 612q203 6 315 70t112 177q0 44 -26 82.5t-104 38.5q-89 0 -166 -83.5t-131 -284.5z" />
<glyph unicode="&#x4d6;" horiz-adv-x="1194" d="M-42 0l10 60q86 36 185 51l261 1238q-42 11 -81.5 23.5t-79.5 28.5l14 62h989q-17 -84 -40.5 -169.5t-53.5 -169.5h-55l-35 230h-458l-115 -554h338l116 155h52q-17 -104 -38.5 -209.5t-51.5 -213.5h-52l-48 160h-341l-121 -584h478l157 251h52q-4 -82 -16.5 -174.5 t-35.5 -184.5h-1030zM518 1761q33 27 94 41t105 18l52 -28v-138q12 -10 32 -18.5t53 -8.5q46 0 94 12.5t89 34.5t72 53t44 71q21 0 41.5 -8t31.5 -22q-13 -44 -48.5 -87t-88.5 -77.5t-123 -55.5t-154 -21q-85 0 -143.5 24t-93 60.5t-48 77.5t-9.5 72z" />
<glyph unicode="&#x4d7;" horiz-adv-x="947" d="M84 349q0 148 41.5 279.5t116.5 230t182.5 155t239.5 56.5q100 0 172.5 -51.5t72.5 -151.5q0 -148 -147.5 -233.5t-474.5 -111.5q-9 -35 -12.5 -68.5t-3.5 -64.5q0 -126 64 -205.5t187 -79.5q40 0 79 13t73 31.5t62.5 39.5t48.5 37l34 -39q-18 -40 -54 -77.5t-84 -68 t-108.5 -48.5t-129.5 -18q-174 0 -266.5 99.5t-92.5 275.5zM301 612q203 6 315.5 70t112.5 177q0 44 -26 81.5t-103 39.5q-90 -2 -167.5 -84.5t-131.5 -283.5zM357 1427q33 25 73 39.5t84 18.5l52 -26v-162q12 -10 32 -18.5t53 -8.5q92 0 161 57.5t96 137.5q19 0 41 -10 t32 -24q-12 -44 -40.5 -90t-72 -83.5t-102.5 -62.5t-134 -25q-94 0 -150 28t-85.5 68t-37 83.5t-2.5 77.5z" />
<glyph unicode="&#x4d8;" horiz-adv-x="1459" d="M138 518q0 46 8.5 121t24.5 138h1065q21 138 8.5 248.5t-61.5 189t-136.5 121.5t-219.5 43q-25 0 -59.5 -2t-68 -5.5t-61.5 -9.5t-40 -13l-174 -302h-55q0 41 5.5 90t12 98.5t13.5 92t16 73.5q40 19 91 34.5t109.5 27.5t120 18t122.5 6q177 0 292 -47t180.5 -122 t90.5 -170t25 -189q0 -188 -44.5 -365.5t-141.5 -315.5t-247.5 -221t-359.5 -83q-96 0 -189 28t-165.5 91.5t-117 166.5t-44.5 258zM353 497q0 -226 88.5 -320.5t254.5 -92.5q108 0 196 45.5t154 126.5t110 187.5t64 224.5h-848q-4 -12 -7.5 -35t-5.5 -49t-4 -50t-2 -37z " />
<glyph unicode="&#x4d9;" horiz-adv-x="1004" d="M73 227q0 57 30.5 127t106 128.5t200 91t315.5 18.5q4 10 5 32t1 32q0 62 -9.5 114.5t-31.5 90.5t-58 58.5t-91 20.5q-57 0 -101.5 -18.5t-80.5 -44.5t-63 -57t-47 -53l-46 31q12 44 47 91t87 87.5t120.5 67t152.5 26.5q144 0 226.5 -93.5t82.5 -280.5q0 -148 -41 -279.5 t-116 -230t-182.5 -155.5t-238.5 -57q-50 0 -98.5 14t-86 44t-60.5 78.5t-23 116.5zM257 217q0 -67 35 -110t113 -43q90 0 176.5 107.5t128.5 330.5q-119 18 -205.5 -1t-141 -61.5t-80.5 -102.5t-26 -120z" />
<glyph unicode="&#x4da;" horiz-adv-x="1459" d="M138 518q0 46 8.5 121t24.5 138h1065q21 138 8.5 248.5t-61.5 189t-136.5 121.5t-219.5 43q-25 0 -59.5 -2t-68 -5.5t-61.5 -9.5t-40 -13l-174 -302h-55q0 41 5.5 90t12 98.5t13.5 92t16 73.5q40 19 91 34.5t109.5 27.5t120 18t122.5 6q177 0 292 -47t180.5 -122 t90.5 -170t25 -189q0 -188 -44.5 -365.5t-141.5 -315.5t-247.5 -221t-359.5 -83q-96 0 -189 28t-165.5 91.5t-117 166.5t-44.5 258zM353 497q0 -226 88.5 -320.5t254.5 -92.5q108 0 196 45.5t154 126.5t110 187.5t64 224.5h-848q-4 -12 -7.5 -35t-5.5 -49t-4 -50t-2 -37z M536 1648q0 50 34 75t84 25q52 0 86 -25t34 -75q0 -48 -34 -73t-86 -25q-50 0 -84 25t-34 73zM1001 1648q0 50 33.5 75t85.5 25q50 0 84 -25t36 -75q-2 -48 -36 -73t-84 -25q-52 0 -85.5 25t-33.5 73z" />
<glyph unicode="&#x4db;" horiz-adv-x="1004" d="M73 227q0 57 30.5 127t106 128.5t200 91t315.5 18.5q4 10 5 32t1 32q0 62 -9.5 114.5t-31.5 90.5t-58 58.5t-91 20.5q-57 0 -101.5 -18.5t-80.5 -44.5t-63 -57t-47 -53l-46 31q12 44 47 91t87 87.5t120.5 67t152.5 26.5q144 0 226.5 -93.5t82.5 -280.5q0 -148 -41 -279.5 t-116 -230t-182.5 -155.5t-238.5 -57q-50 0 -98.5 14t-86 44t-60.5 78.5t-23 116.5zM257 217q0 -67 35 -110t113 -43q90 0 176.5 107.5t128.5 330.5q-119 18 -205.5 -1t-141 -61.5t-80.5 -102.5t-26 -120zM290 1383q0 50 31.5 80t83.5 30q50 0 81.5 -30t31.5 -80 q0 -48 -31.5 -77.5t-81.5 -29.5q-52 0 -83.5 29.5t-31.5 77.5zM712 1383q0 50 31.5 80t81.5 30q52 0 83.5 -30t31.5 -80q0 -48 -31.5 -77.5t-83.5 -29.5q-50 0 -81.5 29.5t-31.5 77.5z" />
<glyph unicode="&#x4dc;" horiz-adv-x="1959" d="M-75 0l11 52l108 50q94 84 181.5 174.5t168 182t152.5 174.5t133 152l-268 564q-84 24 -136 52l14 62h444l-12 -62q-64 -31 -153 -52l239 -562h144l119 562q-42 13 -75.5 25.5t-63.5 26.5l14 62h482l-13 -62q-28 -12 -64 -25.5t-82 -26.5l-124 -578l141 29l465 549 q-37 11 -70.5 23.5t-68.5 28.5l12 62h474l-12 -62q-42 -16 -85 -28.5t-84 -23.5l-508 -566q33 -64 75 -147.5t90 -175t102.5 -183t114.5 -175.5l88 -50l-10 -52h-249l-58 52q-48 71 -88 150.5t-76.5 162t-70 167t-70.5 168.5h-126l-125 -589q33 -10 64.5 -21.5t60.5 -29.5 l-10 -60h-485l11 60q73 36 163 51l127 605l-144 -29q-50 -71 -108 -151.5t-122.5 -163.5t-134.5 -166t-148 -154l-80 -52h-274zM869 1648q0 50 34 75t84 25q52 0 86 -25t34 -75q0 -48 -34 -73t-86 -25q-50 0 -84 25t-34 73zM1334 1648q0 50 33.5 75t85.5 25q50 0 84 -25 t36 -75q-2 -48 -36 -73t-84 -25q-52 0 -85.5 25t-33.5 73z" />
<glyph unicode="&#x4dd;" horiz-adv-x="1641" d="M-46 14q-4 28 2 59t21 59.5t38 52.5t52 36l90 -123q46 12 91 57.5t78 121.5t54 182.5t19 242.5q2 119 -25 172t-89 53q-78 0 -141 -58l-23 30q54 75 119 116.5t151 41.5q44 0 78.5 -22t59.5 -59.5t37 -87t12 -101.5q0 -113 -18 -215h192l96 472h169l-98 -472h193 q27 106 72.5 195.5t103 154t127.5 100t146 35.5q56 0 79 -7.5t50 -19.5q2 -23 -3 -51t-20 -56t-36.5 -54.5t-53.5 -43.5l-90 122q-38 -11 -79.5 -55t-77 -120t-58 -184t-20.5 -245q-2 -120 34 -173t101 -53q36 0 64 14.5t58 43.5l22 -29q-42 -64 -110.5 -111t-144.5 -47 q-54 0 -93 22t-64 59t-36 86.5t-11 103.5q0 58 4 113.5t12 109.5h-187l-99 -482h-167l98 482h-192q-30 -108 -75.5 -199t-105 -157t-129.5 -102t-145 -36q-58 0 -82 8t-50 18zM651 1383q0 50 31.5 80t83.5 30q50 0 81.5 -30t31.5 -80q0 -48 -31.5 -77.5t-81.5 -29.5 q-52 0 -83.5 29.5t-31.5 77.5zM1073 1383q0 50 31.5 80t81.5 30q52 0 83.5 -30t31.5 -80q0 -48 -31.5 -77.5t-83.5 -29.5q-50 0 -81.5 29.5t-31.5 77.5z" />
<glyph unicode="&#x4de;" horiz-adv-x="1168" d="M20 58q7 34 20.5 78t31.5 90.5t37 93.5t37 85h53l26 -288q13 -6 37.5 -12.5t54.5 -11.5t61 -7t59 -2q89 0 165.5 24t133 75t88 129.5t33.5 184.5q-2 106 -76.5 154.5t-198.5 48.5l-164 -23q0 30 4 61t19 60h67q36 0 88 3t87 8q59 20 109 56t85.5 82.5t56.5 101t23 115.5 q-2 119 -58.5 167t-194.5 48q-62 0 -105 -12.5t-69 -27.5l-163 -255h-54q2 40 4 78t6.5 75t13 77t20.5 87q84 48 188.5 67t194.5 19q83 0 159 -16.5t133.5 -53t91.5 -92t34 -133.5q0 -54 -15 -111t-53.5 -111.5t-105.5 -103.5t-171 -85v-8q42 -6 85.5 -25t79 -53.5 t57.5 -82.5t22 -110q0 -122 -45 -219t-127.5 -166t-203 -106t-270.5 -37q-119 0 -223 24.5t-168 59.5zM430 1648q0 50 34 75t84 25q52 0 86 -25t34 -75q0 -48 -34 -73t-86 -25q-50 0 -84 25t-34 73zM895 1648q0 50 33.5 75t85.5 25q50 0 84 -25t36 -75q-2 -48 -36 -73 t-84 -25q-52 0 -85.5 25t-33.5 73z" />
<glyph unicode="&#x4df;" horiz-adv-x="916" d="M-26 75q3 28 13.5 56t27.5 55t37.5 50t45.5 37l143 -198q16 -4 43 -7.5t44 -3.5q48 0 98 19t91 53.5t67 85.5t28 115q-2 83 -46 120.5t-148 54.5l-147 -38q-10 28 -9 57t9 55h149q113 36 169.5 108.5t54.5 138.5q2 63 -38 105t-130 42q-16 0 -45.5 -3.5t-50.5 -7.5 q-29 -34 -66 -88t-67 -96q-19 9 -37 29.5t-30.5 47.5t-16.5 59t4 61q19 12 50.5 27t78.5 28.5t107.5 23t139.5 9.5q58 0 110.5 -13t92 -38t62.5 -62.5t23 -87.5q0 -199 -279 -301q64 0 111 -19t77.5 -48t45 -67.5t14.5 -76.5q0 -75 -33.5 -145t-95 -122t-150.5 -84t-200 -32 q-117 0 -207 27t-140 74zM221 1383q0 50 31.5 80t83.5 30q50 0 81.5 -30t31.5 -80q0 -48 -31.5 -77.5t-81.5 -29.5q-52 0 -83.5 29.5t-31.5 77.5zM643 1383q0 50 31.5 80t81.5 30q52 0 83.5 -30t31.5 -80q0 -48 -31.5 -77.5t-83.5 -29.5q-50 0 -81.5 29.5t-31.5 77.5z" />
<glyph unicode="&#x4e0;" horiz-adv-x="1140" d="M26 56q6 34 19 77.5t31 90.5t38 94t39 87h54l25 -290q10 -6 32.5 -11.5t50.5 -10.5t58 -7t57 -2q120 0 201 35.5t131.5 93.5t71.5 129.5t23 139.5q-2 118 -82.5 173t-204.5 55l-163 -23q0 30 4.5 61t18.5 63l128 2l359 437l80 72v9l-120 -13h-401l-129 -226h-52 q2 88 10 191.5t25 179.5h880l-16 -66l-417 -484l-107 -104q106 0 179.5 -27.5t119.5 -71.5t67 -99t21 -112q0 -118 -43 -214.5t-126.5 -165.5t-203.5 -107t-275 -38q-117 0 -218 23t-165 59z" />
<glyph unicode="&#x4e1;" horiz-adv-x="919" d="M-136 -317l67 140h41q30 -30 59 -72t57 -79q18 -9 39 -13t63 -4q83 0 154.5 36t122.5 92t79 127.5t28 141.5q0 115 -62.5 181t-183.5 66l-136 -24q-2 59 21 116h100l333 434l73 90l2 8l-115 -12h-311l-124 -209h-52q-4 87 3.5 175t23.5 167h757v-64l-373 -485l-106 -106 q96 -2 163 -27t106.5 -68t57.5 -98.5t18 -120.5q0 -119 -50.5 -214t-131.5 -162.5t-187.5 -104.5t-219.5 -37q-96 0 -182 35.5t-134 90.5z" />
<glyph unicode="&#x4e2;" horiz-adv-x="1521" d="M-42 0l10 60q92 38 185 51l261 1238q-40 11 -81.5 22.5t-79.5 29.5l14 62h529l-13 -62q-35 -16 -78 -28.5t-91 -23.5l-192 -906l-55 -156l128 168l798 844l11 50q-46 11 -86 23.5t-72 28.5l14 62h528l-13 -62q-42 -16 -88 -28.5t-94 -23.5l-263 -1238q44 -8 85 -20.5 t74 -30.5l-10 -60h-528l10 60q36 14 79.5 28t91.5 23l192 904l54 157l-116 -159l-813 -856l-8 -46q46 -8 85.5 -20.5t70.5 -30.5l-10 -60h-529zM691 1646l22 108h630l-23 -108h-629z" />
<glyph unicode="&#x4e3;" horiz-adv-x="1132" d="M111 171q0 46 14.5 136t35.5 196.5t45 218t43 201.5l-128 19v52q34 13 72.5 25.5t77 23t74 18t64.5 9.5l46 -26q-34 -157 -68 -297.5t-64 -297.5q-10 -50 -21 -112t-11 -134q0 -44 24 -71.5t54 -27.5q46 0 92.5 27.5t87.5 71.5t77 97t65.5 105.5t49 97.5t30.5 71l92 470 h173l-171 -929h154v-53q-42 -33 -101 -53.5t-116 -20.5q-60 0 -86 25t-26 54q0 38 10 126.5t46 215.5h-9q-27 -58 -68 -133t-97 -142t-128 -113.5t-159 -46.5q-74 0 -124 52t-50 145zM412 1331l21 108h531l-23 -108h-529z" />
<glyph unicode="&#x4e4;" horiz-adv-x="1521" d="M-42 0l10 60q92 38 185 51l261 1238q-40 11 -81.5 22.5t-79.5 29.5l14 62h529l-13 -62q-35 -16 -78 -28.5t-91 -23.5l-192 -906l-55 -156l128 168l798 844l11 50q-46 11 -86 23.5t-72 28.5l14 62h528l-13 -62q-42 -16 -88 -28.5t-94 -23.5l-263 -1238q44 -8 85 -20.5 t74 -30.5l-10 -60h-528l10 60q36 14 79.5 28t91.5 23l192 904l54 157l-116 -159l-813 -856l-8 -46q46 -8 85.5 -20.5t70.5 -30.5l-10 -60h-529zM652 1648q0 50 34 75t84 25q52 0 86 -25t34 -75q0 -48 -34 -73t-86 -25q-50 0 -84 25t-34 73zM1117 1648q0 50 33.5 75t85.5 25 q50 0 84 -25t36 -75q-2 -48 -36 -73t-84 -25q-52 0 -85.5 25t-33.5 73z" />
<glyph unicode="&#x4e5;" horiz-adv-x="1132" d="M111 171q0 46 14.5 136t35.5 196.5t45 218t43 201.5l-128 19v52q34 13 72.5 25.5t77 23t74 18t64.5 9.5l46 -26q-34 -157 -68 -297.5t-64 -297.5q-10 -50 -21 -112t-11 -134q0 -44 24 -71.5t54 -27.5q46 0 92.5 27.5t87.5 71.5t77 97t65.5 105.5t49 97.5t30.5 71l92 470 h173l-171 -929h154v-53q-42 -33 -101 -53.5t-116 -20.5q-60 0 -86 25t-26 54q0 38 10 126.5t46 215.5h-9q-27 -58 -68 -133t-97 -142t-128 -113.5t-159 -46.5q-74 0 -124 52t-50 145zM356 1383q0 50 31.5 80t83.5 30q50 0 81.5 -30t31.5 -80q0 -48 -31.5 -77.5t-81.5 -29.5 q-52 0 -83.5 29.5t-31.5 77.5zM778 1383q0 50 31.5 80t81.5 30q52 0 83.5 -30t31.5 -80q0 -48 -31.5 -77.5t-83.5 -29.5q-50 0 -81.5 29.5t-31.5 77.5z" />
<glyph unicode="&#x4e6;" horiz-adv-x="1524" d="M138 580q0 190 57.5 355.5t166 287.5t261 193t344.5 71q153 0 257.5 -50t168 -131.5t92 -187t28.5 -217.5q0 -168 -47 -334t-145.5 -297.5t-248 -213.5t-353.5 -82q-150 0 -260 49.5t-181 132t-105.5 192t-34.5 232.5zM361 578q0 -115 30.5 -207t83.5 -156.5t125 -98.5 t158 -32q153 -2 254.5 74t162.5 196t87.5 265.5t26.5 283.5q0 106 -24 193.5t-72.5 150.5t-118 97.5t-161.5 34.5q-144 0 -248.5 -75.5t-172.5 -192.5t-99.5 -259t-31.5 -274zM613 1648q0 50 34 75t84 25q52 0 86 -25t34 -75q0 -48 -34 -73t-86 -25q-50 0 -84 25t-34 73z M1078 1648q0 50 33.5 75t85.5 25q50 0 84 -25t36 -75q-2 -48 -36 -73t-84 -25q-52 0 -85.5 25t-33.5 73z" />
<glyph unicode="&#x4e7;" horiz-adv-x="1062" d="M86 389q0 111 34.5 231t105.5 220t177.5 165t248.5 65q163 0 245.5 -100.5t82.5 -297.5q0 -138 -39.5 -264t-111 -222t-171.5 -154t-221 -58q-162 0 -256.5 104t-94.5 311zM273 343q0 -124 54.5 -201.5t146.5 -77.5q74 0 131 55.5t98 146.5t62.5 205.5t21.5 232.5 q0 123 -42.5 198.5t-134.5 77.5q-102 -2 -167 -67t-102.5 -161t-52.5 -206.5t-15 -202.5zM330 1383q0 50 31.5 80t83.5 30q50 0 81.5 -30t31.5 -80q0 -48 -31.5 -77.5t-81.5 -29.5q-52 0 -83.5 29.5t-31.5 77.5zM752 1383q0 50 31.5 80t81.5 30q52 0 83.5 -30t31.5 -80 q0 -48 -31.5 -77.5t-83.5 -29.5q-50 0 -81.5 29.5t-31.5 77.5z" />
<glyph unicode="&#x4e8;" horiz-adv-x="1524" d="M138 580q0 190 57.5 355.5t166 287.5t261 193t344.5 71q153 0 257.5 -50t168 -131.5t92 -187t28.5 -217.5q0 -168 -47 -334t-145.5 -297.5t-248 -213.5t-353.5 -82q-150 0 -260 49.5t-181 132t-105.5 192t-34.5 232.5zM361 578q0 -115 30.5 -207t83.5 -156.5t125 -97.5 t158 -33q121 0 211 50t151.5 133.5t98.5 192t53 223.5h-907q-4 -27 -4 -53v-52zM385 809h897q2 23 3.5 44.5t3.5 45.5q0 41 -4.5 79.5t-12.5 76.5q-30 148 -119.5 236t-239.5 88q-115 0 -205 -48.5t-154.5 -128.5t-106.5 -182.5t-62 -210.5z" />
<glyph unicode="&#x4e9;" horiz-adv-x="1062" d="M86 389q0 111 34.5 231t105.5 220t177.5 165t248.5 65q163 0 245.5 -100.5t82.5 -297.5q0 -138 -39.5 -264t-111 -222t-171.5 -154t-221 -58q-162 0 -256.5 104t-94.5 311zM273 343q0 -124 54.5 -201.5t146.5 -77.5q54 0 100 32t84 87t64 128.5t43 154.5h-488 q-4 -31 -4 -62.5v-60.5zM295 574h486q6 62 6 130q0 123 -42.5 198.5t-134.5 77.5q-73 -2 -127.5 -36.5t-92 -91t-60.5 -128.5t-35 -150z" />
<glyph unicode="&#x4ea;" horiz-adv-x="1524" d="M138 580q0 190 57.5 355.5t166 287.5t261 193t344.5 71q153 0 257.5 -50t168 -131.5t92 -187t28.5 -217.5q0 -168 -47 -334t-145.5 -297.5t-248 -213.5t-353.5 -82q-150 0 -260 49.5t-181 132t-105.5 192t-34.5 232.5zM361 578q0 -115 30.5 -207t83.5 -156.5t125 -97.5 t158 -33q121 0 211 50t151.5 133.5t98.5 192t53 223.5h-907q-4 -27 -4 -53v-52zM385 809h897q2 23 3.5 44.5t3.5 45.5q0 41 -4.5 79.5t-12.5 76.5q-30 148 -119.5 236t-239.5 88q-115 0 -205 -48.5t-154.5 -128.5t-106.5 -182.5t-62 -210.5zM631 1648q0 50 34 75t84 25 q52 0 86 -25t34 -75q0 -48 -34 -73t-86 -25q-50 0 -84 25t-34 73zM1096 1648q0 50 33.5 75t85.5 25q50 0 84 -25t36 -75q-2 -48 -36 -73t-84 -25q-52 0 -85.5 25t-33.5 73z" />
<glyph unicode="&#x4eb;" horiz-adv-x="1062" d="M86 389q0 111 34.5 231t105.5 220t177.5 165t248.5 65q163 0 245.5 -100.5t82.5 -297.5q0 -138 -39.5 -264t-111 -222t-171.5 -154t-221 -58q-162 0 -256.5 104t-94.5 311zM273 343q0 -124 54.5 -201.5t146.5 -77.5q54 0 100 32t84 87t64 128.5t43 154.5h-488 q-4 -31 -4 -62.5v-60.5zM295 574h486q6 62 6 130q0 123 -42.5 198.5t-134.5 77.5q-73 -2 -127.5 -36.5t-92 -91t-60.5 -128.5t-35 -150zM354 1383q0 50 31.5 80t83.5 30q50 0 81.5 -30t31.5 -80q0 -48 -31.5 -77.5t-81.5 -29.5q-52 0 -83.5 29.5t-31.5 77.5zM776 1383 q0 50 31.5 80t81.5 30q52 0 83.5 -30t31.5 -80q0 -48 -31.5 -77.5t-83.5 -29.5q-50 0 -81.5 29.5t-31.5 77.5z" />
<glyph unicode="&#x4ec;" horiz-adv-x="1298" d="M42 50q14 90 44.5 187.5t61.5 169.5h53l46 -301q29 -10 73.5 -16t99.5 -6q116 0 221 38.5t189.5 118.5t144 199.5t82.5 278.5l-620 -63q-2 42 5 82.5t28 80.5l602 -2q8 125 -19 229.5t-83.5 177.5t-139 114t-182.5 41q-52 0 -111 -11.5t-86 -28.5l-162 -255h-55 q2 28 5.5 65t8.5 79t13 87t18 86q40 24 91.5 41t105.5 27t108 14t97 4q293 0 448.5 -156.5t155.5 -439.5q0 -193 -60.5 -361.5t-174.5 -291.5t-277 -193.5t-370 -70.5q-138 0 -218.5 20t-142.5 56zM391 1648q0 50 34 75t84 25q52 0 86 -25t34 -75q0 -48 -34 -73t-86 -25 q-50 0 -84 25t-34 73zM856 1648q0 50 33.5 75t85.5 25q50 0 84 -25t36 -75q-2 -48 -36 -73t-84 -25q-52 0 -85.5 25t-33.5 73z" />
<glyph unicode="&#x4ed;" horiz-adv-x="971" d="M-26 75q3 28 13.5 56t27.5 55t37.5 50t45.5 37l143 -198q16 -4 38 -7.5t36 -3.5q58 0 118 30.5t110.5 87t88.5 138t58 184.5l-395 -51q-10 27 -10 67t10 66h403q2 17 3 37.5t1 38.5q0 146 -60 232t-166 86q-16 0 -44.5 -3.5t-49.5 -7.5q-29 -34 -67 -88t-68 -96 q-19 9 -37 29.5t-30.5 47.5t-16.5 59t4 61q40 26 129 57t232 31q166 0 268.5 -98.5t102.5 -269.5q0 -161 -45 -295t-123.5 -229.5t-184 -149.5t-225.5 -54q-117 0 -206 27t-141 74zM246 1383q0 50 31.5 80t83.5 30q50 0 81.5 -30t31.5 -80q0 -48 -31.5 -77.5t-81.5 -29.5 q-52 0 -83.5 29.5t-31.5 77.5zM668 1383q0 50 31.5 80t81.5 30q52 0 83.5 -30t31.5 -80q0 -48 -31.5 -77.5t-83.5 -29.5q-50 0 -81.5 29.5t-31.5 77.5z" />
<glyph unicode="&#x4ee;" horiz-adv-x="1357" d="M194 1401l13 62h549l-12 -62q-36 -16 -83 -28.5t-99 -23.5l221 -691l17 -134h4l71 138l397 687q-96 19 -167 52l13 62h465l-12 -62q-30 -14 -69 -27.5t-92 -24.5l-618 -990q-130 -199 -239.5 -296t-229.5 -73q-10 18 -17 47.5t-13 61t-8.5 62.5t2.5 56l60 50l219 -56 q10 8 25 25t29.5 38t28 42t21.5 37l-329 996q-36 11 -73.5 22.5t-73.5 29.5zM628 1646l22 108h630l-23 -108h-629z" />
<glyph unicode="&#x4ef;" horiz-adv-x="949" d="M-32 -403q-2 24 5 53t20 58t35 54t50 39l169 -88q14 11 37 31t48 54.5t50 83.5t48 118l-246 923l-134 17v52q10 9 34 21.5t55.5 25t65 22t62.5 9.5q44 0 64 -22t30 -58l173 -731l7 -125h5l48 123q27 58 55 128t55 141.5t50 140t40 127.5q0 23 -5.5 60t-11.5 75 t-12.5 70.5t-10.5 44.5q29 13 63 19.5t64 6.5q63 0 111 -26q-64 -259 -176 -518t-248 -526q-113 -219 -225.5 -328t-254.5 -109q-32 0 -60 8.5t-60 25.5zM336 1331l21 108h531l-23 -108h-529z" />
<glyph unicode="&#x4f0;" horiz-adv-x="1357" d="M194 1401l13 62h549l-12 -62q-36 -16 -83 -28.5t-99 -23.5l221 -691l17 -134h4l71 138l397 687q-96 19 -167 52l13 62h465l-12 -62q-30 -14 -69 -27.5t-92 -24.5l-618 -990q-130 -199 -239.5 -296t-229.5 -73q-10 18 -17 47.5t-13 61t-8.5 62.5t2.5 56l60 50l219 -56 q10 8 25 25t29.5 38t28 42t21.5 37l-329 996q-36 11 -73.5 22.5t-73.5 29.5zM588 1648q0 50 34 75t84 25q52 0 86 -25t34 -75q0 -48 -34 -73t-86 -25q-50 0 -84 25t-34 73zM1053 1648q0 50 33.5 75t85.5 25q50 0 84 -25t36 -75q-2 -48 -36 -73t-84 -25q-52 0 -85.5 25 t-33.5 73z" />
<glyph unicode="&#x4f1;" horiz-adv-x="949" d="M-32 -403q-2 24 5 53t20 58t35 54t50 39l169 -88q14 11 37 31t48 54.5t50 83.5t48 118l-246 923l-134 17v52q10 9 34 21.5t55.5 25t65 22t62.5 9.5q44 0 64 -22t30 -58l173 -731l7 -125h5l48 123q27 58 55 128t55 141.5t50 140t40 127.5q0 23 -5.5 60t-11.5 75 t-12.5 70.5t-10.5 44.5q29 13 63 19.5t64 6.5q63 0 111 -26q-64 -259 -176 -518t-248 -526q-113 -219 -225.5 -328t-254.5 -109q-32 0 -60 8.5t-60 25.5zM270 1383q0 50 31.5 80t83.5 30q50 0 81.5 -30t31.5 -80q0 -48 -31.5 -77.5t-81.5 -29.5q-52 0 -83.5 29.5t-31.5 77.5 zM692 1383q0 50 31.5 80t81.5 30q52 0 83.5 -30t31.5 -80q0 -48 -31.5 -77.5t-83.5 -29.5q-50 0 -81.5 29.5t-31.5 77.5z" />
<glyph unicode="&#x4f2;" horiz-adv-x="1357" d="M194 1401l13 62h549l-12 -62q-36 -16 -83 -28.5t-99 -23.5l221 -691l17 -134h4l71 138l397 687q-96 19 -167 52l13 62h465l-12 -62q-30 -14 -69 -27.5t-92 -24.5l-618 -990q-130 -199 -239.5 -296t-229.5 -73q-10 18 -17 47.5t-13 61t-8.5 62.5t2.5 56l60 50l219 -56 q10 8 25 25t29.5 38t28 42t21.5 37l-329 996q-36 11 -73.5 22.5t-73.5 29.5zM699 1621l146 234q13 2 38 -2.5t52.5 -10.5t49 -16t28.5 -22v-28l-274 -193zM969 1617l239 238q15 2 40.5 -2.5t52.5 -12.5t50 -18t33 -24l-2 -20l-369 -199z" />
<glyph unicode="&#x4f3;" horiz-adv-x="949" d="M-32 -403q-2 24 5 53t20 58t35 54t50 39l169 -88q14 11 37 31t48 54.5t50 83.5t48 118l-246 923l-134 17v52q10 9 34 21.5t55.5 25t65 22t62.5 9.5q44 0 64 -22t30 -58l173 -731l7 -125h5l48 123q27 58 55 128t55 141.5t50 140t40 127.5q0 23 -5.5 60t-11.5 75 t-12.5 70.5t-10.5 44.5q29 13 63 19.5t64 6.5q63 0 111 -26q-64 -259 -176 -518t-248 -526q-113 -219 -225.5 -328t-254.5 -109q-32 0 -60 8.5t-60 25.5zM395 1282l161 322q13 2 40 -1t55 -9.5t51.5 -15.5t29.5 -17v-32l-289 -279zM640 1287l277 317q15 2 41 -1t52.5 -11.5 t50.5 -19.5t34 -26v-27l-416 -269z" />
<glyph unicode="&#x4f4;" horiz-adv-x="1309" d="M213 1401l12 62h489l-14 -62q-30 -14 -65 -27.5t-81 -24.5l-74 -342q-16 -82 -17 -145.5t19 -107.5t65 -68t117 -24q88 0 169.5 25t152.5 61l128 601q-76 19 -139 52l13 62h487l-12 -62q-32 -16 -69.5 -28.5t-79.5 -23.5l-263 -1238q37 -8 69.5 -20.5t55.5 -30.5l-10 -60 h-531l11 60q54 24 105 35t100 16l114 537q-64 -32 -165.5 -63t-227.5 -31q-88 0 -154.5 25t-106.5 79t-49 137.5t15 203.5l76 350q-36 9 -73 21.5t-67 30.5zM520 1648q0 50 34 75t84 25q52 0 86 -25t34 -75q0 -48 -34 -73t-86 -25q-50 0 -84 25t-34 73zM985 1648 q0 50 33.5 75t85.5 25q50 0 84 -25t36 -75q-2 -48 -36 -73t-84 -25q-52 0 -85.5 25t-33.5 73z" />
<glyph unicode="&#x4f5;" horiz-adv-x="1029" d="M60 942v52q34 13 72.5 25.5t77.5 23t74 18t65 9.5l46 -26q-42 -177 -73 -297.5t-31 -200.5q0 -44 25 -72.5t73 -28.5q33 0 73 13.5t79 36.5t74 54t60 67l92 428h173l-196 -927h153v-55q-42 -33 -101 -53.5t-117 -20.5q-60 0 -86.5 27t-26.5 63q0 25 3 47.5t9 51.5l84 353 h-8q-34 -43 -77 -82t-90.5 -68t-99.5 -47t-105 -18q-72 0 -121.5 45t-49.5 135q0 37 5 76t14.5 88t24 112.5t33.5 151.5zM292 1383q0 50 31.5 80t83.5 30q50 0 81.5 -30t31.5 -80q0 -48 -31.5 -77.5t-81.5 -29.5q-52 0 -83.5 29.5t-31.5 77.5zM714 1383q0 50 31.5 80 t81.5 30q52 0 83.5 -30t31.5 -80q0 -48 -31.5 -77.5t-83.5 -29.5q-50 0 -81.5 29.5t-31.5 77.5z" />
<glyph unicode="&#x4f6;" horiz-adv-x="1037" d="M-42 0l10 60q94 36 185 51l261 1238q-42 9 -81.5 22.5t-79.5 29.5l14 62h978q-8 -42 -20.5 -96.5t-28.5 -113.5t-33 -114t-31 -99h-54l-42 314h-422l-261 -1246h209q-8 -44 -24 -99t-35 -112.5t-37.5 -112.5t-35.5 -99h-54l-13 315h-405z" />
<glyph unicode="&#x4f7;" horiz-adv-x="813" d="M34 197q0 71 39.5 129.5t99 109.5t128 95.5t128.5 88.5t99.5 90t39.5 97q0 54 -22 93.5t-95 39.5q-74 0 -139 -38.5t-105 -78.5l-32 36q17 31 50.5 67.5t80.5 69t102.5 53.5t115.5 21q122 0 181.5 -59.5t59.5 -137.5q0 -77 -40 -137.5t-99.5 -112t-128.5 -96.5 t-128.5 -89.5t-99 -93.5t-39.5 -106q0 -54 35.5 -94t123.5 -40q77 0 145 34.5t120 76.5l38 -50q-52 -56 -71 -107.5t-21 -98.5t4 -88.5t4 -79.5q-2 -56 -24 -93t-56.5 -61t-77.5 -36t-87 -21l-14 42q38 10 59.5 31.5t32 45.5t12.5 50t2 46q0 73 21 137t82 118l-6 6 q-12 -10 -42 -24t-67.5 -26t-81.5 -22t-88 -10q-48 0 -91.5 17t-77 46.5t-52 70t-18.5 89.5z" />
<glyph unicode="&#x4f8;" horiz-adv-x="1742" d="M-42 0l10 60q90 38 185 51l261 1238q-42 9 -81.5 22.5t-79.5 29.5l14 62h556l-14 -62q-42 -16 -91.5 -30.5t-103.5 -21.5l-100 -478q40 8 95 11t97 3q209 0 318.5 -89.5t109.5 -239.5q0 -144 -49 -249.5t-135.5 -176t-206 -103.5t-259.5 -33q-10 0 -39 1t-67.5 2t-79.5 2 t-73 1h-267zM353 113q8 -4 28 -5.5t42 -3.5t41.5 -2h32.5q191 0 303.5 115.5t110.5 342.5q2 44 -11 83.5t-43 69t-82 47t-133 17.5q-50 0 -86 -3t-65 -9zM767 1648q0 50 34 75t84 25q52 0 86 -25t34 -75q0 -48 -34 -73t-86 -25q-50 0 -84 25t-34 73zM1070 0l10 60 q44 21 87 31.5t89 19.5l261 1238q-38 11 -74.5 21.5t-78.5 30.5l13 62h530l-12 -62q-75 -35 -178 -52l-261 -1238q47 -8 85 -20.5t68 -30.5l-11 -60h-528zM1232 1648q0 50 33.5 75t85.5 25q50 0 84 -25t36 -75q-2 -48 -36 -73t-84 -25q-52 0 -85.5 25t-33.5 73z" />
<glyph unicode="&#x4f9;" horiz-adv-x="1403" d="M111 205q0 67 17.5 153.5t46 181.5t61.5 193t65 190l-126 19v52q32 15 73 27.5t82.5 23t82 17t71.5 8.5l46 -26q-50 -131 -96.5 -254.5t-94.5 -273.5h8q56 69 127.5 118t171.5 49q31 0 65.5 -10.5t62.5 -34.5t46.5 -62.5t18.5 -95.5q0 -93 -39.5 -183t-108.5 -162.5 t-160.5 -116.5t-193.5 -44q-46 0 -87 14t-72.5 42t-49 72t-17.5 103zM291 219q0 -73 25 -114t87 -41q58 0 105.5 34t80.5 85t51 114.5t20 126.5q-2 38 -14.5 62t-31 39.5t-40.5 22t-42 6.5q-73 0 -121.5 -39t-82.5 -87q-18 -56 -27.5 -105.5t-9.5 -103.5zM541 1383 q0 50 31.5 80t83.5 30q50 0 81.5 -30t31.5 -80q0 -48 -31.5 -77.5t-81.5 -29.5q-52 0 -83.5 29.5t-31.5 77.5zM929 78q0 41 6.5 81t17.5 88l175 797h178l-199 -927h153v-55q-42 -33 -101.5 -53.5t-114.5 -20.5q-60 0 -87.5 27t-27.5 63zM963 1383q0 50 31.5 80t81.5 30 q52 0 83.5 -30t31.5 -80q0 -48 -31.5 -77.5t-83.5 -29.5q-50 0 -81.5 29.5t-31.5 77.5z" />
<glyph unicode="&#x4fc;" horiz-adv-x="1380" d="M-80 0l11 60q43 21 85 31.5t84 19.5l548 624l-261 614q-40 11 -78 23.5t-77 28.5l15 62h551l-13 -62q-64 -25 -169 -52l188 -470l388 470q-39 11 -79.5 23.5t-82.5 28.5l14 62h481l-12 -62q-42 -16 -84 -28.5t-86 -23.5l-495 -566q87 -187 144 -305.5t89.5 -199.5 t44.5 -143t12 -135q0 -92 -40.5 -172.5t-107.5 -141t-152.5 -95t-175.5 -32.5l-2 56q125 42 201.5 137t76.5 228q0 46 -6.5 90.5t-31.5 113.5t-74 175.5t-134 278.5l-437 -530q42 -6 82.5 -17t73.5 -31l-10 -60h-481z" />
<glyph unicode="&#x4fd;" horiz-adv-x="947" d="M-50 14q18 62 77 140t129.5 151t137.5 132.5t101 88.5l-142 385l-134 16v53q13 8 37 21.5t54.5 26t61.5 21t61 8.5q45 0 66 -24t33 -56l102 -363q48 48 106 108.5t87 114.5q2 15 2 42.5t-2 57.5t-4 56t-4 39q36 12 70 19.5t70 7.5q67 0 116 -27q-18 -62 -73.5 -136.5 t-120.5 -146.5t-126 -132.5t-91 -96.5q20 -52 52 -129.5t62 -163t52 -169.5t22 -148q0 -85 -34.5 -148t-87 -103.5t-116 -62.5t-121.5 -28l-15 45q90 26 138 99t48 169q0 60 -13.5 131.5t-34.5 145.5t-46.5 146.5t-49.5 140.5q-23 -26 -53 -55t-60 -60t-55 -62.5t-39 -58.5 q-4 -14 -5 -41.5t-2 -57.5t-1 -56t2 -40q-36 -14 -72.5 -20t-70.5 -6q-69 0 -114 26z" />
<glyph unicode="&#x2000;" horiz-adv-x="933" />
<glyph unicode="&#x2001;" horiz-adv-x="1866" />
<glyph unicode="&#x2002;" horiz-adv-x="933" />
<glyph unicode="&#x2003;" horiz-adv-x="1866" />
<glyph unicode="&#x2004;" horiz-adv-x="622" />
<glyph unicode="&#x2005;" horiz-adv-x="466" />
<glyph unicode="&#x2006;" horiz-adv-x="311" />
<glyph unicode="&#x2007;" horiz-adv-x="311" />
<glyph unicode="&#x2008;" horiz-adv-x="233" />
<glyph unicode="&#x2009;" horiz-adv-x="373" />
<glyph unicode="&#x200a;" horiz-adv-x="103" />
<glyph unicode="&#x2010;" horiz-adv-x="887" d="M148 522l29 132h590l-27 -132h-592z" />
<glyph unicode="&#x2011;" horiz-adv-x="887" d="M148 522l29 132h590l-27 -132h-592z" />
<glyph unicode="&#x2012;" horiz-adv-x="887" d="M148 522l29 132h590l-27 -132h-592z" />
<glyph unicode="&#x2013;" horiz-adv-x="1286" d="M136 522l31 132h1007l-32 -132h-1006z" />
<glyph unicode="&#x2014;" horiz-adv-x="1829" d="M136 522l31 132h1550l-31 -132h-1550z" />
<glyph unicode="&#x2018;" horiz-adv-x="588" d="M293 1343q0 68 30 132t79 117.5t111.5 92.5t128.5 57l26 -62q-73 -28 -128.5 -92.5t-65.5 -142.5q17 -20 53.5 -38t58.5 -28q3 -34 -13.5 -65.5t-41.5 -56.5t-53.5 -40t-47.5 -15q-58 6 -97.5 40t-39.5 101z" />
<glyph unicode="&#x2019;" horiz-adv-x="588" d="M251 981q75 28 129.5 92.5t64.5 142.5q-17 20 -53.5 38t-58.5 28q-2 34 14.5 65.5t41.5 56.5t53 40.5t47 15.5q60 -6 99 -40.5t39 -101.5t-30.5 -131.5t-79.5 -118t-111.5 -92.5t-124.5 -57z" />
<glyph unicode="&#x201a;" horiz-adv-x="609" d="M0 -241q75 28 129.5 92.5t64.5 142.5q-17 20 -53.5 38t-58.5 28q-2 34 14.5 65.5t41.5 56.5t53 40.5t47 15.5q60 -6 99 -40.5t39 -101.5t-30.5 -131.5t-79.5 -118t-111.5 -92.5t-124.5 -57z" />
<glyph unicode="&#x201c;" horiz-adv-x="971" d="M295 1343q0 68 30 132t79 117.5t111.5 92.5t128.5 57l26 -62q-73 -28 -128.5 -92.5t-65.5 -142.5q17 -20 53.5 -38t58.5 -28q3 -34 -13.5 -65.5t-41.5 -56.5t-53.5 -40t-47.5 -15q-58 6 -97.5 40t-39.5 101zM675 1343q0 68 30 132t79 117.5t111.5 92.5t128.5 57l26 -62 q-73 -28 -128.5 -92.5t-65.5 -142.5q17 -20 53.5 -38t58.5 -28q3 -34 -13.5 -65.5t-41.5 -56.5t-53.5 -40t-47.5 -15q-58 6 -97.5 40t-39.5 101z" />
<glyph unicode="&#x201d;" horiz-adv-x="971" d="M251 981q75 28 129.5 92.5t64.5 142.5q-17 20 -53.5 38t-58.5 28q-2 34 14.5 65.5t41.5 56.5t53 40.5t47 15.5q60 -6 99 -40.5t39 -101.5t-30.5 -131.5t-79.5 -118t-111.5 -92.5t-124.5 -57zM630 981q75 28 129.5 92.5t64.5 142.5q-17 20 -53.5 38t-58.5 28 q-2 34 14.5 65.5t41.5 56.5t53 40.5t47 15.5q60 -6 99 -40.5t39 -101.5t-30.5 -131.5t-79.5 -118t-111.5 -92.5t-124.5 -57z" />
<glyph unicode="&#x201e;" horiz-adv-x="989" d="M0 -241q75 28 129.5 92.5t64.5 142.5q-17 20 -53.5 38t-58.5 28q-2 34 14.5 65.5t41.5 56.5t53 40.5t47 15.5q60 -6 99 -40.5t39 -101.5t-30.5 -131.5t-79.5 -118t-111.5 -92.5t-124.5 -57zM380 -241q75 28 129.5 92.5t64.5 142.5q-17 20 -53.5 38t-58.5 28 q-2 34 14.5 65.5t41.5 56.5t53 40.5t47 15.5q60 -6 99 -40.5t39 -101.5t-30.5 -131.5t-79.5 -118t-111.5 -92.5t-124.5 -57z" />
<glyph unicode="&#x2020;" horiz-adv-x="1018" d="M146 977q0 28 3.5 52t13.5 45h27l364 -69l-76 407v29q50 24 114 24q29 0 58 -7t50 -17v-29l-76 -407l364 69h27q8 -18 12.5 -47.5t4.5 -59.5t-3 -55t-14 -43h-31l-360 69l68 -255v-41l-80 -1060h-46l-79 1062v39l67 255l-364 -69h-27q-8 18 -12.5 48t-4.5 60z" />
<glyph unicode="&#x2021;" horiz-adv-x="1018" d="M146 84q0 67 17 106h27l364 -69l-67 391v40l67 386l-364 -69h-27q-8 18 -12.5 48t-4.5 58q0 30 3.5 54t13.5 45h27l364 -69l-76 407v29q50 24 114 24q29 0 58 -7t50 -17v-29l-76 -407l364 69h27q8 -18 12.5 -47.5t4.5 -59.5q0 -28 -3 -54t-14 -44h-31l-360 69l68 -386 v-42l-68 -389l360 69h31q10 -19 13.5 -44t3.5 -52q0 -30 -4 -59t-13 -47h-27l-364 68l76 -409v-27q-21 -11 -50.5 -17t-57.5 -6q-63 0 -114 23v27l76 409l-364 -68h-27q-10 20 -13.5 44t-3.5 52z" />
<glyph unicode="&#x2022;" horiz-adv-x="931" d="M211 650q0 64 23 118.5t63 93.5t94 61t115 22q60 0 114.5 -20t94 -59t62.5 -93t23 -123q0 -70 -23 -124t-62.5 -92.5t-94 -58.5t-114.5 -20t-114.5 20t-94.5 58.5t-63 92.5t-23 124z" />
<glyph unicode="&#x2026;" horiz-adv-x="1829" d="M60 119q0 63 40 100.5t103 37.5q64 0 104 -37.5t40 -100.5q0 -60 -40 -97.5t-104 -37.5q-62 0 -102.5 37.5t-40.5 97.5zM690 119q0 63 40 100.5t103 37.5q64 0 104 -37.5t40 -100.5q0 -60 -40 -97.5t-104 -37.5q-62 0 -102.5 37.5t-40.5 97.5zM1324 119q0 63 40 100.5 t103 37.5q64 0 104 -37.5t40 -100.5q0 -60 -40 -97.5t-104 -37.5q-62 0 -102.5 37.5t-40.5 97.5z" />
<glyph unicode="&#x202f;" horiz-adv-x="373" />
<glyph unicode="&#x2030;" horiz-adv-x="2472" d="M88 52l1387 1431l73 -64l-1389 -1433zM132 1044q0 96 37.5 178t100 140.5t144 91.5t168.5 33q144 0 221.5 -75t77.5 -194q0 -108 -40.5 -190.5t-104.5 -138.5t-144 -84t-160 -28q-62 0 -117.5 20t-96 55t-63.5 84.5t-23 107.5zM305 1042q0 -37 7 -70.5t25 -60t45 -41.5 t65 -15q46 0 93 23t84.5 71t60.5 120.5t23 173.5q0 32 -7 61t-24 53t-44 37.5t-69 13.5q-46 0 -92 -28t-83.5 -76t-60.5 -116t-23 -146zM740 244q0 96 37.5 178t100 140.5t144 91.5t168.5 33q144 0 221.5 -75t77.5 -194q0 -108 -40.5 -190.5t-104.5 -138.5t-144 -84 t-160 -28q-62 0 -117.5 20t-96 55t-63.5 84.5t-23 107.5zM913 242q0 -37 7 -70.5t25 -60t45 -41.5t65 -15q46 0 93 23t84.5 71t60.5 120.5t23 173.5q0 32 -7 61t-24 53t-44 37.5t-69 13.5q-46 0 -92 -28t-83.5 -76t-60.5 -116t-23 -146zM1565 244q0 96 37.5 178t100 140.5 t144 91.5t168.5 33q144 0 221.5 -75t77.5 -194q0 -108 -40.5 -190.5t-104.5 -138.5t-144 -84t-160 -28q-62 0 -117.5 20t-96 55t-63.5 84.5t-23 107.5zM1738 242q0 -37 7 -70.5t25 -60t45 -41.5t65 -15q46 0 93 23t84.5 71t60.5 120.5t23 173.5q0 32 -7 61t-24 53t-44 37.5 t-69 13.5q-46 0 -92 -28t-83.5 -76t-60.5 -116t-23 -146z" />
<glyph unicode="&#x2039;" horiz-adv-x="563" d="M96 541l450 428l40 -40l-299 -390l150 -378l-59 -42z" />
<glyph unicode="&#x203a;" horiz-adv-x="563" d="M58 161l316 401l-142 367l61 40l269 -426l-464 -422z" />
<glyph unicode="&#x2044;" horiz-adv-x="661" d="M-399 52l1387 1431l73 -64l-1389 -1433z" />
<glyph unicode="&#x205f;" horiz-adv-x="466" />
<glyph unicode="&#x20ac;" d="M-102 539l56 117h159q4 36 8 72.5t13 71.5h-182l58 117h151q40 132 109 237.5t160.5 179.5t203.5 113.5t241 39.5q138 0 230 -19t157 -51q-6 -34 -18 -79t-27 -95.5t-32 -98.5t-32 -87h-54l-44 301q-26 10 -77 15.5t-103 5.5q-169 0 -303.5 -115t-199.5 -347h618 l-59 -117h-584l-8 -72t-9 -72h533l-59 -117h-476q0 -132 30.5 -218.5t81.5 -139.5t116.5 -75t135.5 -22q71 0 116 12t65 27l155 257h54q-2 -58 -13.5 -147t-32.5 -173q-81 -48 -185.5 -67t-192.5 -19q-165 0 -272 50.5t-168 131t-85.5 181t-24.5 202.5h-210z" />
<glyph unicode="&#x2122;" horiz-adv-x="2055" d="M253 1463h739q-2 -56 -9.5 -133.5t-19.5 -145.5h-52l-69 201h-130v-620q36 -10 63 -19t42 -19v-48h-393v48q26 15 54 24t54 14v620h-131l-68 -201h-51q-13 68 -20 144t-9 135zM1049 679v48q47 28 102 38l27 595q-34 12 -58 25.5t-42 26.5v51h341l148 -433l29 -111h6 l32 113l156 431h341v-51q-21 -11 -45.5 -21t-56.5 -16l30 -610q52 -10 103 -38v-48h-370v48q16 10 37.5 18.5t56.5 19.5l-31 603h-13l-244 -689h-73l-243 689h-12l-23 -603q57 -16 94 -38v-48h-292z" />
<glyph unicode="&#x2202;" horiz-adv-x="1062" d="M106 387q0 113 37 231.5t108.5 215.5t177 160t246.5 63q96 0 144 -33q0 64 -10.5 145t-42 151.5t-87 117.5t-142.5 47q-55 0 -100.5 -23t-93.5 -48l-30 37q60 48 137.5 86t171.5 38q182 0 279.5 -156.5t97.5 -478.5q0 -217 -45 -396t-122.5 -305t-180.5 -195.5 t-221 -69.5q-155 0 -239.5 104t-84.5 309zM295 345q0 -126 43.5 -202t127.5 -79q70 2 133 61t112 168.5t79.5 269.5t28.5 360q-44 26 -79.5 34t-75.5 10q-115 -2 -187 -65t-113 -155.5t-55 -201t-14 -200.5z" />
<glyph unicode="&#x220f;" horiz-adv-x="1670" d="M84 -357q31 16 73 29t98 21v1656q-42 9 -86 22.5t-85 29.5v62h1503v-62q-40 -20 -83 -31.5t-87 -20.5v-1656q83 -10 170 -50v-61h-528v61q46 30 157 50v1661h-761v-1661q82 -16 157 -50v-61h-528v61z" />
<glyph unicode="&#x2211;" horiz-adv-x="1319" d="M73 1377v86h1135q0 -42 -2 -93.5t-4 -105.5t-6 -107.5t-10 -95.5h-52l-110 293h-669l542 -719l-636 -865h792l119 260h52q6 -42 9 -103t6.5 -123.5t4.5 -122t3 -101.5h-1165v135l616 837z" />
<glyph unicode="&#x221a;" horiz-adv-x="1120" d="M60 992v52h303l229 -645q16 -48 22 -79t12 -79q10 46 20 86t20 76l464 1448h489v-109h-415l-578 -1768h-56l-371 966q-74 13 -139 52z" />
<glyph unicode="&#x221e;" horiz-adv-x="1471" d="M100 677q0 92 27.5 160t72.5 112.5t103 66.5t121 22q60 0 107 -14.5t87 -43.5t74.5 -76.5t70.5 -109.5q20 50 47 94.5t64 78.5t84 52.5t110 18.5q62 0 117.5 -20.5t97 -63.5t66 -108t24.5 -154q0 -90 -27.5 -158t-72.5 -114t-103 -69t-123 -23q-116 0 -193 58.5 t-152 189.5q-24 -48 -50 -92.5t-60 -79.5t-79 -55.5t-106 -20.5q-62 0 -117.5 20.5t-97.5 62.5t-67 107.5t-25 158.5zM194 694q0 -54 18 -93t49.5 -66t73 -40t87.5 -13q92 0 145 41t95 115q-76 129 -134 187t-139 58q-84 0 -139.5 -51t-55.5 -138zM800 733q39 -60 71 -107.5 t62 -78.5t63.5 -48t75.5 -17q40 0 77 14t66.5 38t47 57t17.5 75q0 58 -18.5 99.5t-50 67.5t-72 38t-86.5 12q-90 0 -149.5 -38t-103.5 -112z" />
<glyph unicode="&#x222b;" horiz-adv-x="795" d="M44 -297q6 70 17.5 130.5t28.5 108.5h52l92 -180q52 0 81.5 12.5t44 49t18.5 103.5t4 173l-43 1036q0 130 25 214.5t70.5 133.5t107.5 68t135 19q15 0 40 -1t51 -4t51 -8.5t44 -11.5q-6 -69 -17 -129.5t-27 -108.5h-52l-92 179q-44 0 -75.5 -12t-49.5 -49t-23 -103.5 t-1 -173.5l44 -1036q0 -129 -25 -214t-71 -134.5t-108.5 -67.5t-133.5 -18q-17 0 -41 1t-51 4t-52.5 8t-43.5 11z" />
<glyph unicode="&#x2248;" d="M118 505q75 113 144 156t132 43q52 0 102 -22t98 -49t97 -49t102 -22q38 0 78 15.5t82 55.5l28 -44q-61 -88 -120.5 -124t-115.5 -36q-54 0 -105.5 22t-101.5 49t-100.5 48.5t-100.5 21.5q-46 0 -93 -25t-95 -90zM118 839q75 113 144 156t132 43q52 0 102 -22t98 -49 t97 -49t102 -22q38 0 78 15.5t82 55.5l28 -44q-61 -88 -120.5 -124t-115.5 -36q-54 0 -105.5 22t-101.5 49t-100.5 48.5t-100.5 21.5q-46 0 -93 -25t-95 -90z" />
<glyph unicode="&#x2260;" d="M78 495v111h348l100 225h-448v111h496l272 608l87 -37l-252 -571h336v-111h-387l-100 -225h487v-111h-535l-311 -704l-85 40l292 664h-300z" />
<glyph unicode="&#x2264;" d="M92 885v66l805 490l52 -92l-523 -315l-179 -83l177 -66l553 -325l-82 -136zM98 568l55 96l812 -472l-54 -96z" />
<glyph unicode="&#x2265;" d="M119 190l802 489l59 -97l-803 -488zM119 1306l82 135l802 -461v-65l-804 -491l-51 92l522 315l181 84l-179 65z" />
<glyph unicode="&#x25ca;" horiz-adv-x="1062" d="M73 714l431 773h50l436 -762l-436 -751h-50zM234 737l246 -442l61 -142h2l59 146l231 405l-247 442l-58 143h-4l-58 -147z" />
<glyph unicode="&#x25fc;" horiz-adv-x="1054" d="M0 0v1055h1055v-1055h-1055z" />
</font>
</defs>
</svg>
